<?xml version="1.0" encoding="UTF-8" standalone="no"?>
<!-- Created with Inkscape (http://www.inkscape.org/) -->

<svg
   xmlns:dc="http://purl.org/dc/elements/1.1/"
   xmlns:cc="http://creativecommons.org/ns#"
   xmlns:rdf="http://www.w3.org/1999/02/22-rdf-syntax-ns#"
   xmlns:svg="http://www.w3.org/2000/svg"
   xmlns="http://www.w3.org/2000/svg"
   xmlns:sodipodi="http://sodipodi.sourceforge.net/DTD/sodipodi-0.dtd"
   xmlns:inkscape="http://www.inkscape.org/namespaces/inkscape"
   width="555.39246mm"
   height="262.10718mm"
   viewBox="0 0 555.39246 262.10718"
   version="1.1"
   id="svg18899"
   inkscape:version="0.92.5 (2060ec1f9f, 2020-04-08)"
   sodipodi:docname="approaches.svg">
  <defs
     id="defs18893" />
  <sodipodi:namedview
     id="base"
     pagecolor="#ffffff"
     bordercolor="#666666"
     borderopacity="1.0"
     inkscape:pageopacity="0.0"
     inkscape:pageshadow="2"
     inkscape:zoom="0.35"
     inkscape:cx="696.57685"
     inkscape:cy="486.18394"
     inkscape:document-units="mm"
     inkscape:current-layer="g19750"
     showgrid="false"
     fit-margin-top="0"
     fit-margin-left="0"
     fit-margin-right="0"
     fit-margin-bottom="0"
     inkscape:window-width="1918"
     inkscape:window-height="1057"
     inkscape:window-x="1920"
     inkscape:window-y="0"
     inkscape:window-maximized="0" />
  <metadata
     id="metadata18896">
    <rdf:RDF>
      <cc:Work
         rdf:about="">
        <dc:format>image/svg+xml</dc:format>
        <dc:type
           rdf:resource="http://purl.org/dc/dcmitype/StillImage" />
        <dc:title></dc:title>
      </cc:Work>
    </rdf:RDF>
  </metadata>
  <g
     inkscape:label="Layer 1"
     inkscape:groupmode="layer"
     id="layer1"
     transform="translate(78.316621,-15.362322)">
    <g
       id="g19715"
       transform="translate(58.964286)">
      <path
         id="path18049"
         d="m -98.375959,15.896586 c -1.340557,0.282222 -4.198061,0.917222 -6.350001,1.411111 -3.59833,0.811389 -8.67833,1.799166 -16.05139,3.139722 -5.04472,0.9525 -5.715,1.164166 -5.57389,2.010833 0.21167,1.516945 0.91723,1.516945 8.07861,0.141111 3.77473,-0.740833 10.40695,-2.116666 14.74612,-3.069166 4.409717,-0.9525 8.784161,-1.728611 9.913051,-1.728611 2.2225,0 2.786943,-0.493889 2.116666,-1.799167 -0.3175,-0.529167 -0.740833,-0.670278 -2.398889,-0.635 -1.093611,0 -3.104444,0.246944 -4.480277,0.529167 z"
         inkscape:connector-curvature="0"
         style="stroke-width:0.03527778" />
      <path
         id="path18051"
         d="m -111.53457,22.458252 c -0.38806,1.093611 0.10583,11.88861 0.84667,18.803056 0.38805,3.316111 0.635,8.607777 0.635,12.770554 0.0353,7.373057 0.17639,8.07861 1.48166,7.79639 0.635,-0.105833 0.67028,-0.599723 0.77611,-6.103057 0.0706,-5.22111 -0.10583,-8.748887 -0.84666,-16.227776 -0.10584,-0.987777 -0.28222,-5.185834 -0.42334,-9.348611 -0.14111,-4.162778 -0.38805,-7.796389 -0.52916,-8.043334 -0.45861,-0.705555 -1.65806,-0.493889 -1.94028,0.352778 z"
         inkscape:connector-curvature="0"
         style="stroke-width:0.03527778" />
      <path
         id="path18053"
         d="m 75.931531,37.874642 c -2.75166,8.501943 -3.73944,16.47472 -2.54,20.531664 0.74084,2.610556 3.175,4.974166 5.96195,5.785556 2.0814,0.599723 3.13973,0.49389 5.29167,-0.599723 2.25777,-1.128887 1.7286,-1.5875 -1.7639,-1.55222 -4.33917,0.03528 -5.96194,-0.9525 -7.54944,-4.515557 -0.635,-1.481667 -0.70555,-2.116667 -0.52916,-4.233333 0.45861,-4.691944 1.34055,-8.854721 2.89277,-13.511387 0.84666,-2.54 1.44639,-4.903613 1.34056,-5.185834 -0.10583,-0.3175 -0.59973,-0.564446 -1.05833,-0.564446 -0.74084,0 -0.9525,0.388057 -2.04612,3.84528 z"
         inkscape:connector-curvature="0"
         style="stroke-width:0.03527778" />
      <path
         id="path18055"
         d="m 272.39348,38.686029 c -0.635,2.046113 -0.91723,3.421946 -1.41113,6.632223 -0.74083,4.868333 -0.74083,4.868333 -2.2225,5.503333 -0.70554,0.282223 -1.37583,0.705557 -1.51693,0.917223 -0.42334,0.670277 0.0706,1.340554 0.91723,1.340554 1.19943,0 1.34054,0.45861 0.70554,2.54 -0.28221,0.987777 -0.52917,2.99861 -0.52917,4.445 0,2.39889 0.0706,2.68111 1.05833,3.63361 0.91723,0.917223 1.19946,1.023057 2.36363,0.81139 2.89277,-0.529167 7.90221,-3.774723 8.32554,-5.432777 0.28223,-1.058333 -0.56444,-0.881946 -2.54,0.529167 -0.91721,0.670277 -2.61054,1.622777 -3.70417,2.151943 -1.8697,0.846667 -2.0461,0.881944 -2.8575,0.352777 -0.70554,-0.45861 -0.88193,-0.881943 -0.88193,-2.151943 0,-2.71639 1.0936,-6.879167 1.905,-7.337777 0.4586,-0.246944 2.25777,-0.423333 4.5861,-0.423333 4.16279,0 4.90363,-0.352777 3.21029,-1.44639 -0.67029,-0.423334 -1.905,-0.670277 -4.02166,-0.77611 -1.65807,-0.07056 -3.175,-0.282224 -3.31613,-0.423334 -0.1411,-0.14111 0.21167,-2.504723 0.8114,-5.25639 0.59973,-2.786943 1.02306,-5.256387 0.91723,-5.53861 -0.24696,-0.599723 -1.5875,-0.670277 -1.79917,-0.07056 z"
         inkscape:connector-curvature="0"
         style="stroke-width:0.03527778" />
      <path
         id="path18057"
         d="m -78.549849,42.778252 c -0.3175,0.352777 -1.37583,3.104443 -2.36361,6.103056 -2.68111,8.078611 -3.13972,9.136944 -4.1275,9.136944 -0.67028,0 -0.88194,-0.3175 -1.34056,-2.046113 -1.30527,-4.691944 -2.187217,-4.762497 -4.974163,-0.423333 -1.411111,2.187223 -1.622777,2.398889 -2.328334,2.187223 -0.91722,-0.211667 -1.693333,-3.245557 -2.398887,-9.242777 -0.458613,-3.774723 -1.023056,-4.974167 -2.116667,-4.691944 -0.917223,0.246944 -0.917223,0.917221 0.176388,7.478887 1.234723,7.231944 2.293056,9.560277 4.374446,9.560277 1.164166,-0.03528 1.763887,-0.493887 3.175,-2.575277 0.59972,-0.917223 1.23472,-1.658056 1.375833,-1.658056 0.14111,0 0.529167,0.705556 0.917221,1.5875 0.740833,1.869723 2.046113,2.998613 3.386663,2.998613 1.76389,0 3.10445,-2.469446 5.25639,-9.70139 0.81139,-2.716387 1.79917,-5.609167 2.18723,-6.420554 0.38805,-0.846666 0.67027,-1.763889 0.59972,-2.116666 -0.17639,-0.881947 -1.09361,-0.9525 -1.79917,-0.17639 z"
         inkscape:connector-curvature="0"
         style="stroke-width:0.03527778" />
      <path
         id="path18059"
         d="m -18.401239,45.141862 c -1.97556,0.98778 -2.89278,1.728613 -3.91583,3.104446 -2.43417,3.245554 -2.68111,3.986387 -2.68111,7.478887 0,2.71639 0.14111,3.457224 0.91722,4.93889 1.23472,2.434167 3.13972,3.704167 5.82083,3.95111 3.21028,0.282224 5.60917,-1.164166 6.84389,-4.1275 1.02306,-2.434166 1.7638901,-0.493889 1.7638901,4.62139 0,5.044721 -2.0108301,11.818054 -4.3391701,14.534444 -1.55222,1.869723 -3.38666,2.116666 -5.50333,0.81139 -1.62278,-1.023057 -2.54,-2.328334 -3.45722,-4.868334 -0.635,-1.799166 -0.9525,-2.046113 -1.44639,-1.12889 -0.52917,0.917224 0.17639,3.98639 1.30528,5.715 2.29305,3.527777 6.24416,4.903611 8.89,3.069167 1.69333,-1.12889 3.95111,-5.150556 5.6444401,-10.089443 0.9525,-2.786947 1.34056,-10.406947 0.70556,-14.252224 -0.21167,-1.375833 -0.49389,-4.727223 -0.635,-7.514166 -0.24695,-5.3975 -0.59973,-6.561667 -1.7638901,-5.85611 -0.52917,0.3175 -0.67028,0.9525 -0.74084,3.704166 -0.17639,5.185834 -2.08139,10.971387 -3.98639,12.100277 -1.48166,0.881944 -4.33916,0.846667 -5.57388,-0.03528 -3.98639,-2.963333 -2.04612,-11.28889 3.24555,-13.82889 1.83445,-0.881943 3.59833,-0.9525 4.05695,-0.176387 0.17638,0.3175 0.635,0.493887 0.98777,0.423334 0.52917,-0.105834 0.635,-0.35278 0.56445,-1.340557 -0.17639,-1.622777 -0.635,-2.08139 -2.54,-2.328333 -1.37584,-0.17639 -1.94028,0 -4.16278,1.09361 z"
         inkscape:connector-curvature="0"
         style="stroke-width:0.03527778" />
      <path
         id="path18061"
         d="m 212.42125,45.529919 c -0.84667,2.04611 -1.19944,3.704166 -1.94027,8.85472 -0.70556,5.150556 -0.9525,9.136946 -0.59973,9.489723 0.10583,0.14111 0.59973,0.14111 1.02306,0.03528 0.59973,-0.176387 1.19944,-0.91722 2.04611,-2.751667 1.30529,-2.68111 3.84529,-5.3975 4.72723,-5.04472 0.38806,0.14111 0.52916,1.058333 0.635,3.668887 0.10583,3.81 0.42333,4.445 1.86973,4.092223 1.16417,-0.282223 1.48167,-1.12889 0.74083,-1.940277 -0.42333,-0.458613 -0.56446,-1.305279 -0.56446,-3.175 0,-5.644443 -2.1872,-6.738056 -6.3147,-3.139723 -0.63501,0.564444 -1.3053,0.917223 -1.48167,0.740833 -0.3528,-0.352776 0.88193,-7.76111 1.62277,-9.48972 0.7761,-1.905 0.70556,-2.610556 -0.35277,-2.610556 -0.6703,0 -0.9878,0.282223 -1.41113,1.27 z"
         inkscape:connector-curvature="0"
         style="stroke-width:0.03527778" />
      <path
         id="path18063"
         d="m -68.389849,45.247695 c -1.51694,0.9525 -3.35139,3.139724 -4.1275,4.93889 -0.56444,1.199444 -0.67028,2.116667 -0.56444,3.915834 0.17639,2.928053 1.09361,4.833053 2.96333,6.138333 2.96333,2.081387 6.24417,1.86972 8.78417,-0.599723 1.79916,-1.72861 2.50472,-3.774723 2.82222,-8.07861 0.28222,-3.527777 -0.3175,-4.93889 -2.46945,-6.0325 -2.01083,-1.023057 -5.96194,-1.199444 -7.40833,-0.282224 z m 4.62139,2.2225 c 1.02305,-0.03528 1.69333,0.17639 2.43417,0.705557 0.9525,0.77611 0.9525,0.846667 0.77611,3.35139 -0.42334,4.691943 -1.905,6.879164 -5.00945,7.337777 -5.29166,0.811387 -7.02027,-5.961944 -2.71639,-10.759724 0.77611,-0.881943 1.09361,-1.023053 1.97556,-0.811387 0.59972,0.141111 1.72861,0.211667 2.54,0.176387 z"
         inkscape:connector-curvature="0"
         style="stroke-width:0.03527778" />
      <path
         id="path18065"
         d="m 3.0123711,47.364362 c -4.90361,3.139723 -6.42055,9.877777 -3.03388996,13.723057 2.22249996,2.54 6.06777996,3.351387 8.36082996,1.763887 2.0461199,-1.375834 1.7991699,-1.658054 -1.48166,-1.658054 -2.29306,0 -3.175,-0.141113 -4.05695,-0.705557 -1.34055,-0.811389 -2.22249996,-2.36361 -2.22249996,-3.95111 0,-1.693333 0.42333996,-2.151946 1.79916996,-1.975556 3.52778,0.529166 7.40833,-2.610554 6.87917,-5.573887 -0.49389,-2.610557 -3.45723,-3.386667 -6.24417,-1.62278 z m 3.91583,2.363613 c 0,0.529167 -0.3175,1.09361 -0.88194,1.446387 -0.91722,0.599723 -4.05694,1.12889 -4.05694,0.705557 0,-1.164167 2.50472,-2.998611 4.16277,-3.03389 0.59972,0 0.77611,0.211666 0.77611,0.881946 z"
         inkscape:connector-curvature="0"
         style="stroke-width:0.03527778" />
      <path
         id="path18067"
         d="m 18.217091,47.611308 c -0.70555,0.529167 -1.65805,0.881944 -2.32833,0.881944 -1.37583,0 -1.62278,0.3175 -1.72861,2.328333 -0.0706,0.881944 -0.3175,2.963334 -0.56445,4.691944 -0.49389,3.421943 -0.17639,5.432777 0.81139,5.609166 0.9525,0.17639 1.65806,-1.375833 2.08139,-4.515556 0.49389,-4.127497 2.54,-7.831664 3.98639,-7.302497 1.19944,0.45861 2.08139,3.13972 2.29306,6.94972 0.24694,3.98639 0.42333,4.58611 1.41111,4.58611 0.9525,0 1.55222,-0.881943 1.23472,-1.834443 -0.14111,-0.45861 -0.21167,-1.5875 -0.17639,-2.504723 0.14111,-3.280831 -1.12889,-7.408331 -2.78694,-9.066387 -0.98778,-0.987777 -2.78695,-0.881944 -4.23334,0.176389 z"
         inkscape:connector-curvature="0"
         style="stroke-width:0.03527778" />
      <path
         id="path18069"
         d="m 32.504591,48.387419 c -4.30389,2.293056 -5.53861,5.961943 -3.42194,10.018887 1.69333,3.280833 5.29166,4.445 8.53722,2.786946 2.57528,-1.30528 2.08139,-1.975557 -1.41111,-1.834446 -1.27,0.07056 -2.71639,-0.03528 -3.24556,-0.246944 -1.12889,-0.423333 -2.39889,-2.293056 -2.39889,-3.527777 0,-0.81139 0.0706,-0.846666 1.72862,-0.635 1.44638,0.176387 1.905,0.07055 2.99861,-0.670279 2.32833,-1.587498 2.99861,-4.092221 1.44639,-5.609164 -0.98778,-1.023057 -2.64584,-1.12889 -4.23334,-0.282223 z m 2.92806,2.434166 c -0.21167,1.09361 -1.83445,2.010834 -3.06917,1.72861 -1.48167,-0.3175 -1.37583,-0.670276 0.42333,-1.55222 1.79917,-0.917223 2.82223,-0.9525 2.64584,-0.17639 z"
         inkscape:connector-curvature="0"
         style="stroke-width:0.03527778" />
      <path
         id="path18071"
         d="m 45.451541,48.740195 c -1.09362,1.164167 -1.30528,1.799167 -1.97556,5.820834 -0.635,3.739443 -0.49389,5.22111 0.49389,5.22111 0.9525,0 1.19944,-0.529167 1.62278,-3.563054 0.21166,-1.481666 0.70555,-3.31611 1.05833,-4.056943 0.67028,-1.375834 0.67028,-1.375834 3.175,-1.552223 2.39889,-0.17639 4.37444,-0.987777 4.37444,-1.799167 0,-0.49389 -0.49388,-0.599723 -4.40972,-0.77611 -3.38666,-0.141113 -3.56305,-0.105834 -4.33916,0.705553 z"
         inkscape:connector-curvature="0"
         style="stroke-width:0.03527778" />
      <path
         id="path18073"
         d="m 115.68958,48.246308 c -1.51693,0.564444 -5.96193,5.150554 -6.8086,7.055554 -0.38806,0.81139 -0.70556,1.975557 -0.70556,2.575277 0,1.164167 1.27,3.316113 2.57529,4.409723 1.7286,1.44639 4.83304,1.164167 6.87917,-0.564443 0.5997,-0.49389 1.19943,-0.881947 1.4111,-0.881947 0.1764,0 0.7761,0.564447 1.30527,1.27 1.79917,2.328334 4.1275,3.069167 5.75029,1.799167 0.74084,-0.59972 0.3175,-1.058333 -1.51696,-1.622777 -1.27,-0.423333 -1.97554,-0.917223 -2.54,-1.76389 -1.27,-1.86972 -1.34054,-2.751666 -0.49387,-5.326943 0.74083,-2.328334 0.91721,-4.409721 0.52917,-5.891387 -0.38807,-1.375834 -3.88057,-1.975557 -6.3853,-1.058334 z m 3.0339,3.668887 c -0.1764,0.740834 -0.3175,2.39889 -0.3175,3.66889 0,2.116667 -0.10583,2.398887 -1.1289,3.457221 -1.97554,2.046113 -4.30387,2.398889 -5.75027,0.917223 -1.69333,-1.658057 -1.05833,-3.774723 2.01084,-6.80861 1.83443,-1.76389 3.06916,-2.434167 4.72723,-2.504724 0.70554,-0.03528 0.74083,0.07056 0.4586,1.27 z"
         inkscape:connector-curvature="0"
         style="stroke-width:0.03527778" />
      <path
         id="path18075"
         d="m 131.59988,48.457975 c -2.29307,1.058333 -3.175,2.398887 -3.45723,5.22111 -0.10584,1.305277 -0.14111,3.386667 -0.0353,4.58611 0.10583,1.234724 0.0353,2.257777 -0.1764,2.39889 -0.1764,0.105834 -0.24694,1.305277 -0.10583,2.99861 0.10583,1.516944 0,4.515557 -0.24694,6.632224 -0.52917,4.621387 -0.28223,7.12611 0.70554,7.12611 0.91723,0 1.05833,-0.635 1.09363,-4.868334 0.0353,-2.081389 0.1411,-4.797776 0.2822,-6.067776 l 0.21167,-2.293057 1.86973,-0.246943 c 1.02306,-0.17639 2.29306,-0.49389 2.82223,-0.776113 1.55221,-0.811387 4.1275,-3.81 4.83304,-5.609167 1.1289,-2.99861 0.1764,-7.231944 -2.01083,-8.819444 -1.30527,-0.987776 -3.98638,-1.09361 -5.78554,-0.28222 z m 5.11527,2.786944 c 1.55223,1.516943 1.76389,3.845276 0.56443,6.244166 -1.0936,2.257777 -2.8222,3.880554 -4.7272,4.445 -2.54,0.77611 -2.64584,0.599721 -2.32834,-4.727223 0.14111,-2.54 0.38804,-4.938887 0.56444,-5.256387 0.4939,-0.917223 2.0814,-1.658056 3.59833,-1.693333 1.02307,0 1.5875,0.246943 2.32834,0.987777 z"
         inkscape:connector-curvature="0"
         style="stroke-width:0.03527778" />
      <path
         id="path18077"
         d="m 55.435151,49.269362 c -2.78695,2.39889 -4.1275,7.44361 -2.75167,10.16 1.23472,2.39889 3.81,2.822223 6.24417,1.023057 l 1.02305,-0.776113 1.51695,0.846666 c 1.48166,0.776113 1.62277,0.81139 3.03389,0.3175 1.09361,-0.388053 1.55222,-0.740833 1.62277,-1.340553 0.10584,-0.705557 0,-0.776113 -1.62277,-0.776113 -2.50473,0 -2.71639,-0.352777 -2.57528,-4.974167 l 0.0705,-3.845277 h -1.02305 c -1.27,0 -1.44639,0.49389 -1.51695,4.233333 -0.0353,2.293057 -0.17639,2.681111 -1.09361,3.739444 -0.81139,0.917223 -1.34055,1.199446 -2.25778,1.199446 -0.98777,0 -1.27,-0.17639 -1.5875,-0.987779 -1.02305,-2.645834 1.5875,-7.831664 3.95112,-7.831664 0.9525,0 0.9525,-0.03528 0.635,-1.058334 -0.52917,-1.446389 -1.97556,-1.446389 -3.66889,0.07055 z"
         inkscape:connector-curvature="0"
         style="stroke-width:0.03527778" />
      <path
         id="path18079"
         d="m 146.69875,48.740195 c -1.30527,0.635 -2.89277,2.363613 -2.92804,3.21028 0,0.3175 -0.1764,2.116664 -0.35279,3.95111 -0.17638,1.834444 -0.3175,4.303887 -0.3175,5.468054 0,1.164167 -0.28221,4.16278 -0.70554,6.70278 -0.77613,5.150553 -0.88196,7.090833 -0.3528,8.466666 0.59973,1.552221 1.27,0.493887 1.55223,-2.39889 0.10584,-1.375833 0.4939,-4.480276 0.8114,-6.879166 0.635,-4.727223 0.70554,-4.90361 3.13971,-5.185834 2.57529,-0.352776 4.79779,-2.257776 6.27946,-5.468056 1.62277,-3.45722 1.05833,-5.961944 -1.65807,-7.58472 -1.79916,-1.023057 -3.73943,-1.12889 -5.46806,-0.282224 z m 4.33917,2.328334 c 1.27,0.705556 1.41112,0.9525 1.51696,2.363613 0.21166,3.174997 -3.2103,7.196664 -5.92667,6.984997 l -1.23473,-0.105833 0.0353,-2.116667 c 0,-1.164167 0.14113,-3.13972 0.3175,-4.374444 0.24696,-1.975553 0.42333,-2.293053 1.37583,-2.892776 1.41113,-0.846667 2.18723,-0.846667 3.91584,0.14111 z"
         inkscape:connector-curvature="0"
         style="stroke-width:0.03527778" />
      <path
         id="path18081"
         d="m 160.10431,49.974919 c -0.24693,0.246943 -0.42333,0.670276 -0.42333,0.987776 0,0.282224 -0.21167,0.846667 -0.4939,1.234724 -0.49387,0.740833 -1.27,6.31472 -1.27,9.17222 0,1.12889 0.1764,1.658056 0.56446,1.834446 1.02304,0.388054 1.48167,-0.705556 1.905,-4.480279 0.67027,-6.208887 0.635,-6.138331 2.46944,-6.420554 5.2211,-0.81139 5.11527,-0.77611 5.2211,-1.552223 0.0706,-0.599721 -0.1411,-0.811387 -1.02304,-0.987777 -1.94029,-0.388057 -6.49112,-0.246944 -6.94973,0.211667 z"
         inkscape:connector-curvature="0"
         style="stroke-width:0.03527778" />
      <path
         id="path18083"
         d="m 171.74598,51.915195 c -1.34056,0.635 -3.42194,2.71639 -4.16277,4.056944 -1.97556,3.774723 0.0705,8.043333 3.88054,8.043333 3.95113,0 7.62,-4.374443 7.62,-9.066387 0,-1.27 -0.21167,-1.76389 -1.02304,-2.610556 -0.91723,-0.881944 -1.30529,-1.023054 -3.10446,-1.023054 -1.16417,0 -2.54,0.246944 -3.21027,0.59972 z m 4.2686,1.869724 c 0.91723,0 0.9525,0.07055 0.9525,1.693333 0,2.928054 -2.75166,6.420554 -5.08,6.420554 -1.51693,0 -2.61054,-0.846667 -2.89277,-2.257777 -0.28223,-1.552223 0.0353,-2.434167 1.37584,-3.98639 1.27,-1.446387 2.92806,-2.293054 3.9511,-2.04611 0.38806,0.105833 1.1289,0.17639 1.69333,0.17639 z"
         inkscape:connector-curvature="0"
         style="stroke-width:0.03527778" />
      <path
         id="path18085"
         d="m 201.13238,52.514919 c -1.34057,0.564443 -3.24557,2.716387 -4.09223,4.58611 -1.16417,2.610556 -0.635,5.997223 1.05833,6.914443 1.86973,0.98778 7.65527,-0.59972 7.37306,-2.010833 -0.10583,-0.493887 -0.35279,-0.59972 -1.16416,-0.45861 -0.59973,0.07056 -2.01084,0.17639 -3.175,0.17639 h -2.11667 l -0.10583,-1.481667 c -0.21167,-2.645833 1.37583,-4.868333 4.48027,-6.244167 1.48166,-0.705556 1.86973,-1.375833 0.88193,-1.76389 -0.84666,-0.3175 -1.97554,-0.211666 -3.1397,0.282224 z"
         inkscape:connector-curvature="0"
         style="stroke-width:0.03527778" />
      <path
         id="path18087"
         d="m 228.47265,52.338529 c -5.8914,1.799166 -8.4314,8.784166 -4.37444,11.994443 0.91721,0.705557 1.30527,0.81139 3.4925,0.635 2.82221,-0.176387 5.57387,-1.23472 6.1736,-2.36361 0.21167,-0.423333 0.35277,-0.846667 0.24694,-0.917223 -0.10583,-0.105833 -1.1289,0.07056 -2.32833,0.388056 -3.03388,0.776111 -5.04471,0.81139 -6.17361,0.07056 -0.74083,-0.49389 -0.91723,-0.881946 -0.91723,-2.116667 0,-2.046113 0.38807,-2.328333 2.78696,-2.116666 3.03388,0.28222 5.67971,-1.30528 5.67971,-3.421947 0,-1.975553 -2.01083,-2.928053 -4.5861,-2.151943 z m 1.76389,2.68111 c -0.45862,0.564446 -2.46946,0.740833 -2.46946,0.211667 0,-0.423334 0.6703,-0.670277 1.905,-0.705554 0.84667,-0.03528 0.9525,0.03528 0.56446,0.493887 z"
         inkscape:connector-curvature="0"
         style="stroke-width:0.03527778" />
      <path
         id="path18089"
         d="m 183.35238,53.820195 c -2.36363,1.905 -3.3514,3.774724 -3.13973,5.997224 0.21166,2.151943 1.05833,3.421943 2.6811,4.09222 1.19946,0.49389 1.4464,0.49389 2.92806,-0.03528 2.11667,-0.740833 2.25777,-0.705556 3.4925,0.17639 0.77611,0.59972 1.30527,0.705554 2.29307,0.564443 2.54,-0.423333 3.24554,-2.010833 0.9172,-2.010833 -0.81137,0 -1.69333,-0.282223 -2.1872,-0.670277 l -0.8114,-0.670279 0.7761,-2.2225 c 0.42334,-1.234721 0.77613,-2.786944 0.77613,-3.421944 0,-0.9525 -0.14113,-1.12889 -0.88196,-1.12889 -0.67027,0 -1.05833,0.35278 -1.7286,1.658057 -0.45861,0.9525 -0.9525,2.36361 -1.09361,3.210277 -0.17639,1.164166 -0.45862,1.622779 -1.23473,2.010833 -2.2225,1.164167 -3.88056,0.211667 -3.88056,-2.18722 0,-1.411113 2.15196,-3.81 3.70417,-4.16278 2.61056,-0.564444 3.42196,-1.516944 1.97556,-2.293054 -1.37583,-0.705556 -2.7164,-0.388056 -4.5861,1.09361 z"
         inkscape:connector-curvature="0"
         style="stroke-width:0.03527778" />
      <path
         id="path18091"
         d="m 286.68098,53.820195 c -3.10446,1.869724 -4.51556,4.656667 -4.1275,8.11389 0.42333,3.563054 2.01083,4.974167 5.5386,4.938887 3.63361,0 6.73807,-2.293053 8.1139,-5.961943 1.37583,-3.63361 0.67027,-6.244167 -1.97556,-7.337777 -1.86973,-0.77611 -6.06777,-0.635 -7.54944,0.246943 z m 6.42054,1.76389 c 1.97556,0.529167 2.29306,1.446387 1.34056,3.845277 -1.05833,2.71639 -1.905,3.704167 -3.9511,4.727223 -2.32833,1.164167 -3.0339,1.164167 -4.445,-0.07056 -1.05833,-0.846667 -1.16417,-1.12889 -1.19946,-2.963334 0,-1.375833 0.21167,-2.398889 0.67029,-3.175 1.30527,-2.2225 4.48027,-3.210276 7.58471,-2.36361 z"
         inkscape:connector-curvature="0"
         style="stroke-width:0.03527778" />
      <path
         id="path18093"
         d="m 237.82125,54.208252 c -1.4464,0.846667 -2.32833,2.716387 -2.0461,4.303887 0.24693,1.199446 1.65804,2.57528 2.96333,2.8575 1.48167,0.3175 1.62277,0.881946 0.4586,1.834446 -0.70556,0.564444 -1.48166,0.811387 -2.54,0.811387 -1.05833,0 -1.55223,0.17639 -1.7286,0.564447 -0.74083,1.975553 2.96333,2.36361 5.57387,0.59972 3.13973,-2.081387 3.13973,-4.339167 0,-5.715 -2.2225,-0.9525 -2.57527,-1.41111 -2.01083,-2.50472 0.38806,-0.81139 0.59973,-0.881947 2.25779,-0.776113 2.11667,0.141113 2.43417,-0.458611 0.91721,-1.658054 -1.02304,-0.81139 -2.75167,-0.9525 -3.84527,-0.3175 z"
         inkscape:connector-curvature="0"
         style="stroke-width:0.03527778" />
      <path
         id="path18095"
         d="m -105.18457,84.829362 c -2.54,1.305277 -3.175,2.151944 -2.50472,3.386667 0.3175,0.59972 0.45861,2.892777 0.45861,7.62 0.0353,6.314711 -0.0353,7.126101 -0.9525,10.936101 -0.56445,2.25778 -0.9525,4.65667 -0.88195,5.29167 0.14112,1.65806 1.05834,1.51694 1.5875,-0.24694 0.56445,-1.76389 2.2225,-10.37167 2.2225,-11.35944 0,-0.705558 0.10584,-0.740837 3.45723,-0.564448 2.998607,0.176388 3.633607,0.105834 4.833051,-0.529166 1.76389,-0.881944 3.03389,-2.257777 4.056946,-4.268611 1.128887,-2.293056 0.917221,-6.067779 -0.49389,-8.07861 -1.375833,-2.010833 -3.563056,-3.03389 -6.914447,-3.175 -2.39889,-0.105833 -2.8575,0 -4.86833,0.987777 z m 8.290277,1.658057 c 1.622777,0.846666 2.928057,2.96333 2.928057,4.797776 0,2.363611 -2.08139,5.362221 -4.339167,6.208888 -1.305279,0.493889 -3.986387,0.458612 -5.538607,-0.07055 -1.16417,-0.388057 -1.23473,-0.529167 -1.48167,-2.363613 -0.10583,-1.058333 -0.21167,-3.245554 -0.24695,-4.833054 l -0.0353,-2.892777 1.16417,-0.599723 c 2.54,-1.340556 5.256388,-1.44639 7.549444,-0.246943 z"
         inkscape:connector-curvature="0"
         style="stroke-width:0.03527778" />
      <path
         id="path18097"
         d="m -85.358459,88.498252 c -2.61056,1.164164 -4.374444,4.09222 -4.374444,7.337777 0.03528,5.291661 3.492504,8.184441 7.373054,6.208881 2.29306,-1.19944 3.73945,-4.021661 3.73945,-7.302494 0,-3.386667 -0.49389,-4.26861 -3.10445,-5.609167 -2.50472,-1.305277 -2.2225,-1.23472 -3.63361,-0.634997 z m 1.83444,2.857497 c 0.56445,0.282223 1.37584,0.529167 1.79917,0.529167 1.65806,0 1.62278,4.233333 -0.0353,6.773333 -0.70555,1.058334 -2.25777,1.799171 -3.42194,1.622781 -1.27,-0.17639 -2.43417,-2.187224 -2.43417,-4.233335 0,-1.869723 0.98778,-4.233333 2.01084,-4.833056 0.84666,-0.49389 0.91722,-0.45861 2.08138,0.14111 z"
         inkscape:connector-curvature="0"
         style="stroke-width:0.03527778" />
      <path
         id="path18099"
         d="m -2.8084589,89.203806 c -3.81,1.763889 -5.57389,4.339166 -4.58611,6.738056 0.38805,0.9525 0.9525,1.305277 3.06916,2.187221 1.44639,0.599723 2.96334,1.199446 3.42195004,1.340556 1.65805,0.49389 0.38805,1.587491 -3.17500004,2.681101 -2.78695,0.84667 -3.98639,0.52917 -3.70417,-0.9525 0.10583,-0.70555 0,-0.84666 -0.70555,-0.84666 -1.48167,0 -2.0461201,2.64583 -0.81139,3.88055 1.905,1.905 9.98361004,-0.28222 11.25361,-3.10444 0.9525,-2.046107 0.0353,-3.033884 -4.445,-4.833051 -1.48167,-0.564444 -2.75167,-1.27 -2.8575,-1.516944 -0.21167,-0.670279 2.46944,-3.175 3.66889,-3.421946 2.50472004,-0.529166 3.28083,-1.481666 2.18722004,-2.575277 -0.59972,-0.59972 -1.27,-0.529166 -3.31611004,0.423334 z"
         inkscape:connector-curvature="0"
         style="stroke-width:0.03527778" />
      <path
         id="path18101"
         d="m 42.347091,89.591862 c -0.35278,0.881944 0.14111,1.5875 1.05833,1.5875 1.05834,0 1.41112,-0.458613 1.09362,-1.411113 -0.28223,-0.846666 -1.86973,-0.987777 -2.15195,-0.176387 z"
         inkscape:connector-curvature="0"
         style="stroke-width:0.03527778" />
      <path
         id="path18103"
         d="m -60.205409,90.544362 c -0.3175,0.246944 -1.51694,2.469444 -2.68111,4.938887 -2.46944,5.256381 -3.03389,5.609161 -4.33916,2.822223 -1.09361,-2.2225 -1.86972,-2.187223 -3.38667,0.105834 -0.67028,0.9525 -1.37583,1.763884 -1.5875,1.763884 -0.38805,0 -1.30528,-4.233328 -1.37583,-6.244161 -0.0353,-0.529167 -0.38806,-1.30528 -0.81139,-1.693334 -0.59972,-0.564446 -0.84667,-0.635 -1.34056,-0.246946 -0.52916,0.388057 -0.49389,0.740834 0.14111,4.30389 0.38806,2.116667 0.98778,4.586101 1.30528,5.468051 0.52917,1.37583 0.77611,1.5875 1.72861,1.69333 0.88195,0.0706 1.34056,-0.14111 2.32834,-1.19944 l 1.23472,-1.30528 1.12889,0.91722 c 2.54,2.15195 4.72722,0.635 6.84389,-4.762491 0.70555,-1.76389 1.69333,-3.84528 2.18722,-4.586113 0.52916,-0.705554 0.84666,-1.552221 0.70555,-1.869721 -0.24694,-0.635 -1.27,-0.705556 -2.08139,-0.105833 z"
         inkscape:connector-curvature="0"
         style="stroke-width:0.03527778" />
      <path
         id="path18105"
         d="m -52.832349,92.731583 c -1.30528,0.670279 -2.68111,1.27 -3.13972,1.340556 -0.74084,0.105833 -0.77611,0.282223 -0.88195,3.245556 -0.0353,1.693334 0.0706,3.633605 0.28223,4.303885 0.81138,2.43416 3.73944,3.77472 6.63222,2.99861 1.37583,-0.38806 3.24555,-1.5875 3.24555,-2.11667 0,-0.14111 -1.44639,-0.24694 -3.21027,-0.24694 -2.96334,0.0353 -3.24556,-0.0353 -3.88056,-0.81139 -0.67028,-0.81139 -0.9525,-3.351384 -0.38806,-3.704161 0.14112,-0.07056 1.02306,0.03528 1.94028,0.246943 1.27,0.282223 1.97556,0.246944 3.10445,-0.105833 1.79916,-0.599723 2.43416,-1.516944 2.43416,-3.421944 0,-1.234723 -0.17639,-1.5875 -1.02305,-2.187223 -1.41111,-1.023056 -2.43417,-0.917223 -5.11528,0.458611 z m 3.84528,1.5875 c 0.10583,0.176389 -0.0706,0.599723 -0.38806,0.917223 -0.635,0.599723 -3.175,0.635 -3.10444,0 0.10583,-0.881944 3.03389,-1.622777 3.4925,-0.917223 z"
         inkscape:connector-curvature="0"
         style="stroke-width:0.03527778" />
      <path
         id="path18107"
         d="m 8.2334811,92.837416 c -0.14111,0.105833 -0.24694,0.529167 -0.24694,0.881946 0,0.388054 -0.38806,1.199444 -0.84667,1.799167 -2.18722,2.892777 -2.11667,8.925271 0.0706,10.089441 1.55222,0.81139 4.3038799,0.21166 6.3147199,-1.37584 l 0.91722,-0.74083 1.09361,1.05833 c 1.48167,1.37584 2.89278,1.65806 4.37445,0.74084 1.65805,-1.02306 1.48166,-1.76389 -0.45862,-1.76389 -2.29305,0 -2.82222,-0.91722 -2.50472,-4.339164 0.52917,-5.044721 0.52917,-5.009444 -0.635,-5.009444 -1.09361,0 -1.23472,0.3175 -2.15194,4.93889 -0.42334,2.081378 -4.09222,4.868328 -5.6444499,4.268608 -0.81139,-0.3175 -0.70555,-3.527775 0.21167,-5.397498 0.88194,-1.834443 2.0108299,-2.645833 3.9863899,-2.928056 1.62278,-0.211667 2.15194,-1.199444 1.05833,-2.010833 -0.635,-0.458611 -5.1152799,-0.670277 -5.5386099,-0.211667 z"
         inkscape:connector-curvature="0"
         style="stroke-width:0.03527778" />
      <path
         id="path18109"
         d="m 34.303761,94.601306 c -0.45861,0.9525 -1.27,2.892777 -1.76389,4.339166 -2.71639,7.514158 -4.93889,7.619998 -5.57389,0.246944 -0.35278,-4.162777 -0.635,-5.009444 -1.69333,-5.291667 -1.12889,-0.28222 -1.23472,0.423334 -0.77611,5.08 0.52916,5.926661 1.79916,8.078611 4.69194,8.078611 2.36361,0 3.45722,-1.48167 5.96195,-8.113888 0.635,-1.658056 1.37583,-3.457223 1.65805,-3.986389 0.38806,-0.776111 0.42333,-1.128888 0.0706,-1.516944 -0.81139,-0.9525 -1.69334,-0.564444 -2.57528,1.164167 z"
         inkscape:connector-curvature="0"
         style="stroke-width:0.03527778" />
      <path
         id="path18111"
         d="m -38.474289,93.613529 c -1.5875,0.105833 -3.03389,0.352777 -3.21028,0.564443 -1.05834,1.164167 -2.82222,8.678328 -2.36361,10.089438 0.14111,0.38806 0.52916,0.67028 1.05833,0.67028 0.98778,0 1.72861,-1.65806 2.29306,-5.079995 0.52916,-3.386666 0.45861,-3.316112 3.10444,-3.598333 3.66889,-0.388056 5.53861,-1.375833 4.65667,-2.434167 -0.45861,-0.529166 -0.635,-0.564446 -5.53861,-0.211666 z"
         inkscape:connector-curvature="0"
         style="stroke-width:0.03527778" />
      <path
         id="path18113"
         d="m 58.786541,93.931029 c -0.28223,0.14111 -0.98778,0.564443 -1.51695,0.91722 -0.91722,0.635 -0.98778,0.635 -1.44639,0.03528 -0.24694,-0.3175 -0.74083,-0.564446 -1.09361,-0.49389 -0.59972,0.14111 -0.77611,0.77611 -1.30528,5.609167 -0.35277,2.998604 -0.56444,5.679714 -0.45861,5.891384 0.24695,0.67028 1.37584,0.56444 2.01084,-0.17639 0.3175,-0.3175 0.98777,-1.86972 1.51694,-3.42194 1.48167,-4.268611 2.2225,-5.820831 2.82222,-6.032498 1.05834,-0.423333 2.15195,0.211667 2.96334,1.622777 0.70555,1.234723 0.77611,1.834444 0.70555,4.515551 l -0.10583,3.06917 h 1.02305 c 0.9525,0 1.05834,-0.14112 1.34056,-1.5875 0.70555,-3.84528 -0.49389,-7.796388 -2.89278,-9.489721 -1.02305,-0.740833 -2.54,-0.917223 -3.56305,-0.45861 z"
         inkscape:connector-curvature="0"
         style="stroke-width:0.03527778" />
      <path
         id="path18115"
         d="m 73.003481,95.236306 c -2.25778,1.128889 -2.61056,1.446389 -3.42194,3.069166 -1.16417,2.328328 -1.27,5.538608 -0.21167,7.231938 0.81139,1.37583 2.36361,2.2225 4.05694,2.2225 1.05834,0 1.23472,0.10583 1.23472,0.77611 0,1.23472 -3.28083,7.69056 -4.76249,9.38389 -1.37584,1.55222 -3.84528,3.06917 -4.40973,2.71639 -0.52916,-0.3175 -1.27,-2.25778 -1.55222,-4.02167 -0.3175,-1.97555 -0.49389,-2.29305 -1.12889,-1.76389 -0.77611,0.635 -0.635,4.62139 0.21167,6.27945 0.35278,0.74083 0.91722,1.44639 1.23472,1.5875 3.91583,1.48166 9.59556,-3.98639 12.48833,-11.95917 0.77612,-2.2225 3.56306,-13.934714 3.56306,-15.063604 0,-0.740833 -1.1289,-1.27 -3.3161,-1.552221 -1.19946,-0.176389 -1.90501,0.03528 -3.9864,1.093611 z m 4.3039,2.187223 c -0.14113,0.564443 -0.45863,1.975554 -0.70557,3.174991 -0.77611,3.45722 -1.83444,5.04472 -3.4925,5.04472 -2.08139,0 -2.71639,-4.02166 -1.05833,-6.455824 0.91722,-1.375833 3.13972,-2.645833 4.69194,-2.68111 0.70556,-0.03528 0.77612,0.07056 0.56446,0.917223 z"
         inkscape:connector-curvature="0"
         style="stroke-width:0.03527778" />
      <path
         id="path18117"
         d="m 40.865421,95.483249 c -0.35277,0.458613 -1.48166,6.984991 -1.48166,8.501941 0,1.05833 0.45861,1.69333 1.27,1.79917 1.09361,0.17638 1.62278,-0.70556 1.41111,-2.18723 -0.10583,-0.70555 -0.0706,-2.64583 0.10583,-4.303881 0.35278,-3.598333 -0.17639,-5.150554 -1.30528,-3.81 z"
         inkscape:connector-curvature="0"
         style="stroke-width:0.03527778" />
      <path
         id="path18121"
         d="m 86.303211,108.46547 c 0,0.88194 0.1411,1.05833 0.84667,1.05833 1.0936,0 1.27,-0.28222 0.88193,-1.34056 -0.17639,-0.45861 -0.59973,-0.77611 -1.02306,-0.77611 -0.56444,0 -0.70554,0.24695 -0.70554,1.05834 z"
         inkscape:connector-curvature="0"
         style="stroke-width:0.03527778" />
    </g>
    <g
       id="g19787"
       transform="translate(-0.75595238,60.47619)">
      <path
         id="path18131"
         d="m -75.480679,183.92463 c -1.72861,1.05833 -2.29306,2.08139 -2.01084,3.70417 0.24695,1.62278 1.76389,3.38666 2.89278,3.38666 2.18722,0 3.56306,-1.65805 3.56306,-4.33916 0,-2.82222 -2.18722,-4.16278 -4.445,-2.75167 z"
         inkscape:connector-curvature="0"
         style="stroke-width:0.03527778" />
      <g
         transform="rotate(-2.3566943,-1.0610372,321.66039)"
         id="g19663">
        <path
           style="stroke-width:0.03527778"
           inkscape:connector-curvature="0"
           d="m -34.099849,163.28713 c -0.70556,0.28222 -1.55222,0.70556 -1.86972,0.9525 -0.77611,0.635 -2.11667,3.42195 -2.39889,5.08 -0.35278,1.76389 -0.35278,30.37417 0,32.10278 0.28222,1.51694 0.9525,1.905 1.86972,1.09361 0.38806,-0.35278 1.23472,-0.56445 2.25778,-0.56445 2.39889,0 6.49111,-0.9525 8.92528,-2.08138 4.51555,-2.11667 8.11388,-7.37306 9.525,-13.89945 0.635,-3.03389 0.635,-4.51555 -0.0353,-9.66611 -0.74084,-5.57389 -1.27,-7.16139 -3.13972,-8.85472 -2.01084,-1.83445 -2.18723,-1.94028 -7.26723,-3.38667 -4.7625,-1.37583 -5.85611,-1.48166 -7.86694,-0.77611 z m 7.26722,2.89278 c 5.04472,1.44639 6.77333,2.54 7.65528,4.90361 0.59972,1.5875 1.41111,7.79639 1.41111,10.97139 0,5.15055 -2.11667,10.33639 -5.60917,13.6525 -2.64583,2.50472 -5.08,3.45722 -9.63083,3.70416 l -3.45722,0.17639 -0.0706,-6.31472 c -0.0706,-10.33639 0.10584,-19.89666 0.45861,-22.89528 0.17639,-1.55222 0.3175,-2.99861 0.3175,-3.24555 0,-0.24695 0.52917,-0.77611 1.16417,-1.16417 1.55222,-0.9525 3.84528,-0.88194 7.76111,0.21167 z"
           id="path18123" />
        <path
           style="stroke-width:0.03527778"
           inkscape:connector-curvature="0"
           d="m 108.73988,180.04408 c -0.6703,0.74083 -1.1289,2.82222 -2.7164,12.02972 -1.34056,7.9375 -1.30527,11.60639 0.1764,14.64027 0.49387,0.98778 1.19943,2.08139 1.5875,2.43417 0.98777,0.91722 3.03387,1.12889 4.0922,0.42333 1.37584,-0.91722 1.1289,-1.62277 -0.52916,-1.62277 -1.09361,0 -1.65804,-0.21167 -2.32834,-0.9525 -1.12887,-1.19945 -1.905,-3.91584 -1.905,-6.6675 0,-2.39889 1.72863,-12.3825 2.8575,-16.43945 1.23473,-4.445 1.23473,-4.51555 0.24696,-4.51555 -0.49389,0 -1.12889,0.28222 -1.48166,0.67028 z"
           id="path18125" />
        <path
           style="stroke-width:0.03527778"
           inkscape:connector-curvature="0"
           d="m 120.27571,180.50269 c -0.38806,0.49389 -2.11667,8.81944 -2.46946,11.81805 -0.17637,1.76389 -0.28221,1.905 -1.7286,2.61056 -1.19944,0.56444 -1.55223,0.91722 -1.55223,1.5875 0,0.84666 0.24696,0.98777 1.69333,0.84666 0.74083,-0.0353 0.77613,0.0353 0.77613,3.06917 0,1.69333 0.17637,3.70417 0.35277,4.40972 0.42333,1.48167 1.83443,2.75167 3.06916,2.75167 2.50473,0 6.80861,-4.02167 6.80861,-6.35 0,-1.16417 -0.67027,-0.84667 -2.99861,1.37583 -2.25777,2.18722 -3.77473,2.92806 -4.51556,2.18722 -0.56444,-0.56444 -0.7761,-6.45583 -0.28221,-7.37305 0.21167,-0.38806 0.84667,-0.81139 1.41111,-0.9525 1.19943,-0.24695 2.43416,-1.44639 1.94027,-1.94028 -0.17638,-0.17639 -0.88194,-0.35278 -1.55221,-0.42333 -1.19946,-0.10583 -1.23473,-0.14111 -1.1289,-1.51695 0.0706,-0.77611 0.56444,-3.70416 1.1289,-6.52638 0.74083,-3.66889 0.91721,-5.22112 0.635,-5.53862 -0.45863,-0.56444 -1.16417,-0.59972 -1.5875,-0.0353 z"
           id="path18127" />
        <path
           style="stroke-width:0.03527778"
           inkscape:connector-curvature="0"
           d="m 270.77069,182.37241 c -3.10444,1.62278 -5.25638,5.11528 -5.25638,8.50194 0,1.86973 1.05834,5.36222 2.04611,6.77334 0.42333,0.56444 0.67027,1.12888 0.52916,1.27 -0.10583,0.10583 -1.37583,0.21166 -2.78693,0.21166 -2.2225,0 -2.68113,0.10584 -3.63363,0.91722 -1.7286,1.44639 -1.27,2.92806 0.59973,1.94028 0.3175,-0.17639 2.46944,-0.38805 4.79777,-0.45861 l 4.16279,-0.14111 0.84667,1.34056 c 1.05833,1.65805 1.05833,2.11666 -0.0706,4.51555 -0.98777,2.15195 -2.29307,3.66889 -3.73944,4.445 -1.7639,0.91722 -2.57529,0.635 -5.22113,-1.83444 -1.83443,-1.76389 -2.5047,-2.18723 -2.6811,-1.79917 -0.21167,0.59972 0.56444,2.32833 1.86973,4.05694 2.64583,3.52778 7.05554,3.06917 10.26583,-1.05833 2.43417,-3.175 3.13971,-6.20889 2.01084,-8.89 -0.42334,-1.02305 -0.45863,-1.30528 -0.10584,-1.41111 5.43277,-1.72861 6.63221,-2.29306 6.63221,-3.175 0,-0.91722 -1.0936,-0.88194 -5.11527,0.0353 l -4.05694,0.9525 -0.98779,-0.74084 c -1.5875,-1.16416 -2.89277,-4.16277 -2.92804,-6.63222 -0.0706,-4.72722 2.82221,-7.72583 7.37304,-7.69055 1.55223,0 2.18723,-0.10584 2.18723,-0.45861 0,-1.72861 -3.91583,-2.15195 -6.73806,-0.67028 z"
           id="path18129" />
        <path
           style="stroke-width:0.03527778"
           inkscape:connector-curvature="0"
           d="m 405.88458,186.92324 c -5.89139,2.25778 -8.7136,5.60917 -9.06639,10.65389 -0.28221,4.16278 0.9525,5.85611 8.21973,11.60639 4.37443,3.42194 6.1736,5.36222 6.1736,6.56167 0,1.27 -4.37444,3.4925 -6.87917,3.45722 -0.7761,0 -2.46943,-0.42334 -3.7747,-0.98778 -1.34057,-0.56444 -2.46946,-0.91722 -2.5753,-0.77611 -0.2822,0.45861 2.18723,3.06917 3.31613,3.56305 0.635,0.24695 2.0461,0.38806 3.4925,0.28223 4.37444,-0.24695 8.53721,-2.92806 8.53721,-5.50334 0,-2.11666 -1.94027,-4.37444 -7.76111,-8.96055 -3.98639,-3.175 -4.97416,-4.19806 -5.99723,-6.24417 -2.25777,-4.55083 1.9403,-10.16 8.71363,-11.67694 1.97554,-0.45861 3.24554,-0.14111 3.66887,0.9525 0.38807,1.05833 1.09363,0.88194 1.55223,-0.38806 0.28223,-0.77611 0.1764,-1.09361 -0.59973,-1.86972 -0.7761,-0.74083 -1.30527,-0.91722 -3.3161,-1.02306 -1.51694,-0.0705 -2.89277,0.0353 -3.70417,0.35278 z"
           id="path18133" />
        <path
           style="stroke-width:0.03527778"
           inkscape:connector-curvature="0"
           d="m -11.063459,189.42796 c -0.59972,1.55223 -1.05834,5.32695 -0.84667,6.56167 0.35278,1.83444 1.79917,4.48028 2.7869501,5.11528 0.67027,0.45861 1.34055,0.52916 2.71638,0.38805 l 1.79917,-0.21166 -0.21167,2.89277 c -0.3175,4.93889 -2.61055,9.77195 -4.62138,9.77195 -1.0936201,0 -2.9633401,-1.27 -3.7747301,-2.54 -0.52916,-0.88195 -0.67027,-1.5875 -0.56444,-2.82222 0.14111,-1.83445 -0.14111,-2.61056 -0.88195,-2.29306 -0.52916,0.17639 -1.34055,2.46945 -1.34055,3.73945 0,2.04611 2.68111,5.22111 5.04472,5.99722 1.0230601,0.35278 1.4816701,0.3175 2.5752801,-0.14111 1.86972,-0.77611 2.54,-1.44639 3.70417,-3.77473 1.83444,-3.63361 2.18722,-5.96194 2.01083,-13.97 -0.10583,-3.95111 -0.3175,-7.30249 -0.49389,-7.44361 -0.17639,-0.17638 -0.635,-0.17638 -1.05833,-0.0353 -0.635,0.24694 -0.77611,0.67027 -0.9525,3.06916 -0.38806,5.22111 -1.83445,7.19667 -3.42195,4.62139 -1.16416,-1.905 -1.4463901,-3.42194 -1.02305,-5.75028 0.635,-3.42194 0.59972,-3.88055 -0.28223,-3.98638 -0.5997201,-0.10584 -0.9172201,0.10583 -1.1641601,0.81138 z"
           id="path18135" />
        <path
           style="stroke-width:0.03527778"
           inkscape:connector-curvature="0"
           d="m 45.486811,190.52158 c -0.14111,0.38805 0.0353,0.77611 0.42334,1.05833 1.05833,0.77611 1.5875,0.59972 1.5875,-0.56445 0,-0.88194 -0.14111,-1.05833 -0.88195,-1.05833 -0.52916,0 -0.98778,0.24695 -1.12889,0.56445 z"
           id="path18137" />
        <path
           style="stroke-width:0.03527778"
           inkscape:connector-curvature="0"
           d="m 84.786251,190.23935 c -0.88194,0.17639 -1.55221,1.69334 -2.6811,6.17361 -1.09361,4.19806 -2.82223,8.74889 -3.42194,8.96056 -0.42333,0.14111 -2.89279,-6.06778 -3.84529,-9.66611 -0.635,-2.25778 -1.55222,-3.10445 -2.39888,-2.25778 -0.56445,0.56445 0.3175,4.62139 1.69333,7.79639 0.59972,1.44639 1.41111,3.45722 1.72861,4.445 1.34056,4.09222 3.4925,4.30389 5.3975,0.49389 1.34056,-2.68111 3.06917,-7.76111 3.6689,-10.75972 0.21166,-1.16417 0.635,-2.54 0.88193,-3.06917 0.88194,-1.69333 0.4939,-2.46944 -1.02306,-2.11667 z"
           id="path18139" />
        <path
           style="stroke-width:0.03527778"
           inkscape:connector-curvature="0"
           d="m 236.51598,190.90963 c -0.67029,0.77611 -1.62279,3.63361 -1.905,5.82083 -0.14113,0.91723 -0.45863,1.86973 -0.74083,2.08139 -0.28223,0.24695 -1.48167,0.42334 -2.68111,0.38806 -2.61056,-0.0353 -4.445,0.88194 -6.38529,3.175 -1.76387,2.01083 -2.2225,3.73944 -1.65804,5.85611 0.52917,2.08139 1.51694,3.13972 3.35137,3.63361 1.79917,0.49389 4.6214,-0.28222 5.85611,-1.62278 0.45862,-0.49389 0.9525,-0.88194 1.09362,-0.88194 0.14111,0 0.81138,0.56444 1.48167,1.23472 1.51694,1.51694 3.06917,1.62278 4.86833,0.42333 1.86971,-1.27 1.5875,-1.86972 -0.81139,-1.72861 -1.7639,0.10584 -2.04611,0.0353 -2.54,-0.70555 -1.02307,-1.55223 -1.02307,-3.42195 -0.0706,-7.86695 0.77613,-3.66889 1.4464,-6.31472 2.2225,-8.74889 0.21167,-0.67027 -0.4586,-1.65805 -1.12887,-1.65805 -0.21167,0 -0.67029,0.28222 -0.9525,0.59972 z m -3.21029,11.99444 c -0.56444,3.31612 -3.31611,6.80862 -5.43277,6.80862 -1.30527,0 -2.54,-1.55223 -2.39888,-2.96334 0.14111,-1.62278 0.56444,-2.32833 2.29304,-3.84528 1.3053,-1.19944 1.5875,-1.30527 3.56307,-1.30527 h 2.1872 z"
           id="path18141" />
        <path
           style="stroke-width:0.03527778"
           inkscape:connector-curvature="0"
           d="m 5.5170911,191.89741 c -0.24694,0.28222 -0.81139,0.52917 -1.23472,0.52917 -0.42333,0 -0.9525,0.21166 -1.16417,0.42333 -0.17639,0.24694 -0.45861,2.50472 -0.59972,4.97416 l -0.28222,4.55084 0.84667,-0.14111 c 1.05833,-0.14111 1.65805,-1.37584 2.11666,-4.26861 0.38806,-2.32834 1.16417,-3.91584 1.83445,-3.70417 0.74083,0.24694 1.79916,2.8575 1.905,4.86833 0.21166,2.89278 0.38805,3.52778 1.0936099,3.52778 1.27,0 1.41111,-0.42333 1.12889,-3.88056 -0.17639,-2.36361 -0.49389,-3.81 -1.02306,-4.86833 -1.0936099,-2.15194 -3.5983299,-3.24555 -4.6213899,-2.01083 z"
           id="path18143" />
        <path
           style="stroke-width:0.03527778"
           inkscape:connector-curvature="0"
           d="m 18.746261,192.63824 c -4.1275,2.75167 -5.715,6.13833 -4.40972,9.31333 0.91722,2.18723 3.88055,2.78695 6.17361,1.23473 0.91722,-0.635 1.65805,-0.88195 2.43416,-0.77611 0.59973,0.0705 1.37584,0 1.72862,-0.17639 0.56444,-0.28223 0.56444,-0.38806 -0.24695,-1.44639 -0.81139,-1.05834 -0.81139,-1.19945 -0.35278,-2.71639 0.70556,-2.36361 0.635,-3.91583 -0.17639,-4.1275 -0.42333,-0.10583 -0.74083,-0.52917 -0.81138,-1.12889 -0.10584,-0.81139 -0.28223,-0.91722 -1.51695,-1.02305 -1.05833,-0.0706 -1.76389,0.14111 -2.82222,0.84666 z m 4.05694,1.37584 c 0,0.10583 -0.24694,0.56444 -0.52916,1.02305 -0.3175,0.45861 -0.635,1.65806 -0.77611,2.64583 -0.14112,1.30528 -0.49389,2.11667 -1.16417,2.8575 -2.89278,3.10445 -5.78556,0.10584 -3.24556,-3.38666 1.30528,-1.76389 1.86973,-2.2225 3.4925,-2.82222 1.44639,-0.49389 2.2225,-0.59973 2.2225,-0.3175 z"
           id="path18145" />
        <path
           style="stroke-width:0.03527778"
           inkscape:connector-curvature="0"
           d="m 31.799041,193.44963 c -0.59973,0.35278 -1.51695,1.16417 -2.04611,1.76389 -0.52917,0.635 -1.41112,1.27 -1.94028,1.41111 -0.81139,0.21167 -1.02306,0.56444 -1.37584,2.18722 -0.24694,1.05834 -0.42333,2.68111 -0.35277,3.66889 0.0705,1.62278 0.14111,1.76389 0.9525,1.76389 0.9525,0 1.41111,-0.77611 3.38666,-5.3975 0.635,-1.48167 1.12889,-2.18722 1.48167,-2.11667 0.42333,0.0706 0.52917,0.70556 0.45861,3.175 -0.0705,3.28084 0.28222,4.51556 1.37583,4.51556 0.84667,0 1.83445,-1.27 2.82223,-3.70417 0.49389,-1.27 0.98777,-1.94028 1.37583,-1.94028 0.49389,0 0.59972,0.49389 0.67028,3.06917 0.0353,1.69333 0.21166,3.21028 0.38805,3.38667 0.17639,0.17639 0.67028,0.24694 1.12889,0.17639 0.84667,-0.10584 0.84667,-0.14111 0.70556,-3.98639 -0.14111,-4.05695 -0.56445,-5.50334 -1.76389,-6.17361 -0.9525,-0.49389 -0.91722,-0.49389 -2.29306,0.74083 -1.44639,1.27 -1.97555,1.09361 -1.97555,-0.59972 0,-2.50472 -1.02306,-3.175 -2.99861,-1.94028 z"
           id="path18147" />
        <path
           style="stroke-width:0.03527778"
           inkscape:connector-curvature="0"
           d="m 89.972081,194.36685 c -2.8222,2.92806 -3.66887,8.00806 -1.905,11.46528 0.88196,1.76389 2.0814,2.46944 4.1275,2.46944 2.2578,0 3.91584,-1.34055 5.4328,-4.40972 1.37583,-2.82222 1.5875,-5.92666 0.49387,-8.11389 -0.84667,-1.65805 -3.10444,-2.96333 -5.25637,-2.99861 -1.19946,0 -1.6228,0.21167 -2.8928,1.5875 z m 4.7978,1.23472 c 1.0936,0.56445 1.4111,0.9525 1.62277,1.94028 0.9525,5.15056 -3.9864,10.83028 -6.2089,7.12611 -1.51694,-2.46944 -0.28221,-7.9375 2.04613,-9.24277 1.19943,-0.635 0.9172,-0.635 2.54,0.17638 z"
           id="path18149" />
        <path
           style="stroke-width:0.03527778"
           inkscape:connector-curvature="0"
           d="m 53.847651,194.08463 c -3.21028,2.11667 -4.37445,4.19806 -4.16278,7.54944 0.10583,1.94028 0.28222,2.57528 0.98778,3.31612 1.16416,1.27 2.54,1.94027 3.88055,1.94027 1.16417,0 3.52778,-0.9525 3.52778,-1.41111 0,-0.56444 -0.91722,-0.98778 -2.15194,-0.98778 -1.94028,0 -2.75167,-0.35277 -3.31612,-1.48166 -0.70555,-1.37584 -0.67027,-2.92806 0.17639,-4.55084 0.74084,-1.48166 2.71639,-2.8575 4.09223,-2.8575 0.91722,0 1.16416,-0.9525 0.42333,-1.69333 -0.59972,-0.59972 -2.39889,-0.49389 -3.45722,0.17639 z"
           id="path18151" />
        <path
           style="stroke-width:0.03527778"
           inkscape:connector-curvature="0"
           d="m 135.55098,195.42519 c -1.5875,0.56444 -1.79917,0.77611 -3.4925,3.28083 -1.4111,2.08139 -1.86973,3.66889 -1.51694,5.50333 0.56444,2.92806 2.68111,3.88056 6.06777,2.71639 l 2.04611,-0.67028 1.02306,0.84667 c 1.23473,1.02306 2.9986,1.12889 4.1275,0.21167 1.05833,-0.84667 0.74083,-1.34056 -1.02306,-1.62278 -2.08138,-0.3175 -2.32834,-1.05833 -1.41111,-3.91583 0.9525,-2.82223 0.67027,-4.51556 -0.7761,-4.69195 -0.70556,-0.0705 -0.98779,0.14111 -1.51696,1.23472 -0.35277,0.74084 -0.70554,2.18723 -0.81137,3.21028 -0.1764,1.65806 -0.3528,2.01083 -1.3053,2.57528 -1.48166,0.88194 -2.96333,1.16417 -3.56304,0.67028 -0.67029,-0.56445 -0.67029,-2.57528 0,-3.84528 0.70554,-1.37583 3.21027,-3.45722 4.40971,-3.73945 2.11667,-0.45861 2.32833,-2.29305 0.28223,-2.29305 -0.635,0.0353 -1.79917,0.24694 -2.54,0.52917 z"
           id="path18153" />
        <path
           style="stroke-width:0.03527778"
           inkscape:connector-curvature="0"
           d="m 167.93598,195.38991 c -5.8914,2.57528 -7.9375,12.48833 -2.92806,14.46389 0.77612,0.3175 1.72862,0.56444 2.15196,0.56444 1.2347,0 3.42193,-0.77611 4.02166,-1.44639 0.98777,-1.09361 0.28221,-1.44639 -2.25779,-1.19944 -2.08137,0.21166 -2.46944,0.14111 -3.3161,-0.52917 -0.88194,-0.67028 -0.98777,-0.98778 -0.98777,-2.75167 0,-1.41111 0.21166,-2.36361 0.70554,-3.175 0.70556,-1.16416 0.74083,-1.16416 2.61056,-0.9525 1.51694,0.21167 2.15194,0.10584 3.28083,-0.49388 4.09223,-2.08139 0.98777,-6.31473 -3.28083,-4.48028 z m 2.96333,2.04611 c -0.10583,0.24694 -0.7761,0.49389 -1.51693,0.56444 -1.19946,0.10584 -1.3053,0.0706 -0.91723,-0.42333 0.56443,-0.67028 2.64583,-0.77611 2.43416,-0.14111 z"
           id="path18155" />
        <path
           style="stroke-width:0.03527778"
           inkscape:connector-curvature="0"
           d="m 151.14375,196.5188 c -3.84527,2.08139 -2.57527,11.43 1.5875,11.43 0.635,0 1.27,0.0705 1.37583,0.17639 0.1764,0.21166 0.0353,1.27 -0.81137,5.46805 -0.74083,3.63361 -2.54,6.70278 -4.05696,6.91445 -1.19944,0.17638 -2.92804,-3.73945 -2.96333,-6.6675 0,-0.70556 -1.02304,-0.10584 -1.41111,0.81138 -0.56443,1.37584 -0.28223,3.38667 0.74084,5.46806 1.48166,2.92806 3.24556,3.66889 5.50333,2.29306 2.8575,-1.72862 4.69194,-6.70278 5.75027,-15.59278 0.38806,-3.35139 0.77613,-6.70278 0.88196,-7.40834 0.10583,-0.74083 0,-1.41111 -0.21167,-1.51694 -0.17639,-0.14111 -0.49389,-0.635 -0.67029,-1.09361 -0.3175,-0.77611 -0.52917,-0.84667 -2.54,-0.84667 -1.27,0.0353 -2.64583,0.24695 -3.175,0.56445 z m 3.81,4.62139 c -0.28221,3.13972 -0.88194,4.33916 -2.15194,4.33916 -0.70556,0 -0.91723,-0.24694 -1.23473,-1.48166 -0.42333,-1.55223 -0.17637,-4.37445 0.42334,-5.15056 0.21166,-0.21167 1.02306,-0.42333 1.79916,-0.42333 h 1.41113 z"
           id="path18157" />
        <path
           style="stroke-width:0.03527778"
           inkscape:connector-curvature="0"
           d="m 44.393201,196.73046 c -1.16416,1.41111 -1.27,7.76111 -0.14111,8.21973 1.05833,0.38805 1.41111,-0.635 1.55222,-4.58612 0.10584,-3.31611 0.0353,-3.88055 -0.45861,-3.98638 -0.3175,-0.0353 -0.74083,0.10583 -0.9525,0.35277 z"
           id="path18159" />
        <path
           style="stroke-width:0.03527778"
           inkscape:connector-curvature="0"
           d="m 200.07404,197.36546 c -1.76389,0.74084 -2.68112,1.37584 -3.175,2.18723 -0.38806,0.59972 -1.05833,1.65805 -1.51696,2.36361 -1.51693,2.36361 -0.56443,6.73805 1.79917,8.14916 1.86973,1.16417 4.83306,0.81139 7.02029,-0.77611 0.45861,-0.3175 0.84667,-0.28222 2.04611,0.24695 1.4111,0.635 1.44639,0.635 2.15193,-0.0706 l 0.70557,-0.70555 -1.23473,-0.9525 c -1.41111,-1.05834 -1.48167,-1.48167 -0.74084,-3.56306 0.28223,-0.77611 0.4939,-2.2225 0.52917,-3.24556 v -1.79916 l -2.15194,-1.44639 c -1.19943,-0.81139 -2.32833,-1.44639 -2.57527,-1.44639 -0.21166,0 -1.48166,0.49389 -2.8575,1.05833 z m 4.51554,3.175 c -0.42333,4.55084 -0.67027,5.57389 -1.69333,6.45584 -1.65804,1.44639 -3.10444,1.83444 -4.23333,1.09361 -2.15194,-1.41111 -2.50471,-3.88056 -0.84667,-5.89139 1.51696,-1.83445 3.31613,-2.71639 5.2564,-2.61056 1.44639,0.0706 1.5875,0.14111 1.51693,0.9525 z"
           id="path18161" />
        <path
           style="stroke-width:0.03527778"
           inkscape:connector-curvature="0"
           d="m 447.97098,198.14157 c -1.65806,3.98639 -3.59833,11.95917 -3.59833,14.85195 0,2.8575 0.67027,4.23333 2.61054,5.36222 1.76389,1.02306 4.62139,1.16417 4.62139,0.21167 0,-0.52917 -0.24693,-0.70556 -2.46943,-1.62278 -1.5875,-0.635 -2.7164,-1.94028 -2.8575,-3.31611 -0.21167,-1.905 2.78693,-13.26445 3.7747,-14.32278 0.45863,-0.45861 0.38807,-1.72861 -0.10583,-2.2225 -0.7761,-0.77611 -1.34054,-0.45861 -1.97554,1.05833 z"
           id="path18163" />
        <path
           style="stroke-width:0.03527778"
           inkscape:connector-curvature="0"
           d="m 216.37238,199.65852 c -1.37584,0.91722 -2.36363,1.12889 -2.36363,0.52917 0,-0.49389 -1.27,-0.42334 -1.69333,0.0705 -0.17638,0.24695 -0.42334,1.41111 -0.56444,2.57528 -0.67027,6.35 -0.67027,6.70278 -0.10583,7.16139 0.7761,0.67028 1.51693,0.17639 2.18723,-1.44639 2.29304,-5.43278 3.59833,-7.51417 4.51554,-7.19667 0.28223,0.0706 0.42333,1.30528 0.42333,3.73945 0,3.13972 0.10583,3.66889 0.67029,4.09222 0.42334,0.35278 0.84667,0.38805 1.27,0.17639 0.49388,-0.28222 0.56444,-0.81139 0.42334,-4.30389 -0.10584,-2.8575 -0.3175,-4.26861 -0.74084,-5.04472 -0.81139,-1.44639 -2.25779,-1.55223 -4.02166,-0.35278 z"
           id="path18165" />
        <path
           style="stroke-width:0.03527778"
           inkscape:connector-curvature="0"
           d="m 284.03515,200.39935 c -2.92807,0.91722 -2.82223,0.77611 -2.8928,4.23334 -0.0353,1.72861 -0.24693,3.98638 -0.4586,4.97416 -0.4586,2.15195 -0.3175,2.57528 0.91723,2.57528 0.70554,0 1.02304,-0.3175 1.5875,-1.65806 0.38804,-0.91722 0.9525,-2.96333 1.27,-4.51555 0.28221,-1.55222 0.67027,-3.03389 0.88194,-3.28083 0.21166,-0.21167 1.02306,-0.42334 1.83443,-0.42334 3.59834,0 5.3975,-0.91722 3.91584,-1.97555 -0.88194,-0.67028 -4.79777,-0.59973 -7.05554,0.0705 z"
           id="path18167" />
        <path
           style="stroke-width:0.03527778"
           inkscape:connector-curvature="0"
           d="m 294.61848,201.9163 c -2.8575,1.34055 -4.86833,4.16277 -5.32696,7.51416 -0.42333,3.06917 1.41113,4.86834 4.86833,4.86834 2.32834,0 4.4803,-1.12889 3.81,-1.94028 -0.3175,-0.38806 -1.16416,-0.52917 -2.8222,-0.52917 -2.8928,0 -3.63363,-0.56444 -3.2103,-2.46944 0.56446,-2.54 0.88196,-2.82222 3.31613,-2.82222 3.52777,0 5.15054,-1.41112 4.2686,-3.70417 -0.24693,-0.635 -1.94027,-1.5875 -2.8575,-1.5875 -0.35277,0 -1.27,0.3175 -2.0461,0.67028 z"
           id="path18169" />
        <path
           style="stroke-width:0.03527778"
           inkscape:connector-curvature="0"
           d="m 306.29542,203.25685 c -1.4464,0.74084 -2.11667,2.39889 -2.04611,5.15056 0.0705,4.90361 1.44638,6.94972 4.62138,6.94972 h 1.37583 l 0.24696,3.06917 c 0.70554,9.48972 1.55221,11.81805 3.91583,10.72444 1.44638,-0.635 2.89277,-4.55083 1.905,-5.15055 -0.21166,-0.14112 -0.88196,0.21166 -1.48166,0.70555 l -1.1289,0.9525 -0.3175,-0.84667 c -0.38806,-1.02305 -0.35277,-11.67694 0.0353,-16.33361 0.1764,-1.94027 0.1764,-3.77472 0.0353,-4.09222 -0.49389,-1.02305 -5.78556,-1.83444 -7.16139,-1.12889 z m 4.1275,2.43417 c 0.3175,0.10583 0.59973,0.49389 0.59973,0.84667 0,1.30527 -1.41113,5.18583 -2.15196,5.85611 -0.74084,0.67027 -0.74084,0.67027 -1.37584,-0.10584 -1.2347,-1.55222 -1.19943,-6.06777 0.0706,-6.84389 0.38806,-0.24694 1.5875,-0.14111 2.8575,0.24695 z"
           id="path18171" />
        <path
           style="stroke-width:0.03527778"
           inkscape:connector-curvature="0"
           d="m 319.63042,204.06824 c -1.1289,0.45861 -1.72861,2.32833 -1.72861,5.29167 0.0353,3.06916 0.67027,4.62139 2.32834,5.50333 3.35137,1.72861 7.3025,-2.68111 7.47887,-8.32555 0.0706,-1.72862 0,-1.94028 -0.635,-1.94028 -0.70554,0 -0.7761,0.14111 -1.76387,3.81 -0.74084,2.68111 -2.46946,4.69194 -3.77473,4.37444 -1.62277,-0.42333 -2.2225,-3.91583 -1.16417,-6.49111 0.56444,-1.34055 0.70556,-2.57528 0.28223,-2.54 -0.1764,0 -0.59973,0.14111 -1.02306,0.3175 z"
           id="path18173" />
        <path
           style="stroke-width:0.03527778"
           inkscape:connector-curvature="0"
           d="m 456.82569,205.02074 c -0.635,0.21167 -0.56444,1.76389 0.0706,2.01083 0.91723,0.3175 1.48167,-0.10583 1.30527,-1.02305 -0.1411,-0.88195 -0.67027,-1.23472 -1.37583,-0.98778 z"
           id="path18175" />
        <path
           style="stroke-width:0.03527778"
           inkscape:connector-curvature="0"
           d="m 332.89485,205.7263 c -2.43416,0.98777 -3.52777,2.82222 -3.52777,5.78555 0,2.11667 0.56444,3.38667 1.79917,4.05695 1.19944,0.59972 4.3039,0.635 5.36223,0.0706 0.42333,-0.24694 1.48167,-0.52916 2.3636,-0.635 1.48167,-0.17639 1.65807,-0.3175 3.52777,-2.99861 2.54,-3.63361 3.28084,-3.77472 3.5278,-0.67028 0.21166,2.43417 0.98777,3.66889 2.3636,3.66889 1.0936,0 1.34056,-0.74083 0.67027,-2.08139 -0.3175,-0.56444 -0.56444,-1.76389 -0.56444,-2.61055 0,-1.97556 -1.19943,-3.91584 -2.54,-4.05695 -0.52916,-0.0705 -1.44639,0.14111 -2.08139,0.45861 -0.91721,0.49389 -1.27,0.52917 -1.94027,0.17639 -0.42334,-0.24694 -1.02307,-0.35277 -1.30527,-0.24694 -0.56446,0.21167 -2.01084,4.1275 -2.01084,5.3975 0,1.12889 -0.74083,1.55222 -3.28083,1.79917 -2.01083,0.17638 -2.36363,0.10583 -3.0339,-0.56445 -0.88193,-0.88194 -0.70556,-1.44639 0.42334,-1.44639 2.61056,0 4.23333,-1.19944 4.69193,-3.38666 0.42334,-2.11667 -2.15193,-3.70417 -4.445,-2.71639 z m 2.46946,2.29305 c 0,0.77611 -1.16416,1.69334 -2.18723,1.69334 -1.19943,0 -1.30527,-0.77612 -0.21166,-1.55223 0.91723,-0.67027 2.39889,-0.74083 2.39889,-0.14111 z"
           id="path18177" />
        <path
           style="stroke-width:0.03527778"
           inkscape:connector-curvature="0"
           d="m 419.96042,205.97324 c -0.8114,0.59972 -1.62277,1.62278 -2.2225,2.89278 -0.84667,1.76389 -0.9525,2.36361 -0.8114,4.83305 0.10583,2.71639 0.1764,2.82223 1.34056,3.81 1.34057,1.12889 3.59834,1.41112 4.7625,0.52917 0.635,-0.45861 0.635,-0.49389 -0.10583,-0.88194 -0.38806,-0.21167 -1.02306,-0.38806 -1.4111,-0.38806 -0.38807,0 -1.09363,-0.3175 -1.6228,-0.74083 -0.7761,-0.59972 -0.9172,-0.98778 -0.9172,-2.54 0.0353,-3.03389 1.62277,-5.67972 3.98637,-6.56167 1.4464,-0.56444 1.16417,-1.5875 -0.4586,-1.72861 -0.84667,-0.0706 -1.62277,0.17639 -2.54,0.77611 z"
           id="path18179" />
        <path
           style="stroke-width:0.03527778"
           inkscape:connector-curvature="0"
           d="m 353.35598,207.45491 c -1.62279,1.44639 -2.18723,3.06916 -1.7639,4.93889 0.635,2.8575 3.175,4.48027 5.8914,3.81 1.83444,-0.42334 1.69333,-1.19945 -0.3175,-1.86973 -2.0814,-0.70555 -3.10446,-1.65805 -3.10446,-2.8575 0,-0.9525 1.23473,-2.36361 2.75167,-3.13972 0.88196,-0.45861 1.02306,-1.62278 0.21166,-1.94028 -1.2347,-0.45861 -2.32833,-0.17638 -3.66887,1.05834 z"
           id="path18181" />
        <path
           style="stroke-width:0.03527778"
           inkscape:connector-curvature="0"
           d="m 361.50515,208.54852 c -0.70557,1.51694 -0.91723,4.51555 -0.38807,5.75028 0.635,1.55222 1.97557,2.46944 3.56307,2.46944 1.79916,0 1.79916,0.52917 -0.1764,3.98639 -1.97556,3.42194 -4.02167,5.92667 -5.67973,6.80861 l -1.27,0.67028 -1.23471,-1.34056 c -1.41112,-1.51694 -1.905,-1.65805 -1.905,-0.45861 0,1.5875 0.74084,2.92806 1.94027,3.59834 1.1289,0.59972 1.23473,0.59972 2.7164,-0.0706 4.09221,-1.83444 8.46667,-7.9375 10.83027,-15.24 1.4464,-4.40972 1.55223,-5.15056 0.74083,-5.89139 -0.9525,-0.84667 -1.51693,-0.49389 -2.43416,1.48167 -1.19944,2.54 -2.3989,3.98639 -3.3514,3.98639 -1.34054,0 -1.76387,-0.81139 -1.44637,-2.92806 0.4586,-3.38667 0.4586,-3.59833 -0.56446,-3.70417 -0.70554,-0.0706 -0.98777,0.10584 -1.34054,0.88195 z"
           id="path18183" />
        <path
           style="stroke-width:0.03527778"
           inkscape:connector-curvature="0"
           d="m 429.20319,208.68963 c -1.41111,0.59972 -1.69334,0.9525 -2.54,2.96333 -1.12888,2.61056 -1.19944,3.13973 -0.45861,4.90361 0.91723,2.15195 3.42194,2.57528 6.38527,1.09362 0.9525,-0.49389 1.86973,-0.88195 2.04613,-0.88195 0.1411,0 0.84667,0.45861 1.51694,1.05833 0.70556,0.635 1.62277,1.09362 2.2225,1.09362 0.59973,0.0353 1.27,0.0705 1.51693,0.0705 0.84667,0.0353 2.43417,-0.81139 2.29307,-1.27 -0.10584,-0.21167 -0.52917,-0.45861 -1.02307,-0.52917 -2.29304,-0.24694 -3.06916,-0.49388 -3.81,-1.16416 -0.84666,-0.81139 -0.84666,-1.905 0.0706,-5.04472 0.35277,-1.19945 0.3175,-1.41112 -0.28223,-1.83445 -0.56444,-0.42333 -0.74084,-0.42333 -1.30527,0.10583 -0.35277,0.3175 -0.635,0.74084 -0.635,0.9525 0,0.9525 -1.79917,4.09223 -2.61057,4.62139 -1.05833,0.70556 -3.28083,1.27 -3.9511,0.98778 -0.28223,-0.10583 -0.4939,-0.49389 -0.4939,-0.88194 0,-1.76389 1.9403,-3.91584 4.33917,-4.7625 0.9525,-0.35278 1.83446,-0.84667 1.94029,-1.09361 0.45861,-1.27 -2.75166,-1.51695 -5.22112,-0.38806 z"
           id="path18185" />
        <path
           style="stroke-width:0.03527778"
           inkscape:connector-curvature="0"
           d="m 465.01015,208.76019 c -0.70557,0.52916 -1.55223,0.77611 -2.64584,0.77611 -1.5875,0 -1.5875,0 -1.79916,1.41111 -0.10584,0.77611 -0.42334,2.15194 -0.6703,3.03389 -0.24693,0.88194 -0.35277,1.86972 -0.24693,2.18722 0.4586,1.27 1.5875,0.59972 3.81,-2.2225 1.23473,-1.55222 2.43416,-2.82222 2.6811,-2.82222 0.3175,0 0.45863,0.52916 0.45863,1.48166 0,0.91723 0.2822,2.01084 0.74083,2.71639 0.59971,1.02306 0.84667,1.16417 1.83444,0.98778 0.88193,-0.10583 1.30527,0.0353 2.0461,0.84667 0.8114,0.88194 1.23473,1.02305 2.75167,1.02305 1.5875,0 1.79916,0.10584 1.79916,0.70556 0,0.88194 -0.84666,1.23472 -4.16277,1.72861 -4.09223,0.635 -6.1736,2.01083 -7.79639,5.29167 -1.05834,2.11666 -1.19944,3.59833 -0.38804,4.86833 0.7761,1.27 1.905,1.69333 3.73943,1.41111 3.31611,-0.52917 6.49111,-3.35139 8.60777,-7.62 0.9525,-1.86972 1.3053,-2.29306 2.68113,-2.89278 1.65804,-0.70555 1.905,-1.48166 0.56444,-1.65805 -0.52917,-0.0706 -0.77611,-0.35278 -0.77611,-0.84667 0,-0.77611 3.21027,-7.05556 4.1275,-8.11389 1.48167,-1.69333 -0.70556,-2.64583 -5.11529,-2.2225 -2.6811,0.24695 -2.75167,0.28222 -4.37444,1.94028 -1.0936,1.12889 -1.7286,2.15194 -1.905,2.96333 -0.28223,1.65806 -0.70556,1.86972 -1.5875,0.84667 -0.56443,-0.67028 -0.67027,-1.12889 -0.49389,-2.68111 0.35279,-3.52778 -1.41111,-4.97417 -3.88054,-3.13972 z m 13.72304,2.71638 c 0.49389,0.49389 -2.82221,3.77473 -4.30388,4.26862 -2.43416,0.81138 -2.25779,-0.70556 0.42334,-3.4925 1.2347,-1.30528 1.5875,-1.48167 2.5047,-1.30528 0.56446,0.10583 1.19946,0.35278 1.37584,0.52916 z m -4.72721,11.07723 c 0,0.28222 -0.35279,1.12889 -0.77613,1.86972 -2.11666,3.63361 -4.51554,5.53861 -6.73804,5.32694 -1.55223,-0.14111 -1.62279,-1.34055 -0.24696,-3.70416 1.1289,-2.01084 2.11667,-2.64584 5.00946,-3.42195 2.39888,-0.67028 2.75167,-0.67028 2.75167,-0.0705 z"
           id="path18187" />
        <path
           style="stroke-width:0.03527778"
           inkscape:connector-curvature="0"
           d="m 454.49735,211.01796 c -0.21166,0.35278 -0.52916,2.2225 -0.81137,4.58611 -0.1764,1.62278 -0.14113,1.86973 0.56444,2.2225 0.4586,0.24695 0.91723,0.28223 1.0936,0.10584 0.42333,-0.42334 1.16417,-5.89139 0.91723,-6.59695 -0.21167,-0.56444 -1.48167,-0.77611 -1.7639,-0.3175 z"
           id="path18189" />
      </g>
    </g>
    <g
       id="g19750"
       transform="translate(-32.505952,-344.71429)">
      <path
         id="path18195"
         d="m -44.189289,513.57027 c -1.76389,2.43416 -0.14111,6.0325 2.71639,6.0325 0.3175,0 1.12888,-0.49389 1.76388,-1.09361 1.34056,-1.27 1.51695,-3.03389 0.42334,-4.83306 -0.635,-1.02305 -0.84667,-1.12889 -2.43417,-1.12889 -1.51694,0 -1.83444,0.14111 -2.46944,1.02306 z"
         inkscape:connector-curvature="0"
         style="stroke-width:0.03527778" />
      <g
         id="g19677"
         transform="translate(31.75,256.26786)">
        <path
           style="stroke-width:0.03527778"
           inkscape:connector-curvature="0"
           d="m -34.346789,238.56991 c -4.83306,2.01083 -5.99723,2.89278 -6.56167,5.15055 -0.17639,0.70556 -0.0353,1.16417 0.49389,1.72861 0.81139,0.88195 0.91722,2.43417 1.44639,19.29695 0.3175,9.45445 0.77611,14.18165 1.55222,15.09889 0.81139,1.02306 1.02305,-0.24694 0.56444,-4.02167 -0.21166,-2.11667 -0.45861,-6.94973 -0.49389,-10.72444 0,-3.77473 -0.17638,-10.30111 -0.35277,-14.46389 -0.3175,-8.60778 -0.56445,-7.83167 2.82222,-9.2075 2.82222,-1.12889 5.3975,-1.09361 8.04333,0.14111 3.38667,1.55222 4.23333,4.09222 2.64583,8.21972 -0.59972,1.55222 -1.44638,2.68111 -3.77472,5.04472 -1.65805,1.69334 -3.73944,3.63361 -4.62139,4.30389 -3.21027,2.57528 -3.175,4.23334 0.35278,8.25499 1.37583,1.6228 2.92806,4.05696 4.445,7.05557 2.46945,4.7625 4.40972,7.58473 5.29167,7.58473 0.98778,0 0.88194,-1.02307 -0.28222,-2.8928 -0.67028,-1.02304 -2.29306,-3.9511 -3.59834,-6.52637 -1.30528,-2.54 -3.175,-5.60917 -4.1275,-6.77333 -0.9525,-1.19945 -1.72861,-2.3989 -1.72861,-2.7164 0,-0.28222 1.65806,-2.15194 3.66889,-4.1275 4.37444,-4.30389 6.06778,-6.80861 6.73806,-10.05417 1.02305,-4.72722 -0.49389,-7.76111 -4.79778,-9.73666 -2.68111,-1.23472 -5.64445,-1.48167 -7.72583,-0.635 z"
           id="path18191" />
        <path
           style="stroke-width:0.03527778"
           inkscape:connector-curvature="0"
           d="m 57.410701,250.03519 c -0.74083,0.91722 -1.48166,3.175 -2.78694,8.29027 -1.12889,4.58611 -1.27,5.715 -1.30528,9.77195 0,4.2686 0.0706,4.69193 0.88194,6.1736 1.65806,2.96333 4.51556,3.95113 6.985,2.46946 1.23473,-0.74083 2.08139,-2.36363 1.55223,-2.8928 -0.21167,-0.21166 -0.77611,-0.10583 -1.44639,0.24697 -0.70556,0.35277 -1.76389,0.52916 -2.75167,0.4586 -1.51694,-0.10583 -1.69333,-0.21167 -2.36361,-1.51694 -0.9525,-1.83446 -1.27,-7.19666 -0.45861,-7.86696 0.28222,-0.24693 2.11667,-0.67027 4.1275,-0.95249 3.35139,-0.52916 4.58611,-1.02305 4.58611,-1.905 0,-0.70555 -2.82222,-1.16416 -5.57389,-0.88194 -2.39889,0.21166 -2.64583,0.17639 -2.43417,-0.35278 0.77612,-1.97556 2.78695,-10.4775 2.61056,-10.93611 -0.28222,-0.67028 -1.09361,-0.74083 -1.62278,-0.10583 z"
           id="path18193" />
        <path
           style="stroke-width:0.03527778"
           inkscape:connector-curvature="0"
           d="m 124.12098,257.40824 c -0.52917,0.70556 -1.83444,9.94833 -1.83444,13.1939 0,2.5047 -2.75166,5.89137 -5.60916,6.87916 -1.69334,0.59971 -2.15196,0 -2.15196,-2.71639 0,-2.8575 0.77612,-4.58611 2.54,-5.46807 0.70556,-0.35277 1.62279,-0.67027 2.01083,-0.67027 1.79917,0 2.29306,-0.84666 1.1289,-1.905 -0.4939,-0.4586 -0.98777,-0.52916 -2.18723,-0.35277 -3.45721,0.52917 -5.57388,2.96334 -5.89138,6.73804 -0.3175,3.9864 1.30527,7.1614 3.70417,7.1614 1.48167,0 3.9511,-1.4464 5.67971,-3.3514 1.09362,-1.19943 1.65806,-1.62277 1.76389,-1.27 0.10584,0.28223 0.67027,1.05833 1.27,1.69333 1.34057,1.48167 3.3514,2.04613 4.445,1.27 0.9525,-0.67026 0.59973,-1.0936 -1.51693,-1.8697 -1.1289,-0.42333 -1.6228,-0.88196 -2.15196,-1.9403 -0.9525,-1.94026 -0.88194,-6.56166 0.14112,-11.92387 0.67027,-3.52778 0.70554,-4.30389 0.35277,-5.04473 -0.52916,-0.91722 -1.12889,-1.09361 -1.69333,-0.42333 z"
           id="path18197" />
        <path
           style="stroke-width:0.03527778"
           inkscape:connector-curvature="0"
           d="m 160.73931,261.11241 c 0,0.9525 -0.38806,4.05693 -0.88193,6.985 -1.3053,7.9375 -1.41113,9.31333 -0.635,10.72443 0.74083,1.41113 1.12887,1.6228 1.97554,1.02307 0.52916,-0.42334 0.52916,-0.59974 0,-2.15194 -0.84667,-2.54 -0.17638,-2.92806 1.5875,-0.91723 1.72862,1.94027 6.13833,4.19806 7.05556,3.6336 0.98777,-0.635 0.67027,-1.30527 -1.16417,-2.46943 -0.9525,-0.635 -2.2225,-1.41111 -2.78693,-1.79917 -0.56446,-0.35277 -1.51696,-1.23473 -2.11667,-2.01083 -1.02306,-1.27 -1.05833,-1.37584 -0.45863,-1.7639 2.8575,-1.76387 3.9864,-2.64584 4.4803,-3.45721 0.4586,-0.88196 0.4586,-1.02306 -0.0706,-1.5875 -0.59973,-0.56446 -0.67027,-0.56446 -1.5875,0.3175 -1.905,1.76387 -4.5861,2.68111 -4.19806,1.41111 0.10583,-0.3175 0.45863,-2.15194 0.77613,-4.05695 0.67027,-4.02166 0.35277,-5.53861 -1.1289,-5.53861 -0.7761,0 -0.84667,0.14111 -0.84667,1.65806 z"
           id="path18199" />
        <path
           style="stroke-width:0.03527778"
           inkscape:connector-curvature="0"
           d="m -14.062069,266.19241 c -2.01084,1.86973 -2.99861,3.91583 -2.99861,6.27943 0,2.29307 0.77611,3.73946 2.54,4.65667 1.69333,0.84666 2.96333,0.84666 4.6919401,-0.0353 1.72861,-0.88194 1.65806,-0.88194 3.21028,0.1764 1.41111,0.9525 2.25778,1.0936 3.35139,0.49387 0.67027,-0.35277 0.70555,-0.42334 0.14111,-1.02304 -0.3175,-0.3528 -1.02306,-0.84667 -1.5875,-1.05833 -1.23472,-0.4939 -1.51695,-1.23473 -1.62278,-4.05697 -0.17639,-4.02166 -0.42333,-4.83303 -1.94028,-5.92666 -2.1166601,-1.48166 -3.8100001,-1.34055 -5.7855501,0.4939 z m 4.8683301,4.09223 c 0.21167,2.9986 0.17639,3.1397 -0.67028,3.88053 -1.1641601,1.05834 -3.6336101,1.1289 -4.5508301,0.10584 -1.5875,-1.76387 1.44639,-7.05554 4.02167,-7.05554 h 0.9877701 z"
           id="path18201" />
        <path
           style="stroke-width:0.03527778"
           inkscape:connector-curvature="0"
           d="m 4.2823711,265.38101 c -2.08139,1.27 -4.26860996,4.26863 -4.40971996,6.06779 -0.21167,2.50471 0,3.24554 1.37582996,4.62137 1.27,1.27 1.48167,1.37584 3.42195,1.37584 2.71638,0 4.40972,-0.49387 5.4327699,-1.5875 l 0.81139,-0.88194 H 7.4926511 c -3.59834,0 -4.55084,-0.24693 -5.15056,-1.4111 -0.84666,-1.55223 2.64584,-6.35 4.58611,-6.35 1.48167,0 1.905,-0.70556 0.98778,-1.65806 -0.91722,-0.98778 -2.18722,-1.02306 -3.63361,-0.1764 z"
           id="path18203" />
        <path
           style="stroke-width:0.03527778"
           inkscape:connector-curvature="0"
           d="m 15.853481,267.07434 c -5.43278,3.24557 -3.77472,10.90083 2.64583,12.13557 2.11667,0.38806 5.04473,-0.0706 5.75028,-0.91724 0.67028,-0.81137 0.0706,-1.05833 -3.52778,-1.5522 -3.81,-0.52917 -5.32694,-1.4464 -5.32694,-3.2103 0,-0.88193 0.14111,-1.02303 0.98778,-1.02303 2.61055,0 5.36222,-1.6228 5.36222,-3.13973 0,-0.38807 -0.52917,-1.27 -1.19944,-1.94027 -1.44639,-1.55223 -2.61056,-1.6228 -4.69195,-0.3528 z m 3.06917,1.69333 c -0.28222,0.28224 -0.91722,0.59974 -1.41111,0.74084 -0.77611,0.24696 -0.81139,0.21166 -0.42334,-0.28221 0.28223,-0.3175 0.81139,-0.635 1.23473,-0.70556 0.42333,-0.0706 0.84666,-0.1764 0.9525,-0.21167 0.0705,0 -0.0706,0.1764 -0.35278,0.4586 z"
           id="path18205" />
        <path
           style="stroke-width:0.03527778"
           inkscape:connector-curvature="0"
           d="m 71.310151,266.6863 c -1.55223,0.81137 -3.31611,2.92804 -3.73945,4.51554 -0.77611,2.8928 0.35278,6.27946 2.57528,7.69057 2.2225,1.37583 5.92667,0.3175 7.62,-2.18724 0.74083,-1.0936 0.8114,-1.51693 0.70556,-4.19803 -0.14112,-3.2103 -0.635,-4.40973 -2.25778,-5.4328 -1.27,-0.88193 -3.66889,-1.05833 -4.90361,-0.38804 z m 4.55083,3.06917 c 0.70555,1.02304 0.70555,3.52777 0.0353,4.86833 -0.59973,1.16417 -2.15195,2.11667 -3.52778,2.11667 -2.54,0 -3.28083,-3.77473 -1.19944,-6.35 1.02305,-1.23473 1.30527,-1.41113 2.64583,-1.41113 1.16416,0 1.62278,0.1764 2.04611,0.77613 z"
           id="path18207" />
        <path
           style="stroke-width:0.03527778"
           inkscape:connector-curvature="0"
           d="m 151.56708,267.21547 c -0.49387,0.1411 -1.34054,0.38804 -1.8697,0.49387 -0.56446,0.14113 -1.27,0.70557 -1.65807,1.37583 -0.38806,0.59974 -1.05833,1.19947 -1.48166,1.3053 -0.74084,0.17637 -0.8114,0.42333 -0.91723,3.175 -0.14111,3.6336 0.0706,4.5861 0.9525,4.5861 1.12889,0 2.04612,-1.62277 2.54,-4.33916 0.24696,-1.37584 0.56446,-2.7164 0.74083,-2.96334 0.1764,-0.24693 1.16417,-0.67027 2.15196,-1.02306 2.43417,-0.7761 3.42194,-1.4111 3.42194,-2.25777 0,-0.59973 -0.24694,-0.70557 -1.48167,-0.67027 -0.84667,0 -1.905,0.1411 -2.3989,0.3175 z"
           id="path18209" />
        <path
           style="stroke-width:0.03527778"
           inkscape:connector-curvature="0"
           d="m 135.48042,268.80297 c -3.63361,1.5875 -4.93888,7.05554 -2.25777,9.41917 1.37583,1.27 3.06916,1.30527 5.25639,0.10583 l 1.62277,-0.88196 1.37584,0.67029 c 1.02306,0.52917 1.55223,0.635 2.01083,0.35277 0.38806,-0.1764 0.67027,-0.42333 0.67027,-0.52916 0,-0.4939 -0.7761,-1.55224 -1.16417,-1.55224 -0.81137,0 -1.44637,-1.5875 -1.62277,-4.05693 -0.21166,-2.43417 -0.21166,-2.46944 -1.62277,-3.24557 -1.5875,-0.9172 -2.68112,-0.98776 -4.26862,-0.2822 z m 3.45723,3.98637 c 0.0353,0.74083 0.0706,1.6228 0,1.9403 -0.1764,0.81137 -1.86973,1.65803 -3.38667,1.65803 -1.7286,0 -2.0814,-1.27 -0.91723,-3.42193 0.77613,-1.4464 0.84667,-1.51694 2.46946,-1.51694 h 1.69333 z"
           id="path18211" />
        <path
           style="stroke-width:0.03527778"
           inkscape:connector-curvature="0"
           d="m 40.830151,270.03767 c -2.78695,0.6703 -4.16278,1.65807 -3.77472,2.68113 0.52916,1.41111 7.97277,-0.70556 7.97277,-2.25779 0,-0.38804 -0.24694,-0.81137 -0.56444,-0.91721 -0.67028,-0.24696 -0.42334,-0.28223 -3.63361,0.49387 z"
           id="path18213" />
        <path
           style="stroke-width:0.03527778"
           inkscape:connector-curvature="0"
           d="m 88.843211,270.10824 c -0.21167,0.28223 -0.21167,0.7761 -0.0353,1.23473 0.28223,0.7761 0.45862,0.81137 4.33916,0.81137 3.4925,0 4.1275,-0.10583 4.83307,-0.70554 0.84666,-0.70556 0.84666,-0.70556 0.17639,-1.23473 -0.91723,-0.70556 -8.74889,-0.7761 -9.31333,-0.10583 z"
           id="path18215" />
      </g>
    </g>
  </g>
</svg>
