<?xml version="1.0" encoding="UTF-8" standalone="no"?>
<!-- Created with Inkscape (http://www.inkscape.org/) -->

<svg
   xmlns:dc="http://purl.org/dc/elements/1.1/"
   xmlns:cc="http://creativecommons.org/ns#"
   xmlns:rdf="http://www.w3.org/1999/02/22-rdf-syntax-ns#"
   xmlns:svg="http://www.w3.org/2000/svg"
   xmlns="http://www.w3.org/2000/svg"
   xmlns:sodipodi="http://sodipodi.sourceforge.net/DTD/sodipodi-0.dtd"
   xmlns:inkscape="http://www.inkscape.org/namespaces/inkscape"
   width="575.8277mm"
   height="296.03909mm"
   viewBox="0 0 575.8277 296.03909"
   version="1.1"
   id="svg17162"
   inkscape:version="0.92.5 (2060ec1f9f, 2020-04-08)"
   sodipodi:docname="freq.svg">
  <defs
     id="defs17156" />
  <sodipodi:namedview
     id="base"
     pagecolor="#ffffff"
     bordercolor="#666666"
     borderopacity="1.0"
     inkscape:pageopacity="0.0"
     inkscape:pageshadow="2"
     inkscape:zoom="0.35"
     inkscape:cx="822.46398"
     inkscape:cy="451.48208"
     inkscape:document-units="mm"
     inkscape:current-layer="layer1"
     showgrid="false"
     fit-margin-top="0"
     fit-margin-left="0"
     fit-margin-right="0"
     fit-margin-bottom="0"
     inkscape:window-width="1918"
     inkscape:window-height="1057"
     inkscape:window-x="1920"
     inkscape:window-y="0"
     inkscape:window-maximized="0" />
  <metadata
     id="metadata17159">
    <rdf:RDF>
      <cc:Work
         rdf:about="">
        <dc:format>image/svg+xml</dc:format>
        <dc:type
           rdf:resource="http://purl.org/dc/dcmitype/StillImage" />
        <dc:title></dc:title>
      </cc:Work>
    </rdf:RDF>
  </metadata>
  <g
     inkscape:label="Layer 1"
     inkscape:groupmode="layer"
     id="layer1"
     transform="translate(320.41979,27.751139)">
    <path
       style="stroke-width:0.03527778"
       inkscape:connector-curvature="0"
       d="m -320.30897,-27.57475 c 0.21167,0.07056 0.635,0.07056 0.88194,0 0.21167,-0.105833 0.0353,-0.176389 -0.45861,-0.176389 -0.49388,0 -0.67027,0.07056 -0.42333,0.176389 z"
       id="path16478" />
    <path
       style="stroke-width:0.03527778"
       inkscape:connector-curvature="0"
       d="m -278.43425,-4.044473 c -1.44639,0.635 -4.02166,3.563057 -5.36222,6.067777 -1.37583,2.57528 -1.86972,5.221113 -1.86972,9.87778 0,3.280833 0.14111,3.95111 1.37583,7.58472 0.77611,2.2225 1.905,5.185833 2.46945,6.632223 0.59972,1.446387 1.02305,2.716387 0.88194,2.822221 -0.10583,0.105833 -1.79917,0.282223 -3.77472,0.388056 -3.59834,0.17639 -3.59834,0.17639 -3.70417,1.12889 -0.17639,1.516943 0.74083,1.763887 6.20889,1.5875 2.64583,-0.105833 4.40972,-0.105833 3.88056,-0.03528 -0.56445,0.105834 -0.98778,0.423334 -0.98778,0.705557 0,0.282223 0.49389,2.54 1.09361,5.009443 1.37583,5.538613 1.51694,9.8425 0.52917,14.993057 -1.23473,6.208887 -3.4925,9.419166 -6.63223,9.419166 -2.11666,0 -3.70416,-0.9525 -6.49111,-3.774723 -2.71639,-2.751666 -3.84528,-3.280833 -3.45722,-1.622777 0.45861,1.940277 1.30528,3.316111 2.99861,4.833054 4.02167,3.598334 8.43139,4.374446 10.97139,1.94028 l 1.09361,-1.023057 -1.05833,0.211667 c -0.635,0.14111 -1.16417,0.03528 -1.30528,-0.17639 -0.14111,-0.211666 -0.0353,-0.388054 0.24694,-0.388054 0.56445,0 3.42195,-2.116666 3.42195,-2.54 0,-0.176389 0.28222,-0.9525 0.67028,-1.799166 0.74083,-1.658057 1.86972,-5.85611 2.04611,-7.47889 0.59972,-5.715 0.38805,-8.043333 -1.23472,-14.56972 -0.70556,-2.8575 -0.81139,-3.704167 -0.45862,-3.915834 0.24695,-0.17639 1.72862,-0.388056 3.28084,-0.49389 3.28083,-0.282223 4.51555,-0.881943 4.51555,-2.257776 v -0.917224 l -3.06916,0.246944 c -1.72861,0.141113 -3.66889,0.3175 -4.37445,0.423333 -0.77611,0.07056 -1.41111,-0.03528 -1.62278,-0.28222 -0.17638,-0.246946 -1.09361,-2.363613 -2.01083,-4.691946 -0.91722,-2.328331 -2.01083,-5.115277 -2.43417,-6.173611 -0.635,-1.5875 -0.77611,-2.716387 -0.81138,-6.17361 -0.0706,-4.727223 0.24694,-7.408333 0.91722,-8.043333 0.35278,-0.352777 0.35278,-0.246944 0.0353,0.45861 -0.35278,0.740833 -0.3175,0.776113 0.0353,0.211667 1.79916,-2.610554 2.43416,-3.774721 2.2225,-4.1275 -0.3175,-0.45861 1.37583,-2.293054 2.78694,-3.033887 0.56445,-0.282223 1.44639,-0.458612 2.01083,-0.317501 0.9525,0.176389 1.97556,-0.493889 1.48167,-0.9525 -0.38805,-0.423333 -3.42194,-0.246944 -4.51555,0.246944 z m -2.43416,5.362223 c -0.35278,0.493887 -0.70556,0.811387 -0.81139,0.740834 -0.0706,-0.105834 0.10583,-0.599723 0.45861,-1.093613 0.3175,-0.529167 0.67028,-0.846667 0.77611,-0.77611 0.0706,0.105833 -0.10583,0.599723 -0.42333,1.128889 z m -4.79778,61.594998 c 0,0.176389 -0.3175,0.14111 -0.70556,-0.07056 -0.38805,-0.211666 -0.70555,-0.423333 -0.70555,-0.493887 0,-0.07056 0.3175,-0.07056 0.70555,0.03528 0.38806,0.105833 0.70556,0.3175 0.70556,0.529167 z m 4.33916,0.07056 c 0.70556,0.529167 0.56445,0.705554 -0.81138,1.023054 -1.09362,0.246946 -2.78695,-0.14111 -2.82223,-0.635 0,-0.211667 0.56445,-0.45861 1.30528,-0.564444 0.74083,-0.105833 1.41111,-0.246943 1.51695,-0.246943 0.10583,-0.03528 0.45861,0.176387 0.81138,0.423333 z"
       id="path16480" />
    <path
       style="stroke-width:0.03527778"
       inkscape:connector-curvature="0"
       d="m -278.71647,-1.53975 c -1.34056,1.27 -1.19944,1.446387 0.28222,0.3175 0.67028,-0.493889 1.23472,-0.987779 1.23472,-1.058333 0,-0.388056 -0.635,-0.03528 -1.51694,0.740833 z"
       id="path16482" />
    <path
       style="stroke-width:0.03527778"
       inkscape:connector-curvature="0"
       d="m -87.687309,16.451917 c -1.27,0.564444 -3.45722,2.116667 -4.40972,3.175 -0.35278,0.388054 -1.09361,1.658054 -1.69333,2.82222 -1.69334,3.4925 -1.23473,7.831667 1.09361,9.983611 0.98777,0.917223 0.635,1.481666 -0.9525,1.481666 -1.97556,0 -3.63361,0.740834 -3.88056,1.693334 -0.3175,1.27 0.52917,1.905 1.94028,1.516946 0.59972,-0.17639 2.54,-0.458613 4.26861,-0.564446 l 3.13972,-0.246944 0.91722,1.340557 c 0.52917,0.77611 1.09362,1.975553 1.30528,2.751666 0.3175,1.164167 0.24695,1.5875 -0.52916,3.210277 -1.02306,2.04611 -4.37445,5.468057 -5.3975,5.468057 -0.35278,0 -1.16417,-0.3175 -1.79917,-0.705557 -1.44639,-0.881943 -1.83445,-0.881943 -1.83445,0.03528 0,1.30528 1.34056,3.069167 2.50473,3.316113 1.05833,0.246943 3.84527,-0.67028 3.84527,-1.199446 0,-0.141111 0.91723,-1.164167 2.04612,-2.328334 2.75166,-2.8575 3.70416,-4.938887 3.4925,-7.725833 -0.0706,-1.199444 -0.35278,-2.68111 -0.635,-3.31611 -0.56445,-1.340557 -0.3175,-1.622777 1.76388,-1.975557 1.65806,-0.28222 3.03389,-1.340553 2.75167,-2.116666 -0.28222,-0.705554 -2.04611,-0.740834 -5.57389,-0.141111 l -2.50472,0.388057 -2.15194,-2.187223 -2.18723,-2.151944 v -2.39889 c 0,-2.081389 0.14111,-2.68111 1.05834,-4.162776 1.65805,-2.645834 4.445,-4.233334 5.89139,-3.35139 0.9525,0.599723 1.65805,-0.03528 1.41111,-1.305277 -0.35278,-1.76389 -1.72861,-2.2225 -3.88056,-1.305277 z"
       id="path16484" />
    <path
       style="stroke-width:0.03527778"
       inkscape:connector-curvature="0"
       d="m -169.24953,21.531917 c -0.17639,0.388054 -0.35278,1.481667 -0.35278,2.434164 0,0.9525 -0.38805,4.021667 -0.88194,6.808613 -1.19945,6.914443 -1.37583,9.595554 -0.88195,12.276667 0.81139,4.480276 2.54,6.385276 5.75028,6.385276 0.9525,0 2.04611,-0.176389 2.46945,-0.388056 1.12889,-0.59972 3.06916,-2.50472 3.06916,-3.033887 0,-0.635 -0.56444,-0.564446 -2.75166,0.246943 -3.31611,1.27 -4.40973,0.9525 -5.57389,-1.552223 -0.67028,-1.41111 -0.84667,-2.398887 -0.84667,-4.621387 0,-2.8575 0.10583,-3.739446 1.37583,-10.583333 0.42334,-2.151946 0.74084,-4.93889 0.74084,-6.279444 0,-2.293056 -0.0353,-2.363613 -0.88195,-2.363613 -0.49389,0 -1.02305,0.282224 -1.23472,0.67028 z"
       id="path16486" />
    <path
       style="stroke-width:0.03527778"
       inkscape:connector-curvature="0"
       d="m -179.3037,22.59025 c -3.38666,1.940277 -7.79638,7.337777 -9.56027,11.712221 -1.12889,2.71639 -1.23473,7.16139 -0.28223,9.807223 1.34056,3.739443 4.40973,6.0325 8.04334,6.0325 2.08139,0 3.73944,-0.458613 3.73944,-1.058333 0,-0.423334 -0.14111,-0.49389 -3.175,-1.023057 -3.03389,-0.564443 -4.69194,-1.693333 -5.89139,-4.021667 -0.81139,-1.5875 -0.9525,-2.257776 -0.98777,-4.868333 0,-2.892777 0.0705,-3.210277 1.41111,-5.820833 1.62277,-3.210277 5.43277,-7.337777 7.90222,-8.607777 1.30528,-0.635 1.76389,-0.740833 2.71639,-0.423333 1.27,0.388053 1.55222,0.246943 1.55222,-0.67028 0,-0.846664 -1.65806,-2.081387 -2.78694,-2.081387 -0.49389,0 -1.72862,0.45861 -2.68112,1.023056 z"
       id="path16488" />
    <path
       style="stroke-width:0.03527778"
       inkscape:connector-curvature="0"
       d="m -129.95009,24.565804 c -0.52916,0.81139 -0.56444,1.940277 -0.28222,11.818057 0.28222,9.454443 0.38806,11.006666 0.91722,11.500553 0.35278,0.35278 0.81139,0.49389 1.19945,0.35278 0.52917,-0.211667 0.56444,-0.635 0.35278,-3.66889 -0.10584,-1.869723 -0.10584,-3.63361 0.0706,-3.880556 0.24695,-0.352777 0.74084,-0.07055 2.01084,1.128889 0.9525,0.846667 2.39888,1.905 3.24555,2.328334 1.86972,0.917223 3.77472,0.846666 3.91583,-0.17639 0.0706,-0.529167 -0.3175,-0.91722 -1.5875,-1.5875 -1.83444,-0.987777 -5.75027,-4.445 -5.75027,-5.08 0.0353,-0.211667 1.19944,-1.305277 2.64583,-2.434167 2.04611,-1.55222 2.64583,-2.2225 2.64583,-2.892777 0,-1.375833 -1.16416,-1.128889 -3.98639,0.881944 -1.37583,0.9525 -2.71638,1.76389 -2.99861,1.76389 -0.38805,0 -0.45861,-0.881944 -0.38805,-5.044723 0.0705,-2.751667 0,-5.221111 -0.14111,-5.468054 -0.45861,-0.67028 -1.23473,-0.49389 -1.86973,0.45861 z"
       id="path16490" />
    <path
       style="stroke-width:0.03527778"
       inkscape:connector-curvature="0"
       d="m -238.04119,33.526361 c -2.54,0.211666 -2.64584,0.246943 -2.75167,1.164166 -0.17639,1.481667 0.88194,1.834444 4.58611,1.552221 4.23333,-0.282221 6.10306,-1.305277 4.79778,-2.610554 -0.42333,-0.423333 -1.905,-0.458613 -6.63222,-0.105833 z"
       id="path16492" />
    <path
       style="stroke-width:0.03527778"
       inkscape:connector-curvature="0"
       d="m -77.738979,34.478861 -1.44639,0.846666 -0.21166,4.339167 c -0.24695,4.550833 -0.0706,6.80861 0.59972,7.055554 0.74083,0.282223 1.97556,-0.458611 2.36361,-1.411111 0.17639,-0.493889 0.45861,-2.610556 0.59972,-4.656666 0.24695,-3.4925 0.28223,-3.739444 1.12889,-4.162777 0.49389,-0.246946 1.69334,-0.458613 2.68111,-0.458613 1.905,0 2.78695,-0.564444 2.39889,-1.516944 -0.24694,-0.705556 -1.27,-0.9525 -4.19805,-0.917223 -1.97556,0 -2.75167,0.17639 -3.91584,0.881947 z"
       id="path16494" />
    <path
       style="stroke-width:0.03527778"
       inkscape:connector-curvature="0"
       d="m -52.621189,34.302471 c -1.79916,1.41111 -2.46946,3.31611 -2.50473,7.020277 0,2.822223 0.1411,3.598333 0.8114,4.868333 1.05833,1.975556 2.71637,2.751667 4.55083,2.151946 0.67027,-0.211666 1.30527,-0.282223 1.41111,-0.17639 0.10583,0.105834 0.3175,1.975557 0.4586,4.162777 0.56446,7.831667 1.65806,10.124723 4.26863,8.74889 1.4111,-0.776113 2.78693,-4.93889 1.62277,-4.93889 -0.28224,0 -0.84667,0.388057 -1.30527,0.881947 -0.45863,0.493887 -0.9525,0.881943 -1.09363,0.881943 -0.42334,0 -1.02304,-3.03389 -1.02304,-5.185833 0,-1.12889 -0.24696,-3.98639 -0.52917,-6.279444 -0.28223,-2.328333 -0.52916,-5.503333 -0.52916,-7.020279 0,-2.681111 -0.0353,-2.822221 -1.16417,-3.915834 -2.18723,-2.116666 -3.42196,-2.434166 -4.97417,-1.199443 z m 3.10444,1.940277 c 0.84667,0.3175 0.8114,7.549446 -0.0353,8.995833 -1.86973,3.175 -4.19806,-1.905 -2.92806,-6.35 0.67026,-2.398887 1.55223,-3.175 2.96333,-2.645833 z"
       id="path16496" />
    <path
       style="stroke-width:0.03527778"
       inkscape:connector-curvature="0"
       d="m -66.802869,35.396081 c -2.57527,1.76389 -3.77472,3.704167 -3.95111,6.420556 -0.17639,2.645834 0.45861,4.1275 2.15195,5.150557 1.905,1.199443 6.52639,0.670277 7.44361,-0.81139 0.56444,-0.881943 0,-1.12889 -2.36361,-1.058333 -3.95111,0.17639 -5.04472,-0.635 -4.7625,-3.457223 l 0.10583,-1.199444 2.64583,-0.211667 c 2.71639,-0.176389 3.81,-0.564443 5.22112,-1.834443 0.91722,-0.846667 0.98777,-1.5875 0.14111,-2.57528 -1.55223,-1.940277 -4.1275,-2.081387 -6.63223,-0.423333 z m 3.84528,1.869723 c 0.0353,0.17639 -0.635,0.388057 -1.51694,0.45861 -1.48167,0.07056 -1.55222,0.03528 -0.88195,-0.45861 0.74084,-0.599723 2.25778,-0.599723 2.39889,0 z"
       id="path16498" />
    <path
       style="stroke-width:0.03527778"
       inkscape:connector-curvature="0"
       d="m -24.434249,35.431361 c -1.41113,1.41111 -1.9403,3.210276 -2.01083,6.6675 -0.0706,3.033887 0.56443,4.550833 2.1872,5.22111 2.0814,0.846666 5.60917,-0.282223 5.92667,-1.940277 0.14113,-0.564446 -0.0705,-0.599723 -2.2225,-0.35278 -1.97554,0.211667 -2.46944,0.141113 -3.03387,-0.388053 -1.34057,-1.199447 -0.635,-2.963334 1.16416,-2.963334 1.30527,0 3.66887,-1.199446 4.16277,-2.08139 0.1764,-0.388056 0.35277,-1.27 0.35277,-1.940276 0,-1.093613 -0.21167,-1.411113 -1.48167,-2.328334 -2.01083,-1.44639 -3.52777,-1.411113 -5.0447,0.105834 z m 3.56304,1.834443 c 0.81139,0.81139 0.0706,1.834444 -1.44637,2.010833 -0.70557,0.07056 -1.34057,0.03528 -1.41113,-0.07056 -0.24694,-0.423333 1.23473,-2.469444 1.79916,-2.469444 0.28223,0 0.77613,0.246944 1.05834,0.529167 z"
       id="path16500" />
    <path
       style="stroke-width:0.03527778"
       inkscape:connector-curvature="0"
       d="m 0.5776814,34.619971 c -1.79916,0.670277 -4.33916,4.833056 -4.65666,7.62 -0.3175,2.928056 1.51693,5.08 4.37443,5.08 1.65807,0 3.81,-0.987777 3.95113,-1.869723 0.10584,-0.529167 -0.1764,-0.599721 -2.18723,-0.599721 -1.86973,0 -2.46943,-0.141113 -3.0339,-0.705556 -0.38803,-0.388057 -0.70553,-0.917223 -0.70553,-1.199444 0,-1.728613 2.29303,-5.503333 3.73943,-6.173613 1.7639,-0.77611 0.35277,-2.82222 -1.48167,-2.151943 z"
       id="path16502" />
    <path
       style="stroke-width:0.03527778"
       inkscape:connector-curvature="0"
       d="m -31.595649,36.454414 c -0.21167,1.023057 -0.4586,2.469447 -0.5997,3.245557 -0.4939,3.104443 -2.50473,6.20889 -3.95113,6.20889 -0.24694,0 -0.81137,-0.529167 -1.19944,-1.164167 -0.635,-0.98778 -0.70556,-1.516946 -0.52916,-4.586113 0.21166,-3.81 0.0706,-4.480277 -0.84667,-4.480277 -1.0936,0 -1.4111,0.881944 -1.62277,4.656667 -0.21167,3.421943 -0.1764,3.880556 0.56444,5.362223 0.88193,1.834443 2.15193,2.68111 4.02166,2.68111 2.57527,0 4.7625,-3.245556 5.75027,-8.501943 0.84667,-4.515557 0.8114,-5.044724 -0.3175,-5.185834 -0.88193,-0.105833 -0.9525,0 -1.27,1.763887 z"
       id="path16504" />
    <path
       style="stroke-width:0.03527778"
       inkscape:connector-curvature="0"
       d="m -11.310919,36.066361 c -1.16416,0.9525 -1.48166,1.058333 -2.18723,0.740833 -1.27,-0.599723 -1.94027,0.423333 -1.94027,2.928054 0,1.128889 -0.24696,2.998613 -0.56446,4.1275 -0.56444,1.905 -0.56444,2.151946 -0.0353,2.645833 1.0936,1.093613 2.2225,-0.105833 3.45723,-3.63361 0.98777,-2.786944 2.01084,-4.445 2.7516704,-4.30389 0.49387,0.105833 0.56443,0.67028 0.56443,3.84528 0,2.645833 0.14111,3.915833 0.4939,4.303887 1.02304,1.234723 2.78694,0.3175 2.32834,-1.199444 -0.14113,-0.45861 -0.28224,-2.610556 -0.3175,-4.833056 -0.0353,-3.951111 -0.0706,-4.021667 -1.02307,-4.868334 -1.30527,-1.128887 -1.94027,-1.058333 -3.5277704,0.246947 z"
       id="path16506" />
    <path
       style="stroke-width:0.03527778"
       inkscape:connector-curvature="0"
       d="m -157.3962,36.242748 c -1.55222,1.446389 -2.32833,3.4925 -2.32833,6.244166 0,3.98639 1.94028,6.596947 4.97417,6.596947 2.71639,0 5.32694,-3.245557 5.89139,-7.33778 0.49388,-3.45722 -0.10584,-4.339167 -3.81,-5.785554 -2.25778,-0.881946 -3.52778,-0.81139 -4.72723,0.282221 z m 4.48028,2.257779 c 1.86972,1.09361 2.25778,2.36361 1.30528,4.480277 -0.98778,2.257777 -2.01083,3.280833 -3.24556,3.280833 -2.04611,0 -3.13972,-3.880556 -1.83444,-6.455833 1.16417,-2.293056 1.76389,-2.504723 3.77472,-1.305277 z"
       id="path16508" />
    <path
       style="stroke-width:0.03527778"
       inkscape:connector-curvature="0"
       d="m 8.6915814,36.207471 c -1.16416,1.799166 -1.5875,6.244166 -0.74083,7.9375 0.67027,1.305277 2.6105396,2.469443 4.1980396,2.469443 h 1.37583 l -0.24694,1.658057 c -0.38806,2.645833 -1.51693,6.067777 -2.54,7.584723 -1.5522296,2.36361 -5.6091596,4.656664 -6.6322296,3.77472 -0.2822,-0.211666 -0.49387,-1.058333 -0.49387,-1.905 0,-1.86972 -0.88196,-2.434166 -1.48166,-0.9525 -0.56447,1.340557 -0.56447,4.409723 0.0353,5.115277 1.16417,1.44639 5.715,-0.03528 8.9605696,-2.928054 2.64583,-2.36361 3.81,-5.044723 5.00943,-11.641666 0.35277,-1.834444 1.16417,-4.7625 1.83444,-6.455834 1.37583,-3.668889 1.37583,-3.81 0.45863,-4.656666 -0.635,-0.599723 -0.74083,-0.599723 -1.34057,-0.07056 -0.35276,0.3175 -0.91723,1.411113 -1.27,2.434167 -1.4111,4.021667 -2.50473,5.57389 -3.91583,5.57389 -1.83443,0 -2.3988996,-2.36361 -1.4464,-5.997223 0.3528,-1.375834 0.38807,-2.081387 0.14113,-2.363611 -0.56446,-0.705556 -1.2699996,-0.529166 -1.9049996,0.423334 z"
       id="path16510" />
    <path
       style="stroke-width:0.03527778"
       inkscape:connector-curvature="0"
       d="m -142.43842,36.489694 c -2.68111,1.834443 -4.40972,7.408333 -3.03389,10.018887 1.19945,2.328333 3.95111,3.280833 6.70278,2.363613 0.84667,-0.282223 1.83444,-0.846667 2.15194,-1.199446 1.02306,-1.128887 0.35278,-1.446387 -2.46944,-1.199444 -2.54,0.211667 -2.61056,0.211667 -3.52778,-0.77611 -0.81139,-0.881946 -0.91722,-1.234723 -0.70555,-2.434167 0.3175,-2.151946 1.30527,-3.774723 2.92805,-4.868333 1.97556,-1.340557 1.97556,-2.187223 -0.0705,-2.57528 -0.49389,-0.07055 -1.30528,0.17639 -1.97556,0.67028 z"
       id="path16512" />
    <path
       style="stroke-width:0.03527778"
       inkscape:connector-curvature="0"
       d="m -178.06897,141.12358 c -1.41111,0.3175 -4.1275,1.69333 -4.48028,2.25778 -0.38806,0.635 -0.14111,30.48 0.28222,35.48944 0.17639,2.39889 0.24695,4.445 0.14111,4.55084 -0.10583,0.10583 -2.29305,0.49388 -4.86833,0.88194 -5.99722,0.84667 -35.20722,1.30528 -40.74583,0.635 -9.10167,-1.09361 -8.89,-1.05833 -9.48972,-2.46944 -0.42334,-0.9525 -0.49389,-1.905 -0.28223,-4.02167 0.17639,-2.25778 0.14111,-2.89278 -0.3175,-3.38667 -0.98777,-1.05833 -1.55222,-7.37305 -1.79916,-18.90889 -0.10584,-6.0325 -0.28223,-11.78277 -0.38806,-12.80583 -0.17639,-1.65805 -0.28222,-1.86972 -0.88194,-1.72861 -0.38806,0.10583 -1.27,0.0353 -2.01084,-0.17639 -0.91722,-0.24694 -5.25639,-0.24694 -14.18166,0.0353 -7.09084,0.21167 -18.27389,0.49389 -24.87084,0.59972 -7.62,0.10583 -12.13555,0.3175 -12.41777,0.56445 -0.59973,0.45861 -0.59973,1.51694 0,1.97555 0.28222,0.21167 3.52777,0.3175 9.06639,0.21167 13.19388,-0.21167 33.93722,-0.84667 34.32527,-1.09361 0.17639,-0.10584 2.29306,-0.0706 4.69195,0.0705 l 4.37444,0.24695 v 7.47889 c 0.0353,10.01888 0.59972,20.31999 1.27,23.31861 0.3175,1.34055 0.52917,3.38666 0.49389,4.48027 -0.0353,1.62278 1.16417,6.985 1.5875,6.985 0.0353,0 2.89278,0.38806 6.31472,0.88195 5.78556,0.81139 7.23195,0.88194 19.54389,0.88194 14.42861,-0.0353 21.2725,-0.3175 27.58722,-1.27 5.53861,-0.81139 7.23195,-1.76389 5.82083,-3.31611 -0.52916,-0.56444 -0.635,-2.57528 -0.9525,-19.54389 -0.21166,-10.37166 -0.28222,-19.08527 -0.17638,-19.3675 0.10583,-0.24694 1.05833,-0.67027 2.15194,-0.9525 1.65806,-0.38805 5.57389,-0.38805 23.42444,-0.0353 14.71084,0.28222 21.80167,0.28222 22.64834,0.0353 1.97555,-0.56444 1.97555,-0.56444 1.97555,2.36361 0,1.51695 0.21167,4.33917 0.45861,6.31473 0.3175,2.18722 0.42334,5.00944 0.28223,7.40833 -0.88195,17.18028 -0.9525,19.685 -0.635,20.70805 0.17638,0.635 0.42333,2.36362 0.56444,3.84528 l 0.24694,2.75167 3.56306,-0.21167 c 2.25778,-0.14111 6.84389,0 12.24139,0.42334 9.31333,0.70555 28.398611,0.88194 32.279161,0.28222 l 2.11667,-0.3175 0.0353,-1.5875 c 0.0353,-0.88195 0.35278,-2.96334 0.70555,-4.58611 0.56445,-2.54 0.635,-4.26861 0.56445,-11.1125 -0.0353,-4.48028 -0.35278,-10.72445 -0.67028,-13.93472 -0.3175,-3.21028 -0.59972,-6.27945 -0.59972,-6.84389 l -0.0353,-0.98778 27.44612,-0.0706 27.41081,-0.0353 0.14113,1.05833 c 0.10583,0.56444 0.35277,3.42194 0.56443,6.35 0.21167,2.89278 0.635,7.65528 0.91724,10.51278 0.56443,5.04472 0.52916,11.32416 -0.0706,18.34444 -0.1411,1.62278 -0.0706,2.57528 0.21167,2.89278 0.35277,0.45861 4.40973,0.52916 27.9752704,0.52916 19.8613896,0 27.6577896,-0.10583 27.9752896,-0.38805 0.70554,-0.56445 0.59971,-1.62278 -0.14113,-1.79917 -0.5997,-0.17639 -0.67027,-1.05833 -1.05833,-12.13555 -0.24694,-6.59695 -0.49387,-15.06361 -0.56444,-18.83834 -0.0706,-3.77472 -0.24693,-7.26722 -0.42333,-7.72583 l -0.24693,-0.84667 8.96053,0.21167 c 5.82084,0.14111 13.75834,0.0706 22.7189,-0.28222 7.54944,-0.3175 15.91027,-0.56445 18.52083,-0.635 l 4.7625,-0.0706 v -0.88194 -0.88195 h -8.46666 c -4.65667,0.0353 -15.27527,0.0706 -23.6361,0.14112 -8.32557,0.0705 -17.4978,0.0353 -20.3553,-0.0706 -4.16277,-0.14111 -5.2211,-0.10583 -5.2211,0.24694 0,0.28223 0.3175,1.72862 0.70556,3.24556 0.59971,2.36361 0.70554,3.98639 0.70554,10.54806 0,4.26861 0.1764,11.00666 0.3528,14.99305 0.17637,3.98639 0.38803,8.43139 0.42333,9.87778 l 0.10583,2.64583 H 4.8815514 -20.800679 l 0.21167,-1.76389 c 1.02306,-8.11389 1.02306,-8.11389 -0.1411,-20.81389 -0.38807,-4.09222 -0.8114,-9.2075 -1.02307,-11.43 -0.21167,-2.89277 -0.4939,-4.16277 -0.88193,-4.58611 -0.52917,-0.49389 -3.3514,-0.59972 -28.53974,-0.81139 -24.16527,-0.21166 -28.01055,-0.17638 -28.50443,0.24695 -0.28223,0.28222 -0.74084,0.52917 -0.9525,0.52917 -0.77612,0 -0.84667,1.69333 -0.24695,6.0325 0.81139,6.24416 1.34056,21.06083 0.88195,24.90611 -0.21167,1.72861 -0.45862,4.16277 -0.59973,5.43277 l -0.21166,2.36361 -5.85611,0.24695 c -6.84389,0.3175 -15.063611,0.0353 -27.481391,-0.88195 -4.93889,-0.38805 -9.94833,-0.56444 -11.18306,-0.45861 l -2.2225,0.21167 -0.24694,-2.43417 c -0.35278,-3.56305 -0.28222,-10.30111 0.21167,-18.23861 0.38805,-6.10305 0.35277,-7.62 -0.14112,-12.34722 -0.3175,-2.92805 -0.59972,-6.0325 -0.59972,-6.87917 0,-1.23472 -0.10583,-1.48166 -0.70555,-1.48166 -0.35278,0 -0.81139,-0.21167 -0.9525,-0.49389 -0.21167,-0.42333 -2.32834,-0.59972 -10.51278,-0.88195 -13.72306,-0.49388 -36.05389,-0.74083 -37.57083,-0.42333 z"
       id="path16516" />
    <path
       style="stroke-width:0.03527778"
       inkscape:connector-curvature="0"
       d="m 87.219921,144.86303 c -0.3175,0.38805 -0.3175,1.55222 0,5.36222 0.24693,2.68111 0.56443,11.21833 0.70553,18.97944 0.28223,13.72306 0.84667,23.31861 1.41113,23.95361 0.4586,0.45861 1.02304,-0.0705 1.34054,-1.30528 0.28223,-1.05833 0.38806,-1.12888 2.3989,-1.34055 3.24556,-0.35278 23.071659,-0.3175 28.363329,0.0353 2.61057,0.17639 7.40833,0.45861 10.68917,0.56444 3.24556,0.14111 5.92666,0.38806 5.92666,0.56445 0.10584,0.67027 0.1764,0.84666 0.42334,1.23472 0.98777,1.55222 1.55223,-0.59972 2.0461,-7.44361 0.28223,-3.70417 0.3175,-7.83167 0.10583,-11.85334 -0.35277,-7.62 -0.35277,-11.95916 0.0353,-19.19111 l 0.2822,-5.60916 5.67973,0.21166 c 3.13974,0.14111 10.30111,0.56445 15.91027,0.9525 5.64447,0.42334 13.5114,0.77611 17.4978,0.81139 l 7.2672,0.0706 0.21167,5.11528 c 0.14113,2.82222 0.56446,6.77333 0.9525,8.81944 1.4464,7.65528 1.5875,9.34861 1.05833,14.9225 -0.4586,5.15055 -0.4586,5.22111 0.3175,6.80861 0.56447,1.09361 0.74084,1.905 0.56447,2.54 -0.10584,0.52917 -0.24697,1.34056 -0.28224,1.83444 l -0.0706,0.88195 4.05696,0.0353 c 8.00804,0.10583 20.03777,0.52916 27.83417,1.02305 11.04193,0.70556 15.41637,0.70556 15.6986,-0.0353 0.635,-1.65805 0.4939,-1.72861 -4.65667,-1.79916 -2.64583,-0.0353 -8.0786,-0.3175 -12.065,-0.59972 -3.98639,-0.28223 -11.92389,-0.70556 -17.63889,-0.91723 -5.715,-0.24694 -10.44221,-0.45861 -10.51277,-0.52916 -0.0706,-0.0706 -0.21167,-1.12889 -0.3175,-2.36361 -0.10584,-1.19945 -0.38807,-2.64584 -0.67027,-3.21028 -0.45863,-0.84667 -0.45863,-1.55222 -0.10583,-4.58611 0.49387,-4.30389 0.2822,-7.44361 -0.88197,-13.335 -0.49387,-2.46945 -1.05833,-6.94972 -1.2347,-9.98361 -0.1764,-3.03389 -0.45863,-5.67973 -0.56446,-5.89139 -0.14111,-0.21167 -0.49387,-0.28222 -0.77611,-0.17639 -0.3175,0.14111 -0.74083,0.0705 -0.98776,-0.14111 -0.21167,-0.17639 -3.175,-0.42334 -6.56167,-0.52917 -5.78557,-0.14111 -17.07446,-0.81139 -26.59946,-1.5875 -6.49111,-0.52917 -12.59417,-0.45861 -13.44084,0.14111 -0.38803,0.28222 -1.0936,0.56445 -1.5522,0.635 -0.77613,0.10584 -0.84667,0.24695 -0.70557,1.34056 0.21167,1.41111 0.21167,5.3975 0,12.52361 -0.10583,2.71639 -0.0353,8.67833 0.10584,13.22916 0.1764,4.55084 0.1764,9.56028 0,11.1125 l -0.28223,2.82223 -1.905,0.10583 c -1.05834,0.0706 -5.64444,-0.14111 -10.23054,-0.42333 -11.2889,-0.74084 -28.363329,-1.05834 -32.138069,-0.635 -1.97556,0.24694 -3.06916,0.24694 -3.21026,0 -0.38807,-0.59973 -0.70557,-7.3025 -0.88197,-18.97945 -0.0705,-6.31472 -0.3175,-14.00527 -0.49387,-17.145 -0.38806,-6.91444 -0.88196,-8.50194 -2.11666,-7.02027 z"
       id="path16518" />
    <path
       style="stroke-width:0.03527778"
       inkscape:connector-curvature="0"
       d="m -104.09148,215.73608 c -0.49388,0.38806 -3.10444,0.52917 -12.065,0.59972 -6.27944,0.0706 -11.53583,0.28222 -11.71222,0.42334 -0.42333,0.42333 -0.14111,7.86694 0.42334,12.24138 0.28222,2.04612 0.98777,6.94973 1.5875,10.9361 0.56444,3.9864 1.05833,8.50197 1.05833,10.05417 0,1.55223 0.17639,4.23333 0.35278,5.96196 0.42333,3.66887 0.38805,3.77471 -2.25778,3.4925 -0.98778,-0.0706 -5.78556,0.0705 -10.68917,0.38804 -4.86833,0.3175 -9.91305,0.56446 -11.14777,0.56446 h -2.29306 l -0.21167,-3.63363 c -0.14111,-1.97553 -0.38805,-9.24276 -0.59972,-16.12193 -0.35278,-12.91167 -0.52917,-14.95778 -1.51694,-18.415 -0.28222,-1.12889 -0.45861,-2.25778 -0.35278,-2.54 0.10583,-0.28222 -0.0706,-0.91722 -0.38806,-1.41111 -0.59972,-0.88194 -0.70555,-0.91722 -4.37444,-0.91722 -4.33917,0 -23.77722,0.70555 -23.95361,0.88194 -0.35278,0.35278 -0.0706,5.29167 0.56444,9.525 0.42334,2.71639 0.84667,6.13834 0.9525,7.58472 0.10584,1.4464 0.42334,4.37444 0.70556,6.5264 0.24694,2.11667 0.59972,5.92667 0.70555,8.46667 0.14112,2.5047 0.45862,6.1736 0.70556,8.11387 0.24694,1.94029 0.38806,3.63363 0.28222,3.77473 -0.0705,0.1764 -1.16416,0.28223 -2.36361,0.28223 -2.36361,0 -19.57917,0.9525 -21.80167,1.19944 -1.27,0.1411 -1.30527,0.1411 -1.65805,-1.51694 -0.17639,-0.88196 -0.45861,-2.8928 -0.56445,-4.445 -0.14111,-1.55223 -0.38805,-3.59833 -0.56444,-4.55083 -0.17639,-0.9525 -0.17639,-1.905 -0.0353,-2.11667 0.17639,-0.21167 0.17639,-1.905 0.0353,-3.73946 -0.14111,-1.83444 -0.35278,-7.47887 -0.49389,-12.5236 -0.17639,-6.42056 -0.38805,-9.73667 -0.77611,-11.1125 -0.3175,-1.12889 -0.42333,-2.46945 -0.3175,-3.28084 l 0.24694,-1.37583 -9.98361,0.21167 c -5.50333,0.10583 -11.92388,0.3175 -14.25222,0.42333 l -4.30389,0.21167 0.59973,1.02305 0.56444,1.05834 11.64167,-0.21167 c 6.42055,-0.10583 11.99444,-0.28222 12.41777,-0.38806 0.42334,-0.0706 0.88195,0.0353 1.02306,0.28223 0.24694,0.38805 0.56444,9.24277 1.02305,27.97527 0.0706,3.6689 0.3175,7.90223 0.49389,9.3486 0.21167,1.4464 0.38806,3.4925 0.38806,4.4803 0,1.5875 0.14111,1.94027 0.88194,2.43417 0.59973,0.38803 1.23473,0.49387 2.01084,0.35277 1.16416,-0.24694 14.605,-1.09361 22.86,-1.4464 5.57389,-0.24694 5.43277,-0.10584 5.15055,-5.11527 -0.3175,-6.2089 -1.27,-18.7325 -1.41111,-19.01473 -0.10583,-0.1411 -0.3175,-2.46944 -0.52917,-5.15054 -0.35277,-4.40973 -0.70555,-7.05556 -1.79916,-13.05278 -0.14111,-0.98778 -0.17639,-1.86973 -0.0706,-2.01084 0.14111,-0.14111 5.60917,-0.42333 12.20611,-0.67028 9.27806,-0.3175 11.99445,-0.3175 12.20611,0 0.14112,0.24695 0.35278,1.905 0.49389,3.66889 0.10584,1.79917 0.38806,4.83306 0.56445,6.77334 0.17639,1.94027 0.35278,6.52637 0.38805,10.23054 0.0706,9.91307 0.81139,22.93057 1.30528,22.61307 0.49389,-0.28224 15.66333,-1.23474 20.70806,-1.27 1.94027,-0.0353 4.90361,0.0706 6.59694,0.17639 l 3.10444,0.24694 0.38806,-0.98777 c 0.21167,-0.635 0.28222,-2.11667 0.14111,-3.8453 -0.10583,-1.5522 -0.28222,-4.5861 -0.38805,-6.70276 -0.14112,-3.56307 -0.74084,-8.32557 -2.57528,-20.28472 -0.38806,-2.43417 -0.77611,-6.17362 -0.91722,-8.29028 l -0.24695,-3.88056 h 11.00667 11.00666 l 1.02306,3.38667 c 1.12889,3.81 2.29305,9.8425 3.845281,19.89665 0.9525,6.0325 0.98777,6.73807 0.52916,7.4789 -0.45861,0.70557 -0.49389,0.9525 -0.0705,1.79917 0.28222,0.52917 0.77611,2.43417 1.09361,4.2686 0.3175,1.83446 0.74083,3.59833 0.91722,3.95113 0.3175,0.56444 1.23472,0.5997 13.47611,0.49387 l 13.15861,-0.1411 0.10584,-0.91723 c 0.0705,-0.49387 -0.28223,-2.61054 -0.74084,-4.69194 -1.83444,-7.83166 -3.24555,-16.72166 -4.09222,-25.99972 -0.52917,-5.67972 -0.77611,-11.00666 -0.45861,-10.51278 0.42333,0.67028 1.79917,0.74084 12.62944,0.77612 l 10.26583,0.0353 0.59973,1.30528 c 1.86973,4.26861 3.73944,15.80443 4.445,27.4461 0.35277,5.82083 1.23473,11.88863 1.97557,13.29973 0.3175,0.59973 0.81137,0.98777 1.2347,0.98777 0.9525,0 2.64583,-1.27 2.01083,-1.51693 -0.88193,-0.3175 -0.0705,-0.4939 1.3053,-0.3175 1.4111,0.21166 1.4111,0.21166 0.35277,0.4586 -0.56444,0.14113 0.7761,0.1764 2.9986,0.0706 6.80863,-0.28223 7.3378,-0.28223 7.1614,0 -0.0706,0.1411 2.2225,0.24694 5.15054,0.21167 2.92806,-0.0353 5.25639,-0.1764 5.15056,-0.3175 -0.10583,-0.1411 0.10583,-0.38807 0.4586,-0.52917 0.42334,-0.1411 0.77613,0.0353 1.1289,0.59973 0.9525,1.44637 2.15194,2.50471 2.50473,2.15194 0.4586,-0.4586 0.4586,-1.30527 0,-8.04333 -0.77613,-11.85334 -1.16416,-16.33361 -1.83446,-22.40139 -0.38804,-3.38667 -0.5997,-6.49111 -0.49387,-6.87917 0.1411,-0.38805 0.3175,-1.5875 0.38804,-2.64583 0.10583,-1.05833 0.24696,-1.97556 0.28223,-2.01083 0.0353,-0.0706 1.65806,-0.28223 3.59833,-0.45862 2.75167,-0.3175 5.0094404,-0.28222 10.5480704,0.14112 3.88053,0.3175 7.86693,0.56444 8.89,0.56444 0.98776,0 1.94026,0.14111 2.0461,0.35278 0.74083,1.19944 2.5399996,14.64026 2.9985996,22.29556 0.21167,3.91583 0.52917,6.73804 0.88196,7.5847 0.28221,0.74084 0.635,2.92807 0.81137,4.86834 0.21167,2.89279 0.3528,3.4925 0.77613,3.3514 0.88194,-0.28224 16.43944,-0.42334 21.34304,-0.1764 5.15056,0.28223 4.55083,-0.0705 5.82083,3.24556 0.9878,2.57527 1.23473,1.34057 1.23473,-5.82083 0,-6.42057 -0.3175,-11.6064 -1.30526,-21.23722 -0.56447,-5.78556 -0.74084,-10.05417 -0.45863,-12.17083 l 0.21166,-1.94028 6.59697,0.0353 c 6.87916,0 14.39333,0.42333 14.78137,0.81138 0.10583,0.10584 0.3175,1.37584 0.45863,2.75167 0.1411,1.41111 0.52916,4.40972 0.84666,6.63222 0.3175,2.2225 0.74084,5.25638 0.91721,6.70278 0.17639,1.4464 0.67029,5.00943 1.05833,7.9375 0.38806,2.89277 0.77613,7.1261 0.88196,9.3486 0.10584,2.2225 0.28221,4.6214 0.4586,5.29167 l 0.28224,1.23473 2.96333,0.10583 c 3.4925,0.10584 4.5861,-0.0706 4.5861,-0.84666 0,-0.4939 0.38807,-0.56444 2.92807,-0.35277 1.5875,0.10583 5.8561,0.3175 9.45443,0.42333 l 6.5264,0.24694 0.81137,1.69333 c 0.42333,0.9525 0.91723,1.7286 1.09363,1.7286 1.16417,0 1.12887,-3.28083 -0.1764,-14.35804 -0.28223,-2.50473 -0.74083,-7.76113 -1.05833,-11.7475 -0.28223,-3.98639 -0.67027,-8.36084 -0.88194,-9.70139 -0.1764,-1.37584 -0.21166,-3.31611 -0.10583,-4.33917 l 0.21167,-1.83444 h 1.79916 c 3.66887,0 20.884439,0.70555 21.413599,0.88194 0.45861,0.17639 0.52917,1.19945 0.42334,8.64306 -0.1764,9.48971 0.8114,30.30361 1.4111,31.29137 0.42333,0.635 2.18723,0.56447 2.75167,-0.10583 0.38806,-0.49387 0.98779,-0.52917 3.84529,-0.35277 3.10444,0.21167 13.37027,1.05834 17.4625,1.4464 0.98777,0.0705 2.57527,0.17637 3.52777,0.21167 1.7639,0.10583 1.7639,0.10583 1.69333,-0.9525 -0.0706,-1.27 -1.05833,-12.4178 -1.55223,-17.42723 -0.17637,-2.04611 -0.67027,-5.92667 -1.05833,-8.64307 -0.635,-4.33915 -0.70554,-8.00804 -0.35277,-12.98221 0.0706,-0.56444 7.19667,-0.10583 17.49777,1.16417 1.55223,0.21166 3.8453,0.35277 5.1153,0.35277 1.27,0 2.54,0.17639 2.8222,0.35278 0.42333,0.28222 0.38806,0.35278 -0.24694,0.35278 -1.05833,0 -1.16416,0.28222 -0.7761,2.29306 0.59971,3.21027 1.7286,12.34722 1.7286,14.00528 0,0.9172 0.35277,4.02167 0.74084,6.87917 0.56443,3.91583 0.70556,6.13833 0.56443,8.89 -0.21166,3.38666 -0.1411,3.84527 0.6703,5.82083 0.49387,1.19944 1.0936,2.32833 1.30527,2.57527 0.67027,0.635 7.69056,1.1289 17.88583,1.27 5.15057,0.0353 9.0664,0.0353 8.7489,-0.0353 -0.3528,-0.0706 -0.635,-0.28223 -0.635,-0.45863 0,-0.21167 0.3175,-0.24693 0.70554,-0.1411 0.45863,0.1411 1.09363,0 1.62279,-0.35277 0.88194,-0.56446 0.88194,-0.6703 0.70554,-3.45723 -0.0705,-1.5875 -0.3175,-4.23333 -0.52917,-5.8914 -0.17637,-1.65804 -0.5997,-6.24417 -0.88193,-10.23054 -0.3175,-3.98639 -0.8114,-9.31333 -1.1289,-11.81806 -0.2822,-2.54 -0.49387,-5.53861 -0.42333,-6.70278 l 0.10583,-2.11666 1.9403,-0.14111 c 1.05833,-0.0353 4.9036,0.0705 8.5372,0.3175 l 6.56167,0.45861 0.24696,0.91722 c 0.10583,0.49389 0.35277,6.13833 0.52917,12.55889 0.3175,12.2061 0.4586,13.97 1.97553,20.81389 1.23473,5.53861 1.37584,5.715 5.18584,5.57387 1.5875,-0.0705 8.96056,-0.24693 16.36889,-0.38803 11.9239,-0.21167 13.54667,-0.3175 14.07584,-0.84667 0.35277,-0.3175 0.4939,-0.8114 0.35277,-1.16417 -0.21167,-0.56446 -1.48167,-0.59973 -15.48694,-0.52916 -8.36083,0.0353 -15.62806,0.0705 -16.12193,0.0353 -0.8114,-0.0353 -0.9878,-0.3175 -1.86974,-3.31611 -1.34056,-4.40973 -1.55223,-6.49113 -2.18723,-18.94416 -0.2822,-5.92667 -0.67027,-11.39473 -0.88193,-12.17084 -0.1764,-0.77611 -0.35277,-2.08139 -0.35277,-2.89278 0,-1.05833 -0.1764,-1.5875 -0.59973,-1.79917 -0.74084,-0.38805 -9.48973,-1.05833 -16.0514,-1.27 l -4.51554,-0.14111 -0.35279,1.30528 c -0.24694,0.84667 -0.21167,1.97555 0.0353,3.4925 0.21167,1.19944 0.3175,2.64583 0.21167,3.175 -0.10583,0.52917 0.0353,2.29305 0.2822,3.95112 0.24697,1.65803 0.635,5.29166 0.84667,8.11387 0.21167,2.82223 0.56446,6.8439 0.74083,8.99583 0.56447,5.82083 1.02307,11.6064 0.9525,11.67696 -0.21166,0.21167 -21.69583,0.45861 -22.86,0.28221 -2.11666,-0.35277 -2.64583,-1.69334 -3.10443,-7.7611 -0.21167,-2.68111 -0.70557,-7.62 -1.05834,-10.90084 -0.38806,-3.3161 -0.88193,-7.90223 -1.12889,-10.23056 -0.21167,-2.32832 -0.635,-5.67971 -0.98777,-7.47888 -0.35277,-2.01083 -0.4939,-3.52778 -0.3175,-4.02167 0.56443,-1.48166 0.1411,-1.72861 -2.78694,-1.72861 -3.13973,-0.0353 -20.67279,-1.41111 -24.65916,-1.94028 -0.9525,-0.14111 -1.55224,-0.0353 -1.79917,0.24695 -0.56446,0.70555 -0.91723,9.70139 -0.38807,10.61861 0.56444,1.05833 1.905,10.75971 2.75167,19.82611 0.38807,4.05693 0.8114,8.255 0.91723,9.31333 l 0.24694,1.905 -3.13973,-0.21166 c -4.72721,-0.35277 -16.1925,-1.30527 -19.01471,-1.5875 l -2.46946,-0.24694 -0.24694,-2.46946 c -0.1411,-1.37584 -0.49389,-4.30387 -0.81139,-6.52637 -0.52917,-3.8453 -0.56444,-8.39613 -0.10584,-27.41084 0.0353,-2.36361 -0.2822,-3.06917 -1.62277,-3.56306 -1.34056,-0.49389 -12.73526,-1.19944 -20.743329,-1.27 -6.10306,-0.0353 -6.38527,0.10583 -7.19667,3.52778 -0.67026,2.8575 -0.59973,4.48028 0.1764,5.85611 0.67027,1.16417 0.91721,3.06917 1.79917,13.68778 0.21167,2.43416 0.70554,7.09083 1.0936,10.37166 0.38807,3.28084 0.56444,6.06777 0.42333,6.2089 -0.21166,0.21167 -24.09473,-0.635 -24.30639,-0.84667 -0.0705,-0.0353 -0.74084,-5.15056 -2.78694,-21.37833 -0.67027,-5.15056 -1.37583,-9.91306 -1.5875,-10.58334 -0.21167,-0.67028 -0.35277,-2.46944 -0.28223,-4.02167 0.0706,-2.71639 0.0706,-2.75166 -0.9172,-3.28083 -1.23474,-0.635 -12.94697,-1.30528 -19.43807,-1.05833 -2.82223,0.0705 -4.79777,0 -5.18583,-0.21167 -0.91723,-0.59972 -1.7286,0.3175 -1.65807,1.83444 0.0353,0.70556 -0.0353,3.21028 -0.21166,5.57389 -0.24694,3.63361 -0.17637,4.445 0.28223,5.15056 0.28223,0.45861 0.635,1.55222 0.74083,2.39889 0.35277,2.57526 1.30527,14.99306 1.51694,19.75556 l 0.21166,4.445 -12.31193,-0.14113 c -6.77334,-0.0705 -12.48834,-0.21167 -12.7,-0.2822 -0.24694,-0.0706 -0.4939,-1.34057 -0.59973,-3.24557 -0.70554,-14.04056 -1.37584,-20.39055 -2.92804,-29.63333 l -0.9877996,-5.67972 -2.32833,-0.21167 c -16.40417,-1.44639 -25.5411004,-1.5875 -27.2697004,-0.45861 -0.77613,0.49389 -0.91724,0.84667 -0.88197,2.25778 0,0.9525 -0.0353,2.61055 -0.0353,3.77472 -0.0353,1.12889 0.35277,5.96195 0.84667,10.75972 0.7761,7.83168 1.7639,22.93055 1.48167,23.21278 -0.0706,0.0353 -5.5386,0.21167 -12.13554,0.3175 l -11.99446,0.24693 -0.635,-3.4925 c -0.35277,-1.905 -0.7761,-3.88053 -0.9525,-4.37443 -0.21167,-0.4939 -0.74084,-4.6214 -1.19944,-9.17223 -0.84666,-8.46666 -2.0814,-15.94555 -3.3161,-19.86138 -0.38806,-1.19944 -0.70556,-2.78694 -0.70556,-3.4925 v -1.30528 l -4.48027,-0.10583 c -2.50474,-0.0706 -9.10168,-0.17639 -14.71085,-0.21167 -9.70139,-0.10583 -10.16,-0.0705 -9.91305,0.52917 0.14111,0.35278 0.38805,2.8575 0.56444,5.57389 0.59972,9.48972 2.15194,20.955 4.19806,30.58583 0.38805,1.79917 0.70555,3.56306 0.70555,3.88056 0,0.59971 -0.70555,0.635 -10.23055,0.635 -9.38389,0 -10.23056,0.0353 -10.23056,0.59971 0,0.42333 -0.10583,0.4939 -0.35278,0.24696 -0.35277,-0.3528 -0.77611,-2.75167 -1.94027,-11.43 -0.9525,-7.12613 -2.29306,-14.85195 -2.68112,-15.59278 -0.21166,-0.35278 -0.3175,-0.9525 -0.21166,-1.27 0.0705,-0.3175 -0.3175,-1.83445 -0.88195,-3.38667 -0.564441,-1.51695 -0.917221,-3.03389 -0.811391,-3.35139 0.10584,-0.35278 -0.0705,-1.37583 -0.35277,-2.36361 -0.28223,-0.9525 -0.52917,-2.2225 -0.52917,-2.82222 0,-0.67028 -0.3175,-1.37584 -0.81139,-1.83445 -0.9525,-0.88194 -1.23472,-0.91722 -2.11667,-0.28222 z m 4.974171,13.44083 c -0.10583,0.10584 -0.3175,-0.0706 -0.42333,-0.42333 -0.21167,-0.49389 -0.17639,-0.52917 0.17639,-0.21167 0.24694,0.24695 0.35277,0.52917 0.24694,0.635 z m 190.92333,0.88195 c 0,0.17639 -0.1411,0.35278 -0.35277,0.35278 -0.1764,0 -0.3528,-0.17639 -0.3528,-0.35278 0,-0.21167 0.1764,-0.35278 0.3528,-0.35278 0.21167,0 0.35277,0.14111 0.35277,0.35278 z m -52.91667,1.23472 c -0.24693,0.3175 -0.52917,0.45861 -0.67027,0.35278 -0.10583,-0.10584 0.0353,-0.35278 0.3175,-0.52917 0.74084,-0.49389 0.84667,-0.42333 0.35277,0.17639 z m -62.15943,28.29278 c -0.74084,0.0706 -1.9403,0.0706 -2.64584,0 -0.74083,-0.0706 -0.14113,-0.14111 1.30527,-0.14111 1.4464,0 2.0461,0.0705 1.34057,0.14111 z"
       id="path16520" />
    <path
       style="stroke-width:0.03527778"
       inkscape:connector-curvature="0"
       d="m -237.37092,220.42802 c -0.10583,2.39889 -0.24694,5.00945 -0.45861,8.21973 -0.28222,3.52777 0.0353,8.36084 1.19945,19.40277 0.56444,5.2564 1.48166,14.21694 1.51694,15.13417 l 0.0705,0.84667 -12.10027,0.1411 -12.065,0.10583 -0.3175,-0.7761 c -0.17639,-0.4586 -0.56445,-2.3989 -0.88195,-4.33917 -0.3175,-1.94027 -0.81139,-4.86833 -1.09361,-6.5264 -1.02305,-6.06776 -1.27,-12.87637 -0.70555,-19.40276 l 0.52916,-6.0325 -1.05833,-2.08139 c -0.56444,-1.16417 -1.05833,-2.50472 -1.05833,-3.03389 v -0.9525 l -3.77473,0.24694 c -2.11666,0.10584 -7.44361,0.38806 -11.92388,0.56445 -11.64167,0.49389 -13.97,0.70555 -14.18167,1.34055 -0.14111,0.28223 0.0705,0.74084 0.45861,1.02306 0.56444,0.42333 1.5875,0.49389 5.60917,0.3175 2.71639,-0.14111 8.36083,-0.38806 12.52361,-0.56444 4.16278,-0.17639 8.21972,-0.38806 8.96055,-0.42334 1.34056,-0.0705 1.41111,-0.0353 1.72861,1.12889 0.21167,0.84667 0.10584,2.92806 -0.28222,6.52639 -1.12889,9.63084 0,22.78944 2.64584,31.15028 0.59972,1.79916 1.05833,3.56306 1.05833,3.98639 0,0.59971 0.14111,0.67027 1.16417,0.49387 1.90499,-0.35276 4.48027,-0.4586 16.05138,-0.49387 l 11.07723,-0.0353 -0.21167,-1.86971 c -0.10583,-0.98779 -0.35278,-4.40973 -0.52917,-7.54946 -0.17639,-3.175 -0.59972,-7.7611 -0.88194,-10.23054 -1.02306,-8.85473 -1.34056,-14.46389 -1.09361,-19.75556 0.28222,-5.67972 0,-7.16139 -1.23473,-7.16139 -0.42333,0 -0.70555,0.24695 -0.74083,0.59972 z"
       id="path16522" />
    <path
       style="stroke-width:0.03527778"
       inkscape:connector-curvature="0"
       d="m 229.67158,247.94469 c 0.24694,0.10583 0.56444,0.0706 0.67027,-0.0353 0.1411,-0.10583 -0.0706,-0.21167 -0.4586,-0.1764 -0.38807,0 -0.4939,0.10584 -0.21167,0.21167 z"
       id="path16526" />
    <path
       style="stroke-width:0.03527778"
       inkscape:connector-curvature="0"
       d="m 27.529921,259.23359 c 0.81137,0.0705 2.15193,0.0705 2.9986,0 0.8114,-0.0706 0.1411,-0.14113 -1.51694,-0.14113 -1.65806,0 -2.32833,0.0706 -1.48166,0.14113 z"
       id="path16528" />
    <path
       style="stroke-width:0.03527778"
       inkscape:connector-curvature="0"
       d="m 79.388251,261.35025 c 0.42333,0.0705 1.05833,0.0705 1.4111,0 0.3175,-0.10583 -0.0353,-0.17639 -0.8114,-0.14113 -0.7761,0 -1.05833,0.0706 -0.5997,0.14113 z"
       id="path16530" />
    <path
       style="stroke-width:0.03527778"
       inkscape:connector-curvature="0"
       d="m 130.54102,264.17246 c 0.24693,0.10583 0.56443,0.0706 0.67027,-0.0353 0.14113,-0.10583 -0.0705,-0.21167 -0.45861,-0.1764 -0.38806,0 -0.49389,0.10583 -0.21166,0.21167 z"
       id="path16534" />
    <path
       style="stroke-width:0.03527778"
       inkscape:connector-curvature="0"
       d="m 141.65352,264.87802 c 0.3175,0.0706 0.8114,0.0706 1.05833,0 0.21167,-0.10583 -0.0353,-0.1764 -0.635,-0.1764 -0.56443,0 -0.7761,0.0706 -0.42333,0.1764 z"
       id="path16536" />
  </g>
</svg>
