<?xml version="1.0" encoding="UTF-8" standalone="no"?>
<!-- Created with Inkscape (http://www.inkscape.org/) -->

<svg
   xmlns:dc="http://purl.org/dc/elements/1.1/"
   xmlns:cc="http://creativecommons.org/ns#"
   xmlns:rdf="http://www.w3.org/1999/02/22-rdf-syntax-ns#"
   xmlns:svg="http://www.w3.org/2000/svg"
   xmlns="http://www.w3.org/2000/svg"
   xmlns:sodipodi="http://sodipodi.sourceforge.net/DTD/sodipodi-0.dtd"
   xmlns:inkscape="http://www.inkscape.org/namespaces/inkscape"
   width="354.10928mm"
   height="150.81841mm"
   viewBox="0 0 354.10928 150.81841"
   version="1.1"
   id="svg1216"
   inkscape:version="0.92.5 (2060ec1f9f, 2020-04-08)"
   sodipodi:docname="off_chip.svg">
  <defs
     id="defs1210" />
  <sodipodi:namedview
     id="base"
     pagecolor="#ffffff"
     bordercolor="#666666"
     borderopacity="1.0"
     inkscape:pageopacity="0.0"
     inkscape:pageshadow="2"
     inkscape:zoom="0.35"
     inkscape:cx="700.61165"
     inkscape:cy="390.72553"
     inkscape:document-units="mm"
     inkscape:current-layer="layer1"
     showgrid="false"
     fit-margin-top="0"
     fit-margin-left="0"
     fit-margin-right="0"
     fit-margin-bottom="0"
     inkscape:window-width="1918"
     inkscape:window-height="1057"
     inkscape:window-x="1920"
     inkscape:window-y="0"
     inkscape:window-maximized="0" />
  <metadata
     id="metadata1213">
    <rdf:RDF>
      <cc:Work
         rdf:about="">
        <dc:format>image/svg+xml</dc:format>
        <dc:type
           rdf:resource="http://purl.org/dc/dcmitype/StillImage" />
        <dc:title></dc:title>
      </cc:Work>
    </rdf:RDF>
  </metadata>
  <g
     inkscape:label="Layer 1"
     inkscape:groupmode="layer"
     id="layer1"
     transform="translate(288.17969,-101.39439)">
    <g
       transform="matrix(0.01975675,0,0,-0.02097773,-445.65276,509.81331)"
       id="g1116">
      <path
         inkscape:connector-curvature="0"
         id="path20"
         d="m 21280,19459 c -39,-16 -119,-99 -147,-153 -30,-59 -42,-178 -24,-243 20,-74 88,-133 153,-133 88,0 169,64 225,177 30,60 37,88 41,151 5,90 -10,155 -43,188 -21,21 -33,24 -102,23 -43,0 -89,-5 -103,-10 z m 134,-75 c 4,-12 13,-14 32,-10 l 26,7 -4,-88 c -2,-73 -8,-99 -34,-153 -49,-103 -91,-140 -161,-140 -47,0 -75,19 -97,64 -31,66 -13,172 45,260 30,45 33,47 69,41 28,-5 42,-2 61,14 29,25 55,27 63,5 z" />
      <path
         inkscape:connector-curvature="0"
         id="path22"
         d="m 21717,19390 c -49,-43 -62,-72 -72,-161 -6,-56 -6,-57 24,-67 42,-15 101,-64 101,-84 0,-19 -54,-68 -78,-69 -9,-1 -34,0 -54,1 -45,2 -51,-17 -15,-50 18,-18 30,-21 65,-16 90,12 147,69 138,136 -12,88 -14,83 28,92 51,11 70,26 55,44 -8,10 -37,14 -100,14 h -89 v 30 c 0,19 11,42 31,65 32,36 56,44 76,24 6,-6 16,-8 22,-5 19,12 12,54 -11,70 -37,26 -71,19 -121,-24 z" />
      <path
         inkscape:connector-curvature="0"
         id="path24"
         d="m 22919,19393 c -6,-16 -16,-53 -24,-83 -7,-30 -24,-100 -38,-155 -28,-107 -35,-173 -23,-193 16,-27 45,-11 83,45 47,70 63,77 63,29 0,-51 19,-86 46,-86 27,0 34,15 22,55 -4,16 -8,48 -8,71 0,70 -33,89 -102,59 -25,-10 -23,8 13,141 26,93 29,117 19,129 -19,23 -39,18 -51,-12 z" />
      <path
         inkscape:connector-curvature="0"
         id="path26"
         d="m 22085,19388 c -54,-30 -104,-103 -120,-175 -9,-44 21,-85 80,-107 30,-12 45,-23 45,-36 0,-22 -61,-77 -107,-97 -41,-17 -42,-46 -1,-51 48,-6 133,51 164,110 22,42 17,73 -15,101 -32,27 -31,37 5,37 46,0 126,22 131,37 10,26 -19,34 -116,31 -66,-2 -95,1 -98,9 -5,15 65,93 83,93 17,0 18,32 2,48 -15,15 -27,15 -53,0 z" />
      <path
         inkscape:connector-curvature="0"
         id="path28"
         d="m 24838,19360 c -14,-10 -36,-48 -49,-82 -12,-35 -29,-67 -36,-73 -18,-15 -22,-230 -5,-271 22,-53 95,-71 132,-34 11,11 20,27 20,35 0,13 -9,15 -50,9 -48,-6 -50,-6 -61,22 -8,21 -8,49 0,103 6,41 13,77 15,79 2,2 35,7 73,10 64,7 68,8 68,32 0,23 -4,25 -55,30 -62,6 -66,16 -29,76 19,32 26,84 10,84 -4,0 -20,-9 -33,-20 z" />
      <path
         inkscape:connector-curvature="0"
         id="path30"
         d="m 11664,19354 c -56,-20 -99,-64 -156,-158 -47,-77 -52,-106 -17,-106 19,0 28,10 89,107 42,67 69,89 117,99 31,6 32,5 72,-75 31,-61 46,-81 61,-81 15,0 20,7 20,26 0,30 -56,168 -74,183 -22,19 -69,21 -112,5 z" />
      <path
         inkscape:connector-curvature="0"
         id="path32"
         d="m 12135,19350 c -76,-17 -140,-75 -182,-167 -46,-101 0,-114 57,-16 46,81 90,116 143,117 38,1 43,-2 59,-34 10,-20 22,-64 26,-98 8,-57 32,-102 54,-102 26,0 -7,230 -40,270 -20,25 -75,39 -117,30 z" />
      <path
         inkscape:connector-curvature="0"
         id="path34"
         d="m 25026,19328 c -8,-13 -19,-41 -25,-63 -14,-54 -34,-291 -26,-304 13,-22 34,-10 75,42 23,28 47,52 53,52 7,0 16,-22 22,-48 11,-49 34,-73 61,-63 19,7 17,28 -10,111 -26,79 -46,91 -103,59 -18,-9 -35,-15 -37,-13 -2,2 1,36 5,74 5,39 12,94 15,123 7,57 -5,69 -30,30 z" />
      <path
         inkscape:connector-curvature="0"
         id="path36"
         d="m 11051,19324 c -52,-23 -105,-70 -147,-131 -30,-43 -35,-58 -27,-71 18,-29 40,-24 69,15 68,93 119,133 169,133 22,0 31,-11 68,-87 32,-68 47,-89 65,-91 18,-3 22,1 22,22 0,38 -74,190 -101,209 -28,20 -72,21 -118,1 z" />
      <path
         inkscape:connector-curvature="0"
         id="path38"
         d="m 10598,19310 c -44,-24 -83,-70 -122,-144 -31,-61 -29,-89 6,-84 14,2 31,20 48,52 43,77 78,116 105,116 29,0 62,-40 71,-86 7,-37 27,-59 45,-49 15,10 4,106 -17,146 -14,29 -68,69 -89,69 -5,-1 -26,-10 -47,-20 z" />
      <path
         inkscape:connector-curvature="0"
         id="path40"
         d="m 9055,19293 c -41,-21 -79,-57 -130,-123 -61,-80 -79,-118 -64,-136 7,-8 16,-13 20,-12 5,2 39,44 76,93 105,140 163,159 191,64 21,-70 44,-110 61,-107 21,5 19,35 -7,122 -29,94 -45,116 -85,116 -17,-1 -45,-8 -62,-17 z" />
      <path
         inkscape:connector-curvature="0"
         id="path42"
         d="m 12625,19291 c -77,-19 -137,-73 -182,-166 -27,-55 -26,-89 4,-83 9,2 35,35 58,73 33,58 50,75 93,98 40,22 60,27 83,22 31,-7 31,-8 75,-112 20,-49 54,-61 54,-18 0,62 -23,130 -55,162 -34,34 -64,40 -130,24 z" />
      <path
         inkscape:connector-curvature="0"
         id="path44"
         d="m 23156,19284 c -9,-22 12,-46 38,-42 15,2 21,10 21,28 0,20 -6,26 -26,28 -18,2 -29,-3 -33,-14 z" />
      <path
         inkscape:connector-curvature="0"
         id="path46"
         d="m 10120,19278 c -32,-11 -93,-70 -131,-125 -24,-35 -28,-46 -19,-63 18,-33 37,-23 79,38 70,104 98,109 117,22 15,-74 22,-88 46,-96 29,-9 44,10 31,39 -7,14 -19,55 -28,93 -10,38 -22,74 -27,80 -13,17 -41,22 -68,12 z" />
      <path
         inkscape:connector-curvature="0"
         id="path48"
         d="m 13165,19264 c -33,-18 -145,-123 -176,-166 -23,-32 -17,-68 11,-68 11,0 40,27 70,66 48,61 127,124 156,124 16,0 21,-18 29,-105 8,-81 18,-105 44,-105 31,0 32,9 15,167 -10,95 -68,129 -149,87 z" />
      <path
         inkscape:connector-curvature="0"
         id="path50"
         d="m 9624,19241 c -106,-61 -187,-201 -116,-201 12,0 31,19 50,49 34,56 103,111 138,111 19,0 25,-9 38,-52 19,-67 42,-99 62,-91 17,6 16,21 -10,112 -32,110 -68,126 -162,72 z" />
      <path
         inkscape:connector-curvature="0"
         id="path52"
         d="m 13635,19241 c -23,-10 -66,-47 -101,-87 -76,-86 -98,-120 -90,-139 12,-31 43,-12 104,65 64,81 118,120 166,120 33,0 42,-20 48,-108 5,-74 24,-112 47,-98 15,9 14,187 0,219 -22,48 -102,61 -174,28 z" />
      <path
         inkscape:connector-curvature="0"
         id="path54"
         d="m 23411,19233 c -22,-11 -36,-27 -38,-41 -3,-23 -1,-24 47,-17 57,8 62,0 33,-60 -19,-40 -52,-53 -89,-36 -19,8 -24,18 -24,46 0,27 -4,35 -18,35 -25,0 -42,-20 -42,-49 0,-15 -12,-68 -26,-119 -30,-112 -29,-147 5,-147 21,0 25,8 45,87 12,48 25,90 28,93 3,4 18,-1 32,-10 47,-31 122,6 150,75 17,43 21,116 8,138 -14,22 -74,25 -111,5 z" />
      <path
         inkscape:connector-curvature="0"
         id="path56"
         d="m 22635,19231 c -71,-18 -117,-72 -123,-146 -5,-62 15,-108 58,-130 34,-17 112,-20 141,-4 30,15 6,39 -40,39 -20,0 -51,9 -68,20 -27,16 -33,26 -33,52 0,65 64,128 130,128 19,0 39,25 28,35 -10,10 -64,13 -93,6 z" />
      <path
         inkscape:connector-curvature="0"
         id="path58"
         d="m 25280,19222 c 0,-11 7,-25 15,-32 21,-18 47,-5 43,22 -4,31 -58,40 -58,10 z" />
      <path
         inkscape:connector-curvature="0"
         id="path60"
         d="m 23893,19204 c -23,-9 -56,-31 -74,-51 -30,-35 -31,-39 -27,-111 3,-69 6,-76 36,-103 50,-45 134,-38 171,14 13,19 38,19 83,2 26,-10 34,21 13,45 -18,19 -18,21 1,142 10,68 -2,78 -90,77 -39,0 -90,-7 -113,-15 z m 128,-89 c -4,-51 -22,-86 -61,-119 -36,-30 -66,-33 -92,-9 -23,20 -24,80 -2,112 22,30 91,62 129,59 29,-3 30,-5 26,-43 z" />
      <path
         inkscape:connector-curvature="0"
         id="path62"
         d="m 14110,19185 c -54,-28 -130,-106 -159,-164 -17,-33 -19,-46 -11,-62 15,-26 30,-21 55,20 67,109 128,164 175,159 23,-3 25,-7 30,-69 5,-69 22,-102 49,-97 14,3 16,18 13,103 -3,86 -6,102 -24,118 -28,23 -74,21 -128,-8 z" />
      <path
         inkscape:connector-curvature="0"
         id="path64"
         d="m 14550,19181 c -72,-23 -116,-65 -151,-143 -9,-22 -9,-31 1,-43 20,-24 27,-19 67,41 40,60 80,84 142,84 55,0 77,-21 84,-77 8,-70 23,-103 47,-103 18,0 20,6 20,70 0,86 -18,133 -60,155 -37,19 -115,28 -150,16 z" />
      <path
         inkscape:connector-curvature="0"
         id="path66"
         d="m 24290,19164 c -10,-11 -23,-14 -51,-9 -36,6 -39,5 -44,-22 -3,-15 -12,-51 -20,-79 -8,-28 -15,-63 -15,-78 0,-24 3,-27 27,-24 22,2 36,16 64,62 41,69 56,78 64,39 10,-48 30,-78 54,-81 22,-4 23,-1 17,30 -4,18 -11,58 -15,90 -4,31 -13,63 -20,72 -17,20 -45,20 -61,0 z" />
      <path
         inkscape:connector-curvature="0"
         id="path68"
         d="m 24571,19100 c -55,-105 -74,-107 -70,-7 4,71 4,72 -21,72 -29,0 -37,-24 -39,-118 -1,-49 3,-62 24,-82 13,-14 29,-25 35,-25 18,0 11,-33 -25,-114 -33,-76 -59,-116 -77,-116 -4,0 -18,20 -30,45 -14,29 -29,45 -40,45 -21,0 -23,-18 -7,-75 21,-79 78,-107 131,-66 30,24 75,119 132,282 24,68 52,146 62,172 16,42 17,49 4,57 -28,18 -38,10 -79,-70 z" />
      <path
         inkscape:connector-curvature="0"
         id="path70"
         d="m 23136,19148 c -20,-32 -31,-130 -17,-157 14,-26 37,-27 49,-3 5,9 13,54 16,100 7,78 6,82 -13,82 -11,0 -27,-10 -35,-22 z" />
      <path
         inkscape:connector-curvature="0"
         id="path74"
         d="m 25735,19111 c -52,-24 -76,-52 -84,-98 -12,-61 4,-100 47,-119 20,-10 39,-19 41,-20 8,-6 -24,-113 -50,-165 -28,-57 -91,-122 -129,-134 -29,-9 -74,23 -78,56 -5,32 -20,49 -45,49 -18,0 -19,-4 -13,-47 17,-129 160,-151 262,-41 46,49 68,94 107,214 19,60 52,151 72,202 29,74 34,96 25,108 -18,20 -106,18 -155,-5 z m 75,-55 c 0,-18 -55,-116 -65,-116 -20,0 -45,28 -45,51 0,31 44,69 80,69 16,0 30,-2 30,-4 z" />
      <path
         inkscape:connector-curvature="0"
         id="path76"
         d="m 25256,19098 c -10,-14 -16,-43 -16,-80 0,-48 3,-59 21,-69 35,-18 39,-6 43,143 1,31 -28,35 -48,6 z" />
      <path
         inkscape:connector-curvature="0"
         id="path78"
         d="m 25395,19108 c -12,-42 -27,-148 -22,-162 7,-17 34,-21 53,-8 6,4 23,26 38,50 32,52 56,56 56,9 0,-39 15,-57 48,-57 23,0 24,3 18,38 -3,20 -6,49 -6,64 0,18 -10,33 -30,48 -27,19 -35,21 -61,10 -25,-11 -32,-10 -48,4 -21,19 -40,21 -46,4 z" />
      <path
         inkscape:connector-curvature="0"
         id="path80"
         d="m 10420,19020 c -228,-13 -647,-29 -870,-35 -467,-12 -808,-40 -968,-80 -111,-28 -129,-41 -136,-94 -3,-25 -15,-75 -26,-110 -11,-35 -18,-71 -15,-80 2,-9 0,-54 -5,-101 -5,-47 -16,-238 -25,-425 -13,-302 -13,-362 0,-539 20,-271 19,-550 -6,-1081 -19,-386 -22,-616 -26,-1615 -2,-641 -5,-1286 -6,-1435 -2,-241 0,-273 16,-302 9,-18 27,-38 40,-45 15,-8 140,-14 417,-19 518,-10 776,-24 1350,-74 172,-15 742,-56 1035,-75 83,-5 362,-21 620,-35 259,-14 522,-30 585,-35 63,-5 162,-12 220,-15 222,-13 1006,-98 1340,-145 108,-15 422,-66 665,-106 333,-56 412,-66 545,-68 117,-1 128,1 180,26 112,55 134,138 101,373 -39,274 -41,324 -41,1102 0,955 -11,1362 -55,1998 -9,116 -22,327 -30,470 -8,143 -20,325 -27,405 -14,177 -16,788 -4,1281 9,379 7,415 -31,499 -28,63 -63,100 -126,132 -109,55 -136,58 -507,69 -482,13 -1111,38 -1260,50 -69,5 -294,18 -500,29 -206,11 -442,24 -525,29 -140,9 -273,17 -700,42 -229,14 -1033,19 -1225,9 z m 1355,-70 c 425,-22 1448,-85 1640,-100 166,-14 725,-39 1119,-50 181,-5 367,-14 412,-20 143,-18 217,-54 259,-126 41,-69 48,-190 38,-629 -11,-495 -7,-907 12,-1194 8,-130 26,-411 40,-626 14,-214 30,-462 35,-550 20,-336 30,-848 30,-1601 0,-768 5,-934 35,-1140 18,-119 19,-233 4,-266 -16,-37 -71,-68 -137,-78 -76,-13 -286,2 -437,30 -856,160 -1620,256 -2445,310 -292,19 -435,27 -855,50 -104,6 -282,17 -395,25 -113,8 -308,22 -435,30 -126,9 -360,27 -520,41 -693,59 -970,74 -1437,79 -186,2 -304,7 -316,14 -31,17 -36,105 -26,491 5,190 9,806 9,1370 0,890 3,1072 20,1385 22,407 26,973 8,1210 -8,117 -8,224 3,480 16,369 30,513 64,630 37,130 28,120 122,138 223,43 474,64 903,77 187,5 437,14 555,20 504,25 613,28 950,25 195,-2 531,-13 745,-25 z" />
      <path
         inkscape:connector-curvature="0"
         id="path82"
         d="m 8852,18539 c -77,-38 -118,-130 -109,-240 10,-118 66,-199 155,-225 140,-41 252,39 273,195 9,63 8,74 -17,135 -31,79 -78,121 -157,142 -71,19 -95,18 -145,-7 z" />
      <path
         inkscape:connector-curvature="0"
         id="path84"
         d="m 11597,18516 c -82,-30 -134,-83 -108,-109 9,-9 20,-7 44,7 74,44 93,50 157,50 71,0 109,-15 150,-59 22,-24 25,-35 24,-96 -2,-87 -23,-125 -89,-161 -68,-38 -151,-69 -205,-77 -42,-6 -45,-8 -45,-36 0,-26 4,-30 29,-33 31,-4 152,35 227,74 57,28 105,81 118,131 6,21 11,72 11,113 0,99 -18,135 -90,178 -47,28 -63,32 -120,32 -36,-1 -82,-7 -103,-14 z" />
      <path
         inkscape:connector-curvature="0"
         id="path86"
         d="m 11431,18392 c -16,-31 -24,-504 -11,-662 7,-80 16,-149 21,-155 22,-23 31,15 28,117 -2,56 -2,238 -1,404 4,267 2,302 -12,307 -9,4 -19,-1 -25,-11 z" />
      <path
         inkscape:connector-curvature="0"
         id="path88"
         d="m 10767,18108 c -14,-18 -58,-98 -99,-178 -74,-146 -134,-252 -193,-345 -137,-213 -249,-376 -282,-406 -58,-54 -175,-133 -195,-132 -10,1 -20,-3 -24,-9 -10,-15 17,-58 37,-58 20,0 151,87 214,142 25,22 60,63 78,91 19,29 67,104 109,167 94,146 260,432 306,527 19,40 38,75 42,78 4,2 13,-20 19,-51 16,-68 43,-96 91,-92 30,3 38,9 56,48 12,25 25,43 30,40 5,-3 16,-27 26,-55 24,-71 65,-105 126,-105 50,0 72,12 72,41 0,19 -20,29 -59,29 -69,0 -114,89 -110,215 2,66 -8,92 -33,82 -7,-3 -33,-55 -58,-116 -25,-61 -50,-111 -56,-111 -29,0 -39,34 -39,129 0,81 -3,96 -17,99 -9,2 -27,-11 -41,-30 z" />
      <path
         inkscape:connector-curvature="0"
         id="path90"
         d="m 8175,18729 c -52,-27 -110,-82 -146,-138 -37,-57 -39,-108 -6,-139 39,-37 51,-29 43,28 -5,35 -2,58 8,78 17,34 111,121 155,145 35,18 37,40 5,44 -10,1 -37,-7 -59,-18 z" />
      <path
         inkscape:connector-curvature="0"
         id="path92"
         d="m 23024,18645 c -20,-49 -47,-252 -39,-303 4,-24 15,-52 26,-63 25,-25 80,-25 103,0 23,25 13,41 -23,41 -46,0 -54,20 -47,108 4,42 15,114 25,159 10,46 15,85 13,88 -16,16 -44,2 -58,-30 z" />
      <path
         inkscape:connector-curvature="0"
         id="path94"
         d="m 21911,18628 c -5,-13 -16,-63 -25,-112 -22,-112 -48,-168 -79,-164 -32,4 -50,81 -42,180 3,42 2,79 -2,81 -5,3 -18,1 -30,-4 -22,-8 -23,-13 -23,-116 1,-151 36,-223 111,-223 49,0 80,58 115,208 28,126 30,158 8,166 -23,9 -24,8 -33,-16 z" />
      <path
         inkscape:connector-curvature="0"
         id="path96"
         d="m 24730,18628 c -52,-36 -74,-73 -75,-124 -1,-32 -6,-49 -18,-55 -10,-6 -14,-16 -10,-27 9,-24 23,-32 59,-32 32,0 64,-26 64,-52 0,-24 -27,-41 -73,-47 -33,-5 -42,-10 -42,-26 0,-26 44,-50 79,-41 15,4 44,22 64,40 31,29 37,40 36,78 0,50 8,58 58,58 47,0 88,16 88,34 0,21 -26,28 -135,35 l -100,6 -3,28 c -4,36 22,67 58,67 32,0 50,17 50,46 0,40 -50,45 -100,12 z" />
      <path
         inkscape:connector-curvature="0"
         id="path98"
         d="m 23509,18593 c -25,-71 -32,-82 -52,-85 -20,-3 -22,-10 -24,-83 -1,-44 3,-92 8,-106 15,-38 63,-62 107,-54 48,9 90,34 98,58 10,33 -10,41 -62,23 -58,-20 -59,-20 -77,-1 -18,17 -9,74 13,86 8,4 42,11 75,16 50,7 60,11 60,28 0,14 -11,22 -45,30 l -45,11 3,52 c 3,50 2,52 -23,52 -19,0 -28,-7 -36,-27 z" />
      <path
         inkscape:connector-curvature="0"
         id="path100"
         d="m 21106,18597 c -17,-13 -17,-17 14,-86 45,-104 84,-371 77,-526 -9,-180 -70,-393 -177,-620 -124,-264 -275,-431 -555,-614 -99,-65 -295,-161 -395,-194 -134,-45 -462,-99 -490,-82 -6,3 -10,41 -10,83 0,54 -5,84 -16,100 -15,22 -49,30 -56,13 -1,-4 -37,-37 -78,-71 -213,-180 -277,-273 -222,-323 28,-26 162,-75 237,-87 39,-6 89,-19 112,-27 35,-13 46,-13 58,-3 20,17 19,39 -4,64 -13,15 -21,44 -26,97 -7,85 -4,91 50,95 257,19 414,55 590,134 223,99 473,273 618,430 156,169 293,439 374,736 l 38,139 -1,200 c 0,251 -26,402 -88,523 -18,36 -24,38 -50,19 z" />
      <path
         inkscape:connector-curvature="0"
         id="path102"
         d="m 22029,18530 c -17,-16 -29,-39 -29,-54 0,-26 30,-62 62,-72 10,-3 18,-13 18,-22 0,-17 -50,-63 -82,-75 -40,-14 -9,-75 32,-62 54,17 125,111 118,158 -2,12 -17,31 -35,42 -37,23 -42,41 -12,50 30,10 21,47 -15,56 -24,7 -33,3 -57,-21 z" />
      <path
         inkscape:connector-curvature="0"
         id="path104"
         d="m 22243,18505 c -48,-29 -70,-80 -59,-137 15,-80 135,-129 186,-78 26,26 18,40 -21,40 -41,0 -99,26 -99,44 0,12 12,16 51,16 43,0 55,5 80,29 31,31 39,77 17,99 -22,22 -109,14 -155,-13 z" />
      <path
         inkscape:connector-curvature="0"
         id="path106"
         d="m 24359,18503 c -44,-37 -69,-96 -69,-164 0,-73 27,-102 94,-101 75,2 100,21 142,109 36,75 31,129 -15,160 -49,33 -110,31 -152,-4 z m 71,-58 c 7,-8 23,-15 36,-15 28,0 30,-14 9,-64 -18,-43 -54,-69 -92,-64 -22,2 -29,9 -31,32 -5,39 4,68 29,99 24,31 32,33 49,12 z" />
      <path
         inkscape:connector-curvature="0"
         id="path108"
         d="m 22476,18479 c -37,-43 -33,-69 16,-113 39,-36 41,-39 22,-49 -10,-6 -35,-13 -54,-17 -23,-3 -36,-12 -38,-23 -13,-67 117,-61 162,7 26,40 20,72 -19,107 -19,18 -35,36 -35,40 0,5 14,15 30,24 50,26 35,55 -30,55 -19,0 -36,-10 -54,-31 z" />
      <path
         inkscape:connector-curvature="0"
         id="path110"
         d="m 23214,18485 c -47,-47 -69,-138 -44,-185 6,-11 28,-24 49,-30 34,-9 44,-7 74,10 39,23 67,79 67,133 0,37 -12,55 -52,80 -38,24 -65,21 -94,-8 z m 90,-61 c 13,-34 -48,-104 -76,-87 -15,8 -8,51 13,77 23,29 54,34 63,10 z" />
      <path
         inkscape:connector-curvature="0"
         id="path112"
         d="m 23701,18459 c -12,-13 -21,-30 -21,-38 0,-18 45,-71 60,-71 6,0 10,-4 10,-10 0,-14 -55,-40 -85,-40 -18,0 -25,-5 -25,-19 0,-30 35,-50 73,-41 52,13 65,20 91,55 34,44 33,66 -4,90 -35,23 -39,45 -9,45 15,0 20,5 17,23 -2,18 -10,23 -45,25 -32,2 -46,-2 -62,-19 z" />
      <path
         inkscape:connector-curvature="0"
         id="path114"
         d="m 15481,18391 c -16,-29 7,-48 71,-60 85,-15 148,-51 148,-85 0,-18 -58,-96 -118,-158 -47,-48 -51,-78 -12,-78 22,0 65,39 127,115 53,66 63,87 63,130 0,57 -46,97 -148,129 -99,31 -118,32 -131,7 z" />
      <path
         inkscape:connector-curvature="0"
         id="path116"
         d="m 18240,18340 c -36,-4 -95,-8 -131,-9 l -66,-1 -9,-127 c -17,-247 4,-593 41,-649 7,-11 34,-27 60,-34 25,-7 50,-20 55,-29 14,-28 23,-133 24,-307 l 1,-164 h -35 c -19,0 -100,7 -180,15 -329,35 -445,45 -650,55 -569,29 -1204,50 -1472,49 -102,-1 -191,2 -197,5 -6,4 -11,13 -11,21 0,44 -112,112 -172,103 -46,-6 -29,-68 19,-68 13,0 39,-7 58,-14 28,-12 35,-20 35,-43 0,-39 -19,-63 -84,-108 -54,-37 -74,-64 -61,-85 3,-5 13,-10 21,-10 20,0 112,69 149,111 l 30,34 490,-6 c 270,-4 582,-12 695,-18 113,-5 300,-15 415,-21 228,-11 356,-21 625,-50 237,-25 372,-33 389,-22 11,8 11,16 2,44 -7,21 -11,99 -10,199 2,202 -5,255 -39,292 -21,22 -23,27 -9,27 9,0 26,-9 37,-20 28,-28 80,-27 80,1 0,12 5,19 13,16 13,-4 11,-55 -4,-73 -5,-7 -8,-122 -7,-265 4,-412 3,-730 -2,-957 l -4,-213 -41,6 c -227,29 -1079,39 -2169,25 l -400,-5 -8,32 c -22,84 -213,187 -226,121 -2,-11 16,-26 59,-49 69,-37 119,-82 119,-108 0,-28 -48,-94 -96,-130 -32,-24 -44,-40 -42,-55 8,-54 106,-3 162,85 l 29,45 321,1 c 177,1 634,5 1016,8 581,6 741,5 975,-9 221,-13 287,-20 312,-33 18,-9 36,-14 40,-9 7,6 6,597 0,1241 -2,173 19,341 40,323 9,-7 37,-7 94,1 45,6 84,10 85,8 2,-2 -4,-30 -12,-62 -20,-76 -22,-194 -6,-365 6,-74 12,-205 12,-291 0,-86 7,-248 15,-360 8,-112 19,-359 25,-549 11,-361 26,-705 36,-851 5,-68 3,-87 -7,-91 -8,-3 -108,-1 -224,4 -148,7 -314,6 -563,-3 -315,-11 -384,-10 -630,5 -153,9 -315,21 -362,26 -47,5 -238,10 -425,11 -272,2 -368,-1 -480,-15 -164,-20 -195,-36 -142,-71 21,-13 37,-13 148,0 142,17 625,20 834,5 72,-5 234,-16 360,-26 189,-13 289,-15 565,-8 402,10 472,10 749,-1 245,-9 245,-10 230,68 -13,67 -11,85 11,92 25,8 25,28 1,63 -16,23 -20,52 -25,217 -8,283 -35,897 -47,1085 -5,91 -14,293 -19,450 -5,157 -14,317 -20,355 -10,67 -8,108 17,290 6,47 18,65 45,65 10,0 21,7 25,16 3,8 11,13 19,10 24,-9 31,18 22,89 -5,39 -13,156 -17,260 -8,197 -33,369 -58,395 -11,12 -49,15 -196,16 -100,1 -211,-2 -247,-6 z m 400,-62 c 0,-13 3,-33 6,-45 4,-15 0,-23 -15,-28 -64,-20 -267,-437 -296,-609 l -6,-38 -69,4 c -39,2 -74,8 -79,13 -18,18 70,199 145,299 33,46 22,0 -26,-103 -55,-119 -65,-163 -38,-169 10,-2 19,5 23,20 4,13 44,100 90,193 45,94 93,194 106,224 13,30 43,89 67,130 23,41 42,78 42,83 0,4 -9,8 -20,8 -19,0 -27,20 -13,33 3,4 24,7 45,7 33,0 38,-3 38,-22 z m -160,0 c 0,-16 -60,-112 -65,-106 -7,7 13,68 30,94 17,26 35,32 35,12 z m -100,-8 c 0,-17 -126,-277 -175,-360 -24,-41 -53,-104 -65,-140 -20,-59 -20,-65 -5,-76 13,-10 15,-22 10,-58 -4,-27 -13,-46 -20,-46 -19,0 -22,15 -24,106 -3,117 11,149 205,487 19,32 34,67 34,78 0,12 7,19 20,19 11,0 20,-5 20,-10 z m -247,-6 c 7,-8 -34,-84 -46,-84 -7,0 0,66 10,83 5,9 27,9 36,1 z m 87,0 c 0,-4 -32,-68 -72,-143 -45,-85 -74,-129 -76,-118 -2,10 3,26 12,36 8,9 21,33 28,52 42,115 74,179 91,179 9,0 17,-3 17,-6 z m 443,-126 c 3,-13 9,-63 13,-111 l 7,-88 -44,-92 c -33,-70 -44,-106 -47,-154 -4,-59 -3,-63 17,-63 21,0 24,6 36,81 3,19 12,44 21,55 14,17 14,11 8,-66 -3,-47 -9,-88 -13,-91 -12,-12 -105,-39 -133,-39 -44,0 -42,6 56,259 31,79 56,154 56,167 0,34 -26,30 -50,-8 -28,-47 -131,-326 -139,-378 -6,-42 -8,-45 -39,-48 -18,-2 -32,1 -32,8 0,56 162,434 236,552 28,44 40,47 47,16 z m -443,-338 c -6,-11 -13,-20 -16,-20 -2,0 0,9 6,20 6,11 13,20 16,20 2,0 0,-9 -6,-20 z" />
      <path
         inkscape:connector-curvature="0"
         id="path118"
         d="m 8060,18158 c -80,-54 -114,-183 -70,-267 36,-71 110,-109 110,-56 0,14 -8,29 -19,35 -28,14 -55,92 -47,133 3,19 22,52 42,75 29,34 42,42 70,42 33,0 35,2 32,28 -3,24 -8,27 -43,30 -30,2 -50,-4 -75,-20 z" />
      <path
         inkscape:connector-curvature="0"
         id="path120"
         d="m 22132,18035 c -64,-15 -74,-24 -78,-67 -2,-18 -8,-71 -14,-118 -27,-239 -23,-310 20,-310 19,0 20,6 20,94 0,51 3,106 6,122 l 5,29 72,-3 c 60,-2 79,1 111,20 50,29 76,65 86,117 19,106 -74,154 -228,116 z m 161,-67 c 26,-13 21,-56 -11,-88 -31,-31 -86,-50 -144,-50 h -38 l 1,43 c 2,78 10,91 64,104 50,11 95,8 128,-9 z" />
      <path
         inkscape:connector-curvature="0"
         id="path122"
         d="m 23058,17963 c -14,-16 -33,-43 -42,-61 -42,-82 -116,-134 -116,-82 0,53 -38,67 -70,28 -22,-28 -29,-22 -37,28 -7,47 -19,64 -46,64 -19,0 -20,-5 -14,-81 6,-98 27,-136 73,-131 16,1 36,3 44,3 8,1 29,-5 47,-12 29,-12 35,-11 72,16 24,16 57,54 78,89 20,34 47,75 60,92 49,65 6,106 -49,47 z" />
      <path
         inkscape:connector-curvature="0"
         id="path124"
         d="m 22475,17953 c -88,-45 -126,-126 -93,-198 31,-68 159,-75 226,-12 53,49 75,168 38,205 -22,22 -132,25 -171,5 z m 135,-68 c 0,-39 -35,-99 -65,-113 -56,-26 -115,-4 -115,43 0,12 14,34 30,50 28,27 53,35 138,44 7,0 12,-10 12,-24 z" />
      <path
         inkscape:connector-curvature="0"
         id="path126"
         d="m 23208,17920 c -47,-31 -58,-51 -58,-107 0,-75 43,-113 129,-113 55,0 97,15 105,37 10,26 -4,33 -72,33 -70,0 -88,6 -94,29 -2,11 10,13 58,12 45,-2 65,2 78,14 25,25 31,65 15,94 -12,22 -23,26 -64,29 -42,2 -58,-2 -97,-28 z" />
      <path
         inkscape:connector-curvature="0"
         id="path128"
         d="m 23497,17926 c -4,-9 -13,-16 -21,-16 -19,0 -58,-104 -54,-144 3,-27 7,-31 33,-31 28,0 32,5 51,60 l 21,60 114,3 c 110,3 139,11 139,37 0,20 -54,33 -171,40 -92,6 -107,5 -112,-9 z" />
      <path
         inkscape:connector-curvature="0"
         id="path130"
         d="m 15464,17777 c -19,-16 -25,-29 -21,-41 6,-14 15,-16 52,-10 39,5 51,3 85,-20 69,-46 66,-97 -11,-182 -51,-57 -62,-95 -27,-102 17,-3 88,67 119,117 49,81 45,128 -19,194 -68,71 -129,86 -178,44 z" />
      <path
         inkscape:connector-curvature="0"
         id="path132"
         d="m 8077,17660 c -41,-48 -60,-111 -55,-180 4,-52 9,-65 37,-94 39,-40 89,-53 132,-34 31,14 33,17 23,42 -4,10 -18,16 -40,16 -20,0 -43,9 -61,24 -24,21 -28,31 -26,70 2,59 37,120 65,113 24,-7 32,12 19,46 -15,39 -61,37 -94,-3 z" />
      <path
         inkscape:connector-curvature="0"
         id="path134"
         d="m 8112,17138 c -46,-59 -65,-153 -41,-215 24,-64 70,-92 127,-77 37,10 29,50 -13,64 -19,6 -40,20 -45,30 -25,46 2,140 40,140 23,0 28,38 8,58 -16,16 -63,15 -76,0 z" />
      <path
         inkscape:connector-curvature="0"
         id="path136"
         d="m 15454,16805 c -9,-21 12,-42 73,-77 39,-22 53,-36 53,-52 0,-12 -25,-58 -55,-102 -57,-81 -66,-117 -30,-122 15,-2 33,15 66,60 61,83 79,120 79,160 0,46 -21,72 -91,113 -66,38 -87,43 -95,20 z" />
      <path
         inkscape:connector-curvature="0"
         id="path138"
         d="m 8114,16586 c -50,-22 -104,-119 -104,-187 0,-64 66,-149 116,-149 31,0 33,40 3,58 -70,44 -49,173 37,224 68,40 23,87 -52,54 z" />
      <path
         inkscape:connector-curvature="0"
         id="path140"
         d="m 8060,16013 c -89,-101 -83,-250 12,-299 41,-21 103,-15 103,10 0,14 -10,22 -32,28 -41,11 -73,52 -73,95 0,58 54,143 91,143 23,0 29,11 22,38 -4,18 -13,22 -48,22 -37,0 -47,-5 -75,-37 z" />
      <path
         inkscape:connector-curvature="0"
         id="path142"
         d="m 15540,15615 c 0,-20 14,-34 68,-68 37,-24 73,-51 81,-61 19,-22 7,-45 -59,-118 -51,-58 -61,-90 -28,-96 20,-4 89,56 130,112 54,75 29,141 -82,213 -76,50 -110,56 -110,18 z" />
      <path
         inkscape:connector-curvature="0"
         id="path144"
         d="m 8086,15471 c -23,-26 -56,-123 -56,-168 0,-92 57,-183 114,-183 42,0 45,29 6,61 -29,24 -34,36 -38,83 -5,58 18,145 44,166 7,7 14,23 14,36 0,21 -5,24 -33,24 -20,0 -41,-8 -51,-19 z" />
      <path
         inkscape:connector-curvature="0"
         id="path146"
         d="m 15542,15117 c -18,-21 7,-46 79,-81 52,-25 65,-36 67,-58 4,-33 -28,-97 -75,-148 -28,-31 -34,-45 -29,-65 8,-33 50,-35 67,-3 6,12 20,31 31,42 25,27 64,102 72,142 14,63 -28,123 -108,153 -85,31 -92,32 -104,18 z" />
      <path
         inkscape:connector-curvature="0"
         id="path148"
         d="m 8088,14901 c -28,-22 -73,-102 -83,-148 -9,-43 10,-108 43,-144 34,-38 107,-53 119,-24 4,13 -1,23 -18,34 -49,32 -69,59 -69,93 0,46 58,142 88,146 28,4 39,27 22,47 -17,21 -73,19 -102,-4 z" />
      <path
         inkscape:connector-curvature="0"
         id="path156"
         d="m 15575,14570 c -15,-24 10,-49 80,-84 80,-39 94,-59 80,-113 -3,-16 -33,-53 -66,-83 -59,-56 -73,-85 -44,-96 17,-7 81,34 126,79 33,33 65,124 55,160 -10,42 -53,84 -118,116 -63,32 -102,39 -113,21 z" />
      <path
         inkscape:connector-curvature="0"
         id="path158"
         d="m 8058,14320 c -78,-61 -86,-275 -14,-379 50,-72 186,-94 186,-31 0,15 -9,21 -42,27 -83,13 -126,91 -115,210 7,67 27,117 60,143 28,23 16,50 -21,50 -16,0 -41,-9 -54,-20 z" />
      <path
         inkscape:connector-curvature="0"
         id="path162"
         d="m 15618,13994 c -24,-23 -4,-44 77,-85 47,-23 85,-47 85,-55 0,-7 -21,-30 -47,-50 -115,-91 -133,-117 -90,-133 17,-7 28,-4 47,13 14,12 50,41 81,64 106,80 101,142 -15,207 -65,36 -125,53 -138,39 z" />
      <path
         inkscape:connector-curvature="0"
         id="path164"
         d="m 8093,13658 c -120,-124 -84,-338 57,-338 37,0 53,28 25,44 -63,38 -75,56 -75,115 0,78 33,142 79,153 26,7 32,13 29,31 -2,18 -10,23 -43,25 -34,2 -45,-2 -72,-30 z" />
      <path
         inkscape:connector-curvature="0"
         id="path166"
         d="m 15640,13449 c 0,-25 12,-37 73,-72 64,-38 62,-56 -18,-135 -36,-35 -65,-65 -65,-67 0,-19 17,-35 37,-35 36,0 138,104 153,158 11,36 10,44 -7,74 -21,37 -115,98 -150,98 -17,0 -23,-6 -23,-21 z" />
      <path
         inkscape:connector-curvature="0"
         id="path168"
         d="m 15580,13025 c -21,-25 -4,-42 69,-71 39,-16 83,-38 98,-50 38,-30 26,-67 -35,-104 -88,-53 -102,-80 -41,-80 72,0 169,85 169,147 0,51 -59,104 -158,142 -95,36 -86,35 -102,16 z" />
      <path
         inkscape:connector-curvature="0"
         id="path170"
         d="m 8657,12884 c -4,-4 -7,-45 -7,-91 0,-90 13,-130 52,-157 55,-39 174,-3 233,69 62,77 36,123 -31,53 -43,-45 -88,-68 -132,-68 -47,0 -61,25 -64,115 -3,72 -5,80 -23,83 -12,2 -24,0 -28,-4 z" />
      <path
         inkscape:connector-curvature="0"
         id="path174"
         d="m 9415,12769 c -39,-39 -83,-78 -99,-86 -26,-14 -31,-13 -55,5 -22,16 -26,28 -27,68 -1,39 -4,50 -19,53 -45,8 -61,-87 -25,-146 28,-47 70,-65 122,-54 35,8 56,23 107,78 94,100 123,153 83,153 -10,0 -49,-32 -87,-71 z" />
      <path
         inkscape:connector-curvature="0"
         id="path176"
         d="m 9740,12775 c -7,-8 -15,-35 -17,-58 -12,-101 86,-179 170,-136 32,16 126,109 143,141 12,23 12,27 -2,32 -17,6 -41,-8 -119,-73 -27,-23 -59,-41 -71,-41 -32,0 -54,31 -54,77 0,69 -21,93 -50,58 z" />
      <path
         inkscape:connector-curvature="0"
         id="path178"
         d="m 11267,12773 c -15,-14 -6,-91 17,-138 29,-62 81,-95 140,-88 71,7 178,76 161,102 -7,12 -39,7 -98,-15 -62,-23 -102,-18 -131,16 -14,17 -28,47 -32,68 -9,53 -35,78 -57,55 z" />
      <path
         inkscape:connector-curvature="0"
         id="path180"
         d="m 10214,12756 c -9,-23 15,-93 42,-126 54,-63 120,-76 200,-38 73,34 144,118 100,118 -7,0 -43,-16 -80,-35 -105,-55 -145,-45 -191,46 -26,49 -59,66 -71,35 z" />
      <path
         inkscape:connector-curvature="0"
         id="path182"
         d="m 10752,12718 c 9,-99 56,-162 130,-174 67,-11 193,65 161,97 -6,6 -35,2 -74,-10 -61,-20 -65,-20 -99,-3 -28,14 -37,25 -44,57 -15,71 -23,85 -52,85 -26,0 -26,-1 -22,-52 z" />
      <path
         inkscape:connector-curvature="0"
         id="path184"
         d="m 11777,12763 c -11,-10 -8,-94 4,-138 6,-22 26,-54 46,-72 41,-39 94,-44 158,-14 69,33 155,128 155,172 0,34 -31,20 -96,-41 -43,-40 -75,-61 -99,-66 -75,-14 -105,14 -105,96 0,21 -3,45 -6,54 -6,16 -45,22 -57,9 z" />
      <path
         inkscape:connector-curvature="0"
         id="path186"
         d="m 12311,12703 c -16,-57 -13,-94 9,-131 21,-35 72,-62 114,-62 44,0 130,38 169,75 60,56 42,101 -21,56 -74,-52 -165,-66 -197,-31 -14,15 -16,29 -12,63 7,47 -4,67 -35,67 -11,0 -21,-12 -27,-37 z" />
      <path
         inkscape:connector-curvature="0"
         id="path188"
         d="m 12845,12681 c -3,-6 -2,-28 4,-48 5,-21 12,-50 15,-65 8,-34 59,-94 97,-114 53,-27 157,-8 206,38 44,41 25,66 -34,44 -21,-8 -60,-16 -86,-19 -43,-4 -51,-2 -82,27 -18,18 -36,45 -40,62 -10,48 -29,79 -52,82 -12,2 -24,-2 -28,-7 z" />
      <path
         inkscape:connector-curvature="0"
         id="path190"
         d="m 13417,12644 c -14,-14 -7,-96 12,-132 24,-48 45,-66 105,-93 38,-17 59,-20 97,-15 92,12 168,57 155,91 -7,19 -34,19 -79,0 -58,-24 -136,-20 -179,10 -36,25 -42,37 -50,115 -2,18 -10,26 -28,28 -14,2 -29,0 -33,-4 z" />
      <path
         inkscape:connector-curvature="0"
         id="path192"
         d="m 14017,12584 c -4,-4 -7,-33 -7,-64 0,-119 104,-197 215,-160 46,15 115,76 115,101 0,25 -6,24 -83,-11 -109,-49 -160,-28 -180,75 -10,48 -16,61 -32,63 -12,2 -24,0 -28,-4 z" />
      <path
         inkscape:connector-curvature="0"
         id="path194"
         d="m 14545,12510 c -8,-12 57,-134 88,-168 32,-34 71,-52 114,-52 48,0 103,32 103,61 0,19 -4,20 -63,14 -55,-6 -65,-4 -90,15 -15,12 -36,39 -47,60 -30,59 -88,98 -105,70 z" />
      <path
         inkscape:connector-curvature="0"
         id="path196"
         d="m 14967,12453 c -12,-12 -7,-73 8,-103 39,-76 129,-92 220,-40 56,32 72,54 54,76 -9,11 -21,9 -66,-11 -89,-40 -153,-27 -153,32 0,32 -45,65 -63,46 z" />
    </g>
  </g>
</svg>
