<?xml version="1.0" encoding="UTF-8" standalone="no"?>
<!-- Created with Inkscape (http://www.inkscape.org/) -->

<svg
   xmlns:dc="http://purl.org/dc/elements/1.1/"
   xmlns:cc="http://creativecommons.org/ns#"
   xmlns:rdf="http://www.w3.org/1999/02/22-rdf-syntax-ns#"
   xmlns:svg="http://www.w3.org/2000/svg"
   xmlns="http://www.w3.org/2000/svg"
   xmlns:sodipodi="http://sodipodi.sourceforge.net/DTD/sodipodi-0.dtd"
   xmlns:inkscape="http://www.inkscape.org/namespaces/inkscape"
   width="323.93246mm"
   height="66.230247mm"
   viewBox="0 0 323.93246 66.230247"
   version="1.1"
   id="svg15593"
   inkscape:version="0.92.5 (2060ec1f9f, 2020-04-08)"
   sodipodi:docname="pdyn_alpha.svg">
  <defs
     id="defs15587" />
  <sodipodi:namedview
     id="base"
     pagecolor="#ffffff"
     bordercolor="#666666"
     borderopacity="1.0"
     inkscape:pageopacity="0.0"
     inkscape:pageshadow="2"
     inkscape:zoom="0.35"
     inkscape:cx="626.44156"
     inkscape:cy="373.73094"
     inkscape:document-units="mm"
     inkscape:current-layer="layer1"
     showgrid="false"
     fit-margin-top="0"
     fit-margin-left="0"
     fit-margin-right="0"
     fit-margin-bottom="0"
     inkscape:window-width="1918"
     inkscape:window-height="1057"
     inkscape:window-x="1920"
     inkscape:window-y="0"
     inkscape:window-maximized="0" />
  <metadata
     id="metadata15590">
    <rdf:RDF>
      <cc:Work
         rdf:about="">
        <dc:format>image/svg+xml</dc:format>
        <dc:type
           rdf:resource="http://purl.org/dc/dcmitype/StillImage" />
        <dc:title></dc:title>
      </cc:Work>
    </rdf:RDF>
  </metadata>
  <g
     inkscape:label="Layer 1"
     inkscape:groupmode="layer"
     id="layer1"
     transform="translate(268.55552,-181.48607)">
    <path
       style="stroke-width:0.03527778"
       inkscape:connector-curvature="0"
       d="m 23.917326,181.94887 c -1.02306,0.28223 -1.41113,0.59973 -1.41113,1.09362 0,0.635 0.21167,0.67027 2.8575,0.56444 4.69196,-0.17639 4.86834,1.16417 0.6703,5.57389 -1.55223,1.62278 -2.64584,3.06917 -2.64584,3.4925 0,0.9525 1.44638,2.08139 3.31611,2.57528 1.69333,0.45861 5.11527,0.49389 5.5386,0.0705 0.45863,-0.45861 -0.67027,-1.86972 -1.44637,-1.86972 -1.51696,0 -4.3039,-0.81139 -4.4803,-1.30528 -0.1411,-0.3175 0.52917,-1.27 1.7639,-2.50472 1.94027,-1.97556 3.06917,-3.95111 3.06917,-5.32694 0,-0.35278 -0.56444,-1.16417 -1.23473,-1.76389 -1.05834,-0.91723 -1.55221,-1.09361 -2.92804,-1.05834 -0.91723,0 -2.29307,0.21167 -3.06917,0.45861 z"
       id="path6074" />
    <path
       style="stroke-width:0.03527778"
       inkscape:connector-curvature="0"
       d="m -43.286834,189.2161 c -2.2578,0.42333 -4.1275,1.69333 -7.3378,5.00944 -4.79777,4.90361 -7.65527,8.78417 -10.1247,13.68778 -2.32834,4.62139 -2.7164,6.06778 -2.8928,11.18305 -0.17637,4.09223 -0.10583,4.93889 0.59973,7.23195 2.18723,7.26722 5.29167,10.26583 13.75833,13.26444 4.72724,1.62278 6.35,1.72862 12.27667,0.56445 1.19944,-0.24695 2.32833,-1.48167 1.86973,-2.04611 -0.3175,-0.38806 -0.74083,-0.35278 -2.25779,0.0353 -2.89277,0.81139 -7.86694,0.38806 -11.46527,-0.91722 -6.35,-2.36361 -8.60777,-4.02167 -10.72444,-7.83167 -2.89279,-5.32694 -3.24556,-11.53583 -0.9525,-17.07444 0.24694,-0.59972 0.38804,-1.27 0.35277,-1.51694 -0.0353,-0.21167 0.10583,-0.42334 0.3175,-0.42334 0.21167,0 0.3175,-0.14111 0.21167,-0.3175 -0.10584,-0.17639 0.0353,-0.77611 0.3175,-1.30527 0.28223,-0.56445 0.52916,-0.88195 0.52916,-0.67028 0,0.35278 2.11667,-2.82222 2.11667,-3.21028 0,-0.10583 -0.1411,-0.0706 -0.35277,0.0353 -0.21166,0.10583 -0.24696,-0.0353 -0.10583,-0.35278 0.10583,-0.35278 0.2822,-0.45861 0.42333,-0.21167 0.1411,0.21167 1.0936,-0.77611 2.15194,-2.15194 2.6811,-3.52778 7.4789,-8.50195 9.41916,-9.77195 1.905,-1.27 3.81,-1.41111 6.77334,-0.52916 2.15193,0.635 3.3161,0.38805 3.13973,-0.635 -0.21167,-1.34056 -5.18583,-2.61056 -8.04333,-2.04611 z m -9.41917,9.87777 c -0.3175,0.56445 -0.74083,1.05834 -0.91723,1.05834 -0.3175,0 -0.0353,-0.52917 0.7761,-1.48167 0.8114,-0.9525 0.84667,-0.77611 0.14113,0.42333 z"
       id="path6076" />
    <path
       style="stroke-width:0.03527778"
       inkscape:connector-curvature="0"
       d="m 15.485926,194.75471 c -0.7761,1.905 -3.3161,9.17222 -5.715,16.15722 -7.23193,21.34305 -8.14916,23.95361 -8.50193,24.05945 -0.63500001,0.21166 -2.08140001,-3.77473 -4.33917,-11.88862 -1.19946,-4.37444 -2.7164,-9.70139 -3.3514,-11.81805 -1.34056,-4.33917 -3.03389,-10.90084 -3.88056,-15.16945 -0.3175,-1.55222 -0.74083,-3.03389 -0.9525,-3.28083 -0.56444,-0.635 -1.69333,-0.52917 -1.69333,0.21167 0,2.04611 2.64583,13.40555 4.90363,20.88444 0.52916,1.83444 1.97553,6.80861 3.1397,11.00667 2.3989,8.50194 4.48028999,13.93472 5.46805999,14.25222 0.35277,0.10583 0.88194001,0 1.16417001,-0.24695 0.88194,-0.74083 2.50473,-4.23333 3.45723,-7.40833 0.4586,-1.62277 2.0461,-6.45583 3.4925,-10.72444 1.48167,-4.26861 3.3161,-9.8425 4.1275,-12.34722 1.48167,-4.55084 2.11667,-6.31473 4.48027,-12.27667 1.30527,-3.28083 1.34056,-4.83306 0.1764,-4.83306 -0.45863,0 -0.9878,0.91723 -1.97557,3.42195 z"
       id="path6080" />
    <path
       style="stroke-width:0.03527778"
       inkscape:connector-curvature="0"
       d="m 47.694536,195.38971 c -2.01084,1.05833 -3.31611,2.54 -4.62138,5.29166 -2.18723,4.72723 -2.25779,10.23056 -0.14112,14.78139 0.70556,1.51695 1.16416,2.89278 1.05833,3.06917 -0.10583,0.17639 -0.84667,0.3175 -1.65804,0.35278 -0.8114,0 -2.04613,0.17639 -2.7164,0.42333 -0.9525,0.3175 -1.23473,0.59972 -1.23473,1.30528 0,0.88194 0,0.88194 3.4925,0.88194 h 3.5278 l 0.4586,2.46945 c 1.0936,5.3975 -0.1411,11.88861 -2.54,13.44083 -0.91723,0.59972 -1.0936,0.59972 -3.28083,0.0353 -2.54,-0.67028 -3.28084,-1.16417 -4.51557,-3.175 -0.49387,-0.70556 -1.12887,-1.30528 -1.4111,-1.30528 -0.84667,0 -0.4586,2.78694 0.56444,4.19806 1.09362,1.55222 3.95112,2.92805 6.52639,3.10444 1.79917,0.14111 2.29307,0.0353 3.3514,-0.67028 2.9986,-2.01083 4.5861,-9.13694 3.52777,-15.62805 -0.42333,-2.64584 -0.24694,-2.8575 3.13973,-3.31611 2.89277,-0.38806 3.59833,-0.77612 2.96333,-1.72862 -0.3175,-0.49388 -0.88196,-0.59972 -3.73946,-0.49388 -3.91583,0.10583 -3.7747,0.24694 -5.57387,-4.1275 -1.72863,-4.1275 -1.62279,-9.31334 0.24694,-13.26445 1.94027,-4.02166 5.2211,-5.53861 8.85473,-4.02166 1.34054,0.52916 1.7286,0.3175 1.12887,-0.67028 -1.23471,-1.97556 -4.62137,-2.39889 -7.40833,-0.9525 z"
       id="path6082" />
    <path
       style="stroke-width:0.03527778;fill:#800080"
       inkscape:connector-curvature="0"
       d="m -90.312134,214.86304 c -0.0705,0.17639 -0.52917,1.55222 -0.9525,3.10444 -1.48167,5.32695 -2.5047,8.4314 -3.38667,10.08945 -0.98777,2.01083 -0.98777,1.94028 -0.2822,2.2225 0.52917,0.21167 0.98777,-0.59972 2.96333,-5.43278 1.37584,-3.38667 2.82221,-10.23055 2.15194,-10.23055 -0.1764,0 -0.42334,0.10583 -0.4939,0.24694 z"
       id="path6086" />
    <path
       style="stroke-width:0.03527778;fill:#800080"
       inkscape:connector-curvature="0"
       d="m -111.26713,215.53332 c -1.83444,0.67028 -4.86833,3.31611 -5.715,5.04472 -1.8697,3.70417 -1.905,9.525 -0.1411,13.47611 2.9986,6.56167 8.50193,9.03111 13.89943,6.20889 1.55223,-0.77611 2.43417,-1.51694 2.92807,-2.36361 0.352766,-0.67028 1.446396,-1.94028 2.398896,-2.82222 l 1.76387,-1.55223 1.62279,1.7639 c 2.9986,3.24555 8.7136,6.63222 9.87777,5.89138 1.1289,-0.70555 0.70557,-1.65805 -1.19943,-2.57528 -2.96334,-1.44638 -5.29167,-3.10444 -6.91447,-4.9036 -2.0461,-2.25778 -3.88053,-4.55084 -4.4097,-5.50334 -0.77613,-1.41111 -6.526396,-9.8425 -7.302496,-10.68917 -0.88196,-1.02305 -3.175,-2.2225 -4.40973,-2.36361 -0.4939,-0.0705 -1.5875,0.10584 -2.3989,0.38806 z m 2.96333,2.29305 c 0.52917,0.17639 1.4464,0.77611 1.97557,1.30528 1.30527,1.23473 9.066396,12.55889 9.066396,13.22917 0,0.67028 -4.056966,4.51556 -5.997236,5.64444 -2.25776,1.30528 -4.19806,1.55222 -6.70276,0.77612 -2.3989,-0.74084 -3.70417,-1.905 -5.15057,-4.7625 -0.88193,-1.69334 -1.02306,-2.3989 -1.16417,-5.75028 -0.17639,-5.43278 0.77611,-7.69056 4.16277,-9.80723 1.72863,-1.12889 2.29307,-1.19944 3.81,-0.635 z m 7.1614,20.56695 c 0,0.10583 -0.1411,0.28222 -0.35277,0.38806 -0.1764,0.10583 -0.35279,0.0353 -0.35279,-0.14112 0,-0.21166 0.17639,-0.38805 0.35279,-0.38805 0.21167,0 0.35277,0.0706 0.35277,0.14111 z m -2.2225,1.12889 c -0.10583,0.10583 -0.42333,0.14111 -0.67027,0.0353 -0.28223,-0.10583 -0.1764,-0.21166 0.21167,-0.21166 0.38804,-0.0353 0.5997,0.0706 0.4586,0.17639 z"
       id="path6088" />
    <path
       style="stroke-width:0.03527778"
       inkscape:connector-curvature="0"
       d="m -151.9424,215.8861 c -0.28223,0.0705 -2.9986,0.28222 -5.96193,0.49388 -5.50334,0.35278 -7.09084,0.81139 -7.09084,1.905 0,0.74084 0.67027,0.84667 3.35137,0.52917 4.55084,-0.49389 11.6064,-1.02305 13.79363,-1.02305 2.43417,0 3.42194,-0.59973 2.61054,-1.5875 -0.3175,-0.38806 -1.16417,-0.52917 -3.3161,-0.49389 -1.55223,0.0353 -3.10444,0.10583 -3.38667,0.17639 z"
       id="path6090" />
    <path
       style="stroke-width:0.03527778"
       inkscape:connector-curvature="0"
       d="m -152.47157,226.64582 c -7.90223,0.24694 -13.12333,0.77611 -13.72306,1.37583 -0.74083,0.74083 0.28223,1.5875 1.7639,1.48167 0.74083,-0.0353 3.21027,-0.24694 5.43277,-0.42334 2.2225,-0.1411 6.45583,-0.3175 9.41916,-0.3175 5.3975,-0.0353 7.1614,-0.3175 7.1614,-1.19944 0,-0.74083 -0.7761,-1.30528 -1.7286,-1.23472 -0.52917,0.0353 -4.23333,0.17639 -8.32557,0.3175 z"
       id="path6094" />
    <g
       transform="translate(-158.13358,91.757653)"
       id="g9995"
       style="fill:#000000">
      <path
         id="path6078"
         d="m -103.13465,99.433997 c -2.75166,0.917223 -5.18583,2.398893 -6.31472,3.810003 -0.91722,1.19945 -1.30528,4.02167 -0.635,4.7625 0.35278,0.42334 0.52917,2.04611 0.67028,6.0325 0.35278,11.07722 1.905,27.41083 2.75167,28.99833 0.21166,0.38806 0.635,0.635 0.9525,0.56445 0.77611,-0.14111 0.77611,-1.86972 -0.0353,-8.92528 -0.67028,-5.85611 -1.27,-14.85194 -1.62278,-23.98889 -0.21167,-5.57389 -0.17639,-6.06777 0.42333,-6.77333 1.55223,-1.76389 7.655276,-3.63361 10.195276,-3.10444 2.01084,0.45861 5.00945,1.94027 6.20889,3.10444 0.635,0.59972 1.30528,1.69333 1.48167,2.39889 0.84666,3.06917 -1.19945,9.87778 -3.66889,12.27667 -1.97556,1.905 -7.619996,3.98638 -11.147776,4.05694 -1.37583,0.0353 -1.5875,0.14111 -1.69333,0.84667 -0.28222,2.01083 1.83444,2.11666 7.055546,0.38805 4.23334,-1.37583 7.12611,-2.89278 8.18445,-4.26861 2.01083,-2.68111 3.73944,-8.21972 3.73944,-12.10028 0,-3.06916 -0.77611,-4.40972 -3.73944,-6.35 -4.09222,-2.716393 -8.255,-3.280833 -12.805836,-1.728613 z"
         inkscape:connector-curvature="0"
         style="fill:#000000;stroke-width:0.03527778" />
      <path
         id="path6092"
         d="m -93.539094,134.11206 c -0.81139,0.38805 -1.5875,0.98777 -1.76389,1.34055 -0.17639,0.35278 -0.28222,3.31611 -0.28222,6.63222 v 5.99723 l 2.29305,-0.10584 c 4.02167,-0.17639 6.27945,-1.51694 7.65528,-4.55083 0.98778,-2.11667 1.19945,-5.715 0.45861,-7.51417 -0.9525,-2.25777 -5.25639,-3.175 -8.36083,-1.79916 z m 5.18583,1.79916 c 1.79917,0.9525 1.83445,6.13834 0.0353,8.255 -0.77611,0.88195 -2.99861,1.97556 -4.09222,1.97556 h -0.88195 v -4.72722 c 0,-4.51556 0.0353,-4.79778 0.77611,-5.29167 0.88195,-0.635 3.175,-0.74083 4.16278,-0.21167 z"
         inkscape:connector-curvature="0"
         style="fill:#000000;stroke-width:0.03527778" />
      <path
         id="path6096"
         d="m -45.208524,138.27483 c -0.635,0.24695 -0.56447,1.48167 0.10583,1.76389 0.2822,0.10584 0.81137,-0.0353 1.0936,-0.35277 0.4586,-0.45862 0.4939,-0.67028 0.10584,-1.09362 -0.45861,-0.59972 -0.59974,-0.635 -1.30527,-0.3175 z"
         inkscape:connector-curvature="0"
         style="fill:#000000;stroke-width:0.03527778" />
      <path
         id="path6098"
         d="m -83.273264,141.76733 c -0.35278,0.49389 -0.67028,1.62278 -0.77611,2.54 -0.10583,1.34056 0,1.86973 0.635,2.61056 0.42333,0.56444 1.05833,0.98778 1.41111,0.98778 1.51695,0 1.69334,1.79916 0.42334,4.48028 -0.9525,2.01083 -2.32834,1.79916 -2.75167,-0.45862 -0.28222,-1.51694 -0.98778,-2.15194 -1.72861,-1.55222 -1.34056,1.09361 0.0705,4.7625 2.08139,5.46806 1.44639,0.49388 3.35139,-0.635 4.33916,-2.64583 0.9525,-1.90501 2.32834,-10.51278 1.76389,-11.21834 -0.70555,-0.91722 -1.55222,-0.45861 -2.29305,1.34056 -0.88195,2.11666 -1.62278,2.36361 -1.37584,0.42333 0.10584,-0.70556 0.28223,-1.65806 0.42334,-2.11667 0.21166,-0.67027 0.14111,-0.77611 -0.67028,-0.77611 -0.56445,0 -1.09361,0.3175 -1.48167,0.91722 z"
         inkscape:connector-curvature="0"
         style="fill:#000000;stroke-width:0.03527778" />
      <path
         id="path6100"
         d="m -73.818824,142.01428 c -1.19943,0.38805 -1.2347,0.38805 -1.83443,4.05694 -0.42334,2.36361 -0.28223,2.89278 0.67026,2.89278 0.77613,0 1.4464,-0.67028 1.4464,-1.48167 0,-0.35277 0.24694,-1.23472 0.52917,-1.94027 0.42333,-1.02306 0.635,-1.16417 1.02306,-0.84667 0.28221,0.24694 0.59971,1.05833 0.74084,1.79917 0.2822,1.62277 0.9172,2.25777 1.94027,1.94027 0.4586,-0.14111 1.0936,0 1.65806,0.35278 0.67027,0.45861 1.27,0.52917 2.3636,0.35278 0.7761,-0.14111 2.32834,-0.21167 3.38667,-0.17639 4.3039,0.24695 3.9864,0.3175 4.5861,-1.34055 0.52917,-1.5875 1.41113,-2.01084 1.41113,-0.70556 0.0353,2.08139 1.76387,2.18722 2.9986,0.21167 1.02307,-1.5875 1.51694,-1.62278 1.7639,-0.0353 0.35277,2.25778 0.81137,2.99861 1.69333,2.8575 0.74084,-0.10583 0.77611,-0.21167 0.67027,-3.10445 -0.1411,-3.45722 -0.635,-4.58611 -1.97556,-4.33916 -0.4586,0.10583 -1.19944,0.49389 -1.5875,0.84666 -0.9525,0.88195 -1.23471,0.84667 -1.79917,-0.21166 -0.5997,-1.09361 -2.11667,-1.19945 -2.75167,-0.17639 -0.24693,0.38805 -0.74083,0.70555 -1.0936,0.70555 -0.91723,0 -1.34056,0.635 -1.62277,2.39889 -0.17639,1.16417 -0.38806,1.48167 -0.81139,1.41111 -0.45861,-0.10583 -0.59974,-0.56444 -0.67027,-1.86972 -0.0353,-0.98778 -0.0706,-1.97555 -0.0706,-2.18722 -0.0706,-0.84667 -2.32833,-1.48167 -3.88056,-1.09361 -1.19944,0.3175 -1.62277,0.67028 -2.54,2.18722 l -1.12887,1.79917 -0.4939,-1.69334 c -0.35277,-1.23472 -0.7761,-1.86972 -1.62277,-2.36361 -1.27,-0.77611 -1.34056,-0.77611 -2.99863,-0.24694 z m 10.40696,2.54 c 0.0353,0.17639 -0.21166,0.88194 -0.59973,1.48167 -0.8114,1.37583 -2.11666,1.5875 -2.11666,0.38805 0,-1.48167 2.29306,-3.06917 2.71639,-1.86972 z"
         inkscape:connector-curvature="0"
         style="fill:#000000;stroke-width:0.03527778" />
      <path
         id="path6102"
         d="m -39.493554,142.54345 c -3.84527,2.11666 -4.44497,6.0325 -1.2347,7.97277 1.7286,0.98778 5.64443,0.67028 5.64443,-0.52916 0,-0.49389 -0.35277,-0.67028 -1.65806,-0.84667 -2.36361,-0.3175 -3.42194,-0.9525 -3.56304,-2.2225 -0.0706,-0.81139 0.17637,-1.27 1.16417,-2.15194 0.70553,-0.59973 1.62276,-1.09362 2.0461,-1.09362 1.16416,0 2.18723,-0.84666 1.905,-1.55222 -0.35277,-0.88194 -2.29307,-0.70555 -4.3039,0.42334 z"
         inkscape:connector-curvature="0"
         style="fill:#000000;stroke-width:0.03527778" />
      <path
         id="path6104"
         d="m -45.526024,143.60178 c -0.45863,0.28222 -1.19947,3.45722 -1.19947,5.18583 0,1.05834 0.10584,1.23472 0.84667,1.23472 0.9525,0 1.02307,-0.0706 1.6228,-3.21027 0.5997,-3.03389 0.1411,-4.16278 -1.27,-3.21028 z"
         inkscape:connector-curvature="0"
         style="fill:#000000;stroke-width:0.03527778" />
    </g>
  </g>
</svg>
