<?xml version="1.0" encoding="UTF-8" standalone="no"?>
<!-- Created with Inkscape (http://www.inkscape.org/) -->

<svg
   xmlns:dc="http://purl.org/dc/elements/1.1/"
   xmlns:cc="http://creativecommons.org/ns#"
   xmlns:rdf="http://www.w3.org/1999/02/22-rdf-syntax-ns#"
   xmlns:svg="http://www.w3.org/2000/svg"
   xmlns="http://www.w3.org/2000/svg"
   xmlns:sodipodi="http://sodipodi.sourceforge.net/DTD/sodipodi-0.dtd"
   xmlns:inkscape="http://www.inkscape.org/namespaces/inkscape"
   width="547.73322mm"
   height="487.69501mm"
   viewBox="0 0 547.73321 487.69503"
   version="1.1"
   id="svg1230"
   inkscape:version="0.92.5 (2060ec1f9f, 2020-04-08)"
   sodipodi:docname="power_0.svg">
  <defs
     id="defs1224" />
  <sodipodi:namedview
     id="base"
     pagecolor="#ffffff"
     bordercolor="#666666"
     borderopacity="1.0"
     inkscape:pageopacity="0.0"
     inkscape:pageshadow="2"
     inkscape:zoom="0.24748737"
     inkscape:cx="-67.583305"
     inkscape:cy="240.7554"
     inkscape:document-units="mm"
     inkscape:current-layer="g4411"
     showgrid="false"
     fit-margin-top="0"
     fit-margin-left="0"
     fit-margin-right="0"
     fit-margin-bottom="0"
     inkscape:window-width="1918"
     inkscape:window-height="1057"
     inkscape:window-x="1920"
     inkscape:window-y="0"
     inkscape:window-maximized="0" />
  <metadata
     id="metadata1227">
    <rdf:RDF>
      <cc:Work
         rdf:about="">
        <dc:format>image/svg+xml</dc:format>
        <dc:type
           rdf:resource="http://purl.org/dc/dcmitype/StillImage" />
        <dc:title></dc:title>
      </cc:Work>
    </rdf:RDF>
  </metadata>
  <g
     inkscape:label="Layer 1"
     inkscape:groupmode="layer"
     id="layer1"
     transform="translate(168.03327,0.28038645)">
    <g
       id="g4411"
       transform="matrix(0.5,0,0,0.5,-84.99441,2.0468101)">
      <path
         id="path1073"
         d="m 436.68677,137.11785 c -4.03736,0.86023 -5.9895,1.9355 -6.16697,3.44088 -0.1331,1.07528 -0.0444,1.1613 1.10917,0.94624 0.6655,-0.0861 2.3958,-0.60214 3.77117,-1.11828 4.70289,-1.67743 7.89729,-0.90323 7.89729,1.84948 0,1.29033 -1.90776,4.90325 -3.85991,7.31187 -5.59021,6.88176 -6.12261,8.25812 -3.68243,9.50544 1.55283,0.7742 5.63458,0.86022 9.7163,0.17205 3.59371,-0.60216 4.48106,-1.03227 4.48106,-2.10754 0,-1.1613 -1.4641,-1.41937 -4.88036,-0.90324 -3.4606,0.55915 -6.52191,0.60215 -6.83247,0.12904 -0.1331,-0.21506 0.97607,-1.80647 2.44016,-3.56992 2.88386,-3.4839 5.14655,-7.52693 5.54586,-9.89254 0.3993,-2.40861 -0.75425,-4.55917 -3.01695,-5.54842 -2.21832,-0.98926 -2.70636,-0.98926 -6.52192,-0.21506 z"
         inkscape:connector-curvature="0"
         style="stroke-width:0.04368364" />
      <path
         id="path1075"
         d="m 509.49264,142.10713 c -5.90077,1.20431 -8.78462,2.19357 -8.56278,2.96776 0.0888,0.34409 0.3993,2.88174 0.75424,5.59144 0.31056,2.70969 0.84296,6.88177 1.24226,9.24737 0.35495,2.36561 0.75425,7.56994 0.93171,11.61298 0.1331,4.00003 0.44366,11.65599 0.70985,16.98936 0.22185,5.33337 0.53241,20.60228 0.62115,33.97872 0.17745,23.35498 0.22185,24.30122 1.02045,24.43026 0.44366,0.0861 1.10915,-0.21505 1.4641,-0.60215 1.15352,-1.37636 0.6655,-42.58092 -0.9317,-76.08652 -0.35495,-7.35489 -0.9317,-12.47321 -2.44019,-21.59153 -0.31056,-1.63443 -0.22182,-1.80647 0.9317,-2.40863 4.43669,-2.15055 18.85588,-3.05378 24.00243,-1.50538 5.23527,1.63441 7.36489,3.13981 9.05083,6.58069 1.64156,3.35485 0.9317,12.73126 -1.50849,20.08615 -3.01692,9.07532 -9.80503,15.52698 -19.83195,18.83883 -3.10565,1.03226 -3.3275,1.2043 -3.4606,2.45163 -0.0887,0.98925 0.1331,1.5484 1.15355,2.3226 0.66549,0.60215 1.37535,1.37635 1.55284,1.80646 0.1331,0.3871 0.48802,0.73119 0.70985,0.73119 0.53241,0 7.27617,9.16135 14.01989,19.13991 2.88386,4.25809 5.98952,8.64521 6.83251,9.72049 0.88732,1.11829 1.99651,2.53765 2.48452,3.22583 0.48804,0.64517 2.48455,3.1398 4.43669,5.54841 1.95213,2.36561 4.03737,4.98929 4.65852,5.76349 3.7268,4.90325 6.52191,6.79573 7.27613,4.94627 0.44368,-1.11829 0.31058,-1.41937 -1.46411,-3.31185 -2.57326,-2.75271 -9.62758,-11.18287 -13.35438,-16.00011 -1.81905,-2.3656 -3.41626,-4.38713 -3.54935,-4.51616 -0.13311,-0.12903 -1.50847,-2.15055 -3.06131,-4.51616 -7.71982,-11.65598 -15.0847,-22.06465 -16.23824,-23.0109 -1.19791,-0.98924 -0.6655,-1.63441 2.30709,-2.83873 6.47752,-2.66668 12.28958,-7.31187 14.99595,-12.00007 3.4606,-5.97854 5.27965,-13.29041 5.27965,-21.50552 0.0444,-5.16132 -0.0444,-5.76348 -1.10916,-7.95705 -2.1296,-4.3441 -6.12261,-7.31187 -11.31352,-8.38714 -4.52541,-0.94624 -14.46357,-0.81721 -19.61013,0.25806 z"
         inkscape:connector-curvature="0"
         style="stroke-width:0.04368364" />
      <path
         id="path1077"
         d="m 182.64269,147.22545 c -6.43318,1.11828 -9.53885,2.32259 -12.95509,5.03229 -2.04088,1.59141 -2.52892,3.13981 -1.02044,3.13981 0.48803,0 2.44017,-0.86023 4.34794,-1.8925 3.63808,-2.06452 6.47755,-2.88174 12.46707,-3.74195 10.42619,-1.41937 22.31648,1.76345 30.47996,8.25811 5.98951,4.73122 8.87336,8.68823 10.20436,13.84956 1.41974,5.59144 -0.22184,10.32264 -5.54585,15.87108 -3.3275,3.48389 -6.16697,5.46239 -11.97902,8.25811 -10.38183,5.0753 -21.16295,7.69897 -25.06723,6.10756 -0.9317,-0.3871 -2.04088,-0.68817 -2.48453,-0.68817 -1.90778,0 -1.10918,3.05378 0.93169,3.56991 0.5324,0.12904 3.37188,0.21506 6.34445,0.12904 5.23528,-0.12904 5.54585,-0.17204 12.24523,-2.49464 11.80156,-4.08605 17.43614,-7.26887 22.84889,-12.90332 6.07824,-6.32261 7.76418,-12.64523 5.36838,-20.17216 -1.24227,-4.00004 -2.66201,-6.27962 -5.85642,-9.50544 -10.91422,-11.09685 -24.93412,-15.52699 -40.32939,-12.81729 z"
         inkscape:connector-curvature="0"
         style="stroke-width:0.04368364" />
      <path
         id="path1079"
         d="m 392.94115,149.41901 c -2.66201,0.21505 -8.56278,0.86022 -13.08819,1.41936 -11.66846,1.5484 -17.7467,2.02152 -20.54181,1.72044 -2.70638,-0.30107 -4.30358,0.25807 -4.30358,1.5054 0,0.73118 0.48804,0.86021 4.30358,1.11828 2.39581,0.17204 6.74375,0.21506 9.71632,0.0861 l 5.36837,-0.21506 0.5324,7.3979 c 0.31058,4.04304 0.88734,10.23663 1.24227,13.80653 0.88735,8.25813 1.33102,67.95744 0.53241,68.43057 -0.31057,0.17204 -3.81554,0.34408 -7.89729,0.4301 l -7.36488,0.0861 -0.1331,1.11829 c -0.22183,1.63442 1.99651,2.10755 9.80506,1.89249 3.59371,-0.043 6.52191,-0.043 6.52191,0.0861 0,0.12903 0.17747,0.47311 0.3993,0.8172 0.31056,0.51614 0.6655,0.43011 1.8634,-0.25806 1.24227,-0.73119 2.61764,-0.94624 7.27615,-1.1613 12.51143,-0.60215 22.80452,-1.72044 24.66792,-2.66668 1.46411,-0.7312 1.95215,-1.84948 1.02044,-2.19357 -0.3993,-0.12903 -4.17048,0.0861 -8.34095,0.47312 -11.09169,1.07528 -23.78059,1.72045 -24.22426,1.29034 -0.26619,-0.25807 -0.5324,-12.90332 -0.66549,-30.06472 -0.17747,-16.34418 -0.44367,-31.91418 -0.66551,-34.62388 -0.17747,-2.70969 -0.70986,-9.37641 -1.15353,-14.79579 -0.75423,-9.67748 -0.75423,-9.80652 0.0888,-10.32265 1.95213,-1.11828 14.01988,-2.40862 24.57917,-2.66668 9.8938,-0.21506 11.04733,-0.3871 11.0917,-1.50538 0,-0.12904 -0.70987,-0.55916 -1.55283,-0.94626 -1.28664,-0.60214 -2.79511,-0.73118 -7.89729,-0.68817 -3.46062,0.043 -8.47405,0.25807 -11.18043,0.43012 z"
         inkscape:connector-curvature="0"
         style="stroke-width:0.04368364" />
      <path
         id="path1083"
         d="m 170.53057,160.85994 c -1.15355,2.88175 -1.41974,6.27961 -0.97608,13.6345 0.2662,4.04304 0.6655,18.75281 0.88734,32.7314 0.44367,24.21521 0.84297,31.31203 1.81904,32.25827 0.75423,0.73119 1.95213,-0.43011 1.81904,-1.76345 -0.44367,-4.77422 -1.19791,-70.75315 -0.88734,-75.87147 0.1331,-1.80645 0.0444,-1.93549 -1.02044,-2.06452 -0.9317,-0.0859 -1.24226,0.12903 -1.64156,1.07527 z"
         inkscape:connector-curvature="0"
         style="stroke-width:0.04368364" />
      <path
         id="path1085"
         d="m 781.01725,163.69867 c 0.13309,1.03226 0.9317,1.1613 1.15354,0.17205 0.0887,-0.34409 -0.17749,-0.73119 -0.57679,-0.90323 -0.57675,-0.17206 -0.70986,-0.043 -0.57675,0.73118 z"
         inkscape:connector-curvature="0"
         style="stroke-width:0.04368364" />
      <path
         id="path1087"
         d="m 290.45393,193.24725 c -1.68594,0.21506 -7.89729,0.68818 -13.75369,1.07528 -5.85642,0.3871 -11.0917,0.86022 -11.6241,1.07527 -1.1979,0.47313 -1.331,1.9355 -0.22184,2.53766 1.02044,0.51613 9.27266,0 29.81448,-1.9355 3.54933,-0.34409 4.5254,-0.81721 4.34794,-2.02152 -0.13311,-0.86022 -0.39931,-0.94625 -2.79511,-0.98926 -1.46411,-0.043 -4.03738,0.0861 -5.76768,0.25807 z"
         inkscape:connector-curvature="0"
         style="stroke-width:0.04368364" />
      <path
         id="path1089"
         d="m 296.44344,209.89252 c -12.2896,0.25807 -29.81447,1.50538 -32.87578,2.3226 -1.81902,0.43011 -2.48453,1.46237 -1.64156,2.40862 0.62114,0.73119 1.41974,0.68817 13.66496,-0.47313 5.98951,-0.55914 19.56574,-1.20431 34.20678,-1.67742 3.23878,-0.086 4.56978,-0.30109 5.50147,-0.90324 1.19791,-0.7742 1.24228,-0.8172 0.44367,-1.37634 -0.84297,-0.60216 -4.65851,-0.64517 -19.29954,-0.30109 z"
         inkscape:connector-curvature="0"
         style="stroke-width:0.04368364" />
      <path
         id="path1091"
         d="m 527.23936,294.8393 c -0.62114,0.60215 -0.70989,1.89248 -0.17748,2.23657 0.22184,0.12904 1.68594,0.25807 3.3275,0.30108 2.04089,0.043 2.9726,0.25807 2.9726,0.64517 0,0.30107 -1.33101,1.5484 -2.9726,2.79571 -3.85991,2.83872 -5.01342,4.17208 -5.01342,5.63445 0,1.63442 1.37536,2.36561 5.14652,2.70969 2.48456,0.25807 3.41626,0.17204 4.52542,-0.3871 2.48454,-1.24732 1.46409,-2.40862 -2.08522,-2.40862 -1.37539,0 -2.79511,-0.21504 -3.15005,-0.47312 -0.57677,-0.34408 -0.44366,-0.55914 0.62114,-1.37635 0.70986,-0.51613 2.66201,-2.06453 4.34792,-3.44088 3.15005,-2.62368 3.46062,-3.39788 1.95215,-4.94628 -1.37535,-1.37635 -8.42967,-2.32259 -9.49448,-1.29032 z"
         inkscape:connector-curvature="0"
         style="stroke-width:0.04368364" />
      <path
         id="path1093"
         d="m 363.17105,297.63502 c -3.50497,3.48389 -9.27265,16.08612 -11.31352,24.68833 -0.75423,3.22582 -0.97607,5.4624 -0.97607,11.13985 0,8.00006 0.3993,10.19362 3.06131,15.39796 3.15004,6.2366 12.1565,13.89256 12.1565,10.27964 0,-0.64517 -0.66551,-1.37636 -2.21834,-2.3226 -2.83948,-1.80647 -6.21135,-5.80649 -8.16349,-9.67748 -3.50498,-7.0108 -3.23877,-20.34422 0.6655,-31.09699 1.24227,-3.52689 6.52192,-14.0646 8.51842,-17.11838 0.88733,-1.37636 1.64156,-2.66668 1.64156,-2.88174 0,-0.98926 -1.50846,-0.30108 -3.37187,1.59141 z"
         inkscape:connector-curvature="0"
         style="stroke-width:0.04368364" />
      <path
         id="path1095"
         d="m 380.8734,299.1404 c -1.99651,1.37636 -4.88035,7.65596 -10.07126,22.06466 -4.65852,12.98934 -5.85642,15.91409 -8.11912,20.12917 -1.4641,2.62367 -1.55283,3.01076 -0.93171,3.61292 1.37538,1.29033 2.39581,0.30108 4.48105,-4.30111 1.10917,-2.40861 2.21834,-5.16132 2.5289,-6.10756 0.31058,-0.94624 0.93171,-2.62368 1.37537,-3.74196 0.48804,-1.07527 0.75425,-2.23657 0.62114,-2.58065 -0.3993,-1.1183 0.53241,-1.63443 3.37187,-1.8925 3.54935,-0.30107 6.34446,-0.94624 8.47406,-1.9785 1.7303,-0.81721 3.23877,-1.03227 2.83947,-0.43011 -0.35494,0.55914 1.7303,9.93554 3.10567,14.27966 0.66551,2.02152 1.41974,4.60218 1.68594,5.80649 0.39931,1.63442 0.70987,2.19357 1.41974,2.27958 0.48803,0.0861 1.15354,-0.12903 1.41973,-0.43011 0.48804,-0.60215 0.17748,-1.9355 -2.17397,-9.29039 -2.21834,-7.01078 -4.83597,-24.86037 -4.83597,-33.20451 0,-1.54839 -0.2662,-3.26883 -0.57678,-3.87099 -0.75423,-1.46237 -2.75074,-1.63443 -4.61413,-0.34409 z m 2.2627,6.23661 c 0.17746,1.63441 0.48804,4.25809 0.70987,5.93552 0.22184,1.63441 0.5324,4.51616 0.66549,6.32261 l 0.31058,3.31185 -3.72682,1.11829 c -4.2592,1.29034 -8.69588,1.37635 -8.38531,0.21505 0.0887,-0.34408 0.17747,-0.86021 0.22183,-1.07527 0.0444,-0.25807 0.3993,-1.03226 0.75424,-1.72044 0.3993,-0.73119 1.15354,-2.53765 1.68593,-4.08605 1.64158,-4.55917 4.56978,-10.88179 5.54585,-11.95706 1.4641,-1.59141 1.90777,-1.20431 2.21834,1.9355 z"
         inkscape:connector-curvature="0"
         style="stroke-width:0.04368364" />
      <path
         id="path1097"
         d="m 510.73493,298.83932 c 0,0.3871 0.70986,1.9355 1.5972,3.44089 1.86341,3.31184 2.21832,4.38712 3.06131,9.7635 0.9317,5.80649 0.84296,11.44094 -0.17749,15.613 -1.15352,4.55918 -2.9282,9.80652 -4.25921,12.60223 -1.4641,2.96777 -5.94512,9.41943 -7.71982,11.01083 -1.55282,1.46238 -1.77465,2.66669 -0.48801,3.05379 1.24226,0.3871 2.75072,-0.7742 5.36836,-4.00003 4.30357,-5.29035 7.05432,-11.18287 9.58323,-20.51627 0.93171,-3.61292 1.10916,-5.16132 1.10916,-9.67748 -0.0887,-8.90328 -1.5972,-15.18289 -4.65852,-19.65604 -1.46409,-2.15055 -3.41621,-3.05378 -3.41621,-1.63442 z"
         inkscape:connector-curvature="0"
         style="stroke-width:0.04368364" />
      <path
         id="path1099"
         d="m 731.45958,302.15117 c -5.14655,3.65594 -9.67197,13.11836 -12.46708,26.15071 -0.88734,4.25809 -0.84296,10.58071 0.13311,13.93558 0.57675,2.06452 1.1979,3.05378 2.88385,4.6882 1.81901,1.76345 2.35141,2.06453 3.5937,1.9355 1.90777,-0.17205 1.86341,-1.29033 -0.13309,-2.58067 -1.86341,-1.24731 -3.3719,-3.31185 -4.08176,-5.67745 -1.64156,-5.50542 1.28665,-19.69906 5.90077,-28.68836 2.21835,-4.38713 4.12611,-6.40864 6.74376,-7.22586 1.28664,-0.43011 1.50845,-0.68817 1.331,-1.46237 -0.57676,-2.23658 -1.77466,-2.53765 -3.90426,-1.07528 z"
         inkscape:connector-curvature="0"
         style="stroke-width:0.04368364" />
      <path
         id="path1101"
         d="m 230.73626,304.12968 c -3.41624,2.15055 -5.41274,4.77422 -7.14304,9.50544 -3.19441,8.86027 -4.39231,17.41947 -3.28314,23.26897 1.19791,5.93552 3.23877,9.29039 6.69938,10.79577 3.01694,1.33334 6.87684,0.86021 6.87684,-0.90323 0,-0.7742 -0.26619,-0.86022 -2.662,-0.86022 -2.3958,0 -2.7951,-0.12903 -4.39231,-1.50539 -0.93169,-0.81721 -2.17397,-2.53765 -2.75073,-3.78498 -0.97607,-2.02151 -1.06481,-2.83872 -1.06481,-8.47317 0,-5.4624 0.17747,-6.79574 1.24227,-10.75275 2.61764,-9.3334 5.23527,-13.72052 9.36139,-15.69903 2.9282,-1.37635 3.0613,-1.50538 2.44016,-2.23658 -0.84296,-0.94624 -3.19441,-0.64516 -5.32401,0.64517 z"
         inkscape:connector-curvature="0"
         style="stroke-width:0.04368364" />
      <path
         id="path1103"
         d="m 257.88872,303.74258 c -1.0648,0.64517 -0.17746,1.72044 2.30707,2.79572 2.97257,1.24732 5.90079,4.60218 8.74026,10.02157 l 1.99651,3.78497 -0.0444,4.94627 c 0,4.38712 -0.13311,5.24735 -1.1979,7.39789 -2.21834,4.73122 -5.90079,9.03233 -9.00646,10.58072 -2.17397,1.07527 -2.83947,2.53766 -1.28664,2.92476 1.95215,0.47311 6.25572,-2.75271 9.0952,-6.75274 4.30357,-6.06456 5.54584,-9.50543 5.54584,-15.22591 -0.0444,-3.44088 -0.17747,-4.21508 -1.46411,-6.79574 -1.95213,-4.12905 -6.12261,-10.1506 -7.98602,-11.699 -2.44016,-1.97851 -5.27963,-2.83873 -6.69937,-1.97851 z"
         inkscape:connector-curvature="0"
         style="stroke-width:0.04368364" />
      <path
         id="path1105"
         d="m 496.1826,303.87161 c -0.70985,0.68818 -0.66549,1.5054 0.13311,1.76345 2.08525,0.81722 6.4332,14.62376 6.4332,20.60229 0,3.82798 -1.55285,10.66674 -3.06131,13.59149 -0.9317,1.80646 -2.35145,3.4839 -4.7029,5.50541 -3.3275,2.96776 -3.90426,3.87099 -2.662,4.30111 1.81904,0.68817 8.11912,-4.98928 10.29311,-9.37642 0.88732,-1.76345 1.77466,-4.64519 2.39581,-7.69897 1.50845,-7.69897 1.15351,-9.93555 -3.6381,-23.7851 -1.4641,-4.3011 -3.68243,-6.36563 -5.19092,-4.90326 z"
         inkscape:connector-curvature="0"
         style="stroke-width:0.04368364" />
      <path
         id="path1107"
         d="m 471.5147,305.54905 c -5.27966,4.04304 -10.33747,17.1614 -10.78112,27.91415 -0.17747,4.34412 -0.0888,5.24735 0.75424,7.48393 1.0648,2.70969 3.37186,5.5054 5.36837,6.53767 1.41975,0.68817 5.10217,0.81721 5.50147,0.17205 0.44368,-0.73119 -0.66551,-1.72044 -1.86341,-1.72044 -1.331,0 -3.63806,-1.11829 -4.74723,-2.3226 -3.15005,-3.39787 -3.59371,-9.80651 -1.24228,-18.3227 2.66201,-9.80652 5.9008,-15.82807 9.84942,-18.40872 1.99651,-1.29034 1.95215,-1.97851 -0.0444,-2.15055 -1.06481,-0.0861 -1.95215,0.17204 -2.79511,0.81721 z"
         inkscape:connector-curvature="0"
         style="stroke-width:0.04368364" />
      <path
         id="path1109"
         d="m 615.79542,305.76411 c -3.10569,0.94624 -3.7712,1.37634 -7.27616,4.60217 -4.43666,4.08605 -7.05432,7.26886 -8.34097,10.36566 -0.84295,1.97851 -0.9317,3.09679 -0.9317,10.79576 0,9.11834 0.35495,11.13987 2.5733,14.83882 1.90776,3.13981 5.14651,5.59143 7.45362,5.59143 0.57675,0 1.64156,0.21506 2.44016,0.51613 1.55285,0.55914 2.88385,0.043 7.71981,-2.92475 4.83597,-2.96776 10.38183,-9.20436 12.95509,-14.62375 1.73029,-3.74196 2.04089,-7.31187 1.0648,-13.50546 -0.84296,-5.50542 -3.41622,-10.96782 -6.78811,-14.53773 -2.17396,-2.23658 -2.17396,-2.23658 -4.83597,-2.19357 -1.41975,0 -4.12611,0.51613 -6.03387,1.07529 z m 7.49798,3.91399 c 2.1296,1.37635 2.83945,2.15055 4.2592,4.77423 2.04086,3.74195 2.75075,7.05381 2.75075,12.60224 0,4.04303 -0.0444,4.21508 -1.99651,7.95703 -2.662,5.0753 -7.498,9.89254 -13.08821,12.98933 -2.17396,1.24733 -4.39231,2.23658 -4.88033,2.23658 -2.08524,-0.043 -6.3001,-3.69895 -7.40925,-6.45166 -1.41975,-3.52691 -1.81905,-6.06456 -1.81905,-12.47319 0,-9.59147 0.7986,-11.74202 6.12261,-17.16141 1.77469,-1.80646 3.7712,-3.91401 4.4367,-4.68821 1.02042,-1.2043 2.44017,-1.97849 1.81902,-0.98924 -0.26621,0.3871 1.5972,1.33334 2.66199,1.33334 0.35496,0 0.88736,-0.51614 1.15356,-1.11829 0.31055,-0.60215 1.02044,-1.33335 1.64155,-1.67743 1.02045,-0.51613 1.1979,-0.47312 1.46411,0.21506 0.17749,0.43011 1.46411,1.54839 2.88386,2.45162 z"
         inkscape:connector-curvature="0"
         style="stroke-width:0.04368364" />
      <path
         id="path1111"
         d="m 781.9933,305.20495 c -0.13311,0.3871 0.2662,1.46238 0.9317,2.45164 2.9726,4.55916 5.63461,10.40867 6.12261,13.37643 0.7986,5.11831 -0.17745,12.25814 -2.3958,17.80657 -0.97606,2.45162 -2.52891,5.59143 -3.37186,6.96779 -3.15006,4.98927 -3.32751,5.72046 -1.28665,5.72046 1.7303,0 3.32751,-2.23657 5.76771,-7.87102 3.01691,-7.05381 3.7268,-9.63447 4.30355,-14.96784 0.75425,-7.31187 0.31057,-9.3334 -3.993,-17.41947 -3.01696,-5.72046 -3.50496,-6.40864 -4.61416,-6.53767 -0.75421,-0.0861 -1.28661,0.0859 -1.4641,0.47311 z"
         inkscape:connector-curvature="0"
         style="stroke-width:0.04368364" />
      <path
         id="path1113"
         d="m 104.46846,305.54905 c -1.19791,0.4301 -1.19791,0.60216 -0.3993,4.25809 1.15353,5.16132 2.83946,10.66674 5.14654,16.86033 2.3958,6.40863 11.97902,26.1507 13.39876,27.65609 1.15354,1.2043 2.17397,0.4301 3.01694,-2.36561 0.84296,-2.88174 1.9965,-3.69895 3.01693,-2.15055 2.70638,3.914 4.74726,4.81723 6.12262,2.75271 1.8634,-2.7097 3.63807,-14.53773 2.70637,-18.02163 -0.22183,-0.94624 -0.22183,-1.11828 0.1331,-0.64517 0.53241,0.7742 0.53241,-1.16129 0.0444,-8.12908 l -0.3993,-4.94627 1.95214,-4.47314 c 1.0648,-2.49464 2.52891,-5.46241 3.23877,-6.62371 1.37538,-2.10754 1.50848,-2.53765 1.41974,-3.914 -0.0444,-0.60216 -0.35494,-0.7742 -1.24226,-0.64516 -1.06481,0.12903 -1.55285,0.68817 -3.59371,4.64519 -3.77118,7.35489 -3.99301,8.38714 -4.21485,21.29046 -0.17746,9.07533 -0.35493,11.74201 -1.02043,14.19364 -0.57677,2.02152 -1.06481,3.01077 -1.50848,3.01077 -0.3993,0 -1.28663,-1.24732 -2.1296,-2.92475 -1.28663,-2.66668 -1.55283,-2.92475 -2.66201,-2.79572 -0.97607,0.0861 -1.4641,0.60216 -2.57327,2.83874 -0.7986,1.50538 -1.55284,2.83872 -1.68593,2.96775 -0.48804,0.51614 -1.37537,-0.8172 -3.10568,-4.60218 -0.9317,-2.02151 -2.21834,-4.51616 -2.88383,-5.59143 -1.50848,-2.40862 -5.45712,-11.69901 -6.65502,-15.69903 -0.5324,-1.67743 -1.24228,-4.00002 -1.59721,-5.16132 -1.86339,-6.02154 -2.3958,-7.95704 -2.66199,-9.80652 -0.35495,-2.3226 -0.53241,-2.49464 -1.86341,-1.9785 z"
         inkscape:connector-curvature="0"
         style="stroke-width:0.04368364" />
      <path
         id="path1115"
         d="m 643.39154,307.91465 c -0.44366,0.47312 -0.75425,4.34412 -1.15355,13.6345 -0.31056,7.13983 -0.84296,14.8388 -1.1979,17.07538 -0.88732,5.29035 -1.06481,7.69897 -0.53241,7.785 0.2662,0 0.93171,-1.89249 1.55286,-4.21509 1.10915,-4.12905 2.5289,-7.13983 4.43665,-9.07533 1.15356,-1.16129 1.1092,-1.16129 2.75076,0 0.79861,0.51615 1.95215,2.10754 2.75075,3.74197 1.28661,2.62367 1.37536,3.18281 1.37536,7.35489 0,4.04303 0.0888,4.51616 0.84296,4.64519 1.28664,0.25807 1.68594,-0.47313 2.04088,-3.871 0.48802,-4.00002 -0.0444,-6.45166 -2.26269,-10.96781 -2.61766,-5.33337 -4.30361,-5.97854 -7.58672,-2.92475 -1.9965,1.84947 -2.75075,1.9355 -2.3958,0.30107 0.13309,-0.64516 0.44365,-4.7312 0.70985,-9.11834 0.2662,-4.38712 0.57675,-9.54844 0.70986,-11.52695 0.31059,-3.35486 0.26619,-3.5269 -0.57676,-3.5269 -0.48805,0 -1.15355,0.30107 -1.4641,0.68817 z"
         inkscape:connector-curvature="0"
         style="stroke-width:0.04368364" />
      <path
         id="path1117"
         d="m 484.46978,310.19424 c -1.86341,1.46237 -3.81552,5.97853 -6.61062,15.31193 -1.46411,4.94626 -3.28316,10.36565 -3.99301,12.04308 -1.37539,3.13981 -1.55285,4.30111 -0.843,4.73122 0.75425,0.47311 2.0409,-0.55914 2.75075,-2.23658 1.64156,-3.74195 2.97257,-7.56993 2.75075,-7.91403 -0.48804,-0.7742 1.99651,-1.5914 5.36838,-1.80646 l 3.54935,-0.21505 v 4.98927 c 0,5.29037 0.31055,6.02155 1.90775,4.47315 0.70986,-0.68818 0.88736,-1.50538 0.93171,-4.77422 0.0444,-2.15055 -0.13311,-5.11832 -0.3993,-6.53768 -0.2662,-1.41936 -0.97607,-5.97854 -1.50846,-10.10759 -0.9761,-6.79574 -1.50849,-8.77425 -2.48455,-8.77425 -0.17746,0 -0.7986,0.3871 -1.41975,0.81721 z m 1.28664,9.7635 c 0.31057,2.32259 0.62115,4.94627 0.70987,5.76347 l 0.0888,1.5054 -2.662,0.12903 c -4.12612,0.17204 -4.12612,0.12903 -2.17397,-5.76348 2.57327,-7.785 3.19441,-8.04307 4.03736,-1.63442 z"
         inkscape:connector-curvature="0"
         style="stroke-width:0.04368364" />
      <path
         id="path1119"
         d="m 183.04199,311.01144 c -0.6655,0.3871 -2.5289,4.12906 -3.19441,6.32263 -1.4641,4.73121 -1.64157,13.72052 -0.35493,17.67753 0.9317,2.83873 3.0613,5.67746 4.88034,6.40864 1.90778,0.7742 4.83598,0.0861 6.03388,-1.41935 1.02044,-1.20431 1.02044,-1.33334 0.44367,-2.23658 -0.35493,-0.51613 -0.62113,-0.47312 -2.08524,0.30108 -0.9317,0.47311 -1.8634,0.8172 -2.1296,0.7742 -0.22184,-0.0861 -0.97607,-0.25807 -1.5972,-0.3871 -1.41974,-0.30108 -3.06132,-3.52691 -3.19441,-6.27962 l -0.0888,-1.89248 3.68245,-0.51613 c 3.77117,-0.51614 5.85641,-1.41937 5.85641,-2.53765 0,-0.90324 -1.15354,-1.07528 -5.45711,-0.7312 -2.12962,0.17206 -4.03738,0.21506 -4.25922,0.0861 -0.53239,-0.34409 0.62114,-6.83876 1.90777,-10.66674 1.41974,-4.04303 1.1979,-5.97853 -0.44366,-4.90326 z"
         inkscape:connector-curvature="0"
         style="stroke-width:0.04368364" />
      <path
         id="path1121"
         d="m 571.02936,313.11899 c -0.6655,0.55914 -1.7303,2.23657 -2.3958,3.78497 -0.70989,1.5484 -1.331,2.79572 -1.41975,2.79572 -0.0888,0 -0.62114,-0.25807 -1.15355,-0.60216 -0.5324,-0.30108 -1.50845,-0.68818 -2.17396,-0.86022 -1.10916,-0.25807 -1.24226,-0.12903 -1.50846,1.24732 -0.3993,2.10754 -0.0444,2.7097 1.90776,3.01077 3.06131,0.51613 3.28315,0.60216 2.70637,1.46238 -0.2662,0.3871 -1.1979,1.2043 -2.08522,1.80646 -2.75075,1.80647 -4.92472,3.914 -4.92472,4.73122 0,1.54839 1.24226,1.37635 3.37188,-0.43012 2.1296,-1.80646 3.94865,-2.36561 3.41624,-1.07527 -0.22184,0.64516 0,0.68817 1.77467,0.4301 1.95214,-0.30107 2.08524,-0.25805 2.75075,0.98926 0.7986,1.5484 2.44016,1.84948 2.44016,0.47313 0,-0.47313 -0.62115,-1.97851 -1.33101,-3.31185 -1.28664,-2.3226 -1.331,-2.49464 -0.62114,-3.01078 0.44368,-0.30108 1.68594,-0.55915 2.75075,-0.55915 2.17396,0 3.63807,-0.60215 3.63807,-1.46237 0,-0.34408 -0.39931,-0.68818 -0.93171,-0.81721 -0.79861,-0.21505 -0.88732,-0.47311 -0.62112,-1.54839 0.35492,-1.63442 -0.3993,-1.76346 -2.83948,-0.3871 -3.99301,2.23658 -4.12612,-1.67743 -0.17747,-5.41939 0.88735,-0.81722 1.41975,-1.67743 1.28665,-1.9355 -0.48805,-0.73119 -2.57329,-0.34409 -3.85991,0.68818 z"
         inkscape:connector-curvature="0"
         style="stroke-width:0.04368364" />
      <path
         id="path1123"
         d="m 165.82768,314.88243 c -0.35493,0.55916 -1.0648,5.50542 -1.41973,9.67749 -0.2662,3.48389 -0.39931,3.78497 -1.4641,4.3011 -1.90778,0.86023 -1.46411,2.3226 0.97607,3.05378 0.5324,0.17206 0.75423,0.68819 0.75423,1.72046 0,1.84946 1.46411,6.49466 2.66201,8.34412 1.06479,1.67744 3.3275,3.0968 4.96908,3.0968 1.46409,0 4.34794,-2.3226 4.34794,-3.48389 0,-0.98925 -0.84297,-1.03226 -2.83948,-0.12903 -2.1296,0.98925 -3.41624,0.55914 -4.70287,-1.63442 -1.28664,-2.19356 -2.35145,-7.48392 -1.5972,-8.04307 0.26619,-0.17204 1.81904,-0.98925 3.4606,-1.76345 3.32751,-1.5484 4.12611,-2.23657 3.72681,-3.22582 -0.31057,-0.86023 -1.55284,-0.81722 -3.85991,0.21505 -3.19441,1.37636 -3.50497,1.24732 -3.50497,-1.63442 0,-2.23657 0.35493,-4.90325 1.15353,-9.24737 0.2662,-1.5484 0.2662,-1.59141 -1.0648,-1.59141 -0.75424,0 -1.46411,0.17204 -1.59721,0.34408 z"
         inkscape:connector-curvature="0"
         style="stroke-width:0.04368364" />
      <path
         id="path1125"
         d="m 257.48942,316.21579 c -0.7986,1.29032 -2.3958,6.49466 -3.90428,12.86029 -0.7986,3.52691 -2.08523,5.4624 -2.83946,4.38712 -0.22184,-0.34409 -0.44367,-1.11828 -0.44367,-1.76344 0,-2.36561 -2.04088,-2.79572 -3.63808,-0.81721 -2.70637,3.48389 -3.37187,4.08605 -3.94864,3.56991 -0.62114,-0.60216 -2.57327,-8.38715 -2.61764,-10.45169 0,-2.15055 -0.84297,-4.7312 -1.5972,-5.03229 -0.35494,-0.12903 -1.02044,0.0861 -1.46411,0.47313 -0.66549,0.60216 -0.70986,1.07527 -0.3993,3.56991 1.55284,12.55923 5.27965,18.53776 8.91773,14.32267 0.62113,-0.73118 1.41973,-1.29032 1.7303,-1.29032 0.35493,0 1.24227,0.68818 2.08524,1.50538 1.64156,1.72044 2.08523,1.80647 3.41623,0.7312 1.68594,-1.29034 3.19441,-5.07531 4.65851,-11.69901 0.5324,-2.23657 1.331,-5.20433 1.81904,-6.53767 0.48804,-1.37636 0.7986,-3.01078 0.70986,-3.65594 -0.17746,-1.67744 -1.46409,-1.76345 -2.48453,-0.17204 z"
         inkscape:connector-curvature="0"
         style="stroke-width:0.04368364" />
      <path
         id="path1127"
         d="m 759.41064,317.42009 c -2.66201,1.33334 -5.14655,4.34412 -7.05432,8.60221 -1.41975,3.09679 -0.53239,2.88174 1.24226,-0.30109 0.9317,-1.67742 2.5289,-3.82797 3.50496,-4.77422 1.81905,-1.67742 3.19441,-2.36561 1.77469,-0.86021 -2.44018,2.53764 -3.15005,3.44088 -2.88384,3.74195 0.17745,0.17204 0.0444,0.17204 -0.22185,0 -0.35491,-0.17204 -0.57675,-0.0859 -0.57675,0.21506 0,0.25807 -0.48806,1.59141 -1.10917,2.92475 -0.57679,1.33334 -1.41973,3.52691 -1.77469,4.90326 -0.66549,2.27958 -0.7986,2.45163 -1.37536,1.72044 -0.31055,-0.43011 -0.62115,-0.68818 -0.62115,-0.55914 -0.0444,0.12903 -0.3993,1.46237 -0.7986,3.01077 l -0.7542,2.79572 h -5.1022 c -4.96907,0 -5.10217,0.043 -5.23527,0.98925 -0.1331,0.7742 0.22185,1.11829 1.95215,1.89249 1.90776,0.7742 2.61761,0.86021 6.56626,0.60215 2.44017,-0.12904 4.65852,-0.47312 5.01346,-0.73119 0.31056,-0.25806 0.57676,-1.11829 0.57676,-1.89249 0,-2.27958 1.28665,-8.86027 2.21835,-11.31189 1.10916,-2.88174 3.68242,-6.75273 4.83597,-7.35489 0.48804,-0.25807 1.55284,-0.47313 2.35144,-0.47313 1.15351,0.043 1.7303,0.34409 2.66201,1.5484 1.90776,2.45163 1.99651,4.21508 0.97606,16.3442 -0.22185,2.88174 -0.17745,3.65594 0.44366,4.60218 l 0.75424,1.11828 5.54586,-0.17204 c 3.06131,-0.0861 5.72331,-0.30107 5.94512,-0.43011 0.7986,-0.47312 0.48805,-2.75271 -0.3993,-3.22583 -0.48801,-0.21505 -2.79511,-0.43011 -5.19092,-0.43011 h -4.30355 l 0.3993,-4.00002 c 0.22184,-2.15056 0.3993,-5.80649 0.3993,-8.04307 -0.0444,-4.90325 -0.7986,-6.66671 -4.08176,-9.41941 -2.30706,-1.9355 -3.54932,-2.15056 -5.67892,-1.03227 z m 15.52834,25.07544 c -0.13309,0.21505 -1.64156,0.43011 -3.37186,0.43011 -1.7303,0 -3.06131,-0.17206 -3.06131,-0.43011 0,-0.25807 1.41975,-0.43012 3.37186,-0.43012 2.08526,0 3.2388,0.17205 3.06131,0.43012 z"
         inkscape:connector-curvature="0"
         style="stroke-width:0.04368364" />
      <path
         id="path1129"
         d="m 312.99225,320.00075 c -0.75424,0.25807 -0.70988,1.63443 0,2.23657 0.35493,0.25807 2.7951,0.51614 5.4571,0.60216 2.66201,0.0861 5.54586,0.43011 6.43318,0.73119 0.88735,0.30108 1.95214,0.4301 2.35144,0.30108 1.1979,-0.47313 0.84297,-1.9355 -0.62112,-2.66669 -2.12962,-1.07528 -11.84593,-1.93549 -13.6206,-1.20431 z"
         inkscape:connector-curvature="0"
         style="stroke-width:0.04368364" />
      <path
         id="path1131"
         d="m 403.76665,328.34489 c -1.15354,1.1613 -2.21834,2.10754 -2.35144,2.10754 -0.0888,0 -0.26621,-0.43011 -0.35494,-0.98925 -0.17747,-1.1613 -1.7303,-1.50539 -2.52891,-0.55914 -0.3993,0.43011 -0.57676,2.45162 -0.62113,5.93551 -0.0887,5.24735 -0.0887,5.29037 0.93171,5.41939 1.41972,0.21506 2.44016,-1.07527 3.90427,-4.7312 1.1979,-3.0968 2.5289,-4.86025 3.28314,-4.43014 0.2662,0.17205 0.44366,1.29033 0.48803,2.49464 0.0888,3.56991 0.35493,4.08605 2.04088,3.65594 0.84297,-0.21506 1.9965,-1.07528 2.83947,-2.06453 2.04086,-2.45163 2.79511,-2.32259 2.48453,0.51613 -0.31056,2.36561 0.31058,5.20433 1.28665,5.97853 0.93169,0.73119 2.3958,0.043 2.3958,-1.11828 0,-0.55914 -0.22183,-1.1613 -0.48804,-1.33334 -0.31056,-0.17204 -0.35493,-1.84948 -0.17746,-5.29036 0.2662,-4.2581 0.22183,-5.11832 -0.35494,-5.59144 -1.02043,-0.77419 -2.48454,-0.21505 -4.39231,1.80647 -1.95213,1.9785 -3.01694,1.89248 -3.01694,-0.21505 0,-1.72044 -0.9317,-3.13981 -2.26271,-3.4839 -0.70986,-0.17204 -1.46409,0.25806 -3.10566,1.89248 z"
         inkscape:connector-curvature="0"
         style="stroke-width:0.04368364" />
      <path
         id="path1133"
         d="m 197.28373,328.51694 c -2.26271,2.27958 -1.7303,4.04303 1.9965,7.09681 1.1979,0.98926 2.21834,1.97851 2.21834,2.19357 0,0.21506 -0.6655,0.81721 -1.41974,1.29033 -1.24227,0.73119 -1.95213,0.86022 -4.43668,0.64517 -3.5937,-0.25807 -4.17047,0.25807 -2.17397,1.97851 1.10918,0.98925 1.81904,1.20431 3.59371,1.20431 2.9282,0 4.79161,-0.7742 6.56628,-2.75271 2.08525,-2.27958 1.86341,-3.26884 -1.24227,-6.15058 -1.46409,-1.37635 -2.662,-2.83873 -2.662,-3.26884 0,-0.47312 0.57677,-1.03226 1.55284,-1.41936 1.7303,-0.68818 1.95213,-1.24733 0.70986,-1.89248 -1.64156,-0.86023 -3.19441,-0.51614 -4.70287,1.07527 z"
         inkscape:connector-curvature="0"
         style="stroke-width:0.04368364" />
      <path
         id="path1135"
         d="m 427.94653,329.76426 c -0.7986,0.34409 -1.55284,0.8172 -1.68594,1.07527 -0.17746,0.25807 -0.88733,0.47313 -1.55283,0.47313 -0.70988,0 -1.46411,0.25806 -1.68595,0.51613 -0.26619,0.30107 -0.57676,2.58066 -0.70986,5.0753 -0.13309,2.49464 -0.57676,5.97853 -0.97607,7.74199 -0.3993,1.76345 -0.7986,4.55916 -0.7986,6.23659 -0.0888,2.92475 -0.0444,3.01078 1.06481,3.13981 1.10916,0.12904 1.15353,0.043 1.41972,-2.58066 0.39931,-3.74196 1.28665,-7.3979 1.81904,-7.74198 0.26621,-0.17206 1.28665,-0.3441 2.26271,-0.3441 2.30707,-0.043 5.85642,-1.9355 7.18742,-3.82798 1.1979,-1.72044 1.37537,-5.03229 0.35493,-6.92477 -0.7986,-1.50539 -3.3275,-3.44088 -4.48104,-3.44088 -0.44367,0.043 -1.4641,0.30107 -2.21834,0.60215 z m 2.48454,3.26884 c 0.84297,0 1.77467,1.46237 1.77467,2.7527 0,1.72045 -1.24226,3.39787 -3.10567,4.12906 -3.85992,1.5484 -4.92471,-2.7097 -1.59721,-6.15058 0.70987,-0.77419 1.46411,-1.16129 1.86341,-0.98925 0.3993,0.12903 0.84296,0.25807 1.0648,0.25807 z"
         inkscape:connector-curvature="0"
         style="stroke-width:0.04368364" />
      <path
         id="path1137"
         d="m 441.96643,330.62448 c -1.10916,0.55914 -2.44016,1.50538 -3.01695,2.10754 -1.02041,1.03226 -1.02041,1.11828 -0.31056,2.45163 0.48805,0.90323 1.37537,1.63441 2.48456,2.06453 0.97605,0.34408 1.68591,0.86021 1.5972,1.11828 -0.26621,0.7742 -2.39581,2.06453 -3.85991,2.36561 -0.79861,0.12903 -1.7303,0.68817 -2.08525,1.20431 -0.57678,0.86022 -0.53241,0.98926 0.44366,1.63442 1.02044,0.64517 1.24229,0.60215 3.4606,-0.17205 4.9691,-1.80646 7.32053,-5.03229 5.27966,-7.13983 -0.57676,-0.55914 -1.55284,-1.1613 -2.26271,-1.29032 -1.95214,-0.43012 -1.55284,-1.37636 0.75425,-2.02153 2.48452,-0.68817 3.3275,-1.63441 2.26271,-2.66668 -0.93171,-0.94624 -2.39581,-0.81721 -4.74726,0.34409 z"
         inkscape:connector-curvature="0"
         style="stroke-width:0.04368364" />
      <path
         id="path1139"
         d="m 664.33264,331.39867 c -0.35491,0.34409 -0.5324,2.53766 -0.5324,7.09682 0,5.80649 0.0888,6.70973 0.7986,7.44092 0.66549,0.73118 0.9317,0.77419 1.55285,0.30107 0.7986,-0.55914 3.59371,-8.47317 2.97256,-8.47317 -0.35491,0 -3.10566,5.24734 -3.10566,5.97853 0,0.21506 -0.17746,0.51614 -0.35495,0.64517 -0.62112,0.34408 0.22184,-3.82798 1.15355,-5.84951 0.48804,-1.03225 1.4641,-2.40861 2.2627,-3.09679 1.33101,-1.20431 1.37536,-1.24731 1.37536,-0.34409 0,0.64517 0.2662,0.94625 0.88735,0.94625 1.15355,0 1.50845,1.54839 1.15355,4.51616 -0.22185,1.80645 -0.1331,2.45162 0.44365,3.01077 1.10915,1.07528 2.08525,0.60215 3.28315,-1.59142 1.28662,-2.32259 3.01692,-4.21507 3.77117,-4.21507 0.3993,0 0.48804,0.90324 0.31055,3.1398 -0.13309,2.36561 0,3.4839 0.48805,4.47315 1.37536,2.58067 4.08175,1.89249 2.97256,-0.7742 -0.3993,-0.90322 -0.48801,-2.49463 -0.31056,-5.20433 0.26621,-3.65594 0.22185,-3.91401 -0.75424,-4.86025 -1.24226,-1.20431 -2.21832,-1.07528 -5.14652,0.68817 -2.0409,1.24733 -2.66201,1.24733 -2.66201,0.043 0,-0.3871 -0.3993,-1.37635 -0.88734,-2.15055 -1.1979,-1.84947 -2.61765,-1.80646 -4.88036,0.17204 -1.95211,1.72044 -2.30706,1.67744 -2.44017,-0.12903 -0.0444,-0.68817 -0.13309,-1.46237 -0.13309,-1.76345 -0.0888,-0.64517 -1.50847,-0.68817 -2.21835,0 z m 14.81852,5.80649 c -0.1331,0.43012 -0.84299,1.1613 -1.5085,1.59142 -0.70985,0.43011 -1.7303,1.50538 -2.30705,2.32259 -1.1979,1.63441 -1.7303,1.1613 -0.88736,-0.81721 0.5768,-1.33334 3.68246,-4.00002 4.1705,-3.52691 0.13311,0.12904 0.26621,0 0.26621,-0.30107 0,-0.30108 0.1331,-0.47313 0.2662,-0.30108 0.1331,0.12904 0.1331,0.60215 0,1.03226 z"
         inkscape:connector-curvature="0"
         style="stroke-width:0.04368364" />
      <path
         id="path1141"
         d="m 750.31542,332.17287 c 0,0.21506 0.22185,0.43012 0.4437,0.43012 0.2662,0 0.44366,-0.21506 0.44366,-0.43012 0,-0.25807 -0.17746,-0.43011 -0.44366,-0.43011 -0.22185,0 -0.4437,0.17204 -0.4437,0.43011 z"
         inkscape:connector-curvature="0"
         style="stroke-width:0.04368364" />
      <path
         id="path1143"
         d="m 320.17966,333.93633 c -1.4641,0.21505 -3.85991,0.34408 -5.32402,0.34408 -3.68243,-0.0859 -3.77117,-0.043 -3.77117,0.86023 0,1.37635 1.90778,2.19355 4.96908,2.15055 5.50148,0 13.57623,-2.36561 11.84593,-3.44089 -0.75424,-0.4301 -4.08174,-0.4301 -7.71982,0.0861 z"
         inkscape:connector-curvature="0"
         style="stroke-width:0.04368364" />
      <path
         id="path1145"
         d="m 689.71044,334.53848 c -1.64156,1.59141 -1.28665,4.21508 0.75425,5.84951 1.28661,0.98925 1.37535,1.24731 1.10916,2.66668 -0.26621,1.29032 -0.66551,1.76345 -2.04086,2.45162 -0.9761,0.47313 -1.7747,1.1613 -1.7747,1.46238 0,0.60216 1.99651,2.40862 2.7064,2.40862 0.7986,0 3.15001,-2.36561 3.7268,-3.74196 1.15352,-2.62368 0.88732,-4.64519 -0.88734,-6.53768 -0.84296,-0.90323 -1.55285,-1.80646 -1.55285,-2.02151 0,-0.21506 0.62115,-0.73119 1.3754,-1.11829 1.86339,-1.07528 1.5972,-2.23658 -0.5768,-2.40862 -1.33101,-0.12903 -1.90776,0.0861 -2.83946,0.98925 z"
         inkscape:connector-curvature="0"
         style="stroke-width:0.04368364" />
      <path
         id="path1147"
         d="m 149.05705,335.52774 c -5.50148,3.914 -7.05432,11.74201 -2.83948,14.4517 1.73031,1.07528 3.50498,0.86023 6.07825,-0.86021 2.04088,-1.29034 2.48454,-1.46238 3.41625,-1.03227 2.08523,0.90323 3.15003,-1.29033 1.37537,-2.83873 -0.79861,-0.68818 -0.84298,-1.07528 -0.62114,-3.44089 0.3993,-3.22582 -0.48804,-5.33336 -2.21834,-5.33336 -0.75423,0 -1.10916,-0.25807 -1.1979,-0.98926 -0.17747,-1.41936 -1.99651,-1.37635 -3.99301,0.043 z m 3.50498,5.54842 c 0.0888,3.82798 -0.26621,4.6882 -2.75075,5.93552 l -1.64156,0.86022 -0.75425,-0.94624 c -1.46409,-1.72044 0.13311,-6.15057 2.92822,-8.30113 1.8634,-1.41937 2.1296,-1.11828 2.21834,2.45163 z"
         inkscape:connector-curvature="0"
         style="stroke-width:0.04368364" />
    </g>
  </g>
</svg>
