<?xml version="1.0" encoding="UTF-8" standalone="no"?>
<!-- Created with Inkscape (http://www.inkscape.org/) -->

<svg
   xmlns:dc="http://purl.org/dc/elements/1.1/"
   xmlns:cc="http://creativecommons.org/ns#"
   xmlns:rdf="http://www.w3.org/1999/02/22-rdf-syntax-ns#"
   xmlns:svg="http://www.w3.org/2000/svg"
   xmlns="http://www.w3.org/2000/svg"
   xmlns:sodipodi="http://sodipodi.sourceforge.net/DTD/sodipodi-0.dtd"
   xmlns:inkscape="http://www.inkscape.org/namespaces/inkscape"
   width="750.26392mm"
   height="561.13403mm"
   viewBox="0 0 750.26392 561.13403"
   version="1.1"
   id="svg7105"
   inkscape:version="0.92.5 (2060ec1f9f, 2020-04-08)"
   sodipodi:docname="power_model_3.svg">
  <defs
     id="defs7099" />
  <sodipodi:namedview
     id="base"
     pagecolor="#ffffff"
     bordercolor="#666666"
     borderopacity="1.0"
     inkscape:pageopacity="0.0"
     inkscape:pageshadow="2"
     inkscape:zoom="0.175"
     inkscape:cx="206.88175"
     inkscape:cy="1055.3524"
     inkscape:document-units="mm"
     inkscape:current-layer="g8028"
     showgrid="false"
     fit-margin-right="-0.3"
     fit-margin-top="0"
     fit-margin-left="0"
     fit-margin-bottom="0"
     inkscape:window-width="1918"
     inkscape:window-height="1057"
     inkscape:window-x="1920"
     inkscape:window-y="0"
     inkscape:window-maximized="0" />
  <metadata
     id="metadata7102">
    <rdf:RDF>
      <cc:Work
         rdf:about="">
        <dc:format>image/svg+xml</dc:format>
        <dc:type
           rdf:resource="http://purl.org/dc/dcmitype/StillImage" />
        <dc:title></dc:title>
      </cc:Work>
    </rdf:RDF>
  </metadata>
  <g
     inkscape:label="Layer 1"
     inkscape:groupmode="layer"
     id="layer1"
     transform="translate(340.50813,112.07891)">
    <path
       style="stroke-width:0.03527778"
       inkscape:connector-curvature="0"
       d="m 158.34425,-111.49183 c -0.10584,0.35278 -0.8114,2.04611 -1.55224,3.81 -1.7286,4.16278 -2.2225,8.078611 -1.97556,15.945555 0.24696,8.74889 1.51696,12.805833 5.46806,17.60361 1.83444,2.2225 3.3514,3.316113 4.48027,3.316113 1.27,0 0.8114,-1.058333 -1.51693,-3.386667 -2.89277,-2.928056 -5.04473,-6.985 -5.8914,-11.147779 -1.12887,-5.785555 -0.56444,-17.462502 1.02306,-21.131392 1.4464,-3.35138 1.97557,-4.97416 1.79917,-5.25638 -0.35277,-0.56445 -1.5875,-0.38806 -1.83443,0.24694 z"
       id="path5992" />
    <path
       style="stroke-width:0.03527778"
       inkscape:connector-curvature="0"
       d="m 226.57145,-110.08072 c -0.56444,0.52917 -0.1411,1.44639 1.19946,2.75167 4.1275,3.98639 7.62,17.638886 6.31471,24.729718 -0.24694,1.340557 -1.12887,4.056947 -1.97554,6.06778 -0.84667,2.010833 -1.55223,3.915833 -1.55223,4.26861 0,0.599723 0.635,1.09361 1.4111,1.09361 0.38806,0 3.70417,-7.62 4.26863,-9.877777 0.3175,-1.199443 0.49387,-3.668889 0.4586,-6.526388 -0.0353,-4.056944 -0.1764,-5.115278 -1.30527,-9.383889 -0.70556,-2.681111 -1.83446,-5.997224 -2.54,-7.408334 -1.905,-3.95111 -5.15056,-6.87916 -6.27946,-5.715 z"
       id="path5994" />
    <path
       style="stroke-width:0.03527778"
       inkscape:connector-curvature="0"
       d="m 164.05925,-103.48377 c -2.61057,1.12888 -5.2564,4.550829 -5.04474,6.455829 0.10584,0.846666 0.24694,0.987777 1.05834,0.881944 1.05833,-0.141111 1.16416,0.105833 1.51693,3.104445 0.10584,1.058333 0.3528,2.822222 0.52917,3.880555 0.1764,1.058333 0.4939,3.175 0.74083,4.656665 0.42334,2.681113 0.9525,3.739447 1.72863,3.280834 0.4586,-0.282221 0.42334,-1.763887 -0.14113,-5.468055 -0.24693,-1.658055 -0.38803,-3.104444 -0.3175,-3.280833 0.0706,-0.141111 0.52917,-0.246944 0.9878,-0.246944 1.2347,0 4.51554,-1.622778 5.60917,-2.786945 0.49387,-0.529166 1.2347,-1.869722 1.62276,-2.963333 1.27,-3.563055 0.74084,-6.385282 -1.4111,-7.478892 -1.27,-0.67027 -5.3975,-0.67027 -6.87916,-0.0353 z m 6.38526,2.36361 c 1.09361,0.88194 0.28224,5.044719 -1.34056,7.055552 -0.56444,0.670278 -2.75167,1.375833 -4.33917,1.375833 -1.05833,0 -1.0936,-0.03528 -1.51693,-2.681111 -0.21167,-1.481666 -0.59973,-2.928055 -0.8114,-3.210277 -0.635,-0.740834 1.19946,-2.469447 2.99863,-2.857497 1.76387,-0.38806 4.37443,-0.24695 5.00943,0.3175 z"
       id="path5996" />
    <path
       style="stroke-width:0.03527778"
       inkscape:connector-curvature="0"
       d="m 148.36062,-90.995441 c -3.98637,1.728611 -10.4775,6.385276 -13.68777,9.877776 -4.19807,4.586113 -10.68917,15.628056 -12.77057,21.731113 l -0.9525,2.8575 -1.97553,-0.105833 c -1.65807,-0.105834 -1.97557,-0.03528 -2.11667,0.529166 -0.88196,3.104444 -1.69333,7.831664 -1.55223,8.819444 0.21166,1.305277 1.1289,2.575277 1.83443,2.575277 0.24697,0 0.635,0.246943 0.88197,0.529166 0.5997,0.740834 1.97553,0.670277 2.54,-0.105833 0.4586,-0.670277 3.56303,-2.54 4.19803,-2.54 0.70557,0 1.37584,-1.023056 1.34057,-2.010833 -0.0353,-1.481667 -0.3175,-1.975557 -2.3636,-4.1275 l -1.86974,-1.940277 1.27,-3.386667 c 2.54,-6.80861 4.72724,-10.795 11.00667,-19.931943 1.65807,-2.434167 5.92667,-6.20889 11.07723,-9.736668 1.97554,-1.375833 5.75027,-3.316111 6.45584,-3.316111 0.2822,0 0.635,-0.176389 0.74083,-0.352777 0.42333,-0.670278 -1.7639,-0.3175 -4.05696,0.635 z m -27.51667,43.46222 c 0,0.176389 -0.17637,0.352779 -0.38804,0.352779 -0.1764,0 -0.24696,-0.17639 -0.14113,-0.352779 0.10584,-0.211667 0.28223,-0.352777 0.38807,-0.352777 0.0706,0 0.1411,0.14111 0.1411,0.352777 z m -1.4111,1.058333 c -0.70557,0.458613 -1.4111,0.458613 -1.4111,0 0,-0.211667 0.42333,-0.352777 0.98776,-0.352777 0.74084,0 0.84667,0.07056 0.42334,0.352777 z"
       id="path5998" />
    <path
       style="stroke-width:0.03527778"
       inkscape:connector-curvature="0"
       d="m 174.28978,-90.889608 c -0.42333,0.635 -1.94027,7.12611 -1.94027,8.149166 0,1.44639 0.70557,2.645833 1.79917,3.104444 0.84667,0.352779 1.19944,0.3175 2.50473,-0.423334 0.81137,-0.45861 1.55221,-1.09361 1.62277,-1.481666 0.10583,-0.564444 -0.0706,-0.599721 -1.51693,-0.493887 -2.43417,0.176387 -2.61057,-0.282224 -1.6228,-4.62139 0.45863,-1.940278 0.74083,-3.81 0.59973,-4.092222 -0.21167,-0.599722 -1.1289,-0.705556 -1.4464,-0.141111 z"
       id="path6000" />
    <path
       style="stroke-width:0.03527778"
       inkscape:connector-curvature="0"
       d="m 222.33812,-90.184053 c -2.15194,1.27 -2.11667,7.231944 0.0353,8.396111 1.65804,0.881944 4.30387,0.246944 4.30387,-1.023056 0,-0.564444 -0.24693,-0.705554 -1.34053,-0.705554 -0.91724,0 -1.5875,-0.246946 -2.01084,-0.705557 -0.59973,-0.670276 -0.59973,-0.705556 0.35277,-1.058333 1.905,-0.740833 2.9986,-1.763888 2.9986,-2.8575 0,-1.975555 -2.46943,-3.139722 -4.33916,-2.046111 z"
       id="path6002" />
    <path
       style="stroke-width:0.03527778"
       inkscape:connector-curvature="0"
       d="m 214.43591,-89.831275 c -0.77613,1.023056 -1.51696,2.786945 -1.51696,3.704167 0,0.529166 0.3175,1.658056 0.74083,2.469443 0.52917,1.12889 1.02307,1.62278 1.97557,1.94028 l 1.23473,0.388053 -0.21167,2.187223 c -0.24696,2.257777 -1.1289,4.480277 -1.86973,4.727224 -0.8114,0.246943 -1.94027,-1.30528 -1.79917,-2.57528 0.10584,-1.5875 -0.635,-2.398887 -1.34056,-1.446387 -1.05833,1.446387 -0.35277,4.480277 1.34056,5.644443 1.05834,0.740834 2.50474,0.705557 3.21027,-0.07056 1.69334,-1.86972 3.13973,-7.690554 3.0339,-12.311944 -0.0353,-2.504721 -0.1764,-3.139721 -0.8114,-3.880555 -0.88193,-1.023055 -3.38666,-1.516944 -3.98637,-0.776111 z m 2.71637,4.021667 c 0,1.128889 -0.17637,1.658056 -0.52916,1.799166 -0.81137,0.3175 -1.5875,-0.529167 -1.5875,-1.799166 0,-1.340556 0.21166,-1.5875 1.30529,-1.5875 0.74084,0 0.81137,0.176389 0.81137,1.5875 z"
       id="path6004" />
    <path
       style="stroke-width:0.03527778"
       inkscape:connector-curvature="0"
       d="m 195.87978,-89.196275 c -0.2822,1.128889 0.45863,7.44361 0.9878,8.537223 0.84667,1.622777 1.5875,1.128887 1.5875,-1.12889 0,-1.12889 0.42333,-1.27 1.76387,-0.49389 1.09363,0.635 3.06917,0.67028 3.28083,0.07056 0.10584,-0.3175 0.3528,-0.3175 1.09363,0.105833 1.12887,0.599723 2.78694,0.49389 4.16277,-0.211667 1.19944,-0.635 1.51694,-0.635 2.15194,0 0.42333,0.458611 0.59973,0.458611 1.16416,0.07056 0.59973,-0.458613 0.59973,-0.529167 -0.10583,-2.010833 -0.42333,-0.846667 -0.9172,-1.975557 -1.12887,-2.540001 -0.21167,-0.529167 -0.77613,-1.128889 -1.27,-1.375833 -0.4939,-0.211667 -0.88196,-0.529167 -0.88196,-0.705556 0,-0.458611 -1.72861,-0.3175 -2.82221,0.246945 -1.41113,0.740833 -2.11666,1.869722 -2.11666,3.421945 0,0.705553 -0.1764,1.41111 -0.3528,1.516943 -0.21167,0.105833 -0.98777,-0.14111 -1.76387,-0.564443 l -1.41113,-0.81139 0.70556,-1.164167 c 0.38807,-0.670277 0.70557,-1.446388 0.70557,-1.728611 0,-0.811389 -1.16417,-0.564444 -1.97557,0.458611 -0.91723,1.164167 -1.905,0.917223 -1.905,-0.529166 0,-1.622778 -1.48166,-2.575278 -1.86973,-1.164167 z m 13.1939,3.104445 c 0.3175,0.846665 0.24694,1.058332 -0.42333,1.622778 -1.19944,0.9525 -2.57527,0.670277 -2.7164,-0.564446 -0.1411,-1.305277 0.45863,-2.010832 1.72863,-2.010832 0.81137,0 1.12887,0.211666 1.4111,0.9525 z"
       id="path6006" />
    <path
       style="stroke-width:0.03527778"
       inkscape:connector-curvature="0"
       d="m 181.34535,-87.150164 c -0.7761,0.776111 -1.23473,2.010832 -1.23473,3.457222 0,0.917223 0.3175,1.552223 1.34056,2.645833 1.5875,1.658057 2.54,1.76389 3.81,0.529167 1.05833,-1.058333 0.84667,-1.5875 -0.56443,-1.5875 -1.34057,0 -1.69334,-0.635 -0.74084,-1.27 0.88194,-0.635 1.76387,-2.257777 1.55221,-2.892777 -0.21167,-0.564445 -1.97554,-1.481667 -2.89277,-1.481667 -0.38807,0 -0.9525,0.246944 -1.27,0.599722 z"
       id="path6008" />
    <path
       style="stroke-width:0.03527778"
       inkscape:connector-curvature="0"
       d="m 188.36562,-86.197664 c -1.34054,1.305279 -1.55221,1.728612 -1.55221,2.998612 0,1.199443 0.21167,1.72861 1.02304,2.54 1.23473,1.199443 2.04613,1.27 3.91583,0.3175 0.77613,-0.388057 1.6228,-0.705557 1.9403,-0.705557 0.9525,0 1.02304,-1.058333 0.1411,-2.928056 -0.98777,-2.151943 -2.43417,-3.774721 -3.3161,-3.774721 -0.3528,0 -1.3053,0.705556 -2.15196,1.552222 z m 3.175,2.046112 c 0.42333,1.164167 -0.21167,2.04611 -1.44637,2.04611 -1.27,0 -1.65807,-1.340556 -0.70557,-2.39889 0.91723,-0.987777 1.7286,-0.881943 2.15194,0.35278 z"
       id="path6010" />
    <path
       style="stroke-width:0.03527778"
       inkscape:connector-curvature="0"
       d="m -253.98242,-77.166552 c -0.42334,0.670277 0.84666,3.63361 4.05694,9.525 1.76389,3.210277 4.30389,8.008054 5.67972,10.653887 1.76389,3.386667 3.13972,5.53861 4.51556,7.055556 l 2.01083,2.187221 2.32834,0.141113 c 2.01083,0.14111 2.46944,0.03528 3.77472,-0.776113 1.41111,-0.917221 1.94028,-1.975554 0.9525,-1.975554 -0.24694,0 -1.05833,0.246944 -1.72861,0.529167 -0.70556,0.28222 -1.86972,0.529166 -2.61056,0.529166 -2.78694,0 -5.75028,-4.409723 -13.335,-19.861389 -3.13972,-6.35 -4.30389,-8.360834 -4.79778,-8.360834 -0.35278,0 -0.74083,0.17639 -0.84666,0.35278 z"
       id="path6012" />
    <path
       style="stroke-width:0.03527778"
       inkscape:connector-curvature="0"
       d="m -279.80576,-54.377109 c -0.3175,0.811388 1.44639,4.339167 4.58611,9.066388 l 2.71639,4.162779 -1.16416,0.493887 c -1.51695,0.635 -2.15195,1.375834 -3.28084,3.880557 -1.23472,2.68111 -1.51694,6.314723 -0.70555,9.066389 0.98777,3.4925 5.00944,6.985 7.97277,6.985 3.59834,0 5.18584,-3.4925 4.23334,-9.136946 -0.24695,-1.41111 -0.35278,-2.645833 -0.24695,-2.716387 0.10584,-0.105833 1.27,0.45861 2.57528,1.234721 2.8575,1.728612 4.83306,1.940279 6.06778,0.635 1.05833,-1.128888 0.52917,-1.834444 -1.16417,-1.516944 -1.83444,0.352777 -4.30389,-1.023056 -7.51416,-4.1275 -2.8575,-2.822223 -5.46806,-6.632223 -9.06639,-13.299723 -1.30528,-2.434167 -2.54,-4.621387 -2.71639,-4.868333 -0.52917,-0.599721 -2.01084,-0.529167 -2.29306,0.141112 z m 9.24278,16.1925 c 2.82222,3.668888 4.16278,13.299721 2.11667,14.993054 -1.44639,1.199446 -5.64445,-1.5875 -6.73806,-4.445 -1.19944,-3.175 -0.0353,-9.771943 2.01083,-11.218333 1.19945,-0.811387 1.5875,-0.705554 2.61056,0.670279 z"
       id="path6014" />
    <path
       style="stroke-width:0.03527778"
       inkscape:connector-curvature="0"
       d="m -99.112984,-52.260442 c -4.374436,1.09361 -8.854716,3.175 -11.253606,5.22111 -1.19944,1.058334 -1.34056,1.27 -0.9525,1.76389 0.67028,0.811387 1.16417,0.705554 2.68111,-0.49389 2.04611,-1.622777 6.0325,-3.457223 8.995826,-4.1275 3.28084,-0.740833 12.3825,-0.811389 16.1925,-0.14111 5.3975,0.9525 10.0189,3.175 12.20613,5.750277 2.46943,2.928056 3.70416,7.231944 3.70416,12.84111 0,5.820834 -1.16416,9.031113 -5.22113,14.42861 -2.75166,3.66889 -5.11527,5.926672 -9.24277,8.7488925 -6.27944,4.30389 -10.40694,5.89139 -19.684996,7.69054995 -6.49111,1.23473 -6.6675,1.23473 -6.985,0.24695 -0.14111,-0.42334 -0.10583,-8.88999995 0.0706,-18.80305845 0.45861,-25.505831 0.45861,-25.364721 -0.28222,-25.505831 -1.41111,-0.282223 -1.48167,0.881944 -1.48167,24.976664 -0.0353,19.47333545 0.0706,24.2005555 0.59972,30.162505 0.35278,3.88055 0.70556,7.37305 0.84667,7.72583 0.10583,0.35278 0.21167,4.51555 0.28222,9.24278 0.0706,8.96055 0.17639,9.66611 1.62278,9.66611 0.59972,0 0.67028,-0.21167 0.49389,-2.39889 -0.0706,-1.30528 -0.24695,-5.15056 -0.35278,-8.53722 -0.10583,-3.38667 -0.42333,-8.5725 -0.70556,-11.46528 -0.24694,-2.92806 -0.59972,-6.9144495 -0.70555,-8.9252795 l -0.24695,-3.59833 h 1.72862 c 2.25777,0 9.595546,-1.48167005 13.299716,-2.64584005 3.38666,-1.09360995 8.53722,-3.77471995 12.80583,-6.70276995 6.70279,-4.6213905 12.73529,-11.9591695 14.18166,-17.3213925 1.4464,-5.36222 0.42333,-14.358054 -2.2225,-19.473333 -1.19943,-2.328333 -5.46804,-5.326944 -9.20749,-6.49111 -5.08,-1.5875 -6.38528,-1.76389 -13.40556,-1.869723 -3.88055,-0.07055 -7.37305,-0.07055 -7.76111,0.03528 z"
       id="path6016" />
    <path
       style="stroke-width:0.03527778"
       inkscape:connector-curvature="0"
       d="m -256.09909,-51.272665 c -2.43417,1.09361 -4.40972,4.26861 -4.40972,7.055556 0.0353,1.411111 1.19944,3.986388 2.39889,5.256388 2.04611,2.187223 5.57388,3.033889 7.76111,1.869723 2.08139,-1.093611 4.30389,-4.268611 4.30389,-6.173611 0,-1.375833 -0.67028,-1.093612 -1.94028,0.846667 -0.70556,1.058333 -1.76389,2.328333 -2.36361,2.822221 -2.89278,2.434166 -7.69056,-0.599721 -7.69056,-4.833054 0,-3.104446 1.44639,-5.221113 3.59833,-5.221113 0.84667,0 0.98778,0.141113 0.98778,1.058333 0,0.776113 -0.42333,1.516946 -1.44639,2.645834 -2.15194,2.328333 -1.27,3.704166 1.09361,1.728612 2.08139,-1.763889 3.06917,-5.044723 2.11667,-6.879166 -0.45861,-0.81139 -2.75167,-0.917223 -4.40972,-0.17639 z"
       id="path6018" />
    <path
       style="stroke-width:0.03527778"
       inkscape:connector-curvature="0"
       d="m -327.53659,-49.826275 c -0.24694,0.28222 -0.52917,1.940277 -0.635,3.63361 -0.21167,3.915833 0.52917,7.725833 2.46945,12.770556 2.71638,7.161388 3.31611,9.172221 2.75166,9.525 -0.28222,0.176388 -0.84666,0.105834 -1.44639,-0.176389 -1.37583,-0.740834 -6.6675,-6.491111 -9.94833,-10.830277 -3.06917,-4.092223 -4.69194,-5.362223 -5.715,-4.515557 -0.635,0.529167 -0.67028,0.07056 0.38806,10.936111 2.29305,24.2711085 2.54,25.8938885 5.43277,37.2180585 0.77611,2.8927695 2.29306,8.0786095 3.42195,11.4652695 1.76389,5.29167 2.15194,6.17362 2.82222,6.27945 0.49389,0.0705 0.81139,-0.10583 0.9525,-0.52917 0.10583,-0.35278 -0.635,-3.175 -1.69333,-6.27944 -2.32834,-6.91445 -4.86834,-15.6986095 -5.99723,-20.8491695 -0.91722,-4.02167 -1.41111,-8.14917 -2.8575,-23.0716655 -1.02305,-10.406944 -1.05833,-11.394721 -0.42333,-11.218333 0.21167,0.105833 1.51695,1.516946 2.82222,3.139723 8.14917,10.018889 12.55889,13.088053 14.56973,10.054166 0.77611,-1.234723 0.24694,-3.598333 -1.97556,-9.03111 -2.61056,-6.314723 -3.4925,-9.313333 -3.77472,-12.629446 -0.17639,-2.504721 -0.14111,-2.892777 0.35278,-2.892777 0.635,0 1.16416,0.635 6.10305,7.055556 3.24556,4.233334 9.80722,13.899444 12.66472,18.697221 3.70417,6.20889 10.33639,13.8288855 13.54667,15.4869455 0.70555,0.38805 0.91722,0.35278 1.41111,-0.14111 0.52917,-0.56445 0.49389,-0.67028 -0.635,-1.51695 -4.33917,-3.3866605 -8.43139,-8.0433295 -11.53583,-13.1586065 -6.52639,-10.900833 -17.4625,-26.564166 -20.10834,-28.8925 -1.34055,-1.164166 -2.29305,-1.340556 -2.96333,-0.529166 z"
       id="path6020" />
    <path
       style="stroke-width:0.03527778"
       inkscape:connector-curvature="0"
       d="m -215.88242,-47.462665 c -1.16417,0.81139 -2.25778,1.693333 -2.39889,1.940277 -0.17639,0.282223 -0.42333,0.388056 -0.56444,0.3175 -0.14112,-0.105833 -0.52917,0.211667 -0.88195,0.705556 -0.38805,0.458611 -0.81139,0.846667 -1.02305,0.846667 -0.21167,0 -0.59973,0.211667 -0.91723,0.49389 -3.13972,2.8575 -4.23333,3.739443 -4.55083,3.739443 -0.21167,0 -0.42333,0.105834 -0.49389,0.246944 -0.0353,0.17639 -0.77611,0.705556 -1.5875,1.234723 -0.81139,0.564444 -1.76389,1.375833 -2.08139,1.869723 -0.3175,0.493887 -0.84666,0.881944 -1.16416,0.881944 -0.35278,0 -1.41112,0.705556 -2.36362,1.5875 -0.9525,0.917223 -2.39888,2.116666 -3.24555,2.751666 -0.84667,0.635 -2.04611,1.552223 -2.71639,2.08139 -0.635,0.564444 -1.41111,0.987777 -1.72861,0.987777 -0.3175,0 -0.56445,0.14111 -0.56445,0.3175 0,0.17639 -0.84667,0.9525 -1.86972,1.72861 -1.05833,0.776113 -2.11667,1.658057 -2.39889,1.94028 -0.28222,0.246943 -1.12889,0.881943 -1.905,1.375833 -0.77611,0.493887 -1.97556,1.446387 -2.64583,2.116667 -0.67028,0.705554 -3.28084,2.892777 -5.78556,4.86833 -2.50472,2.010834 -4.83305,3.915832 -5.18583,4.268612 -0.52917,0.52917 -3.21028,2.7869405 -17.25084,14.4286105 -1.86972,1.55222 -3.84527,3.28083 -4.40972,3.88056 -0.56444,0.56444 -1.12889,1.05833 -1.30528,1.05833 -0.17638,0 -2.61055,2.0108295 -5.46805,4.4802795 -2.82222,2.50472 -6.94972,5.92666 -9.13695,7.69055 -3.66888,2.89278 -4.86833,4.40973 -3.56305,4.40973 1.09361,0 5.82083,-3.63362 13.44083,-10.37167 2.89278,-2.54 5.43278,-4.7977795 5.64445,-4.9741695 1.09361,-0.9525 5.78555,-5.04472 6.56166,-5.67972 2.04611,-1.76389 11.07723,-9.41917 14.99306,-12.73528 2.32833,-1.9755505 4.72722,-4.0216655 5.32694,-4.5861085 0.56445,-0.529167 2.25778,-1.940277 3.70417,-3.104444 1.44639,-1.164167 2.68111,-2.187223 2.78694,-2.293056 0.49389,-0.49389 3.81,-3.175 5.46806,-4.409721 1.05833,-0.776113 3.42194,-2.610556 5.29167,-4.056946 1.905,-1.446387 3.98639,-3.033887 4.69194,-3.4925 0.74084,-0.45861 2.01084,-1.41111 2.89278,-2.116667 0.88195,-0.740833 3.24556,-2.469443 5.29167,-3.915833 2.04611,-1.446387 5.53861,-3.986387 7.79639,-5.679721 2.2225,-1.693333 4.90361,-3.4925 5.92666,-3.986389 2.11667,-1.093611 2.36362,-2.08139 0.56445,-2.257777 -0.77611,-0.07056 -1.62278,0.3175 -3.175,1.41111 z"
       id="path6022" />
    <path
       style="stroke-width:0.03527778"
       inkscape:connector-curvature="0"
       d="m 56.109246,-40.583498 c -2.0814,0.45861 -5.92667,1.72861 -7.9375,2.645833 -3.77474,1.693333 -5.3975,3.845277 -3.31613,4.374444 0.84666,0.211666 0.91723,0.3175 0.635,1.516946 -0.35277,1.622777 -0.45861,54.645272 -0.10584,63.006112 0.24697,6.70277 0.74084,9.06639 1.905,9.31333 0.52917,0.10583 0.59973,-0.0353 0.3528,-1.05833 -0.14113,-0.67028 -0.42333,-1.905 -0.59973,-2.78695 -0.42334,-1.905 -0.67027,-50.129719 -0.35277,-62.970829 l 0.24693,-8.784167 2.64584,-1.023056 c 5.715,-2.187223 6.91443,-2.434167 12.17083,-2.434167 10.795,0 17.10973,2.751667 19.79083,8.643057 0.8114,1.834443 1.02307,2.786943 1.1289,5.715 0.38804,9.771943 -4.79779,17.9916625 -14.21696,22.5777725 -4.93887,2.43416995 -12.17083,4.05695 -18.02694,4.05695 -2.46943,0 -3.35139,0.91722 -1.79916,1.94028 0.74083,0.45861 1.27,0.45861 4.69193,0.0353 4.09223,-0.56444 9.8425,-1.72861 11.6064,-2.39889 1.7639,-0.635 4.83307,-2.11666005 6.87917,-3.31611 2.75166,-1.5875 7.86693,-6.84389 9.0311,-9.2780505 0.52917,-1.09361 1.23473,-2.540002 1.5875,-3.210279 1.69333,-3.421946 2.36363,-11.535833 1.23473,-15.204723 -1.86973,-6.17361 -6.8086,-9.701387 -15.24,-11.041943 -3.24556,-0.529167 -10.58333,-0.705557 -12.31193,-0.3175 z"
       id="path6026" />
    <path
       style="stroke-width:0.03527778;fill:#000000"
       inkscape:connector-curvature="0"
       d="m 222.12645,-39.207665 c -0.88194,0.3175 -1.97554,0.81139 -2.46944,1.12889 -1.37583,0.846666 -3.91583,3.351387 -3.91583,3.845277 0,0.635 0,0.635 2.3989,-0.9525 3.21027,-2.151944 5.5386,-2.822223 9.73667,-2.822223 3.9511,0 5.2211,0.282223 8.8547,1.834446 3.5278,1.516943 5.82083,3.351387 7.05556,5.609166 0.91724,1.693334 1.02307,2.293054 1.16417,5.856111 0.1411,3.739443 0.10583,4.092223 -0.74083,5.820833 -1.23473,2.50472 -2.6811,4.162777 -5.60917,6.49111 -4.65667,3.7394425 -8.81943,5.6797225 -14.39333,6.6675025 -4.09223,0.77611 -4.9389,1.05833 -4.9389,1.76389 0,0.84666 0.8114,0.98777 3.59833,0.52916 8.99584,-1.37583 19.50863,-7.8669405 22.43667,-13.8288855 2.61056,-5.256387 1.34056,-14.075833 -2.46944,-17.427221 -1.5875,-1.375833 -6.70276,-3.915833 -9.27806,-4.550833 -2.8222,-0.705556 -9.3486,-0.670279 -11.43,0.03528 z"
       id="path6028" />
    <path
       style="stroke-width:0.03527778;fill:#000000"
       inkscape:connector-curvature="0"
       d="m 214.89451,-29.470998 c -0.10583,2.010833 -0.1411,14.56972 -0.0353,27.9752755 0.0705,13.3702795 0.0353,28.1516695 -0.14113,32.8083295 -0.24694,7.69056 -0.14111,9.59556 0.52916,8.89 0.14113,-0.14111 0.3528,-1.69333 0.52917,-3.4925 0.3528,-4.51555 0.56446,-68.791662 0.21167,-69.356105 -0.635,-0.9525 -0.88194,-0.282223 -1.09361,3.175 z"
       id="path6030" />
    <path
       style="stroke-width:0.03527778"
       inkscape:connector-curvature="0"
       d="m 408.95755,-31.446555 c -0.35277,0.35278 -0.3175,1.905 0.0706,1.905 0.17639,0 0.49389,-0.246943 0.74083,-0.564443 0.38806,-0.423334 0.38806,-0.635 -0.0353,-1.058334 -0.3175,-0.282223 -0.635,-0.388056 -0.77613,-0.282223 z"
       id="path6032" />
    <path
       style="stroke-width:0.03527778"
       inkscape:connector-curvature="0"
       d="m -289.78937,-30.352942 c -0.49389,0.07055 -1.37583,0.211667 -1.94028,0.282221 -2.04611,0.3175 -2.78694,2.963333 -2.25777,8.078612 0.59972,5.961944 1.83444,8.466664 5.04472,10.336386 1.02305,0.59972 3.52778,0.56445 5.08,-0.10583 4.93889,-2.046112 6.17361,-8.431392 2.68111,-13.970002 -0.98778,-1.5875 -5.82083,-4.90361 -6.985,-4.833054 -0.38806,0.03528 -1.12889,0.105834 -1.62278,0.211667 z m 0.70556,3.63361 c 0.3175,0 0.81139,-0.246943 1.05833,-0.529166 0.74083,-0.881944 1.5875,-0.599723 3.52778,1.128889 2.36361,2.116667 3.13972,3.81 3.175,6.843888 0,2.610556 -0.74084,4.1275 -2.68111,5.432776 -2.78695,1.869722 -6.24417,-0.45861 -7.19667,-4.868333 -0.67028,-3.174997 -0.88194,-8.607777 -0.35278,-9.278054 0.45861,-0.493889 0.56445,-0.45861 1.16417,0.352777 0.35278,0.49389 0.9525,0.917223 1.30528,0.917223 z"
       id="path6034" />
    <path
       style="stroke-width:0.03527778"
       inkscape:connector-curvature="0"
       d="m -8.9077237,-4.1415525 c -1.6227703,0.38805 -2.1166603,0.91722 -1.6227703,1.69333 0.24694,0.35278 0.8114003,0.56445 1.4111103,0.52917 0.56446,-0.0353 4.90363,-0.14111 9.66612996,-0.21167 4.76250004,-0.10583 8.92526004,-0.28222 9.27803004,-0.42333 0.3527997,-0.14111 0.5997297,-0.56445 0.5291697,-0.91722 -0.10583,-0.635 -0.6702697,-0.67028 -9.1016697,-0.81139 -4.93887,-0.10584 -9.525,-0.0353 -10.16,0.14111 z"
       id="path6036" />
    <path
       style="stroke-width:0.03527778"
       inkscape:connector-curvature="0"
       d="m 177.64118,-2.5187725 c -0.59973,1.58749995 -1.02306,3.84527 -1.1289,5.96194 l -0.0705,2.01083 -2.5753,-0.10583 c -2.0461,-0.10583 -2.6811,0 -3.175,0.49389 -0.56444,0.52917 -0.56444,0.67028 -0.0705,1.12889 0.4586,0.49389 1.44637,0.635 4.97417,0.84666 0.49387,0.0353 0.635,0.635 0.81137,3.5630595 0.28223,3.59833 0.77613,4.83306 1.65806,3.95111 0.3175,-0.3175 0.3175,-1.19944 -0.0353,-3.59833 -0.52917,-3.7041695 -0.45863,-3.9158395 1.97553,-4.5155595 1.9403,-0.52916 3.10447,-1.27 2.75167,-1.79916 -0.10583,-0.21167 -1.16417,-0.38806 -2.32833,-0.38806 -2.57527,0 -2.75167,-0.28222 -2.11667,-3.4925 0.635,-3.10444 0.6703,-4.69194 0.14113,-4.86833 -0.24696,-0.10584 -0.635,0.28222 -0.8114,0.81139 z"
       id="path6038" />
    <path
       style="stroke-width:0.03527778"
       inkscape:connector-curvature="0"
       d="m -8.4490937,7.4295575 c -1.9050003,0.17639 -2.9986303,0.81139 -2.9986303,1.65805 0,1.1288895 0.59973,1.2699995 4.5155703,0.88195 1.86973,-0.17639 5.82083,-0.35278 8.7136,-0.35278 5.3975,-0.0353 7.1614,-0.38805 6.56167,-1.34055 -0.49387,-0.81139 -11.64167,-1.37584 -16.79221,-0.84667 z"
       id="path6040" />
    <path
       style="stroke-width:0.03527778"
       inkscape:connector-curvature="0"
       d="m -80.133544,16.637057 c -1.55222,0.9525 -4.65666,4.79778 -5.715,7.09083 -1.27,2.71639 -1.23472,5.82084 0.0353,8.29028 1.16417,2.25778 1.79917,2.78694 4.09222,3.52778 1.76389,0.59972 1.94028,0.59972 3.42195,0 2.32833,-0.88195 2.04611,-1.44639 -0.77611,-1.76389 -2.96334,-0.3175 -4.79778,-1.27 -5.32695,-2.78695 -0.70555,-1.97555 -0.52916,-4.79777 0.45861,-6.77333 1.05834,-2.15194 4.48028,-5.64444 6.06778,-6.20889 1.23472,-0.45861 1.44639,-0.91722 0.74084,-1.62278 -0.59973,-0.59972 -1.69334,-0.52916 -2.99862,0.24695 z"
       id="path6042" />
    <path
       style="stroke-width:0.03527778"
       inkscape:connector-curvature="0"
       d="m -71.067154,17.448447 c -2.01084,1.02305 -3.21027,3.13972 -2.32834,4.1275 0.45863,0.49389 0.52917,1.72861 0.45863,7.26722 -0.0706,7.37306 0.10584,8.64306 1.16417,8.64306 0.38804,0 0.70554,-0.21167 0.74083,-0.45862 0,-0.21166 0.0353,-2.46944 0.0705,-4.97416 l 0.0706,-4.55084 2.18723,-0.45861 c 5.3975,-1.09361 7.02027,-3.63361 4.69193,-7.3025 -1.905,-2.99861 -4.16277,-3.73944 -7.05556,-2.29305 z m 4.65666,2.04611 c 1.05834,0.81139 1.86974,2.57528 1.55224,3.35139 -0.4939,1.34055 -5.53861,2.57528 -5.96194,1.48166 -0.21167,-0.56444 0.0353,-4.05694 0.3175,-4.51555 0.67027,-1.09361 2.92804,-1.27 4.0922,-0.3175 z"
       id="path6044" />
    <path
       style="stroke-width:0.03527778"
       inkscape:connector-curvature="0"
       d="m -60.871864,20.094277 c -0.45863,1.16417 -0.88196,10.86556 -0.52916,12.20611 0.2822,1.16417 2.11666,3.28084 3.42193,3.98639 2.25777,1.16417 4.79777,-0.0353 6.42057,-3.03389 1.4111,-2.54 1.62277,-3.81 1.30527,-8.11389 -0.3175,-3.98639 -0.67027,-5.04472 -1.62277,-4.69194 -0.45863,0.17639 -0.4939,0.81139 -0.3175,4.1275 0.24693,3.66889 0.21166,4.02167 -0.635,5.89139 -0.8114,1.86972 -2.75167,3.84528 -3.73947,3.84528 -0.74083,0 -2.1872,-1.12889 -2.71637,-2.15195 -0.635,-1.30528 -0.635,-5.32694 0.0705,-8.96055 0.77613,-4.05695 0.77613,-3.88056 -0.2822,-3.98639 -0.8114,-0.10584 -1.05834,0.0705 -1.37584,0.88194 z"
       id="path6046" />
    <path
       style="stroke-width:0.03527778"
       inkscape:connector-curvature="0"
       d="m 73.148406,21.611227 c -2.25779,0.67027 -5.53863,3.21027 -6.49113,5.00944 -1.16416,2.25778 -0.1411,4.05694 2.96334,5.22111 3.73946,1.41111 4.40973,2.39889 2.8575,4.37445 -1.44637,1.83444 -4.02167,2.54 -5.46804,1.44638 -0.9525,-0.74083 -1.19946,-0.67027 -1.19946,0.35278 0,2.32834 3.28083,3.45722 5.29166,1.83445 0.56447,-0.42334 1.5875,-1.23473 2.2578,-1.76389 1.65804,-1.34056 2.2225,-3.24556 1.48167,-5.00945 -0.45863,-1.05833 -0.9878,-1.48166 -3.59834,-2.71639 -1.65806,-0.81138 -3.13973,-1.69333 -3.21029,-1.97555 -0.42334,-1.09361 4.93889,-5.36222 6.73806,-5.36222 0.74083,0 1.05833,-0.67028 0.56444,-1.23473 -0.49387,-0.59972 -0.77611,-0.59972 -2.18721,-0.17638 z"
       id="path6048" />
    <path
       style="stroke-width:0.03527778;fill:#000000"
       inkscape:connector-curvature="0"
       d="m 234.50895,22.845947 c -0.81137,0.24694 -1.7286,0.67028 -2.01083,0.88194 -0.70554,0.56445 -0.67027,1.65806 0.0353,2.04611 0.52917,0.28223 0.52917,0.74084 0.1411,4.33917 -0.21166,2.2225 -0.49389,5.08 -0.59973,6.38528 l -0.21166,2.39889 h 1.09363 c 0.5997,0 1.19943,0.14111 1.30526,0.35277 0.35277,0.56445 1.86974,0.38806 3.45724,-0.38805 4.16276,-2.11667 5.715,-4.55083 5.715,-8.96056 0,-3.70416 -0.74084,-5.29166 -3.06917,-6.56166 -1.9403,-1.02306 -3.70417,-1.19945 -5.85613,-0.49389 z m 4.86833,2.08139 c 1.69334,0.59972 2.46947,2.2225 2.46947,5.08 0,1.51694 -0.21167,2.64583 -0.70557,3.59833 -1.16417,2.29306 -4.51556,4.33917 -6.45583,3.98639 -1.16417,-0.21167 -1.16417,-0.56445 -0.38807,-5.78556 0.28223,-2.01083 0.4939,-4.33916 0.45863,-5.18583 -0.0706,-1.02306 0.0705,-1.62278 0.38804,-1.83444 0.70556,-0.45862 2.75167,-0.38806 4.23333,0.14111 z"
       id="path6050" />
    <path
       style="stroke-width:0.03527778"
       inkscape:connector-curvature="0"
       d="m 81.720906,24.962607 c -0.38806,1.05834 -0.91723,2.64584 -1.1289,3.52778 -0.35276,1.41111 -0.52916,1.62278 -1.7286,1.94028 -2.8575,0.77611 -3.175,3.13972 -0.35279,2.64583 l 1.30529,-0.21166 -0.14113,2.75166 c -0.21166,3.95111 1.02307,6.17361 3.175,5.60917 1.6228,-0.38806 2.36363,-1.55222 1.69334,-2.61056 -0.21167,-0.35277 -0.45861,-0.38805 -1.19944,-0.0353 -1.4464,0.67027 -2.01083,-0.0353 -2.01083,-2.46945 0,-3.175 0.1411,-3.38666 2.2225,-3.77472 1.4464,-0.24694 1.83443,-0.45861 1.83443,-0.98778 0,-0.49389 -0.42333,-0.81139 -1.48166,-1.19944 -0.84667,-0.24695 -1.51694,-0.70556 -1.51694,-0.9525 0,-0.28222 0.38807,-1.55222 0.88194,-2.89278 0.59973,-1.72861 0.74083,-2.50472 0.45863,-2.82222 -0.70557,-0.88195 -1.3053,-0.45861 -2.01084,1.48166 z"
       id="path6052" />
    <path
       style="stroke-width:0.03527778"
       inkscape:connector-curvature="0"
       d="m 101.05312,25.385947 c -0.21167,0.52916 -0.635,1.83444 -0.9525,2.8575 -0.458614,1.48166 -0.740844,1.905 -1.481674,2.04611 -2.1872,0.45861 -2.61054,1.30528 -1.05833,2.15194 1.02306,0.59973 1.09363,0.74084 0.88196,2.04611 -0.10583,0.74084 -0.28223,1.44639 -0.3528,1.51695 -0.0705,0.0705 -0.74083,0.21167 -1.51693,0.3175 -1.19944,0.17639 -1.48167,0.0705 -1.83444,-0.59972 -0.24696,-0.42334 -0.35279,-1.16417 -0.24696,-1.62278 0.10583,-0.59972 -0.0353,-0.98778 -0.49387,-1.19945 -0.91723,-0.49388 -0.91723,-0.49388 -1.34057,1.19945 -0.28223,1.09361 -0.7761,1.905 -1.69333,2.68111 -1.4464,1.16417 -2.43417,1.27 -3.06917,0.24694 -0.67026,-1.05833 0.42334,-2.43416 2.8575,-3.59833 2.46944,-1.19944 2.92807,-2.2225 1.34057,-2.92805 -1.905,-0.88195 -4.40973,-0.10584 -4.40973,1.30527 0,0.3175 -0.38807,1.12889 -0.88194,1.79917 -1.62279,2.18722 -1.05833,5.32694 1.0936,6.20889 1.48167,0.635 2.92807,0.28222 4.26861,-0.98778 0.74083,-0.67028 0.9525,-0.74083 1.97556,-0.35278 1.4464,0.52917 2.54,0.52917 3.45723,0.0706 0.49387,-0.28222 1.02304,-0.17639 2.11667,0.38805 1.411104,0.70556 1.516934,0.70556 2.998604,0.14112 1.55223,-0.56445 2.96333,-2.08139 2.96333,-3.10445 0,-0.9525 -0.52916,-0.9525 -2.39889,0.0353 -2.32834,1.19944 -3.13971,0.84667 -2.92804,-1.19945 0.21167,-2.50472 0.38804,-2.64583 4.55083,-3.13972 1.19944,-0.17639 1.83444,-0.42333 1.83444,-0.70555 0,-0.70556 -0.67027,-1.02306 -2.64584,-1.23473 l -1.76389,-0.17638 0.14113,-1.23473 c 0.2822,-3.03389 0.21166,-3.66889 -0.38807,-3.81 -0.42333,-0.0705 -0.7761,0.21167 -1.02306,0.88195 z"
       id="path6054" />
    <path
       style="stroke-width:0.03527778;fill:#000000"
       inkscape:connector-curvature="0"
       d="m 293.07008,25.915107 c -0.59973,0.59973 -0.52917,1.65806 0.10583,1.905 0.7761,0.3175 1.79917,-0.84666 1.37584,-1.55222 -0.4939,-0.74083 -0.9525,-0.88194 -1.48167,-0.35278 z"
       id="path6056" />
    <path
       style="stroke-width:0.03527778"
       inkscape:connector-curvature="0"
       d="m 109.76675,27.114557 c -0.3175,0.88194 0.42333,1.97555 1.30526,1.83444 0.88194,-0.10583 1.19944,-1.12889 0.59974,-1.86972 -0.56447,-0.70555 -1.6228,-0.67028 -1.905,0.0353 z"
       id="path6058" />
    <path
       style="stroke-width:0.03527778;fill:#000000"
       inkscape:connector-curvature="0"
       d="m 299.77285,29.760387 c -5.2211,2.61056 -3.4925,9.8425 2.32833,9.8425 1.4464,0 2.3989,-0.70555 2.0814,-1.51694 -0.0706,-0.24695 -0.9878,-0.635 -1.97557,-0.91722 -0.98776,-0.24695 -2.18723,-0.77612 -2.6811,-1.16417 -1.69333,-1.30528 -0.8114,-3.63361 1.76387,-4.72722 0.9878,-0.38806 1.27,-0.70556 1.16417,-1.30528 -0.1411,-1.05833 -0.88194,-1.09361 -2.6811,-0.21167 z"
       id="path6060" />
    <path
       style="stroke-width:0.03527778;fill:#000000"
       inkscape:connector-curvature="0"
       d="m 259.09758,30.289557 c -0.24696,0.3175 -0.77613,0.49389 -1.27,0.38805 -1.16417,-0.21166 -1.41113,0.45862 -1.5875,3.98639 -0.10583,2.96334 -0.10583,2.99861 0.74083,2.99861 0.74084,0 0.9525,-0.3175 1.5875,-2.11666 0.98777,-2.82222 1.19944,-3.13972 1.83444,-2.61056 0.3175,0.24695 0.4939,1.09361 0.4939,2.2225 0,2.11667 0.635,3.28084 1.5875,2.89278 0.52916,-0.17639 0.5997,-0.49389 0.38803,-1.79917 -0.10583,-0.88194 -0.42333,-2.08139 -0.74083,-2.64583 -0.2822,-0.56444 -0.52917,-1.37583 -0.52917,-1.83444 -0.0353,-1.72862 -1.5522,-2.61056 -2.5047,-1.48167 z"
       id="path6062" />
    <path
       style="stroke-width:0.03527778;fill:#000000"
       inkscape:connector-curvature="0"
       d="m 246.60925,31.383167 c -0.88197,1.79917 -0.88197,4.97417 -0.0353,6.24417 0.52917,0.84666 0.8114,0.98777 1.83446,0.81139 0.635,-0.10584 1.27,-0.0706 1.37584,0.10583 0.52916,0.88194 -1.79917,6.87917 -2.82224,7.26722 -1.16416,0.45861 -3.35139,-2.43417 -3.35139,-4.445 0,-0.38805 -0.24694,-0.70555 -0.56444,-0.70555 -1.16417,0 0.28223,5.46805 1.86973,7.12611 0.52917,0.56444 1.12887,0.98777 1.34054,0.98777 0.24696,0 1.1289,-0.67027 2.01083,-1.51694 1.905,-1.79917 2.8928,-4.16278 3.45723,-8.39611 0.21167,-1.62278 0.56444,-3.77472 0.77611,-4.7625 0.21166,-1.02306 0.28223,-2.25778 0.14113,-2.75167 -0.38807,-1.5875 -1.16417,-1.05833 -1.97557,1.34056 -0.38806,1.23472 -1.05833,2.54 -1.4464,2.89278 -0.635,0.56444 -0.74083,0.56444 -1.27,0.0705 -0.4586,-0.49389 -0.49387,-0.81139 -0.1411,-2.18722 0.8114,-3.31611 0.0353,-4.69195 -1.19943,-2.08139 z"
       id="path6064" />
    <path
       style="stroke-width:0.03527778;fill:#000000"
       inkscape:connector-curvature="0"
       d="m 267.49368,30.959837 c -1.48167,1.02305 -2.7164,3.175 -2.7164,4.72722 0,0.59972 0.38807,1.48167 0.91723,2.11667 1.02307,1.23472 2.50474,1.44638 4.51557,0.59972 1.05833,-0.42334 1.30527,-0.42334 1.97554,0.0353 0.67029,0.45861 0.98779,0.49388 1.94029,0.17638 0.59971,-0.24694 1.48167,-0.42333 1.97554,-0.42333 0.84667,0 1.23473,-0.42333 2.46946,-2.64583 0.3175,-0.59972 0.91721,-1.09361 1.37584,-1.16417 0.74083,-0.10583 0.7761,-0.0353 0.56443,1.12889 -0.24693,1.37583 0.21167,2.68111 0.98777,2.68111 0.45863,0 1.19946,-0.74083 3.13973,-3.13972 0.91723,-1.16417 1.4464,-0.74083 1.65807,1.27 0.2822,2.61055 1.44637,3.66889 2.6811,2.43417 0.67027,-0.70556 0.635,-1.41112 -0.21167,-2.15195 -0.52917,-0.45861 -0.70556,-1.09361 -0.70556,-2.25778 0,-1.69333 -0.74084,-3.21027 -1.55221,-3.21027 -0.24696,0 -1.05833,0.49388 -1.79916,1.05833 -1.41113,1.12889 -1.69334,1.09361 -2.43417,-0.42333 -0.52917,-1.09362 -1.7639,-1.19945 -2.8928,-0.3175 -0.52916,0.42333 -1.30527,0.74083 -1.76387,0.74083 -0.67029,0 -0.88196,0.3175 -1.37583,1.94028 -0.42333,1.51694 -0.74083,1.97555 -1.41113,2.15194 -1.5522,0.38806 -2.01083,-0.0353 -1.94027,-1.86972 0.10583,-2.57528 0.0353,-2.92806 -0.4586,-2.92806 -0.28223,0 -0.77613,-0.3175 -1.1289,-0.70555 -0.84667,-0.9525 -2.2225,-0.88195 -3.81,0.17639 z m 3.9864,1.48166 c -0.0353,1.34056 -1.34057,3.59834 -2.2578,3.84528 -1.34053,0.3175 -2.15193,0.0353 -2.25777,-0.84667 -0.17639,-1.23472 0.77611,-2.39888 2.46944,-2.99861 1.97556,-0.70555 2.04613,-0.70555 2.04613,0 z"
       id="path6066" />
    <path
       style="stroke-width:0.03527778"
       inkscape:connector-curvature="0"
       d="m 120.52645,31.171497 c -2.89277,1.16417 -4.51554,3.77473 -3.9511,6.38528 0.52916,2.2225 2.01083,3.45722 4.2686,3.45722 1.27,0 1.83446,-0.14111 1.97556,-0.52916 0.28224,-0.74084 -0.49389,-1.5875 -1.44639,-1.5875 -1.30527,0 -1.94027,-0.35278 -2.50471,-1.48167 -0.77613,-1.48167 -0.21166,-2.64583 1.97554,-4.1275 1.905,-1.30528 1.97556,-1.44639 1.34056,-2.08139 -0.49389,-0.49389 -0.52916,-0.49389 -1.65806,-0.0353 z"
       id="path6068" />
    <path
       style="stroke-width:0.03527778;fill:#000000"
       inkscape:connector-curvature="0"
       d="m 292.11758,31.383167 c -0.14113,0.35278 -0.3175,1.83444 -0.42333,3.28083 -0.1764,2.18723 -0.10584,2.75167 0.38803,3.13973 1.09363,0.91722 1.55223,-0.0353 1.4464,-3.24556 -0.0353,-1.5875 -0.10583,-3.10444 -0.1411,-3.35139 -0.0706,-0.635 -0.9878,-0.52917 -1.27,0.17639 z"
       id="path6070" />
    <path
       style="stroke-width:0.03527778"
       inkscape:connector-curvature="0"
       d="m 110.11951,32.123997 c -0.49389,0.81139 -1.62276,6.17361 -1.44639,6.77334 0.24696,0.77611 1.05833,0.9525 1.44639,0.28222 0.28224,-0.42333 1.09361,-3.52778 1.4464,-5.32695 0.24694,-1.27 -0.88196,-2.64583 -1.4464,-1.72861 z"
       id="path6072" />
    <g
       transform="translate(-178.40476,6.04762)"
       id="g8028">
      <path
         id="path6074"
         d="m 182.05091,90.191217 c -1.02306,0.28223 -1.41113,0.59973 -1.41113,1.09362 0,0.635 0.21167,0.67027 2.8575,0.56444 4.69197,-0.17639 4.86834,1.16417 0.6703,5.57389 -1.55223,1.62278 -2.64583,3.069173 -2.64583,3.492503 0,0.9525 1.44637,2.08139 3.3161,2.57528 1.69333,0.45861 5.11527,0.49389 5.5386,0.0705 0.45863,-0.45861 -0.67027,-1.86972 -1.44637,-1.86972 -1.51696,0 -4.3039,-0.81139 -4.4803,-1.30528 -0.1411,-0.3175 0.52917,-1.270003 1.7639,-2.504723 1.94027,-1.97556 3.06917,-3.95111 3.06917,-5.32694 0,-0.35278 -0.56444,-1.16417 -1.23473,-1.76389 -1.05834,-0.91723 -1.55221,-1.09361 -2.92804,-1.05834 -0.91723,0 -2.29307,0.21167 -3.06917,0.45861 z"
         inkscape:connector-curvature="0"
         style="stroke-width:0.03527778" />
      <path
         id="path6076"
         d="m 114.84675,97.458447 c -2.2578,0.42333 -4.1275,1.69333 -7.3378,5.009443 -4.79777,4.90361 -7.655274,8.78417 -10.124704,13.68778 -2.32834,4.62139 -2.7164,6.06778 -2.8928,11.18305 -0.17637,4.09223 -0.10583,4.93889 0.59973,7.23195 2.18723,7.26722 5.291674,10.26583 13.758334,13.26444 4.72724,1.62278 6.35,1.72861 12.27667,0.56445 1.19944,-0.24695 2.32833,-1.48167 1.86973,-2.04611 -0.3175,-0.38806 -0.74083,-0.35278 -2.25779,0.0353 -2.89277,0.81139 -7.86694,0.38806 -11.46527,-0.91722 -6.35,-2.36361 -8.60777,-4.02167 -10.724444,-7.83167 -2.89279,-5.32694 -3.24556,-11.53583 -0.9525,-17.07444 0.24694,-0.59972 0.38804,-1.27 0.35277,-1.51694 -0.0353,-0.21167 0.10583,-0.42334 0.3175,-0.42334 0.21167,0 0.3175,-0.14111 0.21167,-0.3175 -0.10584,-0.17639 0.0353,-0.77611 0.3175,-1.30527 0.28223,-0.56445 0.52916,-0.88195 0.52916,-0.67028 0,0.35278 2.116674,-2.82222 2.116674,-3.21028 0,-0.10583 -0.1411,-0.0706 -0.35277,0.0353 -0.21166,0.10583 -0.24696,-0.0353 -0.10583,-0.35278 0.10583,-0.35278 0.2822,-0.45861 0.42333,-0.21167 0.1411,0.21167 1.0936,-0.77611 2.15194,-2.15194 2.6811,-3.52778 7.4789,-8.50195 9.41916,-9.77195 1.905,-1.270003 3.81,-1.411113 6.77334,-0.52916 2.15193,0.635 3.3161,0.38805 3.13973,-0.635003 -0.21167,-1.34056 -5.18583,-2.61056 -8.04333,-2.04611 z m -9.41917,9.877773 c -0.3175,0.56445 -0.74083,1.05834 -0.91723,1.05834 -0.3175,0 -0.0353,-0.52917 0.7761,-1.48167 0.8114,-0.9525 0.84667,-0.77611 0.14113,0.42333 z"
         inkscape:connector-curvature="0"
         style="stroke-width:0.03527778;fill:#800080" />
      <path
         id="path6078"
         d="m -103.13465,99.433997 c -2.75166,0.917223 -5.18583,2.398893 -6.31472,3.810003 -0.91722,1.19945 -1.30528,4.02167 -0.635,4.7625 0.35278,0.42334 0.52917,2.04611 0.67028,6.0325 0.35278,11.07722 1.905,27.41083 2.75167,28.99833 0.21166,0.38806 0.635,0.635 0.9525,0.56445 0.77611,-0.14111 0.77611,-1.86972 -0.0353,-8.92528 -0.67028,-5.85611 -1.27,-14.85194 -1.62278,-23.98889 -0.21167,-5.57389 -0.17639,-6.06777 0.42333,-6.77333 1.55223,-1.76389 7.655276,-3.63361 10.195276,-3.10444 2.01084,0.45861 5.00945,1.94027 6.20889,3.10444 0.635,0.59972 1.30528,1.69333 1.48167,2.39889 0.84666,3.06917 -1.19945,9.87778 -3.66889,12.27667 -1.97556,1.905 -7.619996,3.98638 -11.147776,4.05694 -1.37583,0.0353 -1.5875,0.14111 -1.69333,0.84667 -0.28222,2.01083 1.83444,2.11666 7.055546,0.38805 4.23334,-1.37583 7.12611,-2.89278 8.18445,-4.26861 2.01083,-2.68111 3.73944,-8.21972 3.73944,-12.10028 0,-3.06916 -0.77611,-4.40972 -3.73944,-6.35 -4.09222,-2.716393 -8.255,-3.280833 -12.805836,-1.728613 z"
         inkscape:connector-curvature="0"
         style="stroke-width:0.03527778" />
      <path
         id="path6080"
         d="m 173.61951,102.99706 c -0.7761,1.905 -3.3161,9.17222 -5.715,16.15722 -7.23193,21.34305 -8.14916,23.95361 -8.50193,24.05944 -0.635,0.21167 -2.0814,-3.77472 -4.33917,-11.88861 -1.19946,-4.37444 -2.7164,-9.70139 -3.3514,-11.81805 -1.34056,-4.33917 -3.03389,-10.90084 -3.88056,-15.16945 -0.3175,-1.55222 -0.74083,-3.03389 -0.9525,-3.28083 -0.56444,-0.635 -1.69333,-0.52917 -1.69333,0.21167 0,2.04611 2.64583,13.40555 4.90363,20.88444 0.52916,1.83444 1.97553,6.80861 3.1397,11.00667 2.3989,8.50194 4.4803,13.93472 5.46806,14.25222 0.35277,0.10583 0.88194,0 1.16417,-0.24695 0.88194,-0.74083 2.50473,-4.23333 3.45723,-7.40833 0.4586,-1.62278 2.0461,-6.45583 3.4925,-10.72444 1.48167,-4.26861 3.3161,-9.8425 4.1275,-12.34722 1.48167,-4.55084 2.11667,-6.31473 4.48027,-12.27667 1.30527,-3.28083 1.34057,-4.833063 0.1764,-4.833063 -0.45863,0 -0.9878,0.917233 -1.97557,3.421953 z"
         inkscape:connector-curvature="0"
         style="stroke-width:0.03527778" />
      <path
         id="path6082"
         d="m 205.82812,103.63206 c -2.01084,1.05833 -3.31611,2.54 -4.62137,5.29166 -2.18724,4.72723 -2.2578,10.23056 -0.14113,14.78139 0.70556,1.51695 1.16416,2.89278 1.05833,3.06917 -0.10583,0.17639 -0.84667,0.3175 -1.65804,0.35278 -0.8114,0 -2.04613,0.17639 -2.7164,0.42333 -0.9525,0.3175 -1.23473,0.59972 -1.23473,1.30528 0,0.88194 0,0.88194 3.4925,0.88194 h 3.5278 l 0.4586,2.46945 c 1.0936,5.3975 -0.1411,11.88861 -2.54,13.44083 -0.91723,0.59972 -1.0936,0.59972 -3.28083,0.0353 -2.54,-0.67028 -3.28084,-1.16417 -4.51557,-3.175 -0.49387,-0.70556 -1.12887,-1.30528 -1.4111,-1.30528 -0.84667,0 -0.4586,2.78694 0.56444,4.19806 1.09363,1.55222 3.95113,2.92805 6.52639,3.10444 1.79917,0.14111 2.29307,0.0353 3.3514,-0.67028 2.9986,-2.01083 4.5861,-9.13694 3.52777,-15.62805 -0.42333,-2.64584 -0.24693,-2.8575 3.13973,-3.31611 2.89277,-0.38806 3.59834,-0.77612 2.96334,-1.72862 -0.3175,-0.49388 -0.88197,-0.59972 -3.73947,-0.49388 -3.91583,0.10583 -3.7747,0.24694 -5.57387,-4.1275 -1.72863,-4.1275 -1.62279,-9.31334 0.24694,-13.26445 1.94027,-4.02166 5.2211,-5.53861 8.85473,-4.02166 1.34054,0.52916 1.7286,0.3175 1.12887,-0.67028 -1.2347,-1.97556 -4.62137,-2.39889 -7.40833,-0.9525 z"
         inkscape:connector-curvature="0"
         style="stroke-width:0.03527778" />
      <path
         id="path6086"
         d="m 67.821446,123.10539 c -0.0705,0.17639 -0.52917,1.55222 -0.9525,3.10444 -1.48167,5.32695 -2.5047,8.43139 -3.38667,10.08945 -0.98777,2.01083 -0.98777,1.94028 -0.2822,2.2225 0.52917,0.21167 0.98777,-0.59972 2.96333,-5.43278 1.37584,-3.38667 2.82221,-10.23055 2.15194,-10.23055 -0.1764,0 -0.42334,0.10583 -0.4939,0.24694 z"
         inkscape:connector-curvature="0"
         style="stroke-width:0.03527778" />
      <path
         id="path6088"
         d="m 46.866446,123.77567 c -1.83444,0.67028 -4.86833,3.31611 -5.715,5.04472 -1.8697,3.70417 -1.905,9.525 -0.1411,13.47611 2.9986,6.56167 8.50193,9.03111 13.89943,6.20889 1.55223,-0.77611 2.43417,-1.51694 2.92807,-2.36361 0.35277,-0.67028 1.4464,-1.94028 2.3989,-2.82222 l 1.76387,-1.55223 1.62279,1.76389 c 2.9986,3.24556 8.7136,6.63223 9.87777,5.89139 1.1289,-0.70555 0.70557,-1.65805 -1.19943,-2.57528 -2.96334,-1.44638 -5.29167,-3.10444 -6.91447,-4.90361 -2.0461,-2.25777 -3.88053,-4.55083 -4.4097,-5.50333 -0.77613,-1.41111 -6.5264,-9.8425 -7.3025,-10.68917 -0.88196,-1.02305 -3.175,-2.2225 -4.40973,-2.36361 -0.4939,-0.0705 -1.5875,0.10584 -2.3989,0.38806 z m 2.96333,2.29305 c 0.52917,0.17639 1.4464,0.77611 1.97557,1.30528 1.30527,1.23472 9.0664,12.55889 9.0664,13.22917 0,0.67028 -4.05697,4.51555 -5.99724,5.64444 -2.25776,1.30528 -4.19806,1.55222 -6.70276,0.77611 -2.3989,-0.74083 -3.70417,-1.905 -5.15057,-4.7625 -0.88193,-1.69333 -1.02306,-2.39889 -1.16417,-5.75027 -0.17639,-5.43278 0.77611,-7.69056 4.16277,-9.80723 1.72863,-1.12889 2.29307,-1.19944 3.81,-0.635 z m 7.1614,20.56695 c 0,0.10583 -0.1411,0.28222 -0.35277,0.38805 -0.1764,0.10584 -0.35279,0.0353 -0.35279,-0.14111 0,-0.21166 0.17639,-0.38805 0.35279,-0.38805 0.21167,0 0.35277,0.0706 0.35277,0.14111 z m -2.2225,1.12889 c -0.10583,0.10583 -0.42333,0.14111 -0.67027,0.0353 -0.28223,-0.10583 -0.1764,-0.21166 0.21167,-0.21166 0.38804,-0.0353 0.5997,0.0706 0.4586,0.17639 z"
         inkscape:connector-curvature="0"
         style="fill:#000000;stroke-width:0.03527778" />
      <path
         id="path6090"
         d="m 6.1911763,124.12845 c -0.28223,0.0705 -2.9986,0.28222 -5.96193004,0.49388 -5.50333996,0.35278 -7.09083996,0.81139 -7.09083996,1.905 0,0.74084 0.67027,0.84667 3.35137,0.52917 4.55084,-0.49389 11.6064,-1.02305 13.7936297,-1.02305 2.43417,0 3.42194,-0.59973 2.61054,-1.5875 -0.3175,-0.38806 -1.16417,-0.52917 -3.3160997,-0.49389 -1.55223,0.0353 -3.10444,0.10583 -3.38667,0.17639 z"
         inkscape:connector-curvature="0"
         style="stroke-width:0.03527778" />
      <path
         id="path6092"
         d="m -93.539094,134.11206 c -0.81139,0.38805 -1.5875,0.98777 -1.76389,1.34055 -0.17639,0.35278 -0.28222,3.31611 -0.28222,6.63222 v 5.99723 l 2.29305,-0.10584 c 4.02167,-0.17639 6.27945,-1.51694 7.65528,-4.55083 0.98778,-2.11667 1.19945,-5.715 0.45861,-7.51417 -0.9525,-2.25777 -5.25639,-3.175 -8.36083,-1.79916 z m 5.18583,1.79916 c 1.79917,0.9525 1.83445,6.13834 0.0353,8.255 -0.77611,0.88195 -2.99861,1.97556 -4.09222,1.97556 h -0.88195 v -4.72722 c 0,-4.51556 0.0353,-4.79778 0.77611,-5.29167 0.88195,-0.635 3.175,-0.74083 4.16278,-0.21167 z"
         inkscape:connector-curvature="0"
         style="stroke-width:0.03527778" />
      <path
         id="path6094"
         d="m 5.6620063,134.88817 c -7.90223,0.24694 -13.12333,0.77611 -13.72306,1.37583 -0.74083,0.74083 0.28223,1.5875 1.7639,1.48167 0.74083,-0.0353 3.21027,-0.24695 5.43276996,-0.42334 2.22250004,-0.14111 6.45583004,-0.3175 9.41916004,-0.3175 5.3974997,-0.0353 7.1613997,-0.3175 7.1613997,-1.19944 0,-0.74083 -0.7761,-1.30528 -1.7286,-1.23472 -0.52917,0.0353 -4.2333297,0.17639 -8.3255697,0.3175 z"
         inkscape:connector-curvature="0"
         style="stroke-width:0.03527778" />
      <path
         id="path6096"
         d="m -45.208524,138.27483 c -0.635,0.24695 -0.56447,1.48167 0.10583,1.76389 0.2822,0.10584 0.81137,-0.0353 1.0936,-0.35277 0.4586,-0.45862 0.4939,-0.67028 0.10584,-1.09362 -0.45861,-0.59972 -0.59974,-0.635 -1.30527,-0.3175 z"
         inkscape:connector-curvature="0"
         style="stroke-width:0.03527778" />
      <path
         id="path6098"
         d="m -83.273264,141.76733 c -0.35278,0.49389 -0.67028,1.62278 -0.77611,2.54 -0.10583,1.34056 0,1.86973 0.635,2.61056 0.42333,0.56444 1.05833,0.98778 1.41111,0.98778 1.51695,0 1.69334,1.79916 0.42334,4.48028 -0.9525,2.01083 -2.32834,1.79916 -2.75167,-0.45862 -0.28222,-1.51694 -0.98778,-2.15194 -1.72861,-1.55222 -1.34056,1.09361 0.0705,4.7625 2.08139,5.46806 1.44639,0.49388 3.35139,-0.635 4.33916,-2.64583 0.9525,-1.90501 2.32834,-10.51278 1.76389,-11.21834 -0.70555,-0.91722 -1.55222,-0.45861 -2.29305,1.34056 -0.88195,2.11666 -1.62278,2.36361 -1.37584,0.42333 0.10584,-0.70556 0.28223,-1.65806 0.42334,-2.11667 0.21166,-0.67027 0.14111,-0.77611 -0.67028,-0.77611 -0.56445,0 -1.09361,0.3175 -1.48167,0.91722 z"
         inkscape:connector-curvature="0"
         style="stroke-width:0.03527778" />
      <path
         id="path6100"
         d="m -73.818824,142.01428 c -1.19943,0.38805 -1.2347,0.38805 -1.83443,4.05694 -0.42334,2.36361 -0.28223,2.89278 0.67026,2.89278 0.77613,0 1.4464,-0.67028 1.4464,-1.48167 0,-0.35277 0.24694,-1.23472 0.52917,-1.94027 0.42333,-1.02306 0.635,-1.16417 1.02306,-0.84667 0.28221,0.24694 0.59971,1.05833 0.74084,1.79917 0.2822,1.62277 0.9172,2.25777 1.94027,1.94027 0.4586,-0.14111 1.0936,0 1.65806,0.35278 0.67027,0.45861 1.27,0.52917 2.3636,0.35278 0.7761,-0.14111 2.32834,-0.21167 3.38667,-0.17639 4.3039,0.24695 3.9864,0.3175 4.5861,-1.34055 0.52917,-1.5875 1.41113,-2.01084 1.41113,-0.70556 0.0353,2.08139 1.76387,2.18722 2.9986,0.21167 1.02307,-1.5875 1.51694,-1.62278 1.7639,-0.0353 0.35277,2.25778 0.81137,2.99861 1.69333,2.8575 0.74084,-0.10583 0.77611,-0.21167 0.67027,-3.10445 -0.1411,-3.45722 -0.635,-4.58611 -1.97556,-4.33916 -0.4586,0.10583 -1.19944,0.49389 -1.5875,0.84666 -0.9525,0.88195 -1.23471,0.84667 -1.79917,-0.21166 -0.5997,-1.09361 -2.11667,-1.19945 -2.75167,-0.17639 -0.24693,0.38805 -0.74083,0.70555 -1.0936,0.70555 -0.91723,0 -1.34056,0.635 -1.62277,2.39889 -0.17639,1.16417 -0.38806,1.48167 -0.81139,1.41111 -0.45861,-0.10583 -0.59974,-0.56444 -0.67027,-1.86972 -0.0353,-0.98778 -0.0706,-1.97555 -0.0706,-2.18722 -0.0706,-0.84667 -2.32833,-1.48167 -3.88056,-1.09361 -1.19944,0.3175 -1.62277,0.67028 -2.54,2.18722 l -1.12887,1.79917 -0.4939,-1.69334 c -0.35277,-1.23472 -0.7761,-1.86972 -1.62277,-2.36361 -1.27,-0.77611 -1.34056,-0.77611 -2.99863,-0.24694 z m 10.40696,2.54 c 0.0353,0.17639 -0.21166,0.88194 -0.59973,1.48167 -0.8114,1.37583 -2.11666,1.5875 -2.11666,0.38805 0,-1.48167 2.29306,-3.06917 2.71639,-1.86972 z"
         inkscape:connector-curvature="0"
         style="stroke-width:0.03527778" />
      <path
         id="path6102"
         d="m -39.493554,142.54345 c -3.84527,2.11666 -4.44497,6.0325 -1.2347,7.97277 1.7286,0.98778 5.64443,0.67028 5.64443,-0.52916 0,-0.49389 -0.35277,-0.67028 -1.65806,-0.84667 -2.36361,-0.3175 -3.42194,-0.9525 -3.56304,-2.2225 -0.0706,-0.81139 0.17637,-1.27 1.16417,-2.15194 0.70553,-0.59973 1.62276,-1.09362 2.0461,-1.09362 1.16416,0 2.18723,-0.84666 1.905,-1.55222 -0.35277,-0.88194 -2.29307,-0.70555 -4.3039,0.42334 z"
         inkscape:connector-curvature="0"
         style="stroke-width:0.03527778" />
      <path
         id="path6104"
         d="m -45.526024,143.60178 c -0.45863,0.28222 -1.19947,3.45722 -1.19947,5.18583 0,1.05834 0.10584,1.23472 0.84667,1.23472 0.9525,0 1.02307,-0.0706 1.6228,-3.21027 0.5997,-3.03389 0.1411,-4.16278 -1.27,-3.21028 z"
         inkscape:connector-curvature="0"
         style="stroke-width:0.03527778" />
    </g>
    <g
       id="g8194"
       style="fill:#000000">
      <path
         id="path6106"
         d="m 174.693,186.39877 c -3.77477,1.19944 -8.85477,4.62137 -9.9131,6.63221 -1.37583,2.68112 0.59973,4.62139 7.51417,7.37306 1.51696,0.56444 3.31613,1.4464 4.02163,1.94027 2.787,1.905 3.1398,4.79779 0.8467,6.80863 -1.4464,1.27 -3.03387,1.62277 -5.8561,1.30527 -2.78694,-0.28223 -4.19807,-1.02307 -4.19807,-2.18723 0,-1.12888 -0.98777,-1.51694 -1.65803,-0.635 -0.8114,1.12889 -0.42334,2.64583 0.9172,3.56306 1.6228,1.0936 3.31613,1.51694 6.10306,1.51694 1.94027,0 2.71644,-0.17638 4.55084,-1.16417 2.7164,-1.37583 3.8453,-3.03387 3.8453,-5.67971 0,-3.175 -2.0814,-5.18583 -7.54947,-7.3025 -4.86833,-1.86973 -6.56167,-2.99862 -6.56167,-4.40973 0,-0.81139 2.61057,-3.03389 5.00944,-4.23333 2.50473,-1.27 6.1383,-2.3636 6.6675,-2.0461 0.1764,0.10583 0.635,0.0705 1.0231,-0.0353 0.8466,-0.2822 0.9525,-1.4111 0.1411,-1.7286 -0.882,-0.35277 -3.3867,-0.21167 -4.9036,0.28223 z"
         inkscape:connector-curvature="0"
         style="fill:#000000;stroke-width:0.03527778" />
      <path
         id="path6110"
         d="m 314.781,189.50321 c -0.071,0.4586 -0.5291,2.54 -0.9878,4.62139 -0.7408,3.45721 -0.9172,3.88054 -1.7638,4.33917 -1.1289,0.59971 -1.27,1.4111 -0.3528,1.7286 0.5997,0.1764 0.6703,0.56444 0.635,3.13973 -0.035,2.50471 0.071,3.13971 0.7055,3.98638 0.8467,1.12889 2.7164,1.72862 4.1981,1.37583 1.023,-0.24694 2.9986,-2.01083 2.9986,-2.64583 0,-0.56444 -1.6228,-0.45861 -2.1167,0.14112 -0.5644,0.67027 -2.9633,0.70554 -3.4925,0.0353 -0.2469,-0.3175 -0.388,-1.48166 -0.3175,-3.06916 0.1059,-2.82223 0.1059,-2.82223 2.9281,-3.45723 0.9878,-0.24694 1.9403,-0.59971 2.1167,-0.77611 0.5644,-0.56443 -0.882,-1.4111 -2.2931,-1.37583 -0.6703,0.0353 -1.4111,0.0706 -1.6228,0.0353 -0.2469,-0.0353 -0.1058,-1.12887 0.4586,-3.13971 0.4234,-1.69333 0.8114,-3.66889 0.8114,-4.40973 0,-1.16416 -0.1058,-1.30527 -0.8819,-1.30527 -0.635,0 -0.9172,0.21167 -1.0231,0.77611 z"
         inkscape:connector-curvature="0"
         style="fill:#000000;stroke-width:0.03527778" />
      <path
         id="path6112"
         d="m 109.67603,189.85598 c -0.1764,0.24696 -1.02307,1.79916 -1.83444,3.45723 -0.81139,1.62277 -2.01083,3.6336 -2.61056,4.48027 -0.59973,0.81139 -1.55223,2.11666 -2.11667,2.92806 -0.9525,1.4111 -1.02306,1.4464 -1.69333,0.8114 -0.38807,-0.3528 -1.7286,-2.18723 -2.99862,-4.05696 -2.50472,-3.77471 -3.70416,-4.97417 -6.0325,-5.99721 -1.905,-0.84667 -3.4925,-0.635 -5.78555,0.7761 -2.01083,1.27 -3.03389,3.0339 -3.70417,6.5264 -0.59972,3.24554 -0.59972,5.96194 0.0706,8.21971 0.635,2.08139 1.41111,2.92806 3.88055,4.23333 1.48167,0.77613 2.2225,0.91723 4.58611,0.91723 3.45723,-0.0353 5.60917,-0.98777 8.64305,-3.88056 1.09363,-1.05834 2.11667,-1.905 2.2578,-1.905 0.1411,0 1.12887,0.635 2.1872,1.44639 2.96334,2.18723 5.2564,3.13973 7.6553,3.13973 2.54,0 4.48027,-0.74083 4.48027,-1.72862 0,-0.84667 -0.10583,-0.84667 -2.89277,-0.74084 -1.1289,0.0353 -2.78696,-0.17637 -3.70417,-0.49387 -1.62279,-0.56446 -5.78556,-3.38667 -6.0325,-4.09223 -0.0706,-0.21167 0.42334,-1.0936 1.09361,-2.0461 2.96333,-4.05696 3.98639,-5.67973 5.08,-8.07863 1.34056,-2.92804 1.51693,-4.33917 0.49389,-4.33917 -0.35279,0 -0.81139,0.21167 -1.02306,0.42334 z m -17.32139,4.445 c 1.12889,0.74083 2.25777,2.01083 3.91583,4.51556 1.27,1.905 2.75167,3.88056 3.24556,4.33917 0.4939,0.49389 0.91723,0.98777 0.91723,1.16416 0,0.635 -3.73946,4.26861 -5.11529,4.97417 -1.905,1.02306 -5.46806,1.05833 -7.37306,0.0706 -2.50472,-1.27 -2.8575,-2.11666 -2.82222,-6.80862 0.0353,-5.25638 0.70556,-7.26721 2.78695,-8.43138 1.83444,-1.05833 2.54,-1.02306 4.445,0.17638 z"
         inkscape:connector-curvature="0"
         style="fill:#000000;stroke-width:0.03527778" />
      <path
         id="path6114"
         d="m 233.1482,191.83154 c -0.2469,0.1764 -0.5644,0.7761 -0.7408,1.37583 -0.5292,1.83444 -1.9403,14.7814 -1.6933,15.4164 0.4233,1.12887 1.7639,0.52917 2.7164,-1.19946 1.3052,-2.3636 1.8697,-3.03387 2.7164,-3.3161 0.9525,-0.3175 1.27,0.24693 2.3283,3.9511 0.5644,1.97556 0.9525,2.75167 1.4464,2.82223 1.023,0.21167 1.3758,-0.42333 0.9878,-1.7639 -0.2117,-0.635 -0.635,-2.2225 -0.9525,-3.52777 -0.9525,-3.77473 -2.3637,-4.62139 -5.1506,-3.03389 -0.7408,0.42333 -1.4817,0.67029 -1.5875,0.52916 -0.1058,-0.10583 0.071,-2.15193 0.4233,-4.55083 0.9173,-6.45583 0.8467,-7.51417 -0.4939,-6.70277 z"
         inkscape:connector-curvature="0"
         style="fill:#000000;stroke-width:0.03527778" />
      <path
         id="path6116"
         d="m 350.4821,192.14904 c -0.8466,1.02306 -0.9525,1.30527 -1.5522,4.33917 -0.2822,1.62277 -0.8819,3.81 -1.27,4.9036 -1.2347,3.24556 -0.7408,6.31473 1.3053,8.1139 1.7286,1.48166 3.4925,1.97556 5.4328,1.44639 1.658,-0.42333 3.3161,-1.905 3.1397,-2.78696 -0.1411,-0.67027 -1.27,-0.56443 -2.0814,0.1764 -1.3758,1.23473 -4.5861,0.70556 -5.7503,-0.9525 -0.3175,-0.4586 -0.5644,-1.34056 -0.5644,-1.94027 0,-1.1289 0.035,-1.1289 2.0814,-1.37583 2.2225,-0.24696 4.2686,-1.27 4.2686,-2.11667 0,-0.635 -0.2822,-0.635 -2.9634,-0.14113 -2.6105,0.45863 -2.8927,0.21167 -2.1872,-1.905 0.2822,-0.88193 0.7056,-2.57527 0.882,-3.7747 0.2116,-1.19946 0.7055,-2.7164 1.0936,-3.38667 l 0.7761,-1.19946 h -1.0583 c -0.5645,0 -1.27,0.28223 -1.5523,0.59973 z"
         inkscape:connector-curvature="0"
         style="fill:#000000;stroke-width:0.03527778" />
      <path
         id="path6118"
         d="m 214.8391,192.32544 c -0.1764,0.24693 -0.5292,1.48166 -0.7761,2.75166 -1.3053,6.77334 -1.8698,8.50194 -2.7164,8.89 -0.9172,0.42334 -1.1289,1.5875 -0.3881,1.905 0.3528,0.10584 0.4586,0.88194 0.4586,2.61054 -0.035,1.9403 0.1059,2.61057 0.7056,3.42196 1.0583,1.41111 2.6811,1.48167 4.6567,0.21167 2.1872,-1.41113 1.9402,-2.96333 -0.2823,-1.69333 -2.293,1.30527 -3.4925,0.10583 -2.9633,-3.0339 0.3175,-1.7286 0.3881,-1.83444 1.905,-2.3989 1.1642,-0.42333 1.5875,-0.7761 1.5875,-1.27 0,-0.52916 -0.2822,-0.74083 -1.1289,-0.81137 -1.3758,-0.14113 -1.3758,-0.1764 -0.4586,-4.02167 0.9172,-3.98639 1.0583,-6.73806 0.3175,-6.91446 -0.3175,-0.0353 -0.7056,0.10584 -0.9172,0.3528 z"
         inkscape:connector-curvature="0"
         style="fill:#000000;stroke-width:0.03527778" />
      <path
         id="path6120"
         d="m 323.7416,195.64154 c -0.3881,0.42333 -0.3881,0.635 0.035,1.05833 0.4586,0.42334 0.635,0.42334 1.1994,0.0353 0.3881,-0.3175 0.5644,-0.70554 0.4233,-1.0936 -0.2822,-0.70556 -1.0936,-0.74083 -1.658,0 z"
         inkscape:connector-curvature="0"
         style="fill:#000000;stroke-width:0.03527778" />
      <path
         id="path6122"
         d="m 341.2746,195.67681 c -0.4586,0.42333 -0.2469,1.51696 0.247,1.51696 1.1641,0 1.6228,-0.38806 1.2347,-1.09363 -0.3528,-0.67027 -1.0583,-0.88193 -1.4817,-0.42333 z"
         inkscape:connector-curvature="0"
         style="fill:#000000;stroke-width:0.03527778" />
      <path
         id="path6124"
         d="m 204.291,197.01737 c -0.2822,0.70557 0.071,1.5875 0.6703,1.5875 0.5292,0 1.3758,-1.55223 1.0583,-1.905 -0.4233,-0.42333 -1.5522,-0.21166 -1.7286,0.3175 z"
         inkscape:connector-curvature="0"
         style="fill:#000000;stroke-width:0.03527778" />
      <path
         id="path6126"
         d="m 294.3552,197.33487 c -4.057,1.4464 -7.1614,6.0325 -6.2795,9.27807 0.882,3.3161 3.1398,4.23333 5.8209,2.39887 1.5522,-1.05833 1.4464,-1.05833 2.6811,-0.17637 0.8114,0.56443 1.1994,0.635 1.905,0.35277 1.1642,-0.42334 1.1642,-0.56444 -0.1058,-1.62277 -1.3053,-1.09363 -1.6228,-2.75167 -1.1289,-6.35 0.388,-2.61057 0.3527,-2.78696 -0.3881,-3.56307 -0.8819,-0.9525 -0.7761,-0.91723 -2.5047,-0.3175 z m 0.7055,4.3039 c -0.2822,2.9986 -1.7638,5.92667 -3.1044,6.06777 -0.6703,0.0706 -0.9878,-0.10583 -1.3053,-0.8114 -0.9172,-2.01083 -0.2822,-3.84527 2.2225,-6.27943 2.0461,-1.97557 2.4342,-1.79917 2.1872,1.02306 z"
         inkscape:connector-curvature="0"
         style="fill:#000000;stroke-width:0.03527778" />
      <path
         id="path6128"
         d="m 246.6244,198.42848 c -0.3528,0.88196 0.1058,1.55223 0.9172,1.34056 0.9525,-0.24694 1.3405,-1.1289 0.6703,-1.55223 -0.7409,-0.4586 -1.3759,-0.38804 -1.5875,0.21167 z"
         inkscape:connector-curvature="0"
         style="fill:#000000;stroke-width:0.03527778" />
      <path
         id="path6130"
         d="m 304.233,198.92237 c -2.0461,1.30527 -3.7748,3.91584 -3.7748,5.64444 0,2.68113 2.2931,4.7625 5.0448,4.55083 1.1994,-0.0705 1.4816,-0.24693 1.4816,-0.7761 0,-0.4939 -0.4586,-0.8114 -1.5875,-1.19944 -1.905,-0.635 -2.4341,-1.27 -2.4694,-2.8575 0,-0.9525 0.3175,-1.51696 1.7286,-2.89279 0.9878,-1.02304 2.0108,-1.7286 2.4694,-1.7286 0.5998,0 0.7762,-0.1764 0.6703,-0.8114 -0.1764,-1.19944 -1.5875,-1.16417 -3.563,0.0706 z"
         inkscape:connector-curvature="0"
         style="fill:#000000;stroke-width:0.03527778" />
      <path
         id="path6132"
         d="m 336.1946,198.67544 c -0.635,0.84666 -1.4816,2.96333 -1.8344,4.5861 -0.4939,2.18723 -1.0936,3.45723 -1.6581,3.45723 -0.5644,0 -1.1994,-1.905 -1.1994,-3.70417 0,-1.97556 -0.6703,-2.89279 -1.7286,-2.32833 -0.7056,0.38804 -0.7761,0.59971 -0.5645,2.43417 0.3175,2.46943 1.1995,4.55083 2.3989,5.6797 0.8467,0.77613 1.0231,0.8114 2.0461,0.38807 1.2348,-0.52917 2.2578,-2.50473 2.8223,-5.46807 0.1763,-0.9525 0.6702,-2.39887 1.0583,-3.24554 0.388,-0.81139 0.635,-1.65806 0.4939,-1.86973 -0.3175,-0.49389 -1.4464,-0.4586 -1.8345,0.0706 z"
         inkscape:connector-curvature="0"
         style="fill:#000000;stroke-width:0.03527778" />
      <path
         id="path6134"
         d="m 367.6977,200.7921 c -0.2822,0.45861 -0.7056,1.51694 -0.9172,2.39888 -0.5645,2.15196 -1.6581,3.59833 -2.5753,3.45723 -1.1995,-0.1764 -1.517,-1.09361 -1.0231,-2.92807 0.4939,-1.79916 0.3528,-2.29304 -0.635,-2.29304 -1.0583,0 -1.7639,1.37584 -1.7639,3.38667 0,1.51694 0.1764,2.01083 1.0231,2.92804 0.8114,0.88196 1.3053,1.09363 2.4694,1.09363 1.27,0 1.4464,0.10583 1.4464,0.81137 0,1.4464 -1.0583,4.97417 -1.9755,6.49113 -1.0584,1.79916 -2.0109,1.97554 -3.5984,0.635 -1.8697,-1.55223 -2.293,-1.09363 -1.1288,1.2347 1.1641,2.29307 2.54,2.68113 4.6566,1.23473 2.0109,-1.37583 3.6336,-5.04473 4.8684,-11.18306 1.1641,-5.5386 1.27,-6.985 0.635,-7.62 -0.5998,-0.59971 -0.9173,-0.52917 -1.4817,0.35279 z"
         inkscape:connector-curvature="0"
         style="fill:#000000;stroke-width:0.03527778" />
      <path
         id="path6136"
         d="m 198.8935,200.82737 c -0.2116,0.28223 -0.8819,2.01084 -1.4816,3.88057 -0.635,2.01083 -1.3053,3.42193 -1.5523,3.42193 -0.2469,0 -0.9877,-0.635 -1.5875,-1.4111 -0.5997,-0.77613 -1.3405,-1.41113 -1.5875,-1.41113 -0.2469,0 -0.9525,0.42334 -1.5522,0.91723 -1.4464,1.19944 -1.9755,0.77611 -2.5047,-1.905 -0.2117,-1.0936 -0.4586,-2.3636 -0.5645,-2.82223 -0.1763,-0.88193 -1.2347,-1.05833 -1.905,-0.24693 -0.7408,0.88193 0.7409,6.985 2.152,8.78416 0.9525,1.19944 1.658,1.16417 2.7869,-0.21166 l 0.9525,-1.1289 1.3053,1.1289 c 0.8114,0.70556 1.6581,1.12889 2.2931,1.12889 1.905,0 2.7164,-1.30529 4.2686,-6.80862 0.4233,-1.37584 0.8466,-2.82221 0.9525,-3.175 0.1411,-0.45861 0,-0.59971 -0.7056,-0.59971 -0.4586,0 -1.0583,0.21167 -1.27,0.4586 z"
         inkscape:connector-curvature="0"
         style="fill:#000000;stroke-width:0.03527778" />
      <path
         id="path6138"
         d="m 131.26603,201.4271 c -0.91723,0.35277 -1.37583,1.37584 -0.84667,1.905 0.52917,0.52917 5.78554,0.24694 7.26721,-0.35279 1.27,-0.52917 1.5875,-1.34054 0.635,-1.69333 -0.81137,-0.3175 -6.20887,-0.21167 -7.05554,0.14112 z"
         inkscape:connector-curvature="0"
         style="fill:#000000;stroke-width:0.03527778" />
      <path
         id="path6140"
         d="m 323.0713,201.7446 c -0.4939,0.88194 -0.071,5.22111 0.5644,5.75027 0.8114,0.635 1.27,-0.17639 1.4464,-2.50473 0.2117,-2.75166 -0.1058,-3.91583 -0.9877,-3.91583 -0.3881,0 -0.8467,0.28223 -1.0231,0.67029 z"
         inkscape:connector-curvature="0"
         style="fill:#000000;stroke-width:0.03527778" />
      <path
         id="path6142"
         d="m 340.2516,201.67404 c -0.7761,0.91723 -0.3881,6.91444 0.4586,7.09083 0.7408,0.14111 1.023,-0.635 1.27,-3.4925 0.3175,-3.73943 -0.3881,-5.15056 -1.7286,-3.59833 z"
         inkscape:connector-curvature="0"
         style="fill:#000000;stroke-width:0.03527778" />
      <path
         id="path6144"
         d="m 205.0319,202.27377 c -0.4939,0.35277 -0.7056,1.16417 -0.882,3.59833 -0.2822,3.35138 -0.2469,3.66888 0.5292,3.66888 0.9172,0 1.5169,-1.51694 1.6933,-4.30388 0.2117,-2.99862 -0.1764,-3.84529 -1.3405,-2.96333 z"
         inkscape:connector-curvature="0"
         style="fill:#000000;stroke-width:0.03527778" />
      <path
         id="path6146"
         d="m 222.2827,203.36737 c -2.54,2.57527 -2.8575,5.2564 -0.8467,7.26723 0.7761,0.77611 1.3406,1.02304 2.3989,1.02304 1.8697,0 2.54,-0.2822 2.54,-1.05833 0,-0.70554 -0.6703,-1.05833 -1.9403,-1.05833 -0.9172,0 -1.9402,-1.19944 -1.9402,-2.25777 0,-0.91723 1.3758,-2.89277 2.3988,-3.45723 1.0937,-0.56444 0.9173,-1.86971 -0.2469,-1.905 -0.5644,-0.0353 -1.3406,0.45862 -2.3636,1.44639 z"
         inkscape:connector-curvature="0"
         style="fill:#000000;stroke-width:0.03527778" />
      <path
         id="path6148"
         d="m 256.4316,203.0146 -1.3759,1.23471 -0.4233,-0.91721 c -0.388,-0.84666 -0.4586,-0.88196 -1.1994,-0.38806 -0.4234,0.28223 -0.7761,0.635 -0.8114,0.8114 0,0.17637 -0.1411,1.5522 -0.2822,3.03387 -0.3528,3.42196 0,4.3039 1.5169,3.77473 0.8819,-0.3175 1.2347,-0.8114 2.0108,-2.89277 1.5875,-4.1275 2.2225,-4.445 3.1398,-1.5875 1.023,3.28083 1.3052,3.81 1.9402,3.81 0.8114,0 1.1289,-0.84667 0.7409,-1.86973 -0.1764,-0.42333 -0.4234,-1.55223 -0.5645,-2.54 -0.5644,-3.9511 -2.1519,-4.79777 -4.6919,-2.46944 z"
         inkscape:connector-curvature="0"
         style="fill:#000000;stroke-width:0.03527778" />
      <path
         id="path6150"
         d="m 269.943,202.09737 c -2.152,0.28223 -2.9281,0.70557 -4.3392,2.29307 -2.9633,3.38666 -1.0936,6.9497 3.3161,6.38527 l 1.905,-0.21167 v 1.86973 c 0,3.13971 -0.8467,5.96194 -2.0814,7.05554 -1.1994,1.05833 -3.0691,1.34056 -3.8453,0.56446 -0.635,-0.635 -0.5291,-2.25779 0.2823,-3.81 0.8466,-1.65806 0.8819,-2.43417 0.1764,-2.68113 -0.7762,-0.3175 -1.5875,0.4939 -2.5048,2.50473 -1.023,2.15194 -1.0583,3.175 -0.1411,4.69194 1.4464,2.36363 4.5156,2.36363 7.1967,0.0353 2.0814,-1.83446 2.4694,-3.21029 3.2455,-11.25362 0.3175,-3.38667 0.635,-6.24417 0.7056,-6.31471 0.071,-0.0706 -0.1058,-0.45863 -0.4586,-0.8114 -0.5997,-0.67027 -0.635,-0.67027 -3.4572,-0.3175 z m 1.2347,3.59834 c 0,1.0936 -0.2117,1.65806 -1.0231,2.46943 -1.1289,1.1289 -1.658,1.23473 -3.0339,0.59973 -1.0936,-0.49389 -1.1641,-1.5875 -0.1058,-2.96333 1.0936,-1.4111 1.3406,-1.55223 2.8575,-1.55223 1.3053,0 1.3053,0 1.3053,1.4464 z"
         inkscape:connector-curvature="0"
         style="fill:#000000;stroke-width:0.03527778" />
      <path
         id="path6152"
         d="m 246.1305,203.15571 c -0.1764,0.38806 -0.3528,2.11666 -0.3528,3.88056 0,3.175 0,3.21027 0.8819,3.21027 0.635,0 0.9173,-0.21167 1.0231,-0.8114 0.3175,-1.44637 0.5292,-5.92666 0.3175,-6.45583 -0.2822,-0.70554 -1.4464,-0.59971 -1.8697,0.1764 z"
         inkscape:connector-curvature="0"
         style="fill:#000000;stroke-width:0.03527778" />
    </g>
    <g
       id="g8169"
       transform="translate(988.78571,381)"
       style="fill:#800080">
      <path
         id="path6156"
         d="m -892.40436,-142.73284 c -1.94029,0.56446 -6.49113,3.38667 -8.07863,4.9389 -0.88193,0.88194 -2.01082,2.46944 -2.50471,3.52777 -0.91722,1.94029 -2.04611,7.4789 -2.04611,9.8425 0.0353,3.38667 1.97555,8.00806 4.09222,9.87779 2.46944,2.18721 6.35,2.71638 8.29027,1.12888 1.19946,-0.9525 0.56446,-1.55221 -1.4111,-1.27 -3.91583,0.52916 -7.62,-2.68111 -8.46667,-7.3025 -0.81139,-4.19804 0.59972,-10.75971 2.9986,-13.89944 0.45863,-0.635 2.15197,-1.86973 3.73947,-2.82223 1.62277,-0.91721 3.10443,-1.86971 3.28083,-2.11667 0.21167,-0.24693 0.67027,-0.49387 1.05833,-0.56443 0.42334,-0.0706 0.70554,-0.38807 0.70554,-0.77611 0,-0.81139 -0.38804,-0.9525 -1.65804,-0.56446 z"
         inkscape:connector-curvature="0"
         style="stroke-width:0.03527778;fill:#800080" />
      <path
         id="path6158"
         d="m -840.22855,-133.59588 c -2.5047,1.76388 -3.91583,3.28084 -5.08,5.50334 -2.89277,5.46804 1.09363,12.17083 7.19667,12.17083 2.8575,0 3.4925,-1.16417 0.88196,-1.5875 -2.2578,-0.38806 -3.59833,-0.91723 -4.72723,-1.86973 -3.10444,-2.61056 -2.61057,-7.7611 1.0936,-11.1125 1.9403,-1.7639 4.83306,-3.175 5.8914,-2.92806 0.67027,0.17639 0.84666,0.0706 0.84666,-0.45861 0,-0.81139 -0.67026,-1.0936 -2.61056,-1.0936 -1.16417,0 -1.94027,0.3175 -3.4925,1.37583 z"
         inkscape:connector-curvature="0"
         style="stroke-width:0.03527778;fill:#800080" />
      <path
         id="path6160"
         d="m -782.90215,-130.84421 c -1.79917,4.97417 -2.43417,6.4911 -2.9986,6.87917 -0.52917,0.42333 -0.56447,0.81137 -0.24697,3.42193 0.4939,4.48027 1.79917,5.85611 4.65667,5.00944 1.9403,-0.59971 2.3989,-0.98777 2.3989,-2.0461 0,-0.56444 -0.1411,-0.8114 -0.42334,-0.67027 -0.24693,0.0705 -1.05833,0.35277 -1.83443,0.5997 -1.27,0.42334 -1.41113,0.38807 -2.01083,-0.35277 -0.6703,-0.81139 -0.88197,-2.9986 -0.38807,-3.81 0.1411,-0.21166 1.16417,-0.56443 2.32833,-0.7761 2.18724,-0.38806 3.0339,-0.88196 3.0339,-1.65806 0,-0.35277 -0.52916,-0.4939 -2.04613,-0.4939 -1.12887,0 -2.15193,-0.10583 -2.25777,-0.21167 -0.1411,-0.10583 0.3175,-1.34054 0.9525,-2.75166 1.65807,-3.66888 1.72861,-5.15054 0.21167,-5.15054 -0.4586,0 -0.84667,0.56443 -1.37583,2.01083 z"
         inkscape:connector-curvature="0"
         style="stroke-width:0.03527778;fill:#800080" />
      <path
         id="path6162"
         d="m -790.13409,-131.197 c -0.14113,0.10583 -0.24696,0.59973 -0.24696,1.05833 0,0.9525 1.05833,1.1289 1.7639,0.28223 0.70556,-0.84667 -0.74084,-2.15194 -1.51694,-1.34056 z"
         inkscape:connector-curvature="0"
         style="stroke-width:0.03527778;fill:#800080" />
      <path
         id="path6166"
         d="m -819.48522,-127.84561 c -1.16416,0.70557 -1.8697,1.7639 -2.6811,4.09223 -0.635,1.905 -0.74083,2.96334 -0.70556,7.54944 0.0353,5.75027 0.3175,6.77333 1.48166,5.715 0.56447,-0.4939 0.6703,-1.1289 0.6703,-3.6689 v -3.03387 l 1.16417,-0.42333 c 1.48166,-0.52917 3.98637,-2.64584 4.65666,-3.9864 0.28221,-0.52917 0.52917,-1.62277 0.52917,-2.3989 0,-1.16416 -0.24696,-1.65804 -1.34057,-2.8575 -1.44639,-1.48166 -2.46943,-1.7286 -3.77473,-0.98777 z m 2.2578,2.61057 c 0.98777,1.27 0.9172,2.25777 -0.28223,3.9511 -1.05834,1.4111 -2.3636,2.18723 -2.82223,1.5875 -0.14111,-0.1411 -0.17637,-1.34056 -0.10584,-2.61056 0.1764,-3.52777 1.69334,-4.86834 3.2103,-2.92804 z"
         inkscape:connector-curvature="0"
         style="stroke-width:0.03527778;fill:#800080" />
      <path
         id="path6168"
         d="m -753.93909,-126.54034 c -1.65806,1.19946 -2.8575,2.64584 -3.13973,3.81 -0.3175,1.19946 0.1411,3.2103 0.9525,4.02167 0.88194,0.88196 3.13973,0.88196 4.23333,0 1.05834,-0.84667 0.635,-1.37583 -1.23473,-1.51694 -0.7761,-0.0706 -1.51693,-0.35277 -1.7286,-0.67027 -0.59973,-0.9525 0.38807,-2.71639 2.2225,-3.95112 1.4464,-0.98777 1.62277,-1.23471 1.37583,-1.94027 -0.38806,-1.02307 -0.98776,-0.98777 -2.6811,0.24693 z"
         inkscape:connector-curvature="0"
         style="stroke-width:0.03527778;fill:#800080" />
      <path
         id="path6170"
         d="m -746.91882,-125.94061 c -1.4464,1.16417 -2.18723,2.57527 -2.18723,4.26861 0,2.89279 2.36363,4.83306 5.7503,4.62139 1.5875,-0.10583 1.83443,-0.21166 1.94026,-0.88193 0.10584,-0.635 -0.10583,-0.8114 -1.23473,-0.9878 -2.46943,-0.38804 -2.89277,-0.52916 -3.4572,-1.0936 -0.9525,-0.9525 -0.4939,-1.69333 1.16417,-1.94027 1.8697,-0.24696 2.57526,-0.91723 2.75166,-2.61056 0.10584,-1.16417 0,-1.34057 -1.09363,-1.79917 -1.69333,-0.70556 -2.29303,-0.635 -3.6336,0.42333 z"
         inkscape:connector-curvature="0"
         style="stroke-width:0.03527778;fill:#800080" />
      <path
         id="path6172"
         d="m -876.45882,-126.01117 c -0.21167,0.21167 -0.35277,0.635 -0.35277,0.98779 0,0.56444 0.35277,0.635 3.28084,0.635 3.52776,0 4.79776,-0.45862 4.37443,-1.55223 -0.21167,-0.52916 -0.70554,-0.59973 -3.59833,-0.49389 -1.86971,0.0353 -3.52777,0.24696 -3.70417,0.42333 z"
         inkscape:connector-curvature="0"
         style="stroke-width:0.03527778;fill:#800080" />
      <path
         id="path6174"
         d="m -831.40909,-125.76421 c -1.48166,0.7761 -3.42196,3.4925 -3.42196,4.79777 0,2.89277 2.8928,4.19806 5.60917,2.54 l 1.19946,-0.70556 0.98777,1.05833 c 0.59973,0.67029 1.34056,1.09363 1.86973,1.09363 1.16417,0 1.16417,-0.56446 0.0705,-2.75167 -0.45861,-0.91723 -0.91721,-2.32833 -1.05834,-3.175 -0.1411,-1.05833 -0.56443,-1.79917 -1.37583,-2.54 -1.34054,-1.23473 -2.0461,-1.27 -3.88054,-0.3175 z m 2.82221,2.9986 c -0.28221,1.69334 -1.51694,3.0339 -2.71637,2.89277 -1.27,-0.1411 -1.27,-1.27 0,-2.8575 0.7761,-0.88193 1.4111,-1.30527 2.01083,-1.30527 0.84667,0 0.88193,0.0706 0.70554,1.27 z"
         inkscape:connector-curvature="0"
         style="stroke-width:0.03527778;fill:#800080" />
      <path
         id="path6176"
         d="m -808.61965,-125.44671 c -3.3514,1.905 -4.55084,4.9036 -2.78694,6.94971 0.67027,0.77612 1.0936,0.9525 2.29304,0.91723 0.8114,-0.0353 2.01083,-0.38807 2.64583,-0.77611 l 1.16417,-0.74083 0.8114,0.88194 c 0.9525,0.98777 2.15193,1.12889 2.8575,0.3175 0.35277,-0.45861 0.28223,-0.67027 -0.4939,-1.41111 -0.81137,-0.74083 -0.9525,-1.16416 -0.9525,-2.92806 0,-1.83444 -0.10583,-2.0814 -0.88194,-2.43417 -0.49389,-0.21166 -0.88193,-0.635 -0.88193,-0.91723 0,-0.49387 -0.74083,-0.9172 -1.51696,-0.9172 -0.24694,0 -1.23471,0.49387 -2.25777,1.05833 z m 3.42193,2.11667 c 0,1.37583 -2.39887,3.98637 -3.56303,3.81 -0.42334,-0.0706 -0.9525,-0.38807 -1.16417,-0.70557 -0.28223,-0.49389 -0.14113,-0.84666 0.81137,-1.83443 1.05833,-1.09363 2.96333,-2.29307 3.6689,-2.32834 0.1411,0 0.24693,0.45861 0.24693,1.05834 z"
         inkscape:connector-curvature="0"
         style="stroke-width:0.03527778;fill:#800080" />
      <path
         id="path6178"
         d="m -798.77715,-125.94061 c -0.9525,0.67027 -2.18723,2.99861 -2.18723,4.1275 0,3.24557 3.13973,5.29167 5.32696,3.42194 0.74083,-0.59971 0.7761,-0.74083 0.3175,-1.05833 -0.28223,-0.17638 -1.05833,-0.35277 -1.69333,-0.35277 -0.91724,0 -1.23474,-0.1764 -1.48167,-0.91723 -0.42333,-1.02304 0.2822,-2.71638 1.37583,-3.28084 0.88194,-0.49387 1.19944,-1.4111 0.70554,-2.01083 -0.52917,-0.635 -1.37583,-0.635 -2.3636,0.0706 z"
         inkscape:connector-curvature="0"
         style="stroke-width:0.03527778;fill:#800080" />
      <path
         id="path6180"
         d="m -761.91188,-125.44671 c -1.41111,0.7761 -2.36361,0.91721 -2.36361,0.35277 0,-0.21167 -0.3175,-0.35277 -0.70556,-0.35277 -0.9172,0 -1.34054,1.0936 -1.5522,4.19804 -0.14113,1.86973 -0.0353,2.54 0.35276,2.8575 0.67027,0.59973 1.37584,-0.0353 2.43417,-2.15194 0.4586,-0.91723 1.1289,-1.94027 1.4464,-2.25777 0.5997,-0.56446 0.635,-0.56446 1.0936,0.0353 0.24694,0.35277 0.4586,0.98777 0.4586,1.41111 0,0.9525 0.84667,1.69333 1.5875,1.41112 1.05834,-0.38806 -0.0353,-6.20889 -1.16416,-6.20889 -0.14111,0 -0.84667,0.3175 -1.5875,0.70556 z"
         inkscape:connector-curvature="0"
         style="stroke-width:0.03527778;fill:#800080" />
      <path
         id="path6182"
         d="m -792.14492,-125.65838 c 0,0.0705 -0.21167,1.34054 -0.4939,2.78694 -0.28223,1.4464 -0.4586,2.92806 -0.38806,3.28083 0.0706,0.38807 0.14113,0.8114 0.14113,0.9525 0.0705,0.4939 1.51693,0.10584 1.79916,-0.4586 0.42334,-0.8114 1.12887,-5.96196 0.88194,-6.35 -0.21167,-0.3175 -1.94027,-0.52917 -1.94027,-0.21167 z"
         inkscape:connector-curvature="0"
         style="stroke-width:0.03527778;fill:#800080" />
      <path
         id="path6184"
         d="m -774.50605,-125.23504 c -1.65804,1.05833 -2.8222,2.96333 -2.8222,4.62137 0,1.97556 0.88193,2.92806 2.78693,2.92806 0.98777,0 1.7286,-0.28223 2.54,-0.9525 0.7761,-0.67027 1.4464,-0.9525 2.15194,-0.84666 0.67029,0.0706 1.05833,-0.10584 1.19946,-0.4939 0.24693,-0.635 -0.8114,-4.33917 -1.4464,-4.97417 -0.635,-0.74083 -3.42193,-0.88193 -4.40973,-0.2822 z m 2.75167,2.54 c 0.17639,1.12887 -1.19944,2.89277 -2.2225,2.89277 -1.05834,0 -1.37584,-0.4939 -1.09361,-1.62277 0.24694,-0.88196 2.18724,-2.36363 2.8575,-2.15196 0.21167,0.0706 0.38807,0.45862 0.45861,0.88196 z"
         inkscape:connector-curvature="0"
         style="stroke-width:0.03527778;fill:#800080" />
    </g>
    <path
       style="stroke-width:0.03527778"
       inkscape:connector-curvature="0"
       d="m -884.53742,-93.62617 c -1.34057,3.77473 -3.59833,11.00667 -5.50333,17.92113 -2.68111,9.525 -4.37444,14.04054 -5.15057,13.54666 -0.21167,-0.14112 -1.02304,-1.51696 -1.7286,-3.10446 -1.30527,-2.8222 -2.01083,-4.97416 -3.52777,-10.6186 -3.28085,-12.2061 -3.88057,-14.18167 -4.6214,-14.95777 -0.81139,-0.84667 -1.37583,-0.9525 -1.37583,-0.24696 0,0.28223 0.38805,1.79917 0.84666,3.42196 1.37584,4.79777 3.63361,12.98221 4.48027,16.1925 1.9403,7.4436 6.13834,15.48694 7.40834,14.21694 0.1764,-0.1764 0.8114,-1.83444 1.37583,-3.6689 0.52917,-1.83444 1.23473,-4.02167 1.51696,-4.9036 1.69334,-5.08 4.19804,-13.29973 4.83304,-15.94557 0.77613,-3.28083 1.72863,-6.10304 3.5278,-10.83027 1.19943,-3.13973 1.16416,-3.98639 -0.21167,-4.19806 -0.56446,-0.0705 -0.88196,0.4939 -1.86973,3.175 z"
       id="path6192" />
    <path
       style="stroke-width:0.03527778"
       inkscape:connector-curvature="0"
       d="m -839.06438,-83.78367 c -1.19944,0.635 -2.89277,1.79917 -3.73944,2.61056 -1.34056,1.27 -1.55223,1.65807 -1.55223,2.92807 0,1.8697 1.23473,3.1397 4.9389,5.15054 2.46943,1.37583 2.64583,1.55223 2.75166,2.71639 0.10584,1.1289 -0.0706,1.41111 -1.23473,2.32834 -2.9986,2.3636 -4.0922,2.43416 -6.27943,0.42333 -0.84667,-0.7761 -1.7286,-1.34056 -1.94027,-1.19944 -0.91723,0.56444 0.0353,3.10444 1.62277,4.37444 1.65806,1.30527 3.24556,0.98777 6.38527,-1.1289 3.24556,-2.2225 4.445,-3.9511 3.95113,-5.64443 -0.42334,-1.48167 -1.02307,-2.01084 -4.72724,-4.23334 -2.01083,-1.19943 -3.21026,-2.11666 -3.28083,-2.57527 -0.1411,-1.02306 1.55223,-2.57529 4.05694,-3.73946 2.15196,-1.02304 2.61056,-1.05833 4.58613,-0.4586 1.16416,0.35277 1.51693,-1.16417 0.4586,-2.01083 -1.23473,-0.98777 -3.42194,-0.8114 -5.99723,0.4586 z"
       id="path6196" />
    <path
       style="stroke-width:0.03527778"
       inkscape:connector-curvature="0"
       d="m -747.65965,-84.41867 c -0.21167,0.28223 -0.70557,2.15196 -1.1289,4.16279 -0.38804,2.01084 -1.27,5.08 -1.94027,6.84388 -0.70556,1.72862 -1.5875,4.16279 -2.01083,5.3975 -1.16417,3.28083 -1.62277,2.89279 -2.9986,-2.57527 -0.59974,-2.54 -1.4464,-6.17361 -1.86974,-8.1139 -0.7761,-3.81 -1.44639,-5.2211 -2.3636,-5.04471 -0.9525,0.21167 -0.635,2.82221 1.37584,10.86554 1.905,7.62 2.92803,10.1953 4.4097,11.1478 0.84667,0.56443 0.91723,0.56443 1.55223,-0.0706 0.35277,-0.35277 1.02307,-2.01083 1.4464,-3.66889 0.42333,-1.65804 1.44637,-4.83304 2.29304,-7.09084 1.905,-5.08 3.21029,-11.0772 2.61056,-11.81804 -0.52917,-0.635 -0.84667,-0.635 -1.37583,-0.0353 z"
       id="path6198" />
    <path
       style="stroke-width:0.03527778"
       inkscape:connector-curvature="0"
       d="m -790.59272,-82.72534 c -0.74083,1.23473 -2.32833,7.58473 -2.5047,10.05417 -0.21167,2.99863 0.17637,4.3039 1.76387,6.0325 0.84667,0.9525 2.43417,1.05833 3.06917,0.28223 0.52916,-0.635 0.24696,-1.05833 -1.12887,-1.7286 -0.45863,-0.24696 -1.02307,-1.02307 -1.34057,-1.86973 -0.42333,-1.30527 -0.42333,-1.79917 0.0706,-4.23334 0.3175,-1.51693 0.9172,-3.84527 1.30526,-5.18583 0.67027,-2.29306 0.70557,-2.50473 0.14111,-3.10444 -0.67027,-0.74083 -1.02304,-0.81139 -1.37584,-0.24696 z"
       id="path6200" />
    <path
       style="stroke-width:0.03527778"
       inkscape:connector-curvature="0"
       d="m -730.90272,-81.63171 c -0.0705,0.84667 -0.49387,4.2686 -0.9172,7.62 -0.42333,3.35137 -0.6703,6.56167 -0.52917,7.1261 0.49387,2.25777 3.56304,3.73944 4.7625,2.29307 0.67027,-0.77613 0.1411,-1.5875 -0.98779,-1.5875 -0.56444,0 -1.23471,-0.24696 -1.48167,-0.52917 -0.4586,-0.56446 -0.49387,-0.3175 0.88196,-10.23056 0.56444,-3.91584 0.4586,-5.3975 -0.28223,-5.8914 -0.88193,-0.56444 -1.27,-0.24694 -1.4464,1.19946 z"
       id="path6202" />
    <path
       style="stroke-width:0.03527778"
       inkscape:connector-curvature="0"
       d="m -719.96659,-81.73754 c -1.02306,1.05833 -1.97556,3.66887 -1.97556,5.46804 0,1.41112 -0.3175,1.86973 -1.4111,2.01083 -1.27,0.1764 -1.41113,1.5875 -0.24697,2.11667 0.8114,0.35279 0.88197,0.635 1.02307,3.03389 0.10583,2.46944 0.21166,2.7164 1.27,3.6689 0.635,0.56444 1.51693,1.02304 1.97556,1.02304 1.05834,0 3.175,-1.4111 3.3161,-2.25777 0.1764,-0.88194 -0.4586,-1.48167 -1.05833,-1.02306 -0.74083,0.59973 -2.7164,0.74083 -3.13973,0.24696 -0.17637,-0.24696 -0.3175,-1.27 -0.24694,-2.29307 l 0.10584,-1.86973 2.0461,-0.4586 c 2.50473,-0.56444 4.19806,-1.48167 4.05696,-2.2225 -0.10583,-0.42333 -0.70556,-0.52917 -2.82223,-0.52917 -1.48167,0 -2.78693,-0.10583 -2.89277,-0.21166 -0.38806,-0.38807 0.59971,-4.26861 1.44637,-5.46807 0.42334,-0.67027 0.8114,-1.44637 0.8114,-1.7286 0,-0.88194 -1.19943,-0.59973 -2.25777,0.4939 z"
       id="path6204" />
    <path
       style="stroke-width:0.03527778"
       inkscape:connector-curvature="0"
       d="m -802.76355,-76.02254 c -1.69333,1.83443 -1.8697,2.46943 -2.64583,8.78416 -0.67027,5.60917 -0.49387,7.16138 0.81139,7.33777 0.67027,0.10584 0.77611,-0.10583 0.9525,-1.76389 0.635,-6.20888 0.74084,-6.80861 1.27,-6.63221 2.43417,0.74083 5.85611,-0.9525 6.63224,-3.31613 0.42333,-1.30527 0.38803,-1.4111 -0.70557,-2.89277 -1.19943,-1.55223 -3.24556,-2.96333 -4.33917,-2.96333 -0.35276,0 -1.23473,0.67027 -1.97556,1.4464 z m 4.02167,2.01083 c 1.5875,1.4111 -0.21167,4.09221 -2.46944,3.70417 -1.0936,-0.1764 -1.16417,-0.28223 -1.16417,-1.65807 0,-2.01083 0.84667,-3.175 2.0814,-2.8575 0.49387,0.14111 1.19944,0.4939 1.55221,0.8114 z"
       id="path6206" />
    <path
       style="stroke-width:0.03527778"
       inkscape:connector-curvature="0"
       d="m -813.91132,-76.23421 c -1.37583,1.0936 -1.69333,2.0461 -2.3636,7.23194 -0.77613,5.46806 -0.74083,8.78416 0,9.06639 0.9172,0.35277 1.5522,-0.88196 1.5522,-2.92806 0,-0.98777 0.10584,-2.54 0.21167,-3.45723 l 0.24696,-1.62277 h 1.65804 c 1.4464,0 1.86973,-0.1764 3.28083,-1.4111 2.01084,-1.79917 2.61057,-3.3514 1.905,-5.00946 -1.16416,-2.75167 -4.23333,-3.63361 -6.4911,-1.86971 z m 3.84527,1.83444 c 0.84667,0.74083 0.8114,1.69333 -0.10583,3.13973 -0.59971,0.98777 -0.9525,1.19943 -1.905,1.19943 -0.67027,0 -1.27,-0.1411 -1.37584,-0.3175 -0.10583,-0.1411 -0.10583,-1.12889 0.0353,-2.11666 0.17637,-1.4464 0.38804,-1.94027 0.9525,-2.15194 1.12887,-0.45863 1.69333,-0.42333 2.39887,0.24694 z"
       id="path6208" />
    <path
       style="stroke-width:0.03527778"
       inkscape:connector-curvature="0"
       d="m -820.64938,-75.6345 c -0.24694,0.24696 -0.42334,1.34056 -0.42334,2.46946 0,2.61054 -0.84666,4.7272 -2.15193,5.3975 -1.30527,0.70554 -2.01084,0.35277 -2.46944,-1.19946 -0.3175,-1.05834 -0.28223,-1.76388 0.17637,-3.56304 0.42334,-1.65807 0.45863,-2.32834 0.1764,-2.68113 -1.16417,-1.4111 -2.3636,0.56446 -2.6811,4.40973 -0.1764,2.01083 -0.0706,2.50473 0.5997,3.6689 0.84667,1.4111 2.2578,2.3636 3.56307,2.3636 1.1289,0 3.0339,-1.5875 3.84527,-3.21027 0.9525,-1.83446 1.65806,-6.8439 1.05833,-7.54946 -0.52917,-0.635 -1.12887,-0.67027 -1.69333,-0.10583 z"
       id="path6210" />
    <path
       style="stroke-width:0.03527778"
       inkscape:connector-curvature="0"
       d="m -688.92215,-74.54088 c -2.11667,1.19944 -2.8575,2.43417 -2.82223,4.62138 0.0706,3.28083 1.79916,5.32696 4.445,5.32696 1.65806,0 2.75166,-0.91723 2.04613,-1.72863 -0.24697,-0.3175 -0.9878,-0.56444 -1.6228,-0.56444 -1.34054,0 -2.61054,-1.02306 -2.61054,-2.08139 0,-0.52917 0.4586,-0.81138 1.86971,-1.23471 2.32833,-0.70556 3.77473,-1.86973 3.91583,-3.13973 0.21167,-2.01083 -2.6811,-2.6811 -5.2211,-1.19944 z m 1.905,1.65804 c 0,0.1764 -0.28223,0.3528 -0.59973,0.3528 -0.52917,0 -0.56444,-0.0706 -0.10584,-0.3528 0.6703,-0.42333 0.70557,-0.42333 0.70557,0 z"
       id="path6212" />
    <path
       style="stroke-width:0.03527778"
       inkscape:connector-curvature="0"
       d="m -872.40186,-74.32921 c -3.03389,0.17637 -3.52779,0.3175 -3.63363,0.84667 -0.0705,0.35277 0.0706,0.88193 0.3175,1.19943 0.91724,1.05834 8.78417,-0.10583 8.78417,-1.34056 0,-0.35277 -1.2347,-1.05833 -1.65804,-0.9525 -0.14113,0.0353 -1.86973,0.14113 -3.81,0.24696 z"
       id="path6214" />
    <path
       style="stroke-width:0.03527778"
       inkscape:connector-curvature="0"
       d="m -744.90799,-73.34144 c -2.75166,2.46944 -3.4925,5.32694 -1.97556,7.54944 1.65806,2.46946 4.1628,2.64583 6.59696,0.42333 1.79917,-1.5875 2.82221,-4.445 2.15194,-5.99721 -0.56444,-1.30529 -3.21027,-3.28083 -4.37444,-3.28083 -0.59973,0 -1.48166,0.49387 -2.3989,1.30527 z m 3.88057,1.7639 c 0.5997,0.35277 1.0936,0.9172 1.0936,1.27 0,2.57527 -4.23333,5.0447 -5.29167,3.03387 -0.52916,-0.9525 0.0353,-2.57527 1.30527,-3.91583 1.09363,-1.16417 1.4464,-1.19944 2.8928,-0.38804 z"
       id="path6216" />
    <path
       style="stroke-width:0.03527778"
       inkscape:connector-curvature="0"
       d="m -711.11188,-73.76477 c -2.32834,1.62277 -3.06917,5.00943 -1.55221,7.26723 1.02304,1.51693 2.50471,1.7286 4.445,0.635 1.19944,-0.6703 1.51694,-0.70557 2.61054,-0.3528 1.37583,0.45863 2.92806,0.21167 3.175,-0.49387 0.10583,-0.24696 -0.38804,-0.74083 -1.16417,-1.19946 -1.5875,-0.88194 -1.76387,-1.27 -1.76387,-3.77471 0,-1.83446 -0.0353,-1.905 -1.27,-2.43416 -1.83446,-0.74084 -2.96333,-0.6703 -4.48029,0.35277 z m 3.38666,2.64583 c 0.4939,1.86973 -2.43416,4.40973 -3.28083,2.82223 -0.52917,-0.98779 -0.42333,-1.55223 0.38806,-2.61056 0.88194,-1.1289 2.61057,-1.27 2.89277,-0.21167 z"
       id="path6218" />
    <path
       style="stroke-width:0.03527778"
       inkscape:connector-curvature="0"
       d="m -695.94242,-74.39977 c -0.14113,0.10583 -0.74083,0.21166 -1.37583,0.17639 -1.4464,-0.0353 -2.78697,0.67027 -3.9864,2.11667 -0.88194,1.02304 -0.9525,1.34054 -0.7761,3.21027 0.21166,2.25777 1.05833,3.52777 2.57526,3.91583 1.05834,0.28223 1.05834,0.70557 -0.0353,3.59834 -0.91724,2.43416 -1.4464,3.3161 -1.97557,3.3161 -0.67027,0 -1.7286,-2.32833 -1.7286,-3.73944 0,-0.88193 -0.21167,-1.65806 -0.52917,-1.905 -0.77613,-0.635 -1.19946,-0.10583 -1.4464,1.7639 -0.1411,1.30527 0,1.94027 0.8114,3.52777 0.56444,1.0936 1.4111,2.18723 1.97554,2.46944 1.9403,1.05833 3.59833,-0.70554 5.715,-6.17361 1.19946,-3.06916 2.96333,-9.48973 2.99863,-10.83027 0,-0.3175 -0.3528,-0.84666 -0.77613,-1.12889 -0.88194,-0.635 -1.12887,-0.67027 -1.44637,-0.3175 z m -0.59973,3.13973 c 0,1.2347 -1.4111,3.66887 -2.11667,3.66887 -0.7761,0 -1.4111,-0.70554 -1.4111,-1.51694 0,-0.81139 2.1872,-3.06916 2.96333,-3.06916 0.38804,0 0.56444,0.3175 0.56444,0.91723 z"
       id="path6220" />
    <path
       style="stroke-width:0.03527778"
       inkscape:connector-curvature="0"
       d="m -778.28075,-73.87061 c -0.1764,0.24694 -0.52917,1.09361 -0.74084,1.905 -0.45863,1.55223 -1.55223,2.75167 -2.78696,3.06917 -1.27,0.28223 -1.5875,-0.4939 -0.9172,-2.15194 0.635,-1.62279 0.2822,-2.54 -0.9878,-2.54 -1.34054,0 -2.1872,4.09221 -1.2347,5.92667 0.67026,1.30527 1.5522,1.62277 3.59833,1.30527 l 1.5522,-0.21167 v 1.19944 c 0,2.64583 -2.1872,6.59696 -3.66887,6.59696 -0.28223,0 -1.02306,-0.70556 -1.62279,-1.5875 -1.19944,-1.7639 -2.11667,-2.0814 -2.11667,-0.74083 0,2.01083 1.905,4.79777 3.24556,4.79777 0.9525,0 2.43417,-0.84667 3.52777,-2.01084 1.7639,-1.86973 2.78697,-4.7625 3.31613,-9.41916 0.28221,-2.32834 0.56444,-4.58611 0.635,-4.9389 0.10584,-0.38804 -0.0706,-0.88194 -0.42333,-1.12887 -0.77613,-0.59973 -0.9525,-0.59973 -1.37583,-0.0706 z"
       id="path6222" />
    <path
       style="stroke-width:0.03527778"
       inkscape:connector-curvature="0"
       d="m -890.28769,-43.2495 c -3.91583,1.16416 -6.7028,6.27946 -6.73806,12.34723 0,3.4925 0.0706,3.66889 4.1275,10.01889 2.96333,4.62138 3.84526,6.77334 2.9986,7.3025 -0.28221,0.17638 -1.12887,0.3175 -1.905,0.3175 -2.18721,0.0353 -4.40971,0.56444 -5.04471,1.19944 -0.49389,0.4939 -0.52916,0.635 -0.0353,1.0936 0.45863,0.4586 1.02306,0.4586 4.90363,0 2.43416,-0.24693 5.78553,-0.56443 7.47887,-0.70554 5.08,-0.3175 8.5725,-1.19946 7.7964,-1.97556 -0.14111,-0.1411 -2.46944,-0.35277 -5.15057,-0.38806 l -4.86833,-0.10584 -1.16417,-2.6811 c -0.635,-1.48167 -1.65804,-3.4925 -2.25777,-4.40973 -2.82223,-4.37444 -4.3039,-7.09083 -4.51556,-8.21971 -0.35277,-1.76389 0.35279,-5.64446 1.37583,-7.90223 0.52917,-1.16416 1.37583,-2.32833 2.2225,-2.92806 1.16417,-0.88194 1.5875,-1.02304 3.4925,-0.98777 1.37583,0.0353 2.82223,0.35277 3.88057,0.8114 2.0461,0.9172 2.9986,0.9525 2.9986,0.10583 -0.0353,-1.94029 -6.35,-3.88056 -9.59554,-2.89279 z"
       id="path6224" />
    <path
       style="stroke-width:0.03527778"
       inkscape:connector-curvature="0"
       d="m -733.58382,-30.69061 c -4.40973,1.905 -6.38527,6.49111 -4.7625,11.1125 0.3175,0.84667 0.4586,1.72861 0.38807,1.97557 -0.10584,0.24693 -1.02307,0.4586 -2.3989,0.52916 -1.83444,0.0705 -2.2225,0.21167 -2.32834,0.77611 -0.28223,1.4111 1.34057,1.55223 8.32557,0.74083 4.86833,-0.56444 8.11387,-1.19944 8.3961,-1.62277 0.0706,-0.14113 -0.1764,-0.45863 -0.59973,-0.67029 -0.70554,-0.38804 -6.20887,-0.24694 -7.79637,0.21166 -0.42333,0.14113 -0.8114,-0.24693 -1.34057,-1.2347 -1.65806,-3.24557 -1.16416,-6.7028 1.27,-8.81946 1.41111,-1.27 2.3989,-1.5875 4.37444,-1.37584 1.16417,0.10584 1.41113,0 1.41113,-0.49387 0,-0.70556 -1.69333,-1.69333 -2.8928,-1.69333 -0.4586,0.0353 -1.37583,0.2822 -2.0461,0.56443 z"
       id="path6226" />
    <path
       style="stroke-width:0.03527778"
       inkscape:connector-curvature="0"
       d="m -820.68465,-27.3745 c -4.5861,2.54 -8.60777,6.59696 -10.68917,10.83029 -1.02306,2.11667 -1.16417,2.71637 -1.16417,5.2211 0.0353,3.31611 0.77611,5.11527 2.89277,6.84387 2.54,2.0814 7.44363,2.92807 10.9714,1.86974 2.46944,-0.74084 1.65807,-1.27 -2.25777,-1.51694 -4.1275,-0.24696 -6.13833,-0.9878 -7.7964,-2.8928 -3.175,-3.6336 -2.0461,-8.74887 3.10444,-14.00526 3.3514,-3.42194 6.94973,-5.43277 9.10167,-5.08 1.30529,0.21166 1.44639,0.14112 1.44639,-0.49388 0,-0.9525 -1.27,-1.83446 -2.64583,-1.83446 -0.56443,0 -1.905,0.4939 -2.96333,1.05834 z"
       id="path6228" />
    <path
       style="stroke-width:0.03527778"
       inkscape:connector-curvature="0"
       d="m -808.83132,-25.32838 c -0.84667,0.9525 -1.51693,11.71221 -0.98777,16.15721 0.59971,4.9389 1.55221,6.35 3.98637,5.92667 1.4464,-0.28224 3.81,-1.83444 3.81,-2.50474 0,-0.42333 -0.24693,-0.49387 -1.12887,-0.2822 -0.635,0.10583 -1.72863,0.24694 -2.3989,0.2822 -1.12889,0.0706 -1.27,-0.0353 -1.69333,-1.34053 -0.67027,-2.04613 -0.74083,-7.40834 -0.1764,-13.0175 0.3528,-3.6689 0.38807,-5.00944 0.0706,-5.36223 -0.52917,-0.635 -0.8114,-0.635 -1.48167,0.14112 z"
       id="path6230" />
    <path
       style="stroke-width:0.03527778"
       inkscape:connector-curvature="0"
       d="m -772.35409,-24.62284 c -0.42333,0.77613 -1.27,17.67417 -0.9525,18.9089 0.17637,0.7761 0.42334,0.9525 1.19944,0.84667 l 0.9525,-0.10584 -0.10584,-3.63363 c -0.1411,-4.0922 0.0706,-4.33914 2.3989,-2.6811 4.62137,3.24557 5.99721,3.73944 5.99721,2.15194 -0.0353,-0.56444 -0.70554,-1.27 -2.39887,-2.50471 -1.3053,-0.9525 -2.61057,-1.83443 -2.8928,-2.01083 -0.74083,-0.42333 -0.21167,-1.19944 2.15196,-3.10444 2.01084,-1.62279 2.50471,-2.61056 1.51694,-2.99862 -0.52917,-0.21167 -3.73944,2.2225 -5.08,3.84529 -0.24694,0.28221 -0.67027,0.52917 -0.9525,0.52917 -0.38807,0 -0.4586,-0.74084 -0.24694,-4.6214 0.21167,-3.77473 0.17637,-4.69194 -0.24696,-4.9389 -0.70554,-0.4586 -0.9525,-0.38804 -1.34054,0.3175 z"
       id="path6232" />
    <path
       style="stroke-width:0.03527778"
       inkscape:connector-curvature="0"
       d="m -783.67825,-16.75588 c -2.8575,1.72861 -4.9389,4.7625 -4.9389,7.23194 0,1.7286 1.27,3.88054 2.6811,4.55083 1.48167,0.70554 4.37446,0.67027 5.92667,-0.0353 1.86973,-0.91721 1.27,-1.55221 -1.44637,-1.55221 -3.3514,0 -4.65667,-0.88196 -4.69197,-3.21029 0,-1.69331 1.16417,-3.38664 3.3514,-4.83304 2.8575,-1.94027 2.0461,-3.91583 -0.88193,-2.15194 z"
       id="path6234" />
    <path
       style="stroke-width:0.03527778"
       inkscape:connector-curvature="0"
       d="m -796.02549,-16.40311 c -1.97556,0.88194 -3.03389,1.86973 -3.91583,3.56307 -1.5875,3.1397 -1.05833,6.8086 1.1289,7.7258 1.34054,0.52917 4.02167,0.21167 5.2211,-0.635 1.65807,-1.19943 2.6811,-3.81 2.6811,-6.8086 0,-4.48027 -1.4111,-5.5386 -5.11527,-3.84527 z m 3.45724,2.50473 c 1.02303,1.02304 -0.14113,4.86831 -1.86974,6.20888 -1.76389,1.4111 -3.88056,0.84666 -4.23333,-1.1289 -0.28223,-1.4111 0.74083,-3.6336 2.15194,-4.76248 1.05833,-0.81139 3.28083,-0.98779 3.95113,-0.3175 z"
       id="path6236" />
    <path
       style="stroke-width:0.03527778"
       inkscape:connector-curvature="0"
       d="m -716.29772,-16.08561 c -0.67027,0.1764 -2.3636,0.42334 -3.7747,0.52917 -1.9403,0.21167 -2.61057,0.38806 -2.75167,0.84667 -0.59973,1.94027 -0.91723,9.6661 -0.38806,10.16 0.10583,0.10583 0.52916,0.10583 0.98777,0 0.77613,-0.21167 0.81139,-0.38807 0.88196,-3.95113 0.0353,-2.0461 0.17637,-3.88054 0.2822,-4.05694 0.10584,-0.17637 0.77613,-0.42333 1.51697,-0.52916 2.61053,-0.42334 5.6797,-1.30527 6.10303,-1.79917 0.21167,-0.28221 0.3175,-0.74083 0.1764,-1.02304 -0.21167,-0.56446 -1.0936,-0.635 -3.0339,-0.1764 z"
       id="path6238" />
    <path
       style="stroke-width:0.03527778"
       inkscape:connector-curvature="0"
       d="m -734.00715,-14.88617 c -0.74084,0.1764 -1.34057,0.45863 -1.34057,0.635 0,0.14113 0.4939,0.9525 1.05834,1.7639 1.44639,2.01083 1.905,3.81 1.37583,5.57387 -0.84667,2.82223 -2.71637,3.38666 -6.4911,1.94029 -2.46944,-0.9525 -5.11527,-1.51696 -5.11527,-1.09363 0,0.8114 1.37583,2.01084 3.175,2.82224 4.97417,2.2225 7.97277,1.44639 9.91304,-2.57527 1.23473,-2.5753 1.23473,-3.9864 -0.14111,-6.49111 -0.42333,-0.81139 -0.84666,-1.79916 -0.9525,-2.18723 -0.1411,-0.635 -0.3175,-0.67027 -1.48166,-0.38806 z"
       id="path6240" />
    <path
       style="stroke-width:0.03527778"
       inkscape:connector-curvature="0"
       d="m -709.31272,-14.63921 c -1.79916,0.91721 -3.10443,3.4925 -3.10443,6.03247 0,2.2225 1.05833,4.58613 2.32833,5.15057 1.62277,0.7761 4.48027,0.38806 4.3039,-0.56444 -0.14113,-0.67029 -0.8114,-1.02306 -2.43417,-1.30529 -1.41113,-0.21167 -2.0814,-1.19944 -2.0814,-2.9986 0,-0.84667 0.1764,-1.09361 0.98777,-1.27 1.905,-0.38807 3.88057,-1.23471 4.51557,-1.94027 0.74083,-0.8114 0.8114,-2.50473 0.1764,-3.28084 -0.6703,-0.7761 -3.06917,-0.70556 -4.69197,0.1764 z m 2.54,1.7286 c 0,0.4939 -1.69333,1.23473 -2.0461,0.91723 -0.28223,-0.3175 0.91723,-1.27 1.5875,-1.27 0.24694,0 0.4586,0.17638 0.4586,0.35277 z"
       id="path6242" />
    <path
       style="stroke-width:0.03527778"
       inkscape:connector-curvature="0"
       d="m -860.40742,-14.28644 c -1.9403,0.35277 -4.445,0.635 -5.60917,0.56444 -1.62277,-0.0705 -2.15193,0.0706 -2.46943,0.52916 -0.28223,0.4939 -0.24697,0.74084 0.21166,1.19946 0.91721,0.9525 3.66887,0.98777 8.04331,0.14111 4.90363,-0.91723 6.45583,-1.51694 6.27946,-2.36361 -0.14113,-0.88196 -2.0814,-0.88196 -6.45583,-0.0706 z"
       id="path6244" />
    <path
       style="stroke-width:0.03527778"
       inkscape:connector-curvature="0"
       d="m -700.35215,-14.46284 c -0.98777,0.70557 -1.83444,2.68113 -1.83444,4.33917 0,1.62277 1.51694,4.72723 2.75167,5.715 0.5997,0.4586 1.2347,0.67027 1.83443,0.52917 2.36361,-0.45861 2.04611,-0.9525 4.1275,6.84389 1.05834,3.98637 2.11667,7.44361 2.36361,7.69054 0.67029,0.6703 1.44639,0.21167 1.94029,-1.16417 0.24694,-0.67026 0.56444,-1.2347 0.70554,-1.2347 0.4939,0 3.63363,-6.3853 3.42196,-6.91446 -0.45863,-1.16417 -1.48166,-0.4586 -2.8575,2.04613 -0.77613,1.4111 -1.65806,2.57527 -1.905,2.57527 -0.74083,0 -2.7164,-8.00807 -3.24556,-13.0175 -0.67027,-6.77334 -0.67027,-6.73804 -2.18723,-6.6675 -0.98777,0.0706 -1.30527,-0.0705 -1.48167,-0.59971 -0.2822,-0.88196 -2.46944,-0.9525 -3.6336,-0.14113 z m 3.38666,1.7639 c 0.70557,0.21167 0.77611,0.42333 0.74084,2.2225 -0.0706,2.9986 -0.38807,4.0922 -1.23473,4.19804 -0.84667,0.10583 -1.65804,-0.74084 -2.2225,-2.3636 -0.52917,-1.62277 -0.49387,-2.54 0.17639,-3.4925 0.56444,-0.81138 1.1289,-0.91721 2.54,-0.56444 z"
       id="path6246" />
    <path
       style="stroke-width:0.03527778"
       inkscape:connector-curvature="0"
       d="m -645.91855,-13.93367 c -1.4111,0.8114 -2.39887,1.94029 -3.21027,3.6689 -1.69333,3.59833 -0.67027,6.1736 2.3989,6.1736 1.5875,0 3.10443,-0.7761 3.10443,-1.55223 0,-0.67027 -0.84666,-0.9525 -2.0461,-0.70554 -0.70556,0.1411 -1.16416,0 -1.62279,-0.52917 -0.52917,-0.59973 -0.56444,-0.88196 -0.21167,-1.94029 0.3528,-1.0936 2.46946,-3.42194 3.45723,-3.77471 0.1764,-0.0706 0.42333,-0.4586 0.4939,-0.84666 0.0705,-0.52917 -0.10583,-0.74084 -0.77613,-0.77611 -0.49387,-0.0706 -1.19944,0.0705 -1.5875,0.28221 z"
       id="path6248" />
    <path
       style="stroke-width:0.03527778"
       inkscape:connector-curvature="0"
       d="m -674.63465,-12.66367 c -0.21167,0.74083 -0.38807,2.0461 -0.38807,2.92806 0,1.905 -1.34053,4.93887 -2.5047,5.78554 -0.45863,0.3175 -1.27,0.56446 -1.79917,0.56446 -1.5875,0 -2.15196,-1.69333 -2.01083,-6.06779 0.1411,-3.52777 0.10583,-3.6336 -0.635,-3.73944 -1.1289,-0.17637 -1.6228,1.23473 -1.6228,4.72723 -0.0353,4.83304 1.51697,7.54944 4.37447,7.54944 2.6811,0 5.00943,-3.3161 5.60916,-7.90223 0.17637,-1.48167 0.4586,-2.96331 0.635,-3.3161 0.49387,-0.98777 0.28221,-1.65804 -0.52916,-1.76388 -0.635,-0.10583 -0.84667,0.14111 -1.1289,1.23471 z"
       id="path6250" />
    <path
       style="stroke-width:0.03527778"
       inkscape:connector-curvature="0"
       d="m -667.04992,-13.43977 c -3.10446,1.05833 -4.72723,5.5386 -3.175,8.78416 0.81137,1.65804 2.96333,2.82221 4.65667,2.50471 1.65803,-0.28221 2.89276,-1.0936 2.89276,-1.83444 0,-0.4586 -0.3175,-0.52916 -2.08139,-0.3175 -2.01084,0.24694 -2.08137,0.21167 -2.99861,-0.88193 -1.23473,-1.4464 -1.05833,-2.0814 0.67027,-2.61057 3.2103,-0.9525 4.97417,-2.64583 3.56307,-3.42193 -0.635,-0.35277 -0.7761,-1.34057 -0.1764,-1.34057 0.56446,0 -0.4586,-0.9172 -1.30527,-1.12887 -0.42333,-0.10583 -1.34056,0 -2.0461,0.24694 z m 1.37583,2.61056 c 0,0.52914 -1.72863,1.19944 -2.0814,0.81137 -0.10583,-0.10583 0.0706,-0.4939 0.38807,-0.84666 0.67027,-0.74084 1.69333,-0.70554 1.69333,0.0353 z"
       id="path6252" />
    <path
       style="stroke-width:0.03527778"
       inkscape:connector-curvature="0"
       d="m -632.26605,-13.36921 c -0.17637,0.35277 -0.5997,1.5875 -0.9525,2.75164 -0.67027,2.36363 -1.69333,3.70417 -2.8575,3.70417 -1.5875,0 -1.83444,-1.23471 -0.98777,-5.57387 0.21167,-1.05834 0.1411,-1.1289 -0.70556,-1.1289 -1.02304,0 -1.34054,0.59973 -1.97554,3.3161 -0.70557,3.13973 0.88193,5.85613 3.42193,5.85613 0.98777,0 1.19944,0.10583 1.02307,0.56444 -0.14113,0.3175 -0.52917,1.97556 -0.91723,3.70416 -0.70557,3.28084 -1.37584,4.9389 -2.57527,6.2089 -0.91723,1.02304 -1.55223,1.02304 -2.5753,0.0705 -0.9172,-0.84667 -1.5522,-0.635 -1.5522,0.4939 0,1.16416 0.98777,2.3636 1.94027,2.3636 0.4586,0 1.55223,-0.4586 2.3989,-1.05834 2.01083,-1.34053 3.4572,-4.0922 4.445,-8.3961 0.42333,-1.83443 1.2347,-4.445 1.83443,-5.82083 1.4464,-3.24557 2.11667,-6.84387 1.37583,-7.3025 -0.74083,-0.49387 -0.98776,-0.42333 -1.34056,0.24696 z"
       id="path6254" />
    <path
       style="stroke-width:0.03527778"
       inkscape:connector-curvature="0"
       d="m -657.13688,-12.20504 c -0.67027,0.56443 -1.55221,1.05833 -1.97554,1.05833 -1.34057,0 -1.905,1.44637 -1.7639,4.55081 0.1411,3.10446 0.52917,3.84529 1.65807,3.24556 0.4586,-0.24693 0.81137,-1.02306 1.0936,-2.50473 0.74083,-3.81 2.43416,-5.75027 3.21027,-3.73943 0.17639,0.49389 0.49389,1.94026 0.74083,3.21026 0.3528,2.04613 0.4939,2.29307 1.19946,2.29307 0.4586,0 0.88194,-0.1764 0.9525,-0.38807 0.24694,-0.74083 -0.84666,-7.19664 -1.34056,-8.00803 -0.74084,-1.1289 -2.29307,-1.02307 -3.77473,0.28223 z"
       id="path6256" />
    <path
       style="stroke-width:0.03527778"
       inkscape:connector-curvature="0"
       d="m -888.17102,-10.4059 c -0.0706,0.24696 -0.0353,1.16416 0.10583,2.04613 0.56444,3.52777 0.7761,12.2061 0.3175,15.02833 -0.77613,5.29167 -2.32833,7.23194 -5.715,7.23194 -1.905,0 -2.99863,-0.42334 -5.22113,-1.94027 -2.25777,-1.5875 -2.82222,-1.72863 -2.82222,-0.77613 0,1.51696 1.41112,3.0339 3.84529,4.19806 1.94026,0.88194 5.00943,0.67027 7.72583,-0.59973 1.55223,-0.70554 1.94027,-1.12887 2.8575,-2.92804 1.5875,-3.13973 1.94027,-5.92666 1.69333,-13.47613 -0.28223,-8.00803 -0.4586,-8.96053 -1.7286,-9.10164 -0.4939,-0.0706 -0.9878,0.0705 -1.05833,0.31748 z"
       id="path6258" />
    <path
       style="stroke-width:0.03527778"
       inkscape:connector-curvature="0"
       d="m -883.12632,52.56493 c 0,0.38807 0.10583,0.4939 0.21167,0.21167 0.10583,-0.24694 0.0706,-0.56444 -0.0353,-0.67027 -0.10583,-0.1411 -0.21167,0.0706 -0.1764,0.4586 z"
       id="path6260" />
  </g>
</svg>
