<?xml version="1.0" encoding="UTF-8" standalone="no"?>
<!-- Created with Inkscape (http://www.inkscape.org/) -->

<svg
   xmlns:dc="http://purl.org/dc/elements/1.1/"
   xmlns:cc="http://creativecommons.org/ns#"
   xmlns:rdf="http://www.w3.org/1999/02/22-rdf-syntax-ns#"
   xmlns:svg="http://www.w3.org/2000/svg"
   xmlns="http://www.w3.org/2000/svg"
   xmlns:sodipodi="http://sodipodi.sourceforge.net/DTD/sodipodi-0.dtd"
   xmlns:inkscape="http://www.inkscape.org/namespaces/inkscape"
   width="683.09485mm"
   height="279.56516mm"
   viewBox="0 0 683.09485 279.56515"
   version="1.1"
   id="svg11307"
   inkscape:version="0.92.5 (2060ec1f9f, 2020-04-08)"
   sodipodi:docname="switching_actvity.svg">
  <defs
     id="defs11301" />
  <sodipodi:namedview
     id="base"
     pagecolor="#ffffff"
     bordercolor="#666666"
     borderopacity="1.0"
     inkscape:pageopacity="0.0"
     inkscape:pageshadow="2"
     inkscape:zoom="0.24748737"
     inkscape:cx="574.7471"
     inkscape:cy="220.54785"
     inkscape:document-units="mm"
     inkscape:current-layer="layer1"
     showgrid="false"
     fit-margin-top="0"
     fit-margin-left="0"
     fit-margin-right="0"
     fit-margin-bottom="0"
     inkscape:window-width="958"
     inkscape:window-height="1057"
     inkscape:window-x="2880"
     inkscape:window-y="0"
     inkscape:window-maximized="0" />
  <metadata
     id="metadata11304">
    <rdf:RDF>
      <cc:Work
         rdf:about="">
        <dc:format>image/svg+xml</dc:format>
        <dc:type
           rdf:resource="http://purl.org/dc/dcmitype/StillImage" />
        <dc:title></dc:title>
      </cc:Work>
    </rdf:RDF>
  </metadata>
  <g
     inkscape:label="Layer 1"
     inkscape:groupmode="layer"
     id="layer1"
     transform="translate(183.65991,36.069357)">
    <g
       id="g12118"
       transform="translate(-11.759859,-5.3453905)">
      <path
         id="path10440"
         d="m -136.65197,-29.129472 c -0.81139,0.9525 -1.86972,2.786944 -2.39889,4.162778 -0.49389,1.340555 -1.5875,4.092222 -2.43416,6.103055 l -1.48167,3.633611 0.74083,0.670278 c 0.38806,0.388055 0.84667,0.599722 0.98778,0.458611 0.14111,-0.176389 0.98778,-2.116667 1.905,-4.339167 2.43417,-5.926666 3.95111,-9.031111 4.72722,-9.771944 1.02306,-0.9525 1.12889,-2.363611 0.17639,-2.504722 -0.52917,-0.07056 -1.19944,0.388055 -2.2225,1.5875 z m -2.11667,7.902222 c -1.51694,3.668889 -1.905,4.550833 -2.18722,4.550833 -0.14111,0 0.38806,-1.411111 1.19945,-3.139722 1.51694,-3.316111 2.11666,-4.1275 0.98777,-1.411111 z m -2.50472,5.609166 c 0,0.388056 -0.14111,0.705556 -0.3175,0.705556 -0.17639,0 -0.24694,-0.3175 -0.14111,-0.705556 0.10583,-0.388055 0.24695,-0.705555 0.3175,-0.705555 0.0706,0 0.14111,0.3175 0.14111,0.705555 z"
         inkscape:connector-curvature="0"
         style="stroke-width:0.03527778" />
      <path
         id="path10442"
         d="m -50.256695,-30.081972 c -2.32833,0.635 -5.64444,3.4925 -6.84389,5.891389 -1.05833,2.116666 -0.49388,5.044722 1.41112,7.126111 1.16416,1.340555 4.86833,3.351388 7.72583,4.233333 1.94028,0.599722 4.19805,2.2225 4.33917,3.0691658 0.17638,1.128889 -1.16417,2.469445 -3.63362,3.704167 -2.39888,1.164167 -4.65666,1.5875 -6.63222,1.234722 -0.98778,-0.176389 -1.34055,-0.493889 -1.83444,-1.622778 -0.42334,-0.917222 -0.88195,-1.411111 -1.30528,-1.411111 -1.55222,0 -0.21167,3.880556 1.76389,5.044723 0.9525,0.564444 1.41111,0.59972 3.91583,0.28222 5.96195,-0.77611 10.68917,-4.72722 9.80722,-8.2549978 -0.3175,-1.199445 -3.24555,-3.245556 -6.80861,-4.691944 -5.3975,-2.257778 -6.73805,-3.386667 -7.09083,-6.067778 -0.17639,-1.234722 -0.0353,-1.516944 1.65806,-3.386667 1.97555,-2.151944 3.98638,-3.386666 5.46805,-3.386666 1.41111,0 1.05833,-1.305278 -0.52917,-1.834445 -0.28222,-0.105833 -0.91722,-0.07055 -1.41111,0.07056 z"
         inkscape:connector-curvature="0"
         style="stroke-width:0.03527778" />
      <path
         id="path10444"
         d="m 75.579135,-27.25975 c -1.83444,2.151945 -3.4925,5.785556 -5.67972,12.347222 -1.05833,3.210278 -2.39889,6.9144438 -2.99861,8.2197218 -1.23472,2.751666 -1.30528,3.175 -0.56444,3.774723 1.02305,0.846666 1.72861,0.07055 3.13972,-3.421945 0.77611,-1.905 1.51694,-3.633611 1.69333,-3.8452778 0.17639,-0.246944 1.37583,-0.529167 2.68111,-0.635 1.30528,-0.141111 2.78695,-0.3175 3.35139,-0.423333 0.88194,-0.176389 0.9525,-0.105834 0.9525,0.881944 0,1.6933328 0.98778,5.9266668 1.72861,7.4083318 0.67028,1.27 1.86972,2.01083301 2.57528,1.5875 0.35278,-0.246943 0.38805,-1.905 0,-1.905 -0.59972,0 -1.48167,-2.504721 -1.97556,-5.644443 -0.28222,-1.8344438 -0.84666,-6.2794438 -1.27,-9.8777768 -0.91722,-8.290278 -0.98777,-8.643056 -1.76389,-9.348611 -0.56444,-0.529167 -0.70555,-0.458611 -1.86972,0.881944 z m 0.98778,6.067778 c 0.14111,1.234722 0.45861,3.316111 0.70556,4.691944 0.28222,1.340556 0.42333,2.504722 0.35277,2.575278 -0.28222,0.3175 -4.65666,0.388055 -5.08,0.105833 -0.42333,-0.282222 -0.3175,-0.846667 0.59973,-3.633611 1.05833,-3.316111 2.36361,-5.926666 2.89277,-5.926666 0.14111,0 0.38806,0.987777 0.52917,2.187222 z"
         inkscape:connector-curvature="0"
         style="stroke-width:0.03527778" />
      <path
         id="path10446"
         d="m -164.3803,-26.448361 c -3.77472,1.799167 -7.16139,7.3025 -7.47889,12.170833 -0.10583,1.552222 0,3.598333 0.24694,4.7624998 0.9525,4.691944 5.22112,10.936111 8.60778,12.558888 2.36361,1.164167 4.62139,0.987777 7.26722,-0.49389 1.23473,-0.705553 2.61056,-1.58749999 3.13973,-2.04610999 1.905,-1.62277701 6.59694,-6.87916601 7.90222,-8.81944401 0.77611,-1.128889 1.48167,-2.0108328 1.65805,-1.9402768 0.14112,0.07055 1.65806,1.4463878 3.38667,3.0691658 5.53861,5.221112 8.53722,7.09083201 11.32417,7.09083201 1.34055,0 1.79916,-0.14111 2.15194,-0.705554 0.35278,-0.59972301 0.35278,-0.74083301 0,-0.84666601 -0.24694,-0.07056 -1.16417,-0.3175 -2.04611,-0.564447 -2.96333,-0.811387 -4.90361,-2.081387 -8.89,-5.961943 -2.18722,-2.1166658 -4.09222,-3.9863878 -4.23333,-4.1627768 -1.30528,-1.481667 -5.43278,-5.609167 -8.64306,-8.678333 -4.65666,-4.409722 -7.23194,-5.891389 -10.51278,-6.138334 -1.72861,-0.105833 -2.46944,0.03528 -3.88055,0.705556 z m 7.12611,3.280833 c 2.11667,1.023056 3.45722,2.081389 7.33778,5.856111 2.61055,2.54 4.7625,4.868333 4.7625,5.221111 0,0.705556 -3.63361,5.6091668 -6.31472,8.5372228 -2.57528,2.82222001 -5.715,4.868333 -7.47889,4.868333 -1.76389,0 -4.37445,-1.30527999 -6.0325,-3.069167 -1.86973,-1.975556 -4.02167,-6.526389 -4.30389,-9.1369438 -0.3175,-2.963334 0.49389,-6.6675 2.11666,-9.560278 1.09362,-1.975555 1.51695,-2.398889 3.10445,-3.139722 2.43417,-1.128889 3.73944,-1.058333 6.80861,0.423333 z"
         inkscape:connector-curvature="0"
         style="stroke-width:0.03527778" />
      <path
         id="path10448"
         d="m 130.64776,-26.30725 c -0.38806,0.458611 -0.59973,1.869722 -0.77613,5.044722 -0.1411,2.434167 -0.38803,4.868333 -0.56443,5.468056 -0.4586,1.552222 -1.05833,5.9619438 -1.05833,7.6905548 0,1.763889 1.05833,3.069167 2.50473,3.069167 1.16416,-0.03528 3.66887,-1.199445 4.7272,-2.257778 1.55223,-1.552222 0.9525,-3.8099998 -0.635,-2.434167 -1.37583,1.199445 -2.6811,1.869722 -3.6336,1.869722 -0.91723,0 -0.91723,-0.03528 -0.67027,-1.693333 0.49387,-3.5277778 0.88194,-3.9511108 3.6336,-3.9511108 1.83444,0 2.82223,-0.3175 3.06917,-0.987778 0.35277,-0.9525 -0.7761,-1.658055 -3.10444,-1.834444 -2.08139,-0.176389 -2.18723,-0.211667 -2.11666,-1.058333 0.0353,-0.493889 0.17637,-2.434167 0.3175,-4.339167 0.17637,-2.575278 0.1411,-3.668889 -0.21167,-4.303889 -0.56446,-1.058333 -0.77613,-1.093611 -1.48167,-0.282222 z"
         inkscape:connector-curvature="0"
         style="stroke-width:0.03527778" />
      <path
         id="path10450"
         d="m 98.333295,-25.390028 c -0.21167,0.246945 -0.81137,2.293056 -1.34054,4.515556 -0.67029,2.928055 -1.16416,4.268611 -1.79916,4.938889 -0.70557,0.776111 -0.8114,1.093611 -0.4939,1.658055 0.21167,0.423333 0.38806,1.869722 0.38806,3.280833 0,2.0813888 0.14111,2.7869448 0.77611,3.7041668 1.65806,2.398889 5.044735,2.8575 6.843895,0.9525 0.98777,-1.058334 0.98777,-1.164167 0.38804,-2.010834 -0.42333,-0.599722 -0.52917,-0.599722 -1.7286,0 -2.504735,1.164167 -4.445005,-0.493888 -3.880575,-3.2808328 l 0.28224,-1.340555 2.963335,-0.176389 c 2.3989,-0.141111 2.9986,-0.282222 3.10443,-0.740833 0.14113,-0.811389 -1.51693,-2.046111 -3.10443,-2.293056 -2.293075,-0.388055 -2.293075,-0.423333 -1.446405,-3.81 0.846675,-3.421944 0.917235,-4.833055 0.3175,-5.432777 -0.52917,-0.529167 -0.81137,-0.529167 -1.27,0.03528 z"
         inkscape:connector-curvature="0"
         style="stroke-width:0.03527778" />
      <path
         id="path10452"
         d="m -8.7700249,-22.215028 c -0.3175,0.423334 -0.9525,2.504722 -1.4816701,4.586111 -0.81139,3.245556 -1.09361,3.915833 -1.97555,4.515556 -1.19945,0.881944 -1.27,1.552222 -0.14111,2.257777 0.70555,0.458611 0.84666,0.8819448 0.88194,2.5047218 0.0706,4.162779 2.4694401,6.032499 5.6091701,4.409722 0.81139,-0.423333 1.62277,-1.058333 1.83444,-1.446388 0.49389,-0.881945 1.12889,-0.881945 1.94028,0 1.16415998,1.270001 5.00944,0.635 5.60916,-0.917222 0.21167,-0.529167 0.28223,-0.564445 0.84667,0 1.23472,1.093611 2.36361,0.705555 3.77472,-1.234723 1.41111,-1.975555 2.0813899,-2.081388 2.2224999,-0.282222 0.21167,2.504722 1.27,3.739445 2.82223,3.210278 0.49388,-0.141111 0.56444,-2.046111 0.0705,-2.363611 -0.17639,-0.105834 -0.35278,-0.987778 -0.35278,-1.940278 0,-1.4463888 -0.17639,-1.9755548 -1.02305,-2.8927778 -0.98778,-1.128888 -1.09361,-1.164166 -2.2224999,-0.705555 -2.43417,0.987778 -2.54,0.987778 -2.25778,-0.141111 1.44639,-6.491111 1.5875,-9.136944 0.45861,-9.807222 -0.49389,-0.282222 -0.70555,-0.282222 -0.9525,0.141111 -0.42333,0.599722 -0.28222,0.07056 -1.83444,8.290277 -1.02306,5.5386108 -1.27,6.3499998 -1.79917,6.2441668 -0.35278,-0.07056 -1.19944,0.07055 -1.86972,0.282222 -1.34056002,0.458611 -2.25778002,0.03528 -2.25778002,-0.987778 0,-0.776111 1.69333,-2.8927768 2.32833002,-2.8927768 0.24695,0 0.49389,-0.105834 0.52917,-0.282223 0,-0.141111 0.0706,-0.529166 0.14111,-0.846666 0.0706,-0.3175 -0.21167,-0.881945 -0.56444,-1.199445 -0.67028002,-0.599722 -0.77611002,-0.599722 -1.65806002,-0.07055 -1.26999998,0.740833 -2.89277998,3.069166 -3.21027998,4.5508328 -0.14111,0.740833 -0.49388,1.234722 -0.88194,1.305278 -0.35278,0.07056 -1.19944,0.529166 -1.86972,0.987778 -1.44639,0.987777 -2.75167,1.093611 -3.06917,0.282222 -0.38805,-1.023056 -0.21167,-4.3391668 0.21167,-4.6213888 0.24694,-0.141111 1.16416,-0.529167 2.04611,-0.811389 1.16417,-0.388055 1.5875,-0.705555 1.5875,-1.234722 0,-0.529167 -0.35278,-0.776111 -1.48167,-1.058333 -0.81139,-0.211667 -1.55222,-0.458611 -1.65805,-0.564445 -0.10584,-0.105833 0.28222,-1.693333 0.84666,-3.527777 0.56445,-1.834445 1.05834,-3.351389 1.05834,-3.386667 0,-0.211667 -1.16417,-1.164167 -1.41111,-1.164167 -0.17639,0 -0.56445,0.352778 -0.84667,0.811389 z"
         inkscape:connector-curvature="0"
         style="stroke-width:0.03527778" />
      <path
         id="path10454"
         d="m 123.38053,-19.886694 c -0.28223,0.141111 -0.42333,0.670277 -0.35277,1.128888 0.14111,1.164167 1.86971,1.411111 2.2225,0.3175 0.38804,-1.27 -0.77613,-2.151944 -1.86973,-1.446388 z"
         inkscape:connector-curvature="0"
         style="stroke-width:0.03527778" />
      <path
         id="path10456"
         d="m 106.48247,-19.498639 c -1.19944,0.493889 -1.0936,2.010833 0.14113,2.504722 0.49387,0.176389 1.12887,0.282222 1.4111,0.176389 0.635,-0.246944 0.56443,-1.411111 -0.1411,-2.257778 -0.4939,-0.564444 -0.8114,-0.635 -1.41113,-0.423333 z"
         inkscape:connector-curvature="0"
         style="stroke-width:0.03527778" />
      <path
         id="path10458"
         d="m -19.212245,-18.616695 c -0.24695,0.282223 -0.35278,0.846667 -0.28223,1.305278 0.0706,0.635 0.35278,0.846667 1.19945,0.917222 0.88194,0.07056 1.16417,-0.03528 1.30528,-0.670277 0.14111,-0.458611 0.0705,-0.987778 -0.14111,-1.234723 -0.52917,-0.670277 -1.65806,-0.811388 -2.08139,-0.3175 z"
         inkscape:connector-curvature="0"
         style="stroke-width:0.03527778" />
      <path
         id="path10460"
         d="m 17.335525,-17.628917 c -0.38805,0.282222 -0.59972,0.776111 -0.49389,1.340556 0.0706,0.670277 0.3175,0.846666 1.12889,0.846666 1.27,0 1.97556,-0.9525 1.41111,-1.869722 -0.52916,-0.776111 -1.23472,-0.917222 -2.04611,-0.3175 z"
         inkscape:connector-curvature="0"
         style="stroke-width:0.03527778" />
      <path
         id="path10462"
         d="m 146.24053,-14.489195 c -0.56443,0.846667 -1.27,1.869723 -1.5875,2.293056 -0.67027,0.987778 -2.64583,2.046111 -2.9986,1.622778 -0.14113,-0.141112 -0.42333,-1.199445 -0.6703,-2.328334 -0.35276,-1.5875 -0.56443,-2.010833 -1.02303,-1.940277 -1.55223,0.3175 -1.83447,4.056944 -0.45863,5.8913878 l 0.67029,0.881945 -2.92806,2.822222 c -3.06917,2.963334 -3.81,4.37444401 -3.42194,6.385277 0.35277,2.010834 3.59834,2.892777 6.35,1.76389 2.61054,-1.12889 3.63361,-2.61055599 4.79777,-7.055556 l 0.74084,-2.822222 2.9986,-0.740834 c 3.70416,-0.917222 4.65666,-1.446388 4.19806,-2.3283328 -0.28223,-0.529166 -0.8114,-0.635 -2.96333,-0.635 -1.4464,0 -2.64583,-0.07056 -2.64583,-0.176389 0,-0.105833 0.3175,-0.811389 0.70556,-1.5875 0.84667,-1.622777 0.88194,-2.328333 0.21167,-3.033888 -0.70557,-0.705556 -0.77613,-0.670278 -1.97557,0.987777 z m -3.70416,9.8777778 c -0.42334,2.54 -1.23474,4.16277701 -2.3989,4.72722101 -1.0936,0.599723 -3.21027,0.81139 -3.6336,0.388056 -0.67027,-0.670277 1.65806,-3.66889001 4.23333,-5.39749901 0.98777,-0.670278 1.83443,-1.199445 1.905,-1.199445 0.0706,0 0.0353,0.670278 -0.10583,1.481667 z"
         inkscape:connector-curvature="0"
         style="stroke-width:0.03527778" />
      <path
         id="path10464"
         d="m -36.710025,-15.124195 c -0.28222,0.740834 1.55222,9.3838888 2.25778,10.5833328 0.84666,1.446389 2.11666,1.587499 3.4925,0.423335 1.02305,-0.846668 1.02305,-0.846668 1.86972,-0.17639 0.49389,0.352777 1.30528,0.670277 1.79917,0.670277 1.30527,0 3.24555,-2.257777 4.02166,-4.621388 0.3175,-1.058333 0.98778,-2.5047218 1.44639,-3.2102778 1.02306,-1.622778 1.05833,-2.293055 0.10583,-2.575278 -1.09361,-0.352777 -2.01083,0.670278 -3.52777,3.951111 -1.41111,3.0338888 -2.18723,3.6336108 -2.75167,2.0813888 -0.28222,-0.670278 -1.02306,-1.27 -1.62278,-1.27 -0.0705,0 -0.77611,0.670278 -1.55222,1.481667 -0.77611,0.811389 -1.51694,1.375833 -1.65806,1.234722 -0.14111,-0.105833 -0.56444,-2.010833 -0.91722,-4.1980548 -0.67028,-3.915834 -1.09361,-4.868334 -2.29305,-4.868334 -0.28222,0 -0.56445,0.211667 -0.67028,0.493889 z"
         inkscape:connector-curvature="0"
         style="stroke-width:0.03527778" />
      <path
         id="path10466"
         d="m -88.70947,-14.771417 c -3.668889,0.423333 -4.233333,0.635 -4.233333,1.5875 0,1.446389 0.81139,1.5875 5.3975,1.128889 5.362223,-0.529167 7.231944,-0.9525 8.360833,-1.799167 0.740834,-0.599722 0.81139,-0.740833 0.352777,-1.058333 -0.670277,-0.423333 -5.53861,-0.388056 -9.877777,0.141111 z"
         inkscape:connector-curvature="0"
         style="stroke-width:0.03527778" />
      <path
         id="path10468"
         d="m 117.17163,-14.136417 c -0.24693,0.458611 -0.84666,1.869722 -1.27,3.175 -1.05833,3.2808328 -2.08137,3.0691668 -2.11666,-0.352778 0,-1.375833 -0.98777,-3.245555 -1.65804,-3.245555 -0.8114,0 -0.91723,1.023055 -0.45863,4.303889 0.4939,3.4924988 1.4464,5.3269438 2.78696,5.5033328 1.41111,0.211666 2.11667,-0.846667 4.23334,-6.2794448 0.84666,-2.257777 0.9172,-2.857499 0.3175,-3.457222 -0.635,-0.635 -1.27,-0.493889 -1.83447,0.352778 z"
         inkscape:connector-curvature="0"
         style="stroke-width:0.03527778" />
      <path
         id="path10470"
         d="m 87.961635,-13.889472 c -0.45861,0.388055 -1.27,1.516944 -1.79916,2.575277 -1.51695,3.0338888 -1.34056,6.0324998 0.42333,7.0908348 1.41111,0.811387 3.45722,0.740833 5.11528,-0.211668 1.79917,-1.023056 2.32834,-1.834445 1.62278,-2.504722 -0.45861,-0.458612 -0.70556,-0.493889 -1.94028,-0.03528 -0.77611,0.282222 -1.94028,0.493889 -2.54,0.529166 -1.09361,0 -1.16417,-0.07055 -1.16417,-1.27 0,-1.516944 1.02306,-3.3513878 2.39889,-4.2686108 1.09361,-0.740833 1.34055,-1.375833 0.74083,-2.081388 -0.56444,-0.705556 -1.83444,-0.599723 -2.8575,0.176389 z"
         inkscape:connector-curvature="0"
         style="stroke-width:0.03527778" />
      <path
         id="path10472"
         d="m 24.708585,-12.760584 c -0.14111,0.176389 -0.3175,1.975556 -0.42333,3.9511108 -0.14112,3.280834 -0.10584,3.668889 0.52916,4.268611 1.12889,0.987779 2.01084,0.246945 2.89278,-2.434166 0.42333,-1.27 0.91722,-2.398889 1.12889,-2.504722 0.635,-0.388056 1.34055,0.9525 1.34055,2.54 0,1.728611 0.98778,3.210277 1.905,2.8575 0.49389,-0.211667 0.56445,-0.599723 0.35278,-3.139723 -0.24694,-3.1044438 -0.49389,-3.8452768 -1.65805,-5.1505548 -0.84667,-0.917222 -1.72861,-0.987778 -2.92806,-0.211667 -0.81139,0.529167 -0.91722,0.529167 -1.51694,0 -0.70556,-0.670277 -1.30528,-0.740833 -1.62278,-0.176389 z"
         inkscape:connector-curvature="0"
         style="stroke-width:0.03527778" />
      <path
         id="path10474"
         d="m 106.09443,-12.690028 c -0.21167,0.246944 -0.4939,1.799167 -0.635,3.4924998 -0.21167,2.822222 -0.1764,3.069166 0.49387,3.421944 0.9878,0.529167 1.02307,0.529167 1.4464,-0.705555 0.67027,-1.905 0.88193,-5.5386108 0.38806,-6.1383328 -0.52916,-0.635 -1.19946,-0.670278 -1.69333,-0.07056 z"
         inkscape:connector-curvature="0"
         style="stroke-width:0.03527778" />
      <path
         id="path10476"
         d="m 122.4633,-12.372528 c -0.7761,1.093611 -0.7761,5.6444438 -0.0353,6.2794438 1.0936,0.917222 1.48167,0.176389 1.65807,-3.069166 0.21166,-3.8099998 -0.38807,-5.0094448 -1.6228,-3.2102778 z"
         inkscape:connector-curvature="0"
         style="stroke-width:0.03527778" />
      <path
         id="path10478"
         d="m 38.219975,-12.090306 c -1.83445,0.987778 -2.8575,2.5752778 -2.99861,4.7272218 -0.17639,2.398889 0.70555,3.880557 2.71638,4.480278 1.5875,0.493889 1.5875,0.529166 0.635,3.84527601 -0.45861,1.58749999 -2.64583,4.69194699 -3.21027,4.48027999 -0.21167,-0.07056 -0.81139,-0.81139 -1.30528,-1.658056 -1.27,-2.151944 -1.76389,-2.187224 -1.76389,-0.211667 0,2.963333 1.30528,4.797777 3.38667,4.797777 0.28222,0 1.19944,-0.635 2.04611,-1.41111 2.15194,-2.010834 3.66889,-5.468057 4.48028,-10.33639 0.35277,-2.187221 0.84666,-4.727221 1.05833,-5.644443 0.35278,-1.4816668 0.3175,-1.7638888 -0.21167,-2.3636108 -0.42333,-0.458611 -0.88194,-0.635 -1.41111,-0.493889 -0.45861,0.105833 -0.9525,-0.03528 -1.19944,-0.352778 -0.56445,-0.705555 -0.635,-0.705555 -2.2225,0.141111 z m 2.18722,3.2455558 c 0,1.058333 -1.27,3.104444 -1.905,3.104444 -1.09361,0 -1.19945,-1.940278 -0.14111,-3.069167 0.98778,-1.058333 2.04611,-1.058333 2.04611,-0.03528 z"
         inkscape:connector-curvature="0"
         style="stroke-width:0.03527778" />
      <path
         id="path10480"
         d="m 16.665255,-11.808084 c -0.84667,0.917223 -1.44639,4.1980558 -1.05834,5.7149998 0.28222,1.058334 0.45861,1.234722 1.37584,1.234722 0.91722,0 1.02305,-0.105833 1.05833,-1.234722 0.0353,-0.670278 0.14111,-2.151944 0.28222,-3.280833 0.17639,-1.4111108 0.14111,-2.2224998 -0.14111,-2.5752778 -0.56444,-0.635 -0.81139,-0.635 -1.51694,0.141111 z"
         inkscape:connector-curvature="0"
         style="stroke-width:0.03527778" />
      <path
         id="path10482"
         d="m -19.847245,-11.666973 c -0.45861,0.458612 -0.56445,3.1397228 -0.17639,5.3269448 0.14111,1.023055 0.42333,1.446389 1.09361,1.693333 0.49389,0.176389 0.9525,0.246945 1.09361,0.141111 0.35278,-0.352778 0,-6.6674998 -0.38806,-7.1613888 -0.45861,-0.529166 -1.09361,-0.529166 -1.62277,0 z"
         inkscape:connector-curvature="0"
         style="stroke-width:0.03527778" />
    </g>
    <g
       id="g12054"
       transform="rotate(-1.8144548,-35.769671,148.95439)">
      <path
         id="path10486"
         d="m -168.29613,66.402747 c -0.91723,1.411111 -1.44639,3.633607 -2.2225,9.383887 -1.69334,12.87639 -1.69334,16.68639 0.14111,21.87222 1.41111,4.127496 2.89277,5.997226 5.32694,6.843886 1.30528,0.42334 2.2225,0.35278 3.45722,-0.38805 1.02306,-0.59973 0.35278,-1.19945 -1.37583,-1.19945 -2.43417,0 -4.72722,-2.32833 -5.92667,-5.997216 -1.12889,-3.42194 -1.41111,-5.3975 -1.19944,-8.60778 0.10583,-1.76389 0.38805,-5.75027 0.56444,-8.85472 0.49389,-7.83167 1.27,-11.994443 2.43417,-13.334997 0.49389,-0.529167 0.45861,-0.599723 -0.0353,-0.599723 -0.3175,0 -0.84666,0.388056 -1.16416,0.881943 z"
         inkscape:connector-curvature="0"
         style="stroke-width:0.03527778" />
      <path
         id="path10488"
         d="m -24.927245,70.318584 c -1.97556,0.98777 -4.23334,3.81 -5.29167,6.56166 -1.02306,2.57528 -1.27,9.24278 -0.52917,13.15861 0.98778,5.08 1.09361,6.45584 0.45861,7.40834 -0.84666,1.27 -2.57527,2.08139 -4.97416,2.29305 -1.79917,0.14111 -2.11667,0.282226 -2.2225,0.917226 -0.0706,0.38805 0.14111,0.9525 0.45861,1.19944 0.28222,0.24694 0.52917,0.74083 0.52917,1.09361 0,0.42333 0.70555,1.12889 1.905,1.905 3.31611,2.11667 3.63361,2.82222 4.40972,10.51278 0.59972,6.10305 2.57528,9.56028 5.99722,10.4775 1.65806,0.42333 3.98639,0 5.00944,-0.91722 1.12889,-0.98778 0.24695,-1.55223 -2.46944,-1.55223 -2.11667,0 -2.46944,-0.10583 -3.31611,-0.98777 -1.83445,-1.94028 -3.06917,-6.45584 -3.06917,-11.46528 0,-3.84528 -1.09361,-5.60917 -5.22111,-8.39611 l -1.86972,-1.27 2.18722,-0.45861 c 1.83445,-0.38806 2.50472,-0.74084 3.91583,-2.116666 2.01084,-1.94028 2.04612,-2.2225 0.9525,-7.9375 -0.98777,-5.22111 -0.84666,-11.50056 0.3175,-14.07583 0.84667,-1.86973 2.50473,-3.91584 3.91584,-4.86834 1.02305,-0.70555 3.24555,-0.81139 4.33916,-0.24694 1.19945,0.635 0.59973,-0.42333 -0.77611,-1.37583 -1.48166,-0.987783 -2.57527,-0.952504 -4.65666,0.14111 z"
         inkscape:connector-curvature="0"
         style="stroke-width:0.03527778" />
      <path
         id="path10490"
         d="m -84.017526,72.294134 c -3.563054,3.81 -6.596944,9.56028 -7.902221,14.95778 -2.116666,8.78417 1.763888,20.849166 6.773334,21.060826 1.5875,0.10584 1.693333,-0.77611 0.246943,-1.69333 -2.716389,-1.69333 -4.550833,-5.60917 -5.256389,-11.288886 -0.776111,-5.85611 0.493889,-10.72444 4.515556,-17.56833 1.5875,-2.64584 4.691944,-5.89139 5.644444,-5.89139 0.564446,0 0.599723,-0.42333 0.03528,-0.98778 -0.9525,-0.9525 -2.257779,-0.45861 -4.056946,1.41111 z"
         inkscape:connector-curvature="0"
         style="stroke-width:0.03527778" />
      <path
         id="path10492"
         d="m -68.812805,73.070244 c -0.10583,0.28223 0.59972,2.71639 1.5875,5.43278 0.98778,2.71639 1.94028,5.96195 2.15195,7.19667 0.52916,3.28083 0.42333,9.10166 -0.21167,12.20611 -0.67028,3.316106 -1.72861,5.362216 -4.05694,7.725826 -1.72862,1.76389 -2.01084,2.92806 -0.77612,2.92806 1.16417,0 5.11528,-4.86834 6.24417,-7.62 1.69333,-4.162776 2.04611,-13.017496 0.74083,-17.779996 -0.635,-2.29306 -2.96333,-9.10167 -3.42194,-9.98361 -0.35278,-0.70556 -1.97556,-0.81139 -2.25778,-0.10584 z"
         inkscape:connector-curvature="0"
         style="stroke-width:0.03527778" />
      <path
         id="path10494"
         d="m -18.330305,73.246634 c -0.10583,0.21167 -0.38805,0.3175 -0.56444,0.21167 -0.17639,-0.14111 -0.3175,-0.0353 -0.3175,0.14111 0,0.21167 0.21166,0.38806 0.49389,0.38806 0.56444,0 1.09361,-0.635 0.81138,-0.91723 -0.10583,-0.10583 -0.28222,0 -0.42333,0.17639 z"
         inkscape:connector-curvature="0"
         style="stroke-width:0.03527778" />
      <path
         id="path10496"
         d="m -80.419193,73.634694 c -0.105833,0.17639 -0.07055,0.35278 0.141113,0.35278 0.176387,0 0.45861,-0.17639 0.564444,-0.35278 0.105833,-0.21167 0.07056,-0.35278 -0.141111,-0.35278 -0.176389,0 -0.458612,0.14111 -0.564446,0.35278 z"
         inkscape:connector-curvature="0"
         style="stroke-width:0.03527778" />
      <path
         id="path10506"
         d="m -150.97475,90.709134 c -1.51694,0.67028 -3.84527,3.31611 -4.58611,5.25639 -1.41111,3.66889 0.3175,8.678326 3.38667,9.913056 1.79917,0.74083 2.96333,0.70555 4.72722,-0.10584 3.73945,-1.69333 5.96195,-7.020266 4.7625,-11.394716 -0.35278,-1.19944 -0.45861,-1.27 -1.72861,-1.02305 -0.0705,0.0353 0.0706,0.28222 0.3175,0.56444 1.09361,1.30528 -0.67028,6.455826 -2.8575,8.466666 -1.65805,1.48166 -2.78694,1.79916 -4.23333,1.23472 -2.46945,-1.02306 -3.31611,-5.961946 -1.48167,-8.643056 1.19945,-1.76389 2.04611,-2.50472 3.77472,-3.35139 1.27,-0.59972 1.30528,-0.67027 0.635,-1.02305 -0.91722,-0.49389 -1.41111,-0.45861 -2.71639,0.10583 z"
         inkscape:connector-curvature="0"
         style="stroke-width:0.03527778" />
      <path
         id="path10508"
         d="m -146.35336,91.167744 c -0.35277,0.10584 -0.84666,0.3175 -1.05833,0.49389 -0.21167,0.17639 -0.67028,0.52917 -1.05833,0.81139 -0.45861,0.3175 -0.56445,0.67028 -0.42334,1.19945 0.35278,1.02305 1.37584,0.98777 2.54,-0.10584 0.52917,-0.49389 1.55223,-0.98778 2.32834,-1.09361 1.48166,-0.24694 1.69333,-0.635 0.67027,-1.19944 -0.70555,-0.35278 -1.79916,-0.38806 -2.99861,-0.10584 z"
         inkscape:connector-curvature="0"
         style="stroke-width:0.03527778" />
      <path
         id="path10510"
         d="m -117.14336,93.002194 c -1.09361,0.49389 -1.62278,1.05833 -2.18722,2.18722 -0.635,1.41111 -0.74083,2.50472 -0.9525,11.112496 -0.17639,8.60778 -0.14111,9.59555 0.35278,10.01889 0.42333,0.35278 0.74083,0.38805 1.16416,0.10583 0.45862,-0.28222 0.56445,-0.77611 0.49389,-2.39889 -0.0706,-1.09361 -0.0353,-3.42194 0.10584,-5.15055 0.24694,-2.99861 0.28222,-3.13973 1.09361,-3.13973 0.45861,0 0.84666,-0.10583 0.84666,-0.28222 0,-0.14111 0.635,-0.21166 1.37584,-0.14111 2.57528,0.24695 6.45583,-2.15194 8.04333,-4.97416 0.98778,-1.763886 0.38806,-4.515556 -1.37583,-6.138336 -2.01084,-1.905 -6.17361,-2.46944 -8.96056,-1.19944 z m 5.82084,2.11666 c 2.43416,1.27 3.10444,2.75167 2.15194,4.903616 -0.9525,2.08138 -3.38667,3.59833 -5.85611,3.59833 -2.64583,0 -2.89278,-0.35278 -2.57528,-3.739446 0.17639,-1.86972 0.14111,-2.8575 -0.10583,-2.99861 -0.59972,-0.38805 0.0353,-1.02305 1.62278,-1.72861 1.905,-0.84666 3.10444,-0.84666 4.7625,-0.0353 z"
         inkscape:connector-curvature="0"
         style="stroke-width:0.03527778" />
      <path
         id="path10512"
         d="m -134.95864,93.496084 c -0.67027,0.42333 -1.62277,1.5875 -2.15194,2.54 -0.81139,1.44639 -0.98778,2.2225 -0.98778,4.233326 0,2.99861 0.81139,4.97417 2.54,6.31472 2.25778,1.69333 4.79778,0.84667 6.73806,-2.32833 1.34055,-2.15195 1.72861,-5.573886 0.77611,-6.632216 -1.05833,-1.16417 -1.44639,-0.84667 -1.44639,1.12889 0,1.09361 -0.3175,2.434156 -0.70556,3.280826 -0.67027,1.37583 -2.75166,3.13972 -3.45722,2.89278 -0.74083,-0.24695 -1.94028,-2.43417 -2.15194,-3.95111 -0.35278,-2.257776 1.51694,-6.173616 2.92805,-6.173616 0.28223,0 0.42334,0.21167 0.3175,0.49389 -0.24694,0.56445 0.28223,1.05834 1.44639,1.41111 0.56445,0.21167 0.77611,0.10584 0.77611,-0.28222 0,-0.42333 0.35278,-0.56444 1.41111,-0.56444 1.76389,0 1.79917,-0.56445 0.10584,-1.30528 -0.74084,-0.28222 -1.55222,-0.84667 -1.79917,-1.19944 -0.67028,-0.9525 -2.82222,-0.88195 -4.33917,0.14111 z"
         inkscape:connector-curvature="0"
         style="stroke-width:0.03527778" />
      <path
         id="path10520"
         d="m -119.6128,152.86857 c -0.28222,1.09362 0.81139,3.59834 2.78694,6.42056 0.74084,1.05833 1.30528,2.04611 1.23472,2.2225 -0.0705,0.14111 -1.51694,1.83444 -3.28083,3.70417 -4.05694,4.37444 -4.90361,5.78555 -3.42194,5.78555 0.67027,0 3.95111,-2.68111 3.95111,-3.24555 0,-0.21167 0.70555,-1.16417 1.5875,-2.11667 0.88194,-0.98778 1.5875,-1.905 1.5875,-2.08139 0,-0.81139 2.18722,0.91722 4.86833,3.88056 2.8575,3.10444 3.73944,3.63361 4.55083,2.82222 0.59973,-0.59972 0.21167,-1.27 -2.96333,-4.93889 -1.62278,-1.86972 -2.92805,-3.63361 -2.92805,-3.88056 0,-0.28222 1.27,-1.86972 2.82222,-3.56305 2.8575,-3.06917 3.175,-3.66889 2.39889,-4.445 -0.9525,-0.9525 -1.86973,-0.38806 -4.33917,2.57528 -1.34056,1.62277 -2.61056,2.92805 -2.82222,2.8575 -0.3175,-0.0706 -2.25778,-3.06917 -3.77472,-5.82084 -0.77612,-1.37583 -1.94028,-1.48166 -2.25778,-0.17639 z m 8.67833,6.63223 c 0,0.0705 -0.28222,0.35277 -0.59972,0.59972 -0.56445,0.45861 -0.59972,0.42333 -0.14111,-0.14111 0.45861,-0.56445 0.74083,-0.74084 0.74083,-0.45861 z"
         inkscape:connector-curvature="0"
         style="stroke-width:0.03527778" />
      <path
         id="path10522"
         d="m -59.781695,154.63246 c -1.62277,1.23473 -3.73944,3.98639 -4.48027,5.67973 -0.3175,0.74083 -0.635,2.78694 -0.74084,4.58611 -0.24694,5.00944 1.02306,7.69055 4.58611,9.48972 2.50473,1.27 4.72723,1.44639 6.6675,0.56444 4.37445,-1.97555 6.56167,-6.84389 6.27945,-13.79361 -0.21167,-4.05694 -1.55222,-5.67972 -5.64445,-6.63222 -4.23333,-0.98778 -5.29166,-0.98778 -6.6675,0.10583 z m 4.93889,2.36361 c 2.64584,0.0706 4.05695,0.77612 4.62139,2.29306 0.59972,1.55222 0.17639,7.05556 -0.67028,8.92528 -1.69333,3.63361 -3.10444,4.55083 -6.38527,4.16278 -3.95112,-0.45862 -5.50334,-2.54 -5.25639,-6.985 0.17639,-3.10445 0.98777,-5.15056 2.92805,-7.37306 0.91722,-1.05833 1.51695,-1.44639 1.905,-1.30528 0.3175,0.10584 1.5875,0.24695 2.8575,0.28222 z"
         inkscape:connector-curvature="0"
         style="stroke-width:0.03527778" />
      <path
         id="path10524"
         d="m -17.871695,154.91469 c -2.64583,0.35277 -3.175,0.52916 -3.98639,1.41111 -0.67027,0.74083 -0.88194,1.23472 -0.70555,1.76389 0.3175,0.88194 0.3175,0.42333 0,8.50194 -0.24695,6.06778 -0.24695,6.38528 0.42333,6.985 0.42333,0.35278 0.9525,0.52917 1.30528,0.38805 0.45861,-0.17638 0.56444,-0.67027 0.49389,-2.75166 -0.0353,-1.37583 -0.0353,-3.24556 0,-4.1275 l 0.0705,-1.62278 2.2225,-0.21167 c 1.19945,-0.14111 2.78695,-0.38805 3.52778,-0.59972 1.09361,-0.3175 1.34056,-0.52916 1.23472,-1.16416 -0.10583,-0.74084 -0.3175,-0.77612 -3.42194,-0.88195 l -3.28083,-0.10583 0.21166,-1.83445 c 0.14111,-0.98777 0.42334,-2.01083 0.59972,-2.2225 0.45862,-0.52916 4.90362,-1.55222 6.84389,-1.55222 1.94028,0 2.6811101,-0.74083 1.76389,-1.76389 -0.74083,-0.81139 -2.32833,-0.84666 -7.3025,-0.21166 z"
         inkscape:connector-curvature="0"
         style="stroke-width:0.03527778" />
      <path
         id="path10526"
         d="m -4.5014149,156.18469 c -2.18722,0.67027 -2.18722,0.635 -2.04611,10.75972 0.0353,3.35139 0.21167,6.13833 0.42333,6.35 0.21167,0.21166 0.52917,0.21166 0.9525,-0.0353 0.49389,-0.3175 0.635,-1.02306 0.70556,-3.73944 l 0.10583,-3.35139 2.89278,-0.21167 c 3.52778,-0.21167 4.19805,-0.45861 4.05694,-1.44639 -0.10583,-0.67028 -0.35278,-0.74083 -3.35139002,-0.84667 l -3.24554998,-0.10583 -0.24695,-1.23472 c -0.14111,-0.70556 -0.0353,-1.86972 0.17639,-2.61056 0.45861,-1.51694 1.41111,-1.86972 4.02166998,-1.55222 0.81139,0.10583 1.69333002,0.0353 1.97555002,-0.14111 0.67028,-0.45861 0.17639,-1.72861 -0.77611,-1.97556 -1.09361002,-0.28222 -4.48027,-0.21166 -5.64444,0.14112 z"
         inkscape:connector-curvature="0"
         style="stroke-width:0.03527778" />
      <path
         id="path10528"
         d="m 11.832195,156.07885 c -1.65806,0.56445 -2.7869399,1.23472 -2.9633299,1.79917 -0.84667,2.61055 -1.23473,13.61722 -0.56445,14.9225 0.21167,0.35278 0.67028,0.67028 1.05834,0.67028 0.635,0 0.7055499,-0.3175 0.7761099,-3.63361 l 0.10583,-3.59834 3.70417,-0.21166 c 2.04611,-0.14112 3.84527,-0.24695 3.98639,-0.28223 0.17638,0 0.24694,-0.45861 0.17638,-1.02305 -0.10583,-0.9525 -0.14111,-0.9525 -2.75166,-0.9525 -4.90361,-0.0353 -4.58611,0.10583 -4.58611,-2.2225 0,-2.96334 0.10583,-3.06917 4.09222,-3.13972 1.905,-0.0706 3.56305,-0.21167 3.73944,-0.38806 0.14111,-0.14111 0.0706,-0.56444 -0.17639,-0.91722 -0.67027,-0.91722 -5.00944,-1.5875 -6.59694,-1.02306 z"
         inkscape:connector-curvature="0"
         style="stroke-width:0.03527778" />
      <path
         id="path10530"
         d="m 26.719415,157.73691 c -3.24555,1.05833 -3.66889,2.11666 -3.73944,9.73666 l -0.0353,5.82084 h 0.88194 c 0.81139,0 0.88195,-0.14111 0.9525,-1.76389 0.0706,-0.98778 0.17639,-2.39889 0.28223,-3.175 l 0.17639,-1.41111 2.78694,0.10583 c 3.35139,0.17639 5.25639,-0.52917 4.62139,-1.69333 -0.3175,-0.59972 -0.81139,-0.70556 -3.63361,-0.77611 l -3.24556,-0.10584 -0.10583,-1.65805 c -0.10583,-1.55222 -0.0353,-1.69334 0.98778,-2.2225 0.59972,-0.3175 2.11666,-0.67028 3.38666,-0.84667 2.64584,-0.3175 3.38667,-0.81139 2.54,-1.69333 -0.77611,-0.77611 -3.91583,-0.9525 -5.85611,-0.3175 z"
         inkscape:connector-curvature="0"
         style="stroke-width:0.03527778" />
      <path
         id="path10532"
         d="m -93.119193,158.30135 c -0.881943,0.98778 -0.388054,2.04611 1.164167,2.43417 0.705556,0.21167 2.998613,0.45861 5.08,0.59972 3.457223,0.21167 3.81,0.17639 4.021667,-0.38805 0.529166,-1.30528 -0.3175,-1.72862 -4.409721,-2.32834 -2.151946,-0.3175 -4.233333,-0.67028 -4.586113,-0.77611 -0.423333,-0.10583 -0.9525,0.10583 -1.27,0.45861 z"
         inkscape:connector-curvature="0"
         style="stroke-width:0.03527778" />
      <path
         id="path10536"
         d="m 48.626915,159.00691 c -0.81139,0.17639 -1.83444,0.49389 -2.2225,0.70555 -1.65805,0.88195 -3.24555,6.42056 -3.31611,11.60639 -0.0353,2.64583 -0.0353,2.68111 0.84667,2.68111 0.84666,0 0.91722,-0.14111 1.37583,-3.28083 l 0.49389,-3.24556 3.03389,-0.0353 c 3.38666,0 5.43278,-0.52917 5.60916,-1.44639 0.21167,-1.02306 -0.98777,-1.30528 -4.51555,-0.98778 -1.83445,0.14111 -3.38667,0.24694 -3.45722,0.17639 -0.0353,-0.0353 0.0353,-0.56445 0.14111,-1.19945 0.28222,-1.44638 1.76389,-2.39888 4.09222,-2.71638 2.2225,-0.3175 2.8575,-1.02306 1.72861,-1.94028 -0.88194,-0.70556 -1.48167,-0.77611 -3.81,-0.3175 z"
         inkscape:connector-curvature="0"
         style="stroke-width:0.03527778" />
      <path
         id="path10540"
         d="m 58.469415,160.87663 c -0.28222,0.35278 -0.38805,0.98778 -0.24694,1.72861 0.10583,0.635 -0.0353,2.43417 -0.35278,3.98639 -0.28222,1.55222 -0.52917,4.37444 -0.52917,6.24417 0,3.13972 0.0706,3.42194 0.74084,3.63361 0.38805,0.14111 0.77611,0.17639 0.84666,0.10583 0.10584,-0.0706 0.24695,-1.23472 0.35278,-2.61056 0.14111,-1.34055 0.28222,-2.61055 0.35278,-2.82222 0.0705,-0.24694 1.55222,-0.49389 3.59833,-0.635 3.95111,-0.28222 4.72722,-0.56444 4.1275,-1.51694 -0.3175,-0.52917 -0.98778,-0.67028 -3.63361,-0.74083 l -3.21028,-0.10584 v -2.43416 c 0,-2.89278 0.17639,-2.99862 3.81,-2.68112 2.50472,0.24695 3.4925,-0.0705 3.13972,-0.98777 -0.35277,-0.88195 -1.79916,-1.27 -5.32694,-1.51695 -2.68111,-0.17639 -3.31611,-0.10583 -3.66889,0.35278 z"
         inkscape:connector-curvature="0"
         style="stroke-width:0.03527778" />
      <path
         id="path10546"
         d="m 71.557475,163.3108 c -0.35278,0.81139 -0.88195,3.13972 -1.55223,7.16139 -0.56444,3.24555 0.3175,6.38527 1.72861,6.10305 0.49389,-0.10583 0.56445,-0.49389 0.49389,-2.68111 l -0.14111,-2.57528 1.27,0.24695 c 1.62278,0.28222 4.86834,-0.10584 5.715,-0.70556 0.52917,-0.42333 0.56445,-0.56444 0.17639,-1.05833 -0.35278,-0.42334 -1.12889,-0.56445 -3.24555,-0.56445 h -2.78695 v -1.72861 c 0,-0.9525 0.21167,-1.86972 0.45861,-2.08139 0.21167,-0.17639 1.72861,-0.42333 3.31611,-0.49389 3.13973,-0.10583 4.05695,-0.56444 3.42195,-1.62277 -0.3175,-0.49389 -1.05834,-0.59973 -4.445,-0.70556 -3.91584,-0.10583 -4.05695,-0.0705 -4.40972,0.70556 z"
         inkscape:connector-curvature="0"
         style="stroke-width:0.03527778" />
      <path
         id="path10548"
         d="m -41.049195,163.91052 c -0.28222,0.49389 -0.14111,1.09361 0.56445,2.46944 l 0.9525,1.79917 -1.05834,1.09361 c -0.56444,0.59972 -1.44638,1.30528 -1.97555,1.5875 -1.02306,0.52917 -1.27,1.48167 -0.56445,2.18722 0.70556,0.70556 1.51695,0.49389 3.21028,-0.81139 0.88195,-0.67027 1.76389,-1.23472 1.905,-1.23472 0.17639,0 0.59972,0.49389 0.9525,1.09361 0.9525,1.62278 2.96333,3.4925 3.73945,3.4925 0.52916,0 0.70555,-0.24694 0.70555,-1.02305 0,-0.59973 -0.17639,-1.16417 -0.38805,-1.30528 -0.21167,-0.10583 -0.91723,-1.05833 -1.5875,-2.11667 -1.41112,-2.18722 -1.34056,-3.03389 0.24694,-4.58611 1.30528,-1.23472 1.44639,-2.96333 0.24694,-2.96333 -0.42333,0 -1.34055,0.56444 -2.04611,1.23472 l -1.27,1.23472 -1.16416,-1.41111 c -1.23472,-1.55222 -1.94028,-1.76389 -2.46945,-0.74083 z"
         inkscape:connector-curvature="0"
         style="stroke-width:0.03527778" />
      <path
         id="path10550"
         d="m 83.939975,163.66357 c -0.70556,1.09362 -1.19945,3.91584 -1.41112,8.04334 -0.21166,3.70416 -0.14111,4.48027 0.28223,4.86833 0.3175,0.24694 0.81139,0.35278 1.12889,0.21167 0.45861,-0.17639 0.56444,-0.74084 0.56444,-2.61056 0,-1.34055 0.14111,-2.50472 0.3175,-2.61055 0.17639,-0.14111 1.83444,0.0353 3.70417,0.35277 3.4925,0.59973 4.44501,0.42334 4.44501,-0.77611 0,-0.74083 -0.95251,-1.05833 -4.51557,-1.5875 l -3.28083,-0.45861 0.10583,-1.44639 0.10583,-1.41111 h 3.35139 c 2.8575,0 3.35139,-0.0705 3.45723,-0.59972 0.17638,-0.84667 -1.44639,-1.55222 -4.16278,-1.83444 -1.27,-0.14112 -2.64584,-0.35278 -3.03389,-0.42334 -0.42333,-0.10583 -0.91722,0 -1.05833,0.28222 z"
         inkscape:connector-curvature="0"
         style="stroke-width:0.03527778" />
      <path
         id="path10570"
         d="m -93.401413,165.95663 c -0.388057,0.38806 -0.282223,1.79917 0.176387,2.08139 0.81139,0.52917 7.549446,1.51694 8.819446,1.30528 2.645833,-0.38806 2.610554,-2.04611 0,-2.39889 -0.917223,-0.14111 -2.998613,-0.45861 -4.62139,-0.74084 -3.31611,-0.56444 -4.056943,-0.59972 -4.374443,-0.24694 z"
         inkscape:connector-curvature="0"
         style="stroke-width:0.03527778" />
      <path
         id="path10572"
         d="m 97.980525,166.13302 c -0.59973,0.77611 0.1411,2.04611 1.16417,2.04611 1.164175,0 1.516935,-0.88194 0.70556,-1.76389 -0.74083,-0.81139 -1.34056,-0.88194 -1.86973,-0.28222 z"
         inkscape:connector-curvature="0"
         style="stroke-width:0.03527778" />
      <path
         id="path10578"
         d="m 96.004965,176.68107 c -1.34054,0.81139 -1.83444,1.65806 -1.30527,2.18723 0.56443,0.56444 2.9986,-0.81139 3.13973,-1.79917 0.1411,-0.9525 -0.635,-1.12889 -1.83446,-0.38806 z"
         inkscape:connector-curvature="0"
         style="stroke-width:0.03527778" />
      <path
         id="path10580"
         d="m -171.61225,183.17218 c -0.59972,0.70556 0.10584,1.5875 1.30528,1.5875 2.15195,0 4.7625,2.18723 5.60917,4.69195 0.49389,1.48167 0.52917,2.64583 0.3175,7.69055 -0.21167,5.04473 -0.14111,6.17362 0.35278,7.69056 0.52916,1.65806 2.18722,3.59833 3.42194,3.98639 0.35278,0.14111 0.28222,0.56444 -0.38805,1.905 -0.67028,1.44639 -0.84667,2.39889 -0.91723,5.60916 -0.10583,3.98639 -0.24694,4.79778 -1.12889,7.69056 -0.70555,2.18722 -3.03388,5.75028 -3.95111,6.06778 -0.38805,0.10583 -1.16416,-0.0353 -1.76389,-0.3175 -1.23472,-0.67028 -2.50472,-0.74084 -2.50472,-0.17639 0,0.21167 0.52917,0.91722 1.19945,1.5875 2.57527,2.57528 5.78555,0.9525 8.43139,-4.26861 1.48166,-2.96334 2.01083,-5.32695 2.04611,-9.31334 0.0706,-5.25638 0.21166,-5.715 1.905,-6.49111 3.52777,-1.5875 3.88055,-1.83444 3.98639,-2.78694 0.17638,-1.37583 -1.02306,-2.04611 -3.73945,-2.04611 -2.82222,0 -3.4925,-0.35278 -4.37444,-2.36361 -0.59973,-1.34056 -0.67028,-2.04611 -0.49389,-4.1275 0.14111,-1.37584 0.24694,-4.09222 0.28222,-6.06778 0.0353,-3.13972 -0.0706,-3.77472 -0.91722,-5.64444 -1.02306,-2.2225 -2.61056,-4.1275 -4.16278,-4.93889 -1.27,-0.67028 -3.95111,-0.635 -4.51556,0.0353 z"
         inkscape:connector-curvature="0"
         style="stroke-width:0.03527778" />
    </g>
    <g
       id="g12094"
       transform="rotate(-0.31998285,-2515.6226,-5390.1607)">
      <path
         id="path10498"
         d="m 334.76497,80.302194 c -3.81,1.72861 -6.8086,7.83166 -7.54944,15.45166 -0.56446,6.067776 -0.8114,6.455836 -3.88056,6.455836 -3.28084,0 -4.09223,1.34055 -1.94027,3.24555 0.70554,0.59972 1.69333,1.83445 2.2225,2.71639 0.88193,1.51695 0.9525,1.83445 0.7761,4.97417 -0.38806,8.39611 0.0353,11.81805 1.7639,14.64028 1.44637,2.32833 5.43277,3.66888 7.2672,2.46944 1.16417,-0.74083 0.635,-1.41111 -1.34053,-1.72861 -4.65667,-0.74083 -5.4328,-3.21028 -4.83307,-15.59278 0.1411,-3.03389 0.10583,-3.28083 -0.98777,-5.36222 -0.635,-1.19945 -1.16416,-2.32833 -1.16416,-2.50472 0,-0.17639 0.49387,-0.38806 1.05833,-0.52917 2.3636,-0.45861 3.3161,-2.54 3.73943,-8.149166 0.42334,-5.96194 2.25777,-10.86555 4.9389,-13.19388 1.37584,-1.23473 2.29304,-1.34056 4.1275,-0.56445 1.5875,0.635 2.01084,0.67028 2.01084,0.0706 0,-0.52917 -1.5875,-2.08139 -2.7164,-2.68111 -1.05834,-0.52917 -1.79917,-0.49389 -3.4925,0.28222 z"
         inkscape:connector-curvature="0"
         style="stroke-width:0.03527778" />
      <path
         id="path10500"
         d="m 214.89107,84.817744 c -0.1411,0.14111 -0.1411,1.94028 0,3.98639 0.14113,2.64584 0,6.0325 -0.56444,11.747496 -0.635,6.77333 -0.70556,8.53722 -0.35276,11.21833 0.42333,3.56306 1.51693,6.20889 2.96333,7.12612 1.2347,0.81138 3.81,0.77611 4.83304,-0.0706 0.91723,-0.74083 0.81139,-0.84667 -1.41111,-1.23472 -1.86973,-0.3175 -2.71639,-1.05834 -3.35139,-2.92806 -0.9525,-2.75166 -1.05834,-7.09083 -0.38804,-13.51139 0.5997,-5.679716 0.5997,-14.428606 0,-15.980826 -0.24696,-0.59972 -1.27,-0.81139 -1.72863,-0.35278 z"
         inkscape:connector-curvature="0"
         style="stroke-width:0.03527778" />
      <path
         id="path10502"
         d="m 292.11413,87.040244 c -0.10583,0.21167 0.1764,1.37584 0.67027,2.61056 1.37584,3.42194 1.97557,6.42055 1.97557,9.98361 0,7.443606 -2.57527,13.652496 -6.77334,16.368886 -0.9525,0.59972 -1.69333,1.23472 -1.69333,1.41111 0,0.59972 1.69333,0.70555 2.7164,0.17639 1.48167,-0.74084 4.69193,-4.33917 5.46804,-6.10306 1.12889,-2.57528 2.32833,-7.26722 2.57529,-10.16 0.35277,-4.162766 -1.09363,-11.147766 -2.82223,-13.828886 -0.56443,-0.84666 -1.7286,-1.09361 -2.11667,-0.45861 z"
         inkscape:connector-curvature="0"
         style="stroke-width:0.03527778" />
      <path
         id="path10504"
         d="m 282.3422,88.345524 c -2.61057,2.71639 -5.82083,8.46667 -7.51417,13.334996 -1.86973,5.43278 -1.23473,11.78278 1.44637,14.9225 1.41113,1.69333 4.1275,2.61056 5.00947,1.72861 0.67026,-0.70555 0.2822,-1.23472 -1.55224,-2.01083 -1.23473,-0.52917 -1.7286,-1.02306 -2.50473,-2.54 -0.88193,-1.69334 -0.9525,-2.2225 -0.9525,-5.75028 0,-3.56306 0.0706,-4.1275 1.1289,-6.70278 1.37583,-3.527766 4.79777,-9.313326 6.73807,-11.535826 1.5875,-1.76389 1.7286,-2.2225 0.88193,-2.54 -1.02306,-0.38806 -1.4111,-0.21167 -2.6811,1.09361 z"
         inkscape:connector-curvature="0"
         style="stroke-width:0.03527778" />
      <path
         id="path10514"
         d="m 256.06024,106.09024 c -1.69334,1.02306 -2.99861,3.31611 -3.13971,5.50334 -0.0706,1.02305 -0.38806,2.8575 -0.67029,4.09222 -0.70554,2.75166 -1.05834,10.83028 -0.56444,11.57111 0.3175,0.45861 0.42333,0.45861 0.9525,-0.0353 0.52917,-0.56444 0.7761,-1.97555 1.4111,-8.21972 l 0.21167,-2.04611 1.51696,0.21166 c 2.6811,0.42334 6.20887,-1.30527 7.54944,-3.70416 1.48166,-2.61056 0.70556,-4.69195 -2.57527,-7.05556 -1.6228,-1.19944 -3.10446,-1.30528 -4.69196,-0.3175 z m 4.37446,3.03389 c 1.51693,1.16417 1.5875,2.78695 0.21167,4.09222 -1.41113,1.30528 -2.32834,1.69334 -3.9864,1.69334 h -1.48167 l 0.24694,-3.10445 c 0.14113,-1.69333 0.42333,-3.28083 0.635,-3.52778 0.56446,-0.70555 2.96333,-0.24694 4.37446,0.84667 z"
         inkscape:connector-curvature="0"
         style="stroke-width:0.03527778" />
      <path
         id="path10516"
         d="m 242.72524,106.51358 c -0.38804,0.21166 -1.23471,0.88194 -1.86971,1.48166 -4.55083,4.23334 -3.52779,11.85334 1.5875,11.85334 3.84527,0 7.1261,-3.63362 7.16137,-7.9375 0,-2.25778 -1.16416,-4.05695 -3.28083,-5.08 -1.69333,-0.81139 -2.54,-0.91723 -3.59833,-0.3175 z m 2.64583,3.03388 c 1.41113,0.28223 1.7639,0.77612 1.7639,2.32834 -0.0353,1.65805 -0.42334,2.46944 -2.0461,4.23333 -1.37584,1.51695 -2.54,1.62278 -3.77474,0.38806 -1.44639,-1.41111 -1.0936,-3.4925 1.1289,-6.45584 0.635,-0.84666 1.05834,-1.09361 1.48167,-0.91722 0.3175,0.10583 0.9525,0.3175 1.44637,0.42333 z"
         inkscape:connector-curvature="0"
         style="stroke-width:0.03527778" />
      <path
         id="path10518"
         d="m 230.37803,106.83108 c -1.51696,0.42333 -3.95113,2.57527 -4.7625,4.23333 -2.01083,3.88055 0.635,9.13694 4.55084,9.13694 4.02166,0 6.59693,-3.77472 5.6797,-8.255 -0.9525,-4.72722 -2.3636,-6.0325 -5.46804,-5.11527 z m 2.8575,3.88055 c 1.02304,2.01083 0.4586,4.90361 -1.23473,6.45583 -0.91723,0.84667 -2.96333,0.52917 -3.73943,-0.59972 -1.37584,-1.97555 -0.74084,-4.7625 1.5875,-6.70278 0.9525,-0.81138 1.19943,-0.88194 1.97553,-0.52916 0.4939,0.24694 1.1289,0.84666 1.41113,1.37583 z"
         inkscape:connector-curvature="0"
         style="stroke-width:0.03527778" />
      <path
         id="path10534"
         d="m 268.30163,159.39496 c -0.67026,0.59973 -3.03389,2.78695 -5.25639,4.83306 -3.03387,2.82222 -4.05694,3.59833 -4.26861,3.21028 -0.17639,-0.28223 -0.98776,-1.83445 -1.83443,-3.4925 -1.51696,-2.99861 -1.51696,-2.99861 -2.99863,-3.10445 -1.37583,-0.10583 -1.51694,-0.0353 -1.51694,0.74084 0,0.45861 0.45861,1.23472 0.98777,1.76388 0.52917,0.52917 1.6228,2.2225 2.36363,3.81 l 1.4111,2.8575 -1.4111,1.23473 c -3.95113,3.56305 -6.87916,6.52638 -6.87916,6.985 0,0.77611 0.98776,1.05833 1.94026,0.52916 0.45861,-0.24694 2.25777,-1.79916 4.02167,-3.38666 1.7286,-1.62278 3.3514,-2.96334 3.59833,-2.96334 0.21167,0 1.16417,0.70556 2.0814,1.55222 1.65804,1.55223 4.79777,3.38667 5.75027,3.38667 0.67027,0 1.34057,-0.81139 1.02307,-1.27 -0.14113,-0.21167 -1.41113,-1.12889 -2.82224,-2.08139 -2.39889,-1.5875 -3.9511,-3.175 -3.9511,-3.98639 0,-0.21166 0.3175,-0.59972 0.70554,-0.88194 0.91723,-0.635 6.91446,-6.45583 8.39613,-8.14917 2.11667,-2.39889 1.02304,-3.70416 -1.34057,-1.5875 z"
         inkscape:connector-curvature="0"
         style="stroke-width:0.03527778" />
      <path
         id="path10538"
         d="m 307.45997,159.32441 c -4.5861,0.91722 -9.17223,9.06639 -7.7611,13.89944 0.2822,1.02306 0.88193,1.83445 1.83443,2.61056 1.19944,0.98777 1.69333,1.16416 3.24557,1.16416 2.29303,0 5.00943,-1.27 6.985,-3.31611 3.42193,-3.4925 4.62137,-9.17222 2.57526,-12.24139 -1.4111,-2.15194 -3.45723,-2.78694 -6.87916,-2.11666 z m 4.55083,2.92805 c 0.38807,0.35278 0.7761,1.27 0.9525,2.2225 0.1764,1.34056 0.0706,2.04611 -0.7761,3.95111 -0.52917,1.30528 -1.4464,2.89278 -2.01083,3.52778 -1.48167,1.69333 -4.26863,3.06917 -5.78557,2.82222 -1.86973,-0.3175 -2.3989,-1.09361 -2.3636,-3.56305 0.0353,-2.82222 1.30527,-5.64445 3.56304,-7.86695 1.62279,-1.62277 1.76389,-1.69333 3.70416,-1.69333 1.37584,0 2.2578,0.17639 2.7164,0.59972 z"
         inkscape:connector-curvature="0"
         style="stroke-width:0.03527778" />
      <path
         id="path10542"
         d="m 342.91413,160.7708 c -0.56443,0.17639 -1.65806,0.45861 -2.43416,0.67027 -3.13973,0.77612 -5.82084,4.40973 -6.13834,8.32556 -0.21166,2.68111 0.24694,4.02167 1.79917,5.32694 0.9525,0.81139 1.34057,0.91723 2.89277,0.74084 3.38667,-0.35278 6.24417,-2.54 8.04333,-6.24417 1.34057,-2.71639 1.4464,-4.7625 0.3175,-6.91444 -0.52916,-1.02306 -1.0936,-1.5875 -1.8697,-1.86973 -1.23473,-0.42333 -1.1289,-0.42333 -2.61057,-0.0353 z m 3.13974,2.89277 c 0.70553,0.98778 0.74083,3.52778 0.0353,4.83306 -0.7761,1.51694 -4.37443,4.58611 -5.92666,5.04472 -1.1289,0.35278 -1.55223,0.3175 -2.32834,-0.10583 -0.84666,-0.49389 -0.91723,-0.70556 -0.91723,-2.82222 0,-1.94028 0.1764,-2.57528 1.05834,-4.02167 0.59973,-0.91722 1.51696,-2.01083 2.04613,-2.43417 0.84666,-0.59972 1.69333,-0.81139 5.08,-1.23472 0.21166,0 0.67026,0.3175 0.9525,0.74083 z"
         inkscape:connector-curvature="0"
         style="stroke-width:0.03527778" />
      <path
         id="path10544"
         d="m 352.1569,163.66357 c -2.5047,2.54 -3.91583,7.37306 -2.75166,9.56028 1.05833,1.97556 4.09223,2.2225 7.37306,0.56445 4.2686,-2.11667 6.59694,-6.63223 4.69194,-9.10167 -0.42334,-0.56444 -1.44637,-1.05833 -3.24554,-1.51694 -4.55083,-1.19945 -4.33917,-1.23473 -6.0678,0.49388 z m 6.80863,2.18723 c 1.4111,0.635 1.30527,1.72861 -0.38806,3.56305 -1.51694,1.65806 -4.33917,3.35139 -5.5386,3.35139 -1.6228,0 -1.9403,-1.97555 -0.74084,-4.58611 0.38804,-0.88194 1.05834,-1.94028 1.44637,-2.39889 0.6703,-0.67028 0.9878,-0.74083 2.54,-0.56444 0.9878,0.14111 2.18723,0.38805 2.68113,0.635 z"
         inkscape:connector-curvature="0"
         style="stroke-width:0.03527778" />
      <path
         id="path10552"
         d="m 366.4444,164.82774 c -2.75166,2.46945 -3.7747,7.51417 -1.97553,9.66611 0.81137,0.9525 1.12887,1.09361 2.71637,1.09361 4.33916,0 8.36083,-3.59833 8.36083,-7.40833 -0.0353,-2.61056 -1.7286,-3.98639 -5.5386,-4.40972 -2.0814,-0.24695 -2.15194,-0.24695 -3.56307,1.05833 z m 5.3975,2.01083 c 1.48167,0.38806 1.5875,0.52917 1.5875,1.5875 0,2.25778 -4.2686,5.46806 -6.52637,4.90361 -0.9525,-0.24694 -0.9525,-0.3175 -0.77613,-2.04611 0.14113,-0.9525 0.635,-2.46944 1.1289,-3.31611 1.02307,-1.72861 1.69333,-1.905 4.5861,-1.12889 z"
         inkscape:connector-curvature="0"
         style="stroke-width:0.03527778" />
      <path
         id="path10554"
         d="m 406.06137,164.2633 c -0.14113,0.24694 -0.6703,0.3175 -1.41113,0.17639 -4.05694,-0.74084 -7.86694,6.73805 -5.46804,10.72444 2.08137,3.38667 8.7136,2.68111 11.43,-1.27 1.97554,-2.82222 1.5522,-7.19667 -0.84667,-8.96056 -1.1289,-0.81138 -3.3514,-1.19944 -3.70416,-0.67027 z m 2.96333,3.06916 c 1.02304,1.30528 0.98777,3.70417 -0.0353,5.11528 -0.9172,1.23472 -3.70416,2.78694 -5.00943,2.78694 -1.27,0 -2.64584,-0.70555 -2.89277,-1.48166 -0.4939,-1.55222 0.7761,-5.08 2.32833,-6.45583 l 0.7761,-0.70556 0.635,0.81139 c 0.84667,1.02305 1.34057,0.98778 1.7639,-0.10583 0.42334,-1.16417 1.51694,-1.12889 2.43417,0.0353 z"
         inkscape:connector-curvature="0"
         style="stroke-width:0.03527778" />
      <path
         id="path10556"
         d="m 422.11274,164.47496 c -0.3175,0.38806 -0.88194,0.45861 -2.32834,0.3175 -1.8697,-0.24694 -2.92803,0.14111 -4.23333,1.44639 -1.16417,1.12889 -2.29304,4.83306 -2.0461,6.63222 0.42333,3.03389 1.69333,4.1275 4.6214,4.1275 4.5861,0 8.89,-4.40972 8.92526,-9.10166 0,-1.905 -0.42333,-2.71639 -1.76389,-3.42195 -1.30527,-0.67027 -2.61054,-0.67027 -3.175,0 z m 2.39889,2.36361 c 0.56444,0.56445 0.52917,2.2225 -0.10583,3.42195 -1.1289,2.18722 -4.79777,4.62139 -6.94973,4.62139 -2.29304,0 -1.5522,-5.96195 0.91723,-7.58472 0.74083,-0.49389 1.0936,-0.49389 2.32833,-0.14112 1.30527,0.38806 1.51694,0.38806 1.83444,-0.14111 0.38806,-0.70555 1.37583,-0.77611 1.97556,-0.17639 z"
         inkscape:connector-curvature="0"
         style="stroke-width:0.03527778" />
      <path
         id="path10558"
         d="m 278.77913,164.54552 c -0.49389,0.45861 -0.21166,1.51694 0.4939,1.86972 1.02304,0.56445 6.4911,0.10583 7.09084,-0.59972 0.81137,-0.98778 -0.59974,-1.51695 -4.1275,-1.51695 -1.79917,0 -3.3514,0.10584 -3.45724,0.24695 z"
         inkscape:connector-curvature="0"
         style="stroke-width:0.03527778" />
      <path
         id="path10560"
         d="m 430.6147,165.5333 c -1.27,1.09361 -2.68113,3.52777 -3.3514,5.85611 -0.59973,2.01083 -0.24693,3.88055 0.9525,4.72722 0.88194,0.635 3.9864,0.70555 5.8561,0.14111 4.1275,-1.23472 7.05557,-5.82083 5.64447,-8.89 -0.56447,-1.23472 -2.04613,-1.94028 -4.7625,-2.36361 -3.24557,-0.45861 -3.10447,-0.45861 -4.33917,0.52917 z m 3.1397,2.8575 c 0.45863,1.16416 1.86973,1.05833 2.04613,-0.14111 0.24694,-1.65806 1.83444,-0.59973 1.83444,1.23472 0,2.39889 -4.05694,5.32694 -6.94973,4.97416 -1.83444,-0.21166 -1.44637,-2.78694 0.84666,-5.85611 1.02307,-1.37583 1.7639,-1.44639 2.2225,-0.21166 z"
         inkscape:connector-curvature="0"
         style="stroke-width:0.03527778" />
      <path
         id="path10562"
         d="m 381.96663,165.8508 c -1.34056,1.02305 -1.76389,1.55222 -2.71639,3.56305 -1.79917,3.63361 -0.81137,6.42056 2.36363,6.77333 1.34053,0.14112 2.08137,0 3.91583,-0.84666 3.88054,-1.83445 5.8561,-4.62139 5.15054,-7.3025 -0.56444,-2.08139 -2.25777,-2.96333 -5.57387,-2.92806 -1.65807,0 -2.43417,0.17639 -3.13974,0.74084 z m 3.81,2.15194 c 0.3175,0.38806 0.77611,0.49389 1.41111,0.35278 0.70556,-0.14111 1.02306,-0.0706 1.19946,0.38805 0.5997,1.62278 -3.3514,5.08 -5.82083,5.08 -1.69334,0 -1.905,-0.59972 -1.02307,-2.89277 1.1289,-3.03389 3.06917,-4.33917 4.23333,-2.92806 z"
         inkscape:connector-curvature="0"
         style="stroke-width:0.03527778" />
      <path
         id="path10564"
         d="m 447.0894,165.25107 c -0.52916,0.0706 -1.76387,0.84667 -2.71637,1.72862 -2.15196,1.94027 -3.38666,4.7625 -3.10446,7.19666 0.24696,2.15195 1.1289,2.82222 3.81,2.82222 2.32833,0 3.3514,-0.35277 5.64446,-2.01083 2.64584,-1.86972 3.91584,-5.67972 2.57527,-7.72583 -0.98777,-1.51695 -3.6689,-2.36361 -6.2089,-2.01084 z m 3.6689,2.82223 c 0.98777,0.88194 0.7761,2.36361 -0.4939,3.84527 -1.16416,1.30528 -4.2686,2.96334 -5.57387,2.96334 -1.48166,0 -1.1289,-2.71639 0.70554,-5.32695 0.6703,-0.91722 0.88196,-0.98777 2.11667,-0.81139 1.16416,0.17639 1.37583,0.10584 1.5875,-0.52916 0.28223,-0.88195 0.77613,-0.9525 1.65806,-0.14111 z"
         inkscape:connector-curvature="0"
         style="stroke-width:0.03527778" />
      <path
         id="path10566"
         d="m 459.57774,165.70969 c -0.77611,1.23472 -0.52917,1.76388 0.77613,1.76388 1.48166,0 1.97553,-1.12888 0.81137,-1.94027 -0.9525,-0.67028 -1.05834,-0.67028 -1.5875,0.17639 z"
         inkscape:connector-curvature="0"
         style="stroke-width:0.03527778" />
      <path
         id="path10568"
         d="m 319.8072,166.20357 c 0,0.45862 0.24693,1.41112 0.52917,2.08139 0.2822,0.70556 0.52916,1.48167 0.52916,1.72861 0,0.24695 -0.88196,1.37584 -1.94029,2.50473 -1.05834,1.12888 -1.94027,2.25777 -1.94027,2.57527 0,1.30528 2.3989,0.84667 3.91583,-0.77611 1.02307,-1.09361 1.1289,-1.05833 2.78694,0.24695 1.05833,0.84666 1.5875,1.05833 2.25779,0.88194 1.27,-0.3175 1.12887,-1.05833 -0.3175,-2.18722 -1.83446,-1.37583 -1.94029,-2.32833 -0.38806,-4.02167 1.5875,-1.76389 1.69333,-2.82222 0.28223,-2.82222 -0.56446,0 -1.3053,0.3175 -1.65807,0.70556 -0.84666,0.9525 -1.12889,0.88194 -1.4111,-0.24695 -0.28223,-1.12889 -0.74083,-1.51694 -1.83446,-1.51694 -0.635,0 -0.81137,0.21166 -0.81137,0.84666 z"
         inkscape:connector-curvature="0"
         style="stroke-width:0.03527778" />
      <path
         id="path10574"
         d="m 278.63803,170.50746 c -0.45863,1.23473 0.35277,1.72861 3.175,1.83445 2.92804,0.10583 4.1275,-0.28222 4.1275,-1.30528 0,-0.84667 -0.91723,-1.09361 -4.33916,-1.09361 -2.2225,0 -2.78697,0.10583 -2.96334,0.56444 z"
         inkscape:connector-curvature="0"
         style="stroke-width:0.03527778" />
      <path
         id="path10576"
         d="m 458.48413,176.43413 c -1.30526,2.29305 -1.69333,3.88055 -1.0936,4.62139 0.67027,0.81139 1.37584,0.635 1.79917,-0.45861 0.21167,-0.52917 0.81137,-1.83445 1.27,-2.96334 0.98777,-2.11666 0.9172,-3.10444 -0.21167,-3.10444 -0.45863,0 -1.05833,0.635 -1.7639,1.905 z"
         inkscape:connector-curvature="0"
         style="stroke-width:0.03527778" />
      <path
         id="path10582"
         d="m 347.35913,191.46246 c -1.83443,0.42334 -3.03389,1.51695 -2.9986,2.68111 0.0353,0.56445 -0.1764,3.06917 -0.42333,5.60917 -0.52917,5.00944 -0.59973,7.9375 -0.28223,8.78417 0.28223,0.74083 1.7639,0.74083 2.0461,0 0.10583,-0.3175 0.24696,-1.51695 0.24696,-2.71639 0.0353,-1.19945 0.1411,-2.68111 0.28221,-3.24556 0.17639,-0.88194 0.35279,-1.05833 1.16416,-0.9525 1.05834,0.14111 6.87917,-1.72861 8.21973,-2.61055 0.4939,-0.3175 0.88194,-0.77611 0.88194,-1.02306 0,-0.88194 -1.76387,-0.88194 -5.15054,0 -4.69196,1.19945 -4.72723,1.19945 -4.72723,-0.635 0,-3.175 0.28223,-3.42194 4.40973,-3.73944 1.94027,-0.17639 2.46944,-0.35278 2.57527,-0.81139 0.24694,-1.34056 -3.13973,-2.08139 -6.24417,-1.34056 z"
         inkscape:connector-curvature="0"
         style="stroke-width:0.03527778" />
      <path
         id="path10584"
         d="m 310.21163,192.5208 c -2.57526,0.9525 -4.09223,2.04611 -5.60916,3.95111 -3.3514,4.23333 -2.96334,9.66611 0.8114,11.60639 5.29166,2.71638 12.27666,-2.43417 12.27666,-9.03112 0,-2.96333 -0.59973,-4.72722 -2.01083,-6.06777 -1.41113,-1.37584 -2.82223,-1.48167 -5.46807,-0.45861 z m 2.11667,2.89277 c 0.98777,0.35278 1.27,0.35278 1.37583,0 0.3175,-0.88194 1.05834,-0.38805 1.48167,1.02306 1.02307,3.45722 -0.74083,7.47889 -3.9511,8.96055 -2.04613,0.98778 -2.82223,1.05834 -4.40973,0.49389 -2.92807,-1.02305 -2.92807,-4.65666 -0.0353,-8.18444 0.98777,-1.19945 3.1397,-2.64583 3.98637,-2.71639 0.1764,0 0.88196,0.21167 1.55223,0.42333 z"
         inkscape:connector-curvature="0"
         style="stroke-width:0.03527778" />
      <path
         id="path10586"
         d="m 361.9994,192.09746 c -0.42333,0.17639 -0.9525,1.12889 -1.34053,2.39889 -0.9525,2.89278 -0.9525,3.03389 -1.02307,6.84389 -0.0706,4.02167 0.42333,5.89139 1.7286,6.38528 1.41113,0.52916 1.72863,-0.10584 1.02307,-2.04611 -0.3175,-0.9525 -0.59973,-2.25778 -0.59973,-2.96334 v -1.27 l 2.99863,-0.24694 c 2.89276,-0.24695 5.46803,-0.98778 5.46803,-1.55222 0,-0.84667 -1.05833,-1.12889 -4.0922,-1.12889 -3.8453,0 -4.26863,-0.24695 -3.6689,-2.43417 0.42333,-1.65805 0.98777,-1.83444 5.18583,-1.69333 3.0339,0.0705 3.84527,-0.38806 2.68111,-1.55222 -0.59971,-0.59973 -1.27,-0.74084 -4.19804,-0.88195 -1.9403,-0.0705 -3.81,0 -4.1628,0.14111 z"
         inkscape:connector-curvature="0"
         style="stroke-width:0.03527778" />
      <path
         id="path10588"
         d="m 252.88524,193.19107 c -0.38804,0.59973 -0.24694,1.09361 0.77613,3.28084 0.67026,1.41111 1.2347,2.71639 1.2347,2.92805 0,0.17639 -0.67027,1.05834 -1.44637,1.94028 -2.18723,2.39889 -3.2103,4.09222 -3.06917,5.00944 0.21167,1.62278 1.4111,1.09362 3.45721,-1.48166 1.05833,-1.34056 2.15196,-2.43417 2.39889,-2.46945 0.24694,0 0.59974,0.38806 0.77611,0.88195 0.17639,0.49389 1.27,1.83444 2.39889,2.99861 1.7639,1.83444 2.2225,2.11666 3.3514,2.11666 1.16417,0 1.30527,-0.10583 1.30527,-0.88194 0,-0.67028 -0.35277,-1.02305 -1.37583,-1.5875 -1.27,-0.635 -4.6214,-4.65667 -4.6214,-5.50333 0,-0.14111 1.1289,-1.41111 2.50473,-2.82222 1.83444,-1.94028 2.46944,-2.78695 2.3636,-3.38667 -0.21166,-1.51695 -1.30527,-1.16417 -3.6336,1.12889 l -2.2225,2.2225 -0.635,-1.19945 c -0.35277,-0.67027 -0.70556,-1.76389 -0.8114,-2.43416 -0.17637,-1.05834 -0.38803,-1.23473 -1.27,-1.34056 -0.74083,-0.0706 -1.19943,0.10583 -1.48166,0.59972 z"
         inkscape:connector-curvature="0"
         style="stroke-width:0.03527778" />
      <path
         id="path10590"
         d="m 376.03997,193.89663 c -1.34057,0.59972 -1.51694,0.84667 -1.905,2.57528 -0.98777,4.58611 -1.1289,10.08944 -0.21167,10.83027 1.16417,0.9525 1.4464,0.59973 1.62277,-2.08138 l 0.1764,-2.64584 3.52777,-0.21166 c 4.1275,-0.28223 5.11529,-0.52917 5.11529,-1.37584 0,-0.91722 -0.84666,-1.12889 -4.51556,-1.09361 -1.79917,0.0353 -3.42194,-0.0353 -3.56307,-0.14111 -0.35276,-0.17639 0.1764,-2.99861 0.635,-3.45722 0.14113,-0.14111 1.7639,-0.42334 3.59834,-0.635 3.81,-0.42334 4.51556,-0.77611 3.63363,-1.76389 -0.84667,-0.9525 -6.0325,-0.9525 -8.1139,0 z"
         inkscape:connector-curvature="0"
         style="stroke-width:0.03527778" />
      <path
         id="path10592"
         d="m 412.23497,193.72024 c -1.05834,0.21167 -2.11667,0.49389 -2.32834,0.635 -0.56443,0.38806 -1.30526,7.62 -1.02306,9.94833 0.21167,1.48167 0.42333,2.01084 0.91723,2.15195 1.16417,0.38805 1.4111,-0.14111 1.30527,-2.57528 -0.10583,-2.32833 -0.10583,-2.36361 0.77613,-2.2225 2.96333,0.42333 6.35,-0.21167 6.35,-1.16417 0,-0.98777 -0.91723,-1.27 -3.95113,-1.27 -3.3161,0 -3.4572,-0.0705 -2.78694,-1.83444 0.35277,-0.98778 2.78694,-1.69333 5.715,-1.69333 2.01084,0 2.57527,-0.635 1.55224,-1.76389 -0.74084,-0.81139 -3.24557,-0.88195 -6.5264,-0.21167 z"
         inkscape:connector-curvature="0"
         style="stroke-width:0.03527778" />
      <path
         id="path10594"
         d="m 390.6097,194.70802 c -2.01083,0.70555 -4.05696,7.12611 -3.59833,11.1125 0.21166,1.76389 0.52916,2.29305 1.51693,2.43416 0.52917,0.10584 0.4939,0.21167 0.59973,-3.24555 0.0353,-1.55222 0.17637,-3.03389 0.3175,-3.24556 0.17637,-0.3175 0.70554,-0.14111 1.86971,0.52917 1.37583,0.81139 2.01083,0.91722 4.58613,0.9525 2.5047,0.0353 3.06916,-0.0706 3.42193,-0.56444 0.59973,-0.98778 -0.38806,-1.62278 -2.78693,-1.86973 -1.16417,-0.10583 -3.0339,-0.45861 -4.1275,-0.77611 -2.18724,-0.59972 -2.46947,-1.09361 -1.48167,-2.50472 0.49387,-0.70556 0.81137,-0.77611 4.05693,-0.77611 2.92807,0 3.56307,-0.10583 3.73944,-0.59972 0.14113,-0.35278 -0.0705,-0.81139 -0.56444,-1.23473 -0.67026,-0.49388 -1.4111,-0.635 -3.70416,-0.59972 -1.55223,0 -3.3161,0.17639 -3.84527,0.38806 z"
         inkscape:connector-curvature="0"
         style="stroke-width:0.03527778" />
      <path
         id="path10596"
         d="m 427.5808,194.49635 c -0.38806,0.0706 -1.55223,0.3175 -2.57527,0.52917 -2.25779,0.45861 -2.57529,0.98778 -3.42196,5.85611 -0.5997,3.35139 -0.42333,5.82083 0.42333,6.6675 0.9878,0.98778 1.34057,0.35278 1.51697,-2.96333 0.10583,-1.76389 0.2822,-3.28084 0.42333,-3.42195 0.10583,-0.14111 0.70554,0.0353 1.30527,0.3175 1.05833,0.56445 4.72723,0.77611 6.31473,0.35278 0.42333,-0.14111 0.7761,-0.49389 0.7761,-0.84667 0,-0.81139 -2.15193,-1.41111 -5.2564,-1.41111 h -2.5047 v -1.05833 c 0,-1.23472 0.0353,-1.23472 4.9036,-1.72861 3.6689,-0.38806 4.65667,-0.84667 3.77473,-1.76389 -0.56446,-0.52917 -4.16279,-0.88195 -5.67973,-0.52917 z"
         inkscape:connector-curvature="0"
         style="stroke-width:0.03527778" />
      <path
         id="path10598"
         d="m 437.7408,194.63746 c -0.42333,0.17639 -1.02306,0.77611 -1.30527,1.34056 -0.52916,1.05833 -1.62279,6.56166 -1.62279,8.29028 0,1.41111 0.9525,3.06916 1.76389,3.06916 0.59974,0 0.67027,-0.3175 0.77611,-2.57528 l 0.10583,-2.54 2.15196,-0.0705 c 2.0461,-0.0353 3.66887,-0.52917 3.66887,-1.09361 0,-0.49389 -1.5522,-1.19945 -3.1397,-1.44639 -1.51696,-0.21167 -1.6228,-0.28222 -1.72863,-1.34056 -0.10583,-1.02305 0,-1.12889 1.1289,-1.37583 0.70556,-0.10583 1.97556,-0.10583 2.78693,0 0.84667,0.14111 1.79917,0.14111 2.11667,0 0.84667,-0.3175 0.74083,-1.30528 -0.17637,-1.86972 -0.9525,-0.59972 -5.4328,-0.88195 -6.5264,-0.38806 z"
         inkscape:connector-curvature="0"
         style="stroke-width:0.03527778" />
      <path
         id="path10600"
         d="m 451.3933,195.6958 -3.3161,0.17638 -0.24696,1.05834 c -0.14111,0.56444 -0.56444,1.83444 -0.98777,2.75166 -0.9525,2.01084 -1.37584,6.13834 -0.7761,7.23195 0.21166,0.42333 0.70553,0.77611 1.05833,0.77611 0.56443,0 0.70554,-0.38806 0.9172,-2.29306 0.10584,-1.27 0.38807,-2.29305 0.56447,-2.29305 0.17637,0 0.9172,0.24694 1.62276,0.52917 2.25777,0.9525 5.75027,0.49388 5.75027,-0.77612 0,-0.52916 -2.43416,-1.44638 -4.51553,-1.72861 -2.04613,-0.24694 -2.50474,-0.74083 -1.905,-2.04611 0.3175,-0.74083 0.635,-0.84666 3.42193,-0.98778 3.28083,-0.17638 4.5861,-0.81138 3.73944,-1.79916 -0.56444,-0.70556 -1.44637,-0.81139 -5.32694,-0.59972 z"
         inkscape:connector-curvature="0"
         style="stroke-width:0.03527778" />
      <path
         id="path10602"
         d="m 464.34024,196.29552 c -1.05834,1.02305 0.91723,3.4925 2.04613,2.57528 0.635,-0.52917 0.67026,-1.37584 0.0353,-2.2225 -0.4586,-0.59973 -1.65806,-0.81139 -2.08139,-0.35278 z"
         inkscape:connector-curvature="0"
         style="stroke-width:0.03527778" />
      <path
         id="path10604"
         d="m 278.5322,197.07163 c -1.19946,0.3175 -1.41113,1.86972 -0.3528,2.36361 0.88197,0.38806 7.76113,-0.10583 8.255,-0.56444 0.4939,-0.49389 -0.0353,-1.37584 -1.02303,-1.76389 -1.02307,-0.38806 -5.50334,-0.42334 -6.87917,-0.0353 z"
         inkscape:connector-curvature="0"
         style="stroke-width:0.03527778" />
      <path
         id="path10606"
         d="m 324.28747,199.08246 c -0.42334,0.42334 -0.24694,2.36361 0.28223,3.31611 0.4586,0.84667 0.38804,0.98778 -1.27,2.71639 -1.72863,1.83445 -2.15196,3.06917 -1.3053,3.91583 0.52917,0.52917 1.4464,0 2.82223,-1.55222 1.27,-1.44639 1.55224,-1.48166 2.46944,-0.3175 1.34056,1.69334 3.95113,2.50472 4.83306,1.48167 0.42334,-0.52917 -0.28223,-1.30528 -2.15193,-2.46944 -1.69333,-1.05834 -1.5875,-1.83445 0.38804,-3.70417 3.13973,-2.92806 2.01083,-4.48028 -1.44637,-1.97556 -0.9525,0.70556 -1.79917,1.19945 -1.905,1.09361 -0.10584,-0.10583 -0.45863,-0.70555 -0.77613,-1.37583 -0.56444,-1.12889 -1.44637,-1.62278 -1.94027,-1.12889 z"
         inkscape:connector-curvature="0"
         style="stroke-width:0.03527778" />
      <path
         id="path10608"
         d="m 277.68553,202.32802 c -0.77613,2.39889 3.03387,3.70416 6.42054,2.18722 2.50473,-1.12889 1.7639,-2.01083 -1.905,-2.25778 -1.34054,-0.0705 -2.8575,-0.24694 -3.38667,-0.38805 -0.74083,-0.21167 -0.9525,-0.10584 -1.12887,0.45861 z"
         inkscape:connector-curvature="0"
         style="stroke-width:0.03527778" />
      <path
         id="path10610"
         d="m 466.3158,204.30357 c -0.1411,0.24695 -1.19943,1.05834 -2.29306,1.79917 -3.31611,2.15194 -2.46944,3.95111 0.9525,2.15194 2.54,-1.30527 3.4925,-2.39888 3.21029,-3.52777 -0.24696,-0.98778 -1.37583,-1.27 -1.86973,-0.42334 z"
         inkscape:connector-curvature="0"
         style="stroke-width:0.03527778" />
      <path
         id="path10614"
         d="m 213.19774,216.40385 c -0.74084,0.17639 -1.12887,1.16417 -0.635,1.65806 0.17639,0.17638 0.9525,0.3175 1.65806,0.28222 3.70417,-0.28222 4.23333,0.59972 4.69194,7.69055 0.38806,6.10306 0.98779,8.04333 2.78696,8.96057 0.56443,0.3175 1.30527,0.56443 1.5875,0.56443 0.9525,0 0.98777,0.74083 0.0705,2.11667 -0.52917,0.8114 -0.77611,1.48166 -0.56444,1.5875 0.21167,0.1411 0.24694,0.38806 0.10583,0.59973 -0.10583,0.24693 -0.24693,2.32833 -0.28223,4.65667 -0.0353,4.62137 -0.67027,7.05553 -2.46943,9.8072 -1.37584,2.04613 -2.3636,2.5753 -4.23334,2.15196 -2.32833,-0.52916 -3.45723,0.4586 -2.01083,1.76387 0.4586,0.42334 1.30527,0.59973 2.82223,0.59973 1.86971,0 2.32834,-0.1411 3.6336,-1.16416 3.28084,-2.46944 4.90361,-7.1261 4.90361,-13.97 v -3.6336 l 1.41113,-2.11667 c 0.7761,-1.16417 1.4111,-2.2578 1.4111,-2.43417 0,-0.1764 -0.42334,-0.8114 -0.9525,-1.37583 -0.67027,-0.77612 -1.23473,-1.05834 -2.0814,-1.05834 -3.06917,0 -3.52777,-0.98778 -3.84527,-8.07861 -0.28223,-5.57389 -0.70556,-6.84389 -2.82223,-8.04334 -1.34054,-0.74083 -3.56304,-0.98777 -5.18583,-0.56444 z"
         inkscape:connector-curvature="0"
         style="stroke-width:0.03527778" />
    </g>
  </g>
</svg>
