<?xml version="1.0" encoding="UTF-8" standalone="no"?>
<!-- Created with Inkscape (http://www.inkscape.org/) -->

<svg
   xmlns:dc="http://purl.org/dc/elements/1.1/"
   xmlns:cc="http://creativecommons.org/ns#"
   xmlns:rdf="http://www.w3.org/1999/02/22-rdf-syntax-ns#"
   xmlns:svg="http://www.w3.org/2000/svg"
   xmlns="http://www.w3.org/2000/svg"
   xmlns:sodipodi="http://sodipodi.sourceforge.net/DTD/sodipodi-0.dtd"
   xmlns:inkscape="http://www.inkscape.org/namespaces/inkscape"
   width="338.44836mm"
   height="314.19571mm"
   viewBox="0 0 338.44836 314.19571"
   version="1.1"
   id="svg21601"
   inkscape:version="0.92.5 (2060ec1f9f, 2020-04-08)"
   sodipodi:docname="turn_off_the_lights.svg">
  <defs
     id="defs21595" />
  <sodipodi:namedview
     id="base"
     pagecolor="#ffffff"
     bordercolor="#666666"
     borderopacity="1.0"
     inkscape:pageopacity="0.0"
     inkscape:pageshadow="2"
     inkscape:zoom="0.35"
     inkscape:cx="139.58748"
     inkscape:cy="593.95812"
     inkscape:document-units="mm"
     inkscape:current-layer="g21538"
     showgrid="false"
     fit-margin-top="0"
     fit-margin-left="0"
     fit-margin-right="0"
     fit-margin-bottom="50"
     inkscape:window-width="1920"
     inkscape:window-height="1080"
     inkscape:window-x="1920"
     inkscape:window-y="0"
     inkscape:window-maximized="0" />
  <metadata
     id="metadata21598">
    <rdf:RDF>
      <cc:Work
         rdf:about="">
        <dc:format>image/svg+xml</dc:format>
        <dc:type
           rdf:resource="http://purl.org/dc/dcmitype/StillImage" />
        <dc:title></dc:title>
      </cc:Work>
    </rdf:RDF>
  </metadata>
  <g
     inkscape:label="Layer 1"
     inkscape:groupmode="layer"
     id="layer1"
     transform="translate(106.48013,8.2109627)">
    <g
       transform="matrix(0.03527778,0,0,-0.03527778,-351.79781,608.40978)"
       id="g21538">
      <path
         style="stroke-width:0.63459957"
         inkscape:connector-curvature="0"
         d="m 10028.556,15643.743 c -10.726,-10.851 -33.4395,-31.276 -51.7368,-44.68 -29.0232,-22.34 -131.8664,-144.89 -202.5317,-243.185 -14.5116,-19.787 -42.273,-46.594 -61.8321,-59.998 l -35.3327,-23.617 -140.0686,-5.106 c -76.3432,-2.553 -183.6036,-1.915 -237.2329,1.277 -196.2223,10.85 -786.7822,2.553 -867.5425,-12.766 -28.3923,-5.106 -36.5945,-10.851 -35.3326,-24.255 0.6309,-3.191 152.0565,-3.829 336.9219,-2.553 278.2446,1.915 337.5529,0.638 343.2314,-6.383 10.726,-13.403 16.4044,-86.806 17.6663,-222.759 1.8929,-206.803 15.1426,-785.724 21.452,-928.699 3.1547,-73.402 6.3094,-192.76 6.3094,-265.524 0.6309,-72.126 3.1547,-167.868 6.9403,-213.824 22.0829,-299.354 30.9161,-559.134 32.178,-944.656 0.6309,-130.847 1.2619,-135.315 15.1425,-153.187 l 14.5117,-18.51 235.9709,0.638 c 129.3427,0 293.3871,3.83 364.6833,7.66 485.1932,28.084 808.2342,35.743 1148.3112,27.446 704.129,-17.872 697.189,-17.234 1119.918,-54.892 97.165,-8.298 244.805,-21.702 328.089,-28.723 83.284,-7.021 162.152,-14.68 175.402,-16.595 20.19,-3.83 22.713,-2.553 19.559,5.744 -3.155,8.936 -1.262,9.574 13.88,4.468 40.38,-13.404 135.021,-19.148 323.042,-19.148 108.521,0 244.804,-2.553 302.851,-6.383 173.508,-10.213 500.966,-21.063 632.832,-21.702 109.153,-0.638 125.557,-1.914 136.283,-11.489 17.666,-16.595 37.856,-14.042 54.262,5.745 37.224,46.594 146.377,141.698 223.352,195.952 44.165,31.276 55.522,42.765 55.522,54.892 0,9.574 -4.416,16.595 -10.726,17.872 -18.928,3.83 -102.212,-56.169 -200.639,-143.613 -59.308,-52.977 -68.141,-58.722 -85.176,-55.531 -13.881,2.554 -23.975,-0.638 -37.225,-10.85 l -17.667,-14.042 -234.71,4.467 c -128.712,2.554 -283.923,7.66 -344.493,10.851 -60.57,3.192 -259.316,8.936 -441.658,11.489 -182.341,3.192 -348.278,8.936 -369.099,12.766 -20.821,3.191 -90.225,10.851 -154.581,15.957 -171.615,14.68 -254.269,21.701 -454.277,38.935 -251.114,21.702 -353.957,26.808 -728.735,38.935 -441.658,14.042 -816.437,9.574 -1375.4497,-16.595 -79.4984,-3.192 -189.282,-9.574 -242.9119,-14.042 -73.82,-5.745 -415.1579,-8.298 -420.2054,-2.553 -0.6309,0 -2.5238,105.316 -5.0475,233.61 -3.7857,282.12 -13.8807,574.453 -22.0829,682.96 -8.8332,111.061 -18.9282,347.225 -22.7139,555.304 -1.8928,96.381 -5.0475,187.017 -6.3094,201.059 -1.2618,14.042 -3.7856,143.614 -6.3094,287.226 -1.8928,144.251 -6.3094,314.672 -9.4641,379.777 -3.7856,65.105 -4.4165,158.294 -2.5237,207.441 3.1547,67.658 1.8928,98.934 -5.6785,129.571 l -8.8331,39.573 h 41.642 c 22.7138,-0.638 80.1294,-3.191 126.8189,-6.382 105.367,-6.383 413.2651,2.553 425.8839,12.765 5.0475,4.468 9.4641,4.468 11.9879,0.639 1.8928,-3.192 -5.0475,-7.66 -15.7735,-10.213 -13.2498,-3.191 -17.6663,-6.383 -13.2498,-10.851 7.5713,-7.659 49.2134,4.468 66.2487,19.149 5.6785,5.106 10.726,18.51 10.726,29.361 0.631,14.042 11.3569,34.467 39.7492,72.125 112.3074,149.996 138.8068,179.995 224.6142,259.781 39.119,35.743 46.059,44.679 40.381,53.615 -10.726,17.872 -29.024,15.957 -49.214,-5.744 z m -301.589,-379.139 c 5.6785,-15.957 -2.5238,-18.51 -10.726,-3.83 -4.4166,9.574 -4.4166,13.404 0,13.404 3.7857,0 8.2022,-4.468 10.726,-9.574 z m -308.5297,-27.446 c 1.2619,-8.936 -1.2612,-14.042 -7.5713,-14.042 -11.9878,0 -18.2966,10.85 -13.8806,22.978 5.0481,14.042 18.9282,7.659 21.4519,-8.936 z"
         id="path31497" />
      <path
         style="stroke-width:0.63459957"
         inkscape:connector-curvature="0"
         d="m 8431.0168,15609.275 c -26.4994,-32.552 -51.1061,-98.295 -62.463,-169.144 -5.6785,-33.191 -14.5117,-65.105 -19.5592,-70.211 -8.2022,-8.297 -10.095,-7.659 -20.821,5.106 -12.6188,15.319 -22.7138,45.318 -42.9039,125.742 -8.8332,36.382 -13.2498,44.679 -23.3448,44.679 -11.3569,0 -12.6188,-3.829 -11.3569,-33.829 1.8928,-41.488 35.3326,-144.251 56.1536,-171.697 21.452,-28.084 35.3327,-35.105 56.1537,-27.446 20.821,8.298 32.178,35.744 37.8564,92.551 6.9404,77.232 30.2851,139.145 65.6178,177.442 18.2972,19.148 21.4519,26.169 15.7735,35.105 -11.9879,19.148 -30.9161,16.595 -51.1062,-8.298 z"
         id="path31499" />
      <path
         style="stroke-width:0.63459957"
         inkscape:connector-curvature="0"
         d="m 10944.681,15531.405 c -1.261,-3.191 -1.892,-59.36 -1.892,-125.741 l 0.631,-120.635 -205.056,2.553 c -112.938,1.277 -275.721,1.277 -361.529,0 -91.486,-0.638 -159.628,1.277 -164.044,4.468 -35.333,28.723 -72.558,30.637 -89.594,5.745 -13.249,-19.149 -11.988,-57.446 1.893,-70.211 16.405,-15.319 51.106,-14.043 68.142,2.553 13.249,12.765 18.928,12.765 383.611,14.042 365.315,1.277 370.362,1.277 372.886,-11.489 7.571,-34.467 15.773,-178.719 15.773,-287.226 0.631,-169.145 17.036,-804.234 25.238,-954.23 3.786,-68.296 8.833,-220.845 11.988,-338.288 5.047,-224.037 7.571,-242.547 33.44,-242.547 12.619,0 13.249,1.915 8.833,49.786 -1.893,26.808 -6.94,142.336 -10.095,256.589 -3.155,114.252 -8.833,264.886 -12.619,335.097 -3.155,70.211 -8.833,280.205 -12.619,465.945 -11.357,614.026 -12.619,650.408 -22.083,730.831 -9.464,81.062 -11.988,189.569 -5.678,215.1 2.524,9.575 10.726,14.681 26.499,17.872 32.178,6.383 1767.894,8.298 1771.68,1.915 1.893,-2.553 -1.262,-5.106 -6.94,-5.106 -13.25,0 -19.56,-19.149 -8.834,-26.17 5.048,-3.829 63.725,-4.468 144.486,-1.914 102.212,2.553 159.628,1.276 233.447,-6.383 82.022,-8.298 251.115,-32.553 275.09,-38.935 10.095,-2.553 20.19,-61.275 30.916,-175.528 20.19,-208.717 22.714,-235.525 31.547,-322.331 5.048,-49.148 11.988,-165.315 15.774,-258.503 3.154,-93.19 10.725,-220.846 15.773,-284.036 19.559,-241.908 22.714,-687.428 6.309,-903.167 -7.571,-103.401 -23.975,-205.526 -32.808,-208.717 -5.048,-1.915 -63.094,-0.639 -129.974,3.829 -270.674,15.319 -355.219,19.787 -502.859,26.17 -208.21,8.936 -587.405,33.829 -634.095,41.488 -34.701,5.106 -350.802,28.084 -529.989,37.659 -258.686,14.68 -294.018,15.957 -460.586,22.978 -83.285,3.829 -165.307,8.297 -181.711,10.212 l -30.916,4.468 2.524,-18.51 c 2.523,-24.893 29.023,-33.829 100.319,-33.829 29.654,-0.638 184.234,-6.383 343.862,-13.404 275.721,-12.127 463.11,-22.978 866.912,-51.062 232.817,-15.957 470.681,-29.999 589.929,-35.106 104.736,-4.468 171.615,-8.935 398.753,-28.722 161.522,-14.042 196.854,-12.127 209.473,11.489 3.155,5.744 11.987,58.083 19.558,116.167 23.346,177.442 27.132,712.321 6.311,963.804 -9.465,118.72 -18.298,266.163 -24.607,430.839 -3.786,81.062 -11.989,201.697 -18.928,268.078 -6.941,67.019 -17.667,168.506 -22.714,226.589 -13.882,139.145 -23.346,199.782 -34.071,213.186 -5.678,7.021 -18.928,10.212 -44.166,10.212 -19.559,0 -73.82,5.745 -120.509,12.766 -46.69,7.659 -134.391,14.681 -195.592,16.595 -96.534,3.192 -114.2,5.107 -138.807,17.234 l -28.392,14.042 -561.536,1.277 c -912.971,2.553 -1391.223,6.382 -1395.64,10.85 -5.678,5.107 -19.559,5.107 -22.714,-0.638 z"
         id="path31501" />
      <path
         style="stroke-width:0.63459957"
         inkscape:connector-curvature="0"
         d="m 8463.8257,15437.578 c -8.2022,-8.298 -17.0354,-25.531 -19.5591,-38.935 -3.7857,-19.787 -1.8928,-25.531 13.8807,-42.127 19.5591,-21.063 54.2608,-25.531 75.7128,-9.574 14.5116,11.489 8.2022,19.787 -22.7139,27.446 -17.0354,4.468 -22.7138,9.574 -23.9757,22.34 -1.8928,14.042 1.2619,17.872 20.1901,24.255 20.1901,6.382 21.4519,8.297 14.5116,19.786 -10.726,17.234 -39.1183,15.319 -58.0465,-3.191 z"
         id="path31503" />
      <path
         style="stroke-width:0.63459957"
         inkscape:connector-curvature="0"
         d="m 8588.1209,15436.301 c -42.9039,-36.382 -16.4044,-100.848 39.1183,-97.018 35.3326,2.553 38.4873,19.786 5.6784,35.105 -28.3923,13.404 -30.916,27.446 -6.3094,38.935 18.2973,8.936 21.452,19.787 9.4641,31.914 -11.9878,12.128 -25.8685,8.936 -47.9514,-8.936 z"
         id="path31505" />
      <path
         style="stroke-width:0.63459957"
         inkscape:connector-curvature="0"
         d="m 11756.07,15043.759 c -28.392,-8.298 -92.748,-81.7 -119.247,-136.592 -39.75,-81.7 -34.702,-146.166 15.142,-202.335 26.5,-29.36 56.785,-46.594 94.641,-52.977 34.071,-5.745 76.975,1.914 81.391,14.042 5.048,13.404 -9.464,21.063 -42.273,21.063 -34.701,0 -87.7,24.255 -105.997,47.871 -44.797,57.445 -27.762,146.166 41.642,221.483 37.225,40.212 59.308,52.339 87.069,46.595 17.667,-3.191 21.452,-1.915 21.452,7.659 0,13.404 -29.654,40.212 -43.535,39.574 -5.678,0 -18.928,-3.192 -30.285,-6.383 z"
         id="path31509" />
      <path
         style="stroke-width:0.63459957"
         inkscape:connector-curvature="0"
         d="m 11995.827,15038.014 c -16.404,-9.574 -20.821,-17.233 -20.821,-31.914 0,-15.957 -2.523,-19.148 -15.142,-19.148 h -15.143 l -4.416,-141.698 c -5.048,-154.464 -0.631,-192.123 22.083,-198.505 6.94,-1.915 13.88,-1.277 15.142,0.638 1.262,2.553 2.524,52.977 1.893,111.699 0,59.36 2.524,109.784 6.309,113.614 3.786,3.829 11.357,0 20.821,-10.213 29.655,-31.914 100.951,-14.68 155.843,38.297 24.606,24.255 27.13,29.361 27.13,58.722 0,37.658 -10.726,50.424 -63.094,74.679 -44.166,21.063 -100.319,22.339 -130.605,3.829 z m 131.867,-50.424 c 30.285,-18.51 32.809,-28.084 13.25,-51.701 -30.916,-37.658 -71.927,-51.062 -131.236,-42.764 -17.666,1.914 -18.928,3.829 -20.19,33.19 -1.262,30.638 8.833,54.892 29.023,72.126 15.143,12.766 80.13,6.383 109.153,-10.851 z"
         id="path31511" />
      <path
         style="stroke-width:0.63459957"
         inkscape:connector-curvature="0"
         d="m 12482.282,15016.951 c -1.262,-4.468 1.893,-19.787 7.572,-33.191 8.202,-19.786 10.095,-45.956 9.464,-130.209 -0.631,-117.443 -6.941,-147.443 -34.071,-170.421 -40.38,-34.466 -116.093,-8.297 -148.271,51.701 -12.619,22.34 -13.25,126.38 -1.893,194.037 6.94,42.765 1.893,64.467 -15.142,64.467 -5.048,0 -11.988,-5.107 -15.143,-11.489 -10.726,-21.064 -20.821,-122.55 -18.297,-185.74 3.785,-89.359 25.237,-126.379 90.224,-157.655 58.678,-28.084 123.033,-15.957 152.688,28.084 20.19,31.276 26.499,74.679 28.392,192.761 1.262,115.529 -4.417,146.804 -30.916,158.932 -18.928,8.936 -20.821,8.936 -24.607,-1.277 z"
         id="path31513" />
      <path
         style="stroke-width:0.63459957"
         inkscape:connector-curvature="0"
         d="m 14773.856,12652.76 c -4.416,-14.68 0,-188.293 6.309,-220.207 l 4.417,-24.254 h -103.474 c -56.785,0 -148.271,-3.192 -203.794,-7.022 l -100.32,-7.021 -15.142,19.787 c -17.035,21.702 -46.689,26.808 -68.142,10.851 -17.035,-12.766 -15.142,-47.233 3.155,-62.552 14.512,-12.127 23.976,-12.127 230.294,-7.659 117.985,2.553 223.353,5.106 233.447,5.106 18.298,0.639 18.928,0 22.714,-37.658 2.524,-21.064 8.834,-72.764 14.512,-114.891 5.679,-41.488 10.095,-97.018 10.095,-123.188 0,-61.275 10.726,-218.292 19.559,-291.694 4.417,-31.276 8.833,-109.146 11.357,-171.698 3.785,-105.316 5.047,-114.89 16.404,-121.273 6.941,-3.83 15.774,-11.489 20.191,-17.233 6.308,-8.298 29.022,-10.851 132.497,-14.043 68.772,-2.553 174.77,-7.021 235.34,-10.212 60.57,-3.83 196.853,-8.298 302.851,-10.213 182.342,-3.191 348.91,-12.765 374.779,-20.425 6.309,-1.914 13.88,0.639 17.035,5.107 7.571,12.127 6.941,106.592 -0.63,182.548 -3.786,34.467 -9.464,104.04 -12.62,155.102 -3.785,51.062 -10.726,139.783 -15.773,197.867 -13.249,145.528 -21.452,286.588 -27.762,485.093 l -5.678,169.145 -20.19,16.595 -20.19,17.233 -502.228,-0.638 c -276.983,0 -514.847,1.915 -529.358,4.468 -22.084,3.83 -26.5,3.191 -29.655,-7.021 z m 510.431,-32.552 c 242.911,-1.915 467.526,-4.468 499.073,-5.745 l 57.416,-2.553 4.416,-157.655 c 3.786,-171.059 10.727,-292.333 25.869,-470.413 18.928,-229.781 39.118,-506.795 36.594,-509.348 -0.63,-0.638 -46.058,1.915 -100.95,5.745 -54.892,3.829 -146.379,7.659 -203.794,8.297 -57.415,0.639 -173.509,3.83 -258.685,7.66 -85.177,3.829 -223.984,8.936 -309.161,10.85 l -154.58,4.468 1.892,51.063 c 1.893,45.318 -6.939,177.442 -23.975,354.246 -3.155,33.19 -7.571,104.678 -9.464,158.931 -1.893,54.254 -5.678,116.167 -8.834,137.231 -15.772,100.848 -19.558,144.889 -23.344,277.652 l -3.785,142.975 14.511,-5.107 c 8.203,-3.191 213.888,-6.382 456.801,-8.297 z"
         id="path31517" />
      <path
         style="stroke-width:0.63459957"
         inkscape:connector-curvature="0"
         d="m 15132.861,12499.573 c -6.941,-1.277 -41.011,-10.851 -75.713,-21.064 -34.702,-9.574 -75.082,-19.786 -89.594,-22.339 -30.285,-5.107 -37.856,-16.596 -20.189,-32.553 10.725,-9.574 16.404,-10.212 39.118,-4.468 15.142,4.468 29.023,5.107 32.177,1.915 3.155,-3.191 6.941,-47.233 8.834,-98.295 2.523,-78.509 4.416,-94.466 14.512,-103.401 22.714,-20.425 25.868,-6.383 23.975,108.507 l -2.524,109.146 59.94,19.787 c 49.213,15.957 60.57,21.701 61.832,33.19 1.892,12.128 -0.631,14.043 -18.929,13.404 -11.356,-0.638 -26.499,-1.914 -33.439,-3.829 z"
         id="path31519" />
      <path
         style="stroke-width:0.63459957"
         inkscape:connector-curvature="0"
         d="m 15165.67,12402.554 c -3.155,-13.404 5.678,-19.787 28.392,-19.787 8.834,0 11.988,3.83 10.095,14.681 -2.524,19.148 -33.439,23.616 -38.487,5.106 z"
         id="path31521" />
      <path
         style="stroke-width:0.63459957"
         inkscape:connector-curvature="0"
         d="m 15491.235,12332.343 c -28.393,-13.404 -39.75,-28.722 -39.75,-54.892 0,-42.126 37.857,-74.679 73.82,-62.551 25.869,8.935 23.977,29.999 -2.523,32.552 -10.726,1.276 -21.452,5.744 -23.345,10.851 -3.786,10.85 -0.631,13.404 29.024,18.51 34.07,6.383 42.272,35.105 15.773,56.168 -17.666,14.043 -20.822,14.043 -52.999,-0.638 z"
         id="path31523" />
      <path
         style="stroke-width:0.63459957"
         inkscape:connector-curvature="0"
         d="m 15309.524,12331.705 c -1.893,-3.192 -13.88,-6.383 -25.237,-6.383 -25.238,0 -30.285,-10.851 -27.131,-61.275 1.893,-28.084 3.155,-31.276 17.035,-31.276 11.989,0 17.036,5.107 22.714,22.34 8.833,26.17 26.5,33.191 29.654,11.489 2.524,-19.148 24.607,-22.34 39.749,-5.106 15.143,16.595 20.821,15.957 28.393,-3.83 4.416,-12.127 10.095,-15.957 20.821,-14.042 12.619,1.915 13.88,5.106 11.988,30.638 -3.786,50.424 -25.868,69.572 -56.153,47.871 -11.357,-8.298 -13.882,-7.66 -23.977,3.191 -11.987,13.404 -31.547,16.595 -37.856,6.383 z"
         id="path31525" />
      <path
         style="stroke-width:0.63459957"
         inkscape:connector-curvature="0"
         d="m 15166.3,12328.513 c -5.046,-5.744 0,-87.444 6.31,-93.827 3.155,-3.191 10.095,-3.829 15.773,-1.276 8.203,3.191 10.727,12.127 10.727,40.85 0,20.425 -1.893,41.488 -3.786,47.232 -3.785,9.575 -22.083,14.043 -29.024,7.021 z"
         id="path31527" />
      <path
         style="stroke-width:0.63459957"
         inkscape:connector-curvature="0"
         d="m 15597.863,12316.386 c -14.511,-19.148 -23.344,-60.636 -17.035,-80.423 2.524,-7.66 9.464,-12.766 18.297,-12.766 11.988,0 15.143,5.106 20.191,30.638 5.678,28.722 6.309,29.999 30.915,33.19 31.548,4.468 41.012,10.213 41.012,26.17 0,10.212 -4.417,12.127 -26.499,12.127 -15.143,0 -33.441,1.915 -40.381,3.83 -9.464,2.553 -17.035,-1.277 -26.5,-12.766 z"
         id="path31529" />
    </g>
  </g>
</svg>
