<?xml version="1.0" encoding="UTF-8" standalone="no"?>
<!-- Created with Inkscape (http://www.inkscape.org/) -->

<svg
   xmlns:dc="http://purl.org/dc/elements/1.1/"
   xmlns:cc="http://creativecommons.org/ns#"
   xmlns:rdf="http://www.w3.org/1999/02/22-rdf-syntax-ns#"
   xmlns:svg="http://www.w3.org/2000/svg"
   xmlns="http://www.w3.org/2000/svg"
   xmlns:sodipodi="http://sodipodi.sourceforge.net/DTD/sodipodi-0.dtd"
   xmlns:inkscape="http://www.inkscape.org/namespaces/inkscape"
   width="572.01971mm"
   height="243.29445mm"
   viewBox="0 0 572.01971 243.29445"
   version="1.1"
   id="svg25728"
   inkscape:version="0.92.5 (2060ec1f9f, 2020-04-08)"
   sodipodi:docname="unoptimised_lifetime.svg">
  <defs
     id="defs25722" />
  <sodipodi:namedview
     id="base"
     pagecolor="#ffffff"
     bordercolor="#666666"
     borderopacity="1.0"
     inkscape:pageopacity="0.0"
     inkscape:pageshadow="2"
     inkscape:zoom="0.35"
     inkscape:cx="857.00004"
     inkscape:cy="383.11223"
     inkscape:document-units="mm"
     inkscape:current-layer="layer1"
     showgrid="false"
     fit-margin-top="0"
     fit-margin-left="0"
     fit-margin-right="0"
     fit-margin-bottom="0"
     inkscape:window-width="1920"
     inkscape:window-height="1080"
     inkscape:window-x="1920"
     inkscape:window-y="0"
     inkscape:window-maximized="0" />
  <metadata
     id="metadata25725">
    <rdf:RDF>
      <cc:Work
         rdf:about="">
        <dc:format>image/svg+xml</dc:format>
        <dc:type
           rdf:resource="http://purl.org/dc/dcmitype/StillImage" />
        <dc:title></dc:title>
      </cc:Work>
    </rdf:RDF>
  </metadata>
  <g
     inkscape:label="Layer 1"
     inkscape:groupmode="layer"
     id="layer1"
     transform="translate(148.12888,-6.9039937)">
    <path
       style="stroke-width:0.03527778"
       inkscape:connector-curvature="0"
       d="m -120.25944,7.2217972 c -1.44639,0.141111 -5.25639,0.529166 -8.46666,0.846666 -7.37306,0.705556 -11.43,1.622778 -15.06362,3.3513888 -2.8575,1.411112 -4.33916,2.716389 -4.33916,3.880556 0,1.164167 1.09361,1.093611 3.03389,-0.176389 4.16277,-2.786944 7.86694,-3.81 17.25083,-4.797778 9.87778,-1.0230548 14.64028,-1.9402778 14.64028,-2.7516668 0,-0.740833 -2.32833,-0.881944 -7.05556,-0.352777 z"
       id="path26562" />
    <path
       style="stroke-width:0.03527778"
       inkscape:connector-curvature="0"
       d="m -76.268046,12.160686 c -3.069167,0.740833 -5.53861,2.998611 -5.53861,5.08 0,1.058334 0.105833,1.234723 0.846666,1.234723 h 0.846667 l 0.246944,6.244167 c 0.141113,3.457222 0.176389,9.242779 0.07056,12.841112 -0.211667,5.644444 -0.14111,6.6675 0.3175,7.055556 0.423333,0.352777 0.635,0.3175 1.058333,-0.105833 0.458611,-0.423333 0.599724,-1.834446 0.705557,-6.84389 0.246943,-8.078612 0.211667,-7.902223 1.72861,-7.902223 1.41111,0 5.150557,-1.5875 7.12611,-3.033889 3.84528,-2.822222 5.397503,-4.974167 5.644447,-7.866945 0.246943,-2.892778 -0.529167,-4.092222 -3.739444,-5.785556 -2.328336,-1.199444 -2.786946,-1.305278 -5.25639,-1.27 -1.481666,0.03528 -3.316113,0.176389 -4.056946,0.352778 z m 8.043336,2.8575 c 2.151944,1.023056 3.175,2.575278 2.786944,4.233334 -0.352777,1.728611 -4.691947,5.820834 -7.62,7.267223 -2.434167,1.164166 -4.092224,1.446389 -4.339167,0.670277 -0.07056,-0.211666 -0.211667,-3.069166 -0.282223,-6.314722 l -0.17639,-5.89139 1.481667,-0.529166 c 2.046113,-0.776112 5.891389,-0.529167 8.149169,0.564444 z"
       id="path26564" />
    <path
       style="stroke-width:0.03527778"
       inkscape:connector-curvature="0"
       d="m -134.47638,13.077908 c -0.14111,0.105833 -0.14111,2.2225 -0.0353,4.656667 0.24694,4.93889 -0.17639,10.689168 -1.30528,17.145 -0.38805,2.328333 -0.77611,5.785557 -0.84667,7.690557 -0.17638,3.704166 0.0706,4.480279 1.51695,4.480279 0.67028,0 0.74083,-0.282223 0.88194,-3.98639 0.0706,-2.151943 0.59973,-6.561666 1.12889,-9.771945 0.88195,-5.009444 1.02306,-6.773333 1.02306,-12.805834 0.0353,-5.820834 -0.0353,-7.020278 -0.49389,-7.302501 -0.635,-0.388055 -1.55222,-0.458611 -1.86972,-0.105833 z"
       id="path26566" />
    <path
       style="stroke-width:0.03527778"
       inkscape:connector-curvature="0"
       d="m -64.661656,26.765687 c -0.493887,1.305278 0.917223,2.293056 2.257779,1.5875 0.987777,-0.529167 0.881944,-1.375833 -0.211666,-1.763889 -1.234723,-0.493889 -1.799167,-0.423333 -2.046113,0.176389 z"
       id="path26582" />
    <path
       style="stroke-width:0.03527778"
       inkscape:connector-curvature="0"
       d="m -126.53888,29.129298 c -0.49389,0.493889 -0.56445,1.552223 -0.10583,1.834445 0.17638,0.141111 0.74083,0.07055 1.27,-0.141111 0.70555,-0.246945 0.91722,-0.564445 0.81138,-1.164167 -0.10583,-0.881944 -1.27,-1.234722 -1.97555,-0.529167 z"
       id="path26588" />
    <path
       style="stroke-width:0.03527778"
       inkscape:connector-curvature="0"
       d="m -57.853043,34.315132 c -3.280834,3.280833 -4.48028,6.596946 -3.457223,9.525 0.705556,1.975556 3.351389,2.786946 4.938889,1.481666 l 0.846667,-0.670277 -0.98778,-0.388056 c -0.564443,-0.211667 -1.199443,-0.388054 -1.446387,-0.388054 -1.375833,0 -1.658056,-2.08139 -0.529166,-4.268613 0.846666,-1.72861 3.386666,-4.550833 4.056943,-4.550833 0.246944,0 0.599723,0.282223 0.81139,0.599723 0.28222,0.493887 0.493887,0.564444 0.987777,0.246944 1.622779,-0.987777 0.17639,-3.668889 -2.010833,-3.668889 -0.881944,0 -1.552224,0.423333 -3.210277,2.081389 z"
       id="path26604" />
    <path
       style="stroke-width:0.03527778"
       inkscape:connector-curvature="0"
       d="m -65.508323,34.420965 c -0.564443,0.564443 -0.564443,4.868333 0,6.103056 0.246946,0.529167 0.635,0.846667 0.9525,0.81139 0.81139,-0.17639 0.846667,-7.090836 0.03528,-7.267223 -0.3175,-0.03528 -0.740834,0.105833 -0.98778,0.352777 z"
       id="path26614" />
    <path
       style="stroke-width:0.03527778"
       inkscape:connector-curvature="0"
       d="m -126.29194,36.008465 c -0.42333,1.09361 -0.0705,8.89 0.42334,10.230556 0.3175,0.881944 0.56444,0.9525 1.34055,0.49389 0.42334,-0.282223 0.49389,-1.340556 0.42334,-5.538613 -0.0353,-3.104443 -0.21167,-5.3975 -0.45862,-5.679723 -0.59972,-0.740833 -1.34055,-0.529167 -1.72861,0.49389 z"
       id="path26620" />
    <path
       style="stroke-width:0.03527778"
       inkscape:connector-curvature="0"
       d="m -47.410822,36.184855 c -2.998611,2.36361 -2.751665,8.008056 0.38806,9.313333 1.72861,0.705556 4.30389,0.14111 6.0325,-1.375833 2.54,-2.257777 3.73944,-6.455834 2.2225,-7.831667 -0.56445,-0.529167 -1.41111,-0.67028 -4.23334,-0.705556 -3.06916,-0.07056 -3.66888,0 -4.40972,0.599723 z m 6.87917,2.2225 c 0,1.552223 -1.86972,3.704166 -3.91583,4.550833 -1.19945,0.49389 -1.34056,0.49389 -1.86973,-0.105833 -0.77611,-0.846667 -0.70555,-2.71639 0.17639,-3.951111 0.67028,-0.952502 0.88195,-1.023056 3.175,-1.023056 1.97556,0 2.43417,0.105833 2.43417,0.529167 z"
       id="path26624" />
    <path
       style="stroke-width:0.03527778"
       inkscape:connector-curvature="0"
       d="m -115.88499,36.996242 c -0.42334,0.3175 -1.12889,0.423333 -1.94028,0.282223 l -1.27,-0.17639 -0.24694,2.222503 c -0.70556,6.208887 -0.70556,5.926666 -0.0353,6.17361 0.98778,0.388056 1.69333,-0.3175 2.54,-2.54 0.91722,-2.39889 2.29305,-4.233333 2.8575,-3.880556 0.21166,0.105833 0.49389,1.058333 0.59972,2.116666 0.3175,2.469446 1.44639,3.951113 2.78694,3.598334 1.27,-0.3175 1.5875,-1.199444 0.635,-1.940277 -0.49388,-0.352777 -0.88194,-1.234723 -1.12888,-2.434167 -0.35278,-1.940277 -0.91723,-3.245556 -1.55223,-3.66889 -0.67027,-0.45861 -2.50472,-0.3175 -3.24555,0.246944 z"
       id="path26626" />
    <path
       style="stroke-width:0.03527778"
       inkscape:connector-curvature="0"
       d="m -106.5011,37.842908 c -0.635,1.199447 -0.56445,5.150557 0.14111,6.173613 0.81139,1.234723 2.54,2.08139 3.77472,1.834444 0.91722,-0.176387 1.02306,-0.105833 1.02306,0.670279 0,0.564444 -0.35278,1.058334 -0.9525,1.446388 -9.94834,6.103056 -12.17084,8.748889 -10.54806,12.629446 0.56444,1.375833 2.57528,3.03389 3.70417,3.03389 3.175,0 7.23194,-5.08 9.2075,-11.571113 0.670277,-2.187223 0.952498,-2.610557 2.04611,-3.280834 7.3025,-4.374443 11.006667,-7.161389 11.006667,-8.325556 0,-0.246944 -0.07056,-0.45861 -0.141113,-0.45861 -0.670277,0 -3.563054,1.375833 -6.63222,3.139723 -2.08139,1.164166 -3.98639,2.151943 -4.30389,2.151943 -0.670277,0 -0.740833,-1.27 -0.17639,-3.915833 0.35278,-1.658056 0.3175,-1.905 -0.246943,-2.328333 -1.093611,-0.81139 -1.516941,-0.529167 -2.575281,1.763889 -1.05833,2.363611 -1.94028,3.069167 -2.75166,2.257777 -0.45862,-0.45861 -0.52917,-1.27 -0.35278,-4.480277 0.0706,-1.093612 -0.0353,-1.234723 -0.88195,-1.340556 -0.67028,-0.07056 -1.05833,0.105833 -1.34055,0.59972 z m 3.88055,14.18167 c 0,0.246943 -0.56444,1.5875 -1.27,3.033887 -1.30528,2.751669 -4.16278,6.103056 -5.18583,6.103056 -0.70556,0 -2.01083,-1.340553 -2.01083,-2.081387 0,-0.917223 1.79916,-3.175 3.4925,-4.409723 4.05694,-2.963333 4.97416,-3.457223 4.97416,-2.645833 z"
       id="path26628" />
    <g
       id="g27610"
       transform="translate(-32.505952)">
      <g
         id="g27637"
         transform="translate(2.2678571)">
        <path
           style="stroke-width:0.03527778"
           inkscape:connector-curvature="0"
           d="m 13.831398,14.841797 c -2.32833,2.716389 -3.8452701,6.067779 -6.2441601,13.723057 -1.23472,3.915833 -2.64584,8.043334 -3.13972,9.172221 -1.09362,2.469446 -1.12889,3.316113 -0.14112,3.316113 0.77612,0 2.01084,-2.39889 3.4925,-6.808613 l 0.81139,-2.36361 h 3.6336101 c 3.66889,0 4.19806,-0.176389 3.81,-1.199444 -0.28222,-0.705556 -1.02305,-0.881945 -4.19805,-1.023056 -2.8222201,-0.141111 -2.7163901,0.141111 -1.51695,-3.951111 1.12889,-3.880556 3.98639,-8.995835 5.00945,-8.995835 0.28222,0 0.59972,0.917223 0.91722,2.540001 0.24695,1.411111 0.70556,3.668889 1.05833,5.044722 2.68112,10.33639 3.24556,12.664723 3.70417,15.310556 0.28222,1.62278 0.70556,3.175 0.91722,3.421946 0.59973,0.705554 1.37584,0.176388 1.37584,-0.9525 0,-1.305279 -1.48167,-8.643056 -2.64584,-13.017501 -0.77611,-2.963334 -1.19944,-4.797778 -2.64583,-11.818057 -0.42333,-2.081389 -1.55222,-4.056945 -2.25778,-4.056945 -0.28222,0 -1.16416,0.740834 -1.94028,1.658056 z"
           id="path26568" />
        <path
           style="stroke-width:0.03527778"
           inkscape:connector-curvature="0"
           d="m 38.984462,19.392631 c -0.28222,0.705556 -0.67028,3.033889 -0.84666,5.150556 -0.24695,2.786945 -0.49389,4.092222 -0.91723,4.550834 -0.59972,0.635 -0.45861,1.728611 0.21167,1.728611 0.21167,0 0.35278,1.375833 0.35278,3.598333 0,2.99861 0.14111,3.845279 0.70555,4.797779 0.38806,0.635 0.9525,1.234721 1.23473,1.340554 1.41111,0.564446 4.40972,-1.41111 4.40972,-2.892777 0,-1.023056 -0.45861,-1.058333 -2.01084,-0.105833 -1.94027,1.199444 -2.25777,0.81139 -2.15194,-2.751667 l 0.10583,-3.104445 1.83445,-0.211666 c 2.36361,-0.3175 2.92805,-0.529167 2.92805,-1.164167 0,-0.776111 -0.67027,-1.093611 -2.99861,-1.27 l -2.15194,-0.176389 0.45861,-3.986389 c 0.24694,-2.187223 0.59972,-4.268612 0.81139,-4.691945 0.52916,-0.9525 0.10583,-2.081389 -0.74084,-2.081389 -0.49388,0 -0.88194,0.423333 -1.23472,1.27 z"
           id="path26572" />
        <path
           style="stroke-width:0.03527778"
           inkscape:connector-curvature="0"
           d="m 48.121412,27.859298 c -0.24695,0.705556 0.67027,1.658056 1.37583,1.375834 0.77611,-0.3175 0.38806,-1.940278 -0.45861,-1.940278 -0.38806,0 -0.77611,0.246944 -0.91722,0.564444 z"
           id="path26584" />
        <path
           style="stroke-width:0.03527778"
           inkscape:connector-curvature="0"
           d="m 27.660292,31.17541 c -1.41111,0.846666 -2.08138,1.834444 -2.61055,3.880555 -0.740834,2.928056 1.19944,6.173613 4.16278,6.914446 1.16416,0.3175 2.92805,-0.49389 2.92805,-1.305279 0,-0.529167 -0.24694,-0.670277 -1.27,-0.670277 -0.67028,0 -1.55222,-0.17639 -1.94028,-0.352777 -0.88194,-0.49389 -1.72861,-2.187223 -1.72861,-3.457223 0,-1.375834 1.34056,-3.280834 2.64584,-3.704168 1.37583,-0.423333 1.34055,-0.423333 1.05833,-1.27 -0.28222,-0.9525 -1.72861,-0.987777 -3.24556,-0.03528 z"
           id="path26594" />
        <path
           style="stroke-width:0.03527778"
           inkscape:connector-curvature="0"
           d="m 57.999192,30.893187 c -0.14112,0.246945 -0.77612,1.693334 -1.34056,3.280834 -0.59972,1.552221 -1.23472,2.786944 -1.41111,2.751667 -0.21167,-0.03528 -0.49389,-1.12889 -0.70556,-2.363613 -0.38805,-2.610554 -0.9525,-3.492499 -1.72861,-2.68111 -0.59972,0.635 -0.17639,5.291667 0.67028,7.267223 0.45861,1.09361 0.635,1.234723 1.62278,1.12889 0.70555,-0.07056 1.37583,-0.458613 1.83444,-1.023057 0.67028,-0.9525 2.61056,-6.0325 2.96334,-7.831667 0.17638,-0.846667 0.0705,-0.9525 -0.70556,-0.9525 -0.49389,0 -1.02306,0.176389 -1.19944,0.423333 z"
           id="path26596" />
        <path
           style="stroke-width:0.03527778"
           inkscape:connector-curvature="0"
           d="m 64.278632,32.057354 c -0.81139,0.493889 -1.905,0.881945 -2.36361,0.881945 -0.81139,0 -0.84667,0.07055 -0.59972,2.187222 0.21166,2.469444 1.16416,4.656667 2.18722,5.185834 0.88194,0.493889 4.37444,0.881943 5.3975,0.635 0.91722,-0.246944 2.39889,-1.481667 2.39889,-2.010834 0,-0.211666 -1.37584,-0.352777 -3.10445,-0.352777 -2.57527,0 -3.24555,-0.105833 -3.70416,-0.635002 -1.02306,-1.128887 -0.74084,-1.481667 1.30527,-1.481667 3.31612,0 4.7625,-2.116667 2.99862,-4.374443 -0.9525,-1.199445 -2.43417,-1.199445 -4.51556,-0.03528 z m 3.06917,1.305278 c -0.10584,0.246943 -0.52917,0.529166 -0.98778,0.564443 -0.74083,0.105833 -0.77611,0.07056 -0.38806,-0.423333 0.56445,-0.670277 1.55223,-0.740832 1.37584,-0.14111 z"
           id="path26598" />
        <path
           style="stroke-width:0.03527778"
           inkscape:connector-curvature="0"
           d="m 48.191962,32.833465 c -0.14111,0.352778 -0.3175,1.834443 -0.42333,3.31611 -0.17639,2.504723 -0.14111,2.681113 0.52917,2.857503 0.42333,0.105833 0.88194,0.03528 1.05833,-0.211667 0.45861,-0.564446 0.74083,-5.291669 0.35278,-5.997224 -0.42334,-0.740833 -1.19945,-0.705555 -1.51695,0.03528 z"
           id="path26606" />
        <g
           id="g27657"
           transform="translate(-14.363095,-0.75595238)">
          <path
             id="path26570"
             d="m 98.780302,18.440131 c -0.70556,0.564444 -0.77611,0.811389 -0.45861,1.340556 0.3175,0.493889 0.84666,0.635 2.539998,0.635 1.16416,0 2.2225,0.105833 2.32833,0.211666 0.28222,0.282223 -0.74083,10.230557 -1.37583,13.617222 -0.38806,1.94028 -0.77611,2.963333 -1.41111,3.633613 -0.846668,0.881944 -0.881948,0.9525 -0.28223,1.516944 0.56445,0.493889 0.9525,0.493889 3.63362,0.105833 3.73944,-0.599721 4.19805,-0.77611 3.98639,-1.658057 -0.17639,-0.705553 -0.91723,-0.846666 -3.24556,-0.705553 -1.16417,0.105833 -1.16417,0.07055 -0.98778,-1.093613 0.0706,-0.635 0.52917,-4.021666 0.9525,-7.514166 0.42333,-3.4925 0.88195,-6.596945 1.02306,-6.879167 0.17639,-0.3175 1.05833,-0.635 2.15194,-0.776111 1.02306,-0.105834 2.08139,-0.458611 2.36361,-0.740834 0.49389,-0.458611 0.45861,-0.564444 -0.14111,-0.881944 -0.56444,-0.3175 -8.255,-1.481667 -9.73667,-1.481667 -0.282218,0 -0.881938,0.3175 -1.340548,0.670278 z"
             inkscape:connector-curvature="0"
             style="stroke-width:0.03527778" />
          <path
             id="path26574"
             d="m 128.55475,20.450964 c -0.635,0.952501 -2.54,11.183057 -2.57527,13.617224 0,1.55222 -0.52917,2.151944 -2.68113,2.963333 -1.37583,0.529167 -1.65804,0.529167 -1.94027,0.105834 -0.1764,-0.282223 -0.3175,-3.104447 -0.28223,-6.279445 0.0353,-6.032501 -0.17637,-6.914445 -1.37583,-6.173612 -0.35277,0.246945 -0.84667,1.411111 -1.16417,2.892778 -0.3175,1.375833 -0.67027,2.645834 -0.7761,2.822222 -0.1411,0.176389 -1.34056,0.493889 -2.71639,0.740834 -1.34056,0.246944 -2.57528,0.635 -2.71639,0.846667 -0.49389,0.776111 -0.38806,5.326943 0.10583,6.314722 1.23472,2.39889 3.175,2.645834 5.15055,0.635 1.34057,-1.305279 1.48167,-1.375833 1.905,-0.811389 0.24696,0.352779 0.4939,0.740833 0.4939,0.846666 0,0.458613 1.69333,0.9525 2.61056,0.776113 0.52917,-0.105833 1.41111,-0.635 1.97554,-1.199446 1.23473,-1.234723 1.27,-1.234723 1.55223,-0.14111 0.4939,1.905 2.7164,2.99861 3.70417,1.799166 0.3175,-0.388056 0.1764,-0.670277 -0.70557,-1.305277 l -1.12887,-0.776112 0.24694,-3.03389 c 0.28223,-4.303888 1.55223,-11.324166 2.15193,-12.276666 0.91724,-1.375834 0.56447,-3.280834 -0.56443,-3.280834 -0.35277,0 -0.91723,0.423334 -1.27,0.917222 z m -11.32417,13.934724 c -0.4586,3.033887 -2.89278,4.7625 -2.89278,2.04611 0,-0.740833 0.35278,-1.41111 1.05833,-2.151943 1.19945,-1.199445 2.01085,-1.164168 1.83445,0.105833 z"
             inkscape:connector-curvature="0"
             style="stroke-width:0.03527778" />
          <path
             id="path26576"
             d="m 247.05281,26.518743 c -0.38806,0.917222 -0.77613,2.293055 -0.84666,3.069166 -0.1764,1.905001 -0.38807,2.151945 -2.15197,2.575278 -5.92666,1.516945 -8.32553,8.748891 -3.88053,11.676945 1.12887,0.740833 1.4111,0.776112 2.61053,0.423333 1.23474,-0.388054 4.19807,-3.175 4.19807,-3.95111 0,-0.564444 1.0936,-0.352777 2.01083,0.388056 0.4939,0.388054 1.34057,0.705554 1.86973,0.705554 0.56444,0 1.05834,0.246946 1.19944,0.564446 0.10583,0.3175 0.52917,0.493887 0.98777,0.423333 0.635,-0.07056 0.88196,-0.423333 1.1289,-1.516946 0.49389,-2.36361 1.05833,-3.774723 1.62276,-4.056943 0.84667,-0.423334 4.37447,-1.411113 4.51557,-1.27 0.0706,0.07055 -0.1411,0.740833 -0.42333,1.446387 -0.88194,2.08139 -0.74084,3.880556 0.35276,4.727223 1.34057,1.058333 3.10447,0.987779 4.09224,-0.14111 0.67026,-0.776111 0.98776,-0.881944 2.2225,-0.705557 1.12889,0.17639 1.55223,0.105834 2.0461,-0.45861 0.59973,-0.670277 0.59973,-0.705556 -0.42334,-1.12889 -1.51693,-0.59972 -2.08137,-1.41111 -2.2225,-2.99861 -0.10583,-1.340556 -0.17637,-1.411113 -1.34053,-1.44639 -2.43417,-0.07056 -2.82223,-0.14111 -3.4925,-0.917223 -0.70557,-0.705554 -0.8114,-0.740832 -3.91584,-0.28222 -3.52779,0.493887 -4.05696,0.881943 -4.445,3.175 -0.45863,2.434166 -2.01083,3.175 -3.28083,1.552223 -0.91723,-1.16417 -0.91723,-1.48167 -0.0353,-4.903613 0.77613,-3.069167 0.88197,-5.326945 0.3175,-7.337778 -0.2822,-1.023056 -0.52916,-1.305278 -1.16416,-1.305278 -0.67027,0 -0.98777,0.352778 -1.55221,1.693334 z m -0.77613,9.348612 c 0,1.128887 -0.2822,1.975553 -1.0936,3.175 -1.30527,1.975556 -2.25777,2.716389 -3.4925,2.716389 -1.23473,0 -1.7639,-0.599723 -1.7639,-1.975556 0,-1.552223 1.34057,-3.35139 3.3514,-4.445 2.54,-1.411113 2.9986,-1.30528 2.9986,0.529167 z m 17.6389,1.481666 c 0,1.411111 -1.34056,2.963334 -2.15193,2.434167 -0.45863,-0.282223 -0.38807,-0.529167 0.38803,-1.834446 0.70557,-1.164167 1.7639,-1.516944 1.7639,-0.599721 z"
             inkscape:connector-curvature="0"
             style="stroke-width:0.03527778" />
          <path
             id="path26578"
             d="m 219.11281,27.894576 c -0.42333,1.128889 -0.84666,2.504722 -0.9525,3.104445 -0.24696,1.340555 -0.74083,1.940278 -1.55223,1.940278 -0.88193,0 -0.88193,1.128889 0.0353,1.940276 0.52917,0.458613 0.70557,1.093613 0.70557,2.363613 0,2.575277 1.05833,4.374444 2.8575,4.93889 1.30526,0.352777 1.62276,0.352777 2.75166,-0.282223 0.67027,-0.352777 1.30527,-0.9525 1.37584,-1.305277 0.10583,-0.529167 -0.1764,-0.599723 -1.97557,-0.599723 -1.97554,0 -2.11667,-0.03528 -2.71637,-1.164167 -0.91723,-1.76389 -0.635,-2.504723 1.05833,-2.645833 4.02167,-0.246947 4.05694,-1.62278 0.0353,-2.363613 -0.70556,-0.14111 -1.27,-0.423333 -1.27,-0.634999 0,-0.211667 0.42334,-1.693333 0.9525,-3.280834 0.7761,-2.434166 0.84667,-2.998611 0.4939,-3.457222 -0.74083,-0.881944 -0.9878,-0.705556 -1.79917,1.446389 z"
             inkscape:connector-curvature="0"
             style="stroke-width:0.03527778" />
          <path
             id="path26580"
             d="m 340.29198,26.307076 c -2.0461,1.093611 -5.43277,5.185834 -7.26723,8.748889 -1.05833,2.04611 -1.19944,2.610556 -1.19944,5.115279 0,3.280834 0.52917,4.550834 2.54,6.067777 1.05834,0.81139 1.69334,0.987777 3.81,1.093611 2.18723,0.141112 2.82223,0 4.51557,-0.776111 3.73943,-1.799166 4.5861,-3.915833 2.89277,-7.231943 -0.91723,-1.834446 -2.46944,-3.316113 -4.79777,-4.550836 -1.83446,-0.987777 -2.2225,-0.987777 -4.09223,0.105833 -1.79917,1.093613 -1.94027,0.705557 -0.45861,-1.587499 1.51694,-2.363611 5.00944,-5.609167 6.35,-5.856111 1.02304,-0.211667 1.05834,-0.282222 0.49388,-0.881945 -0.67027,-0.740833 -1.72861,-0.846666 -2.78694,-0.246944 z m -3.88056,11.218332 c 0.21166,0 0.70556,-0.3175 1.09362,-0.740833 0.81138,-0.91722 2.11667,-0.705554 4.02167,0.635 2.75167,1.975557 3.59833,4.550836 2.01083,6.032503 -1.86973,1.763887 -6.24416,2.469443 -7.9375,1.27 -1.79916,-1.27 -2.39889,-4.79778 -1.27,-7.47889 l 0.56444,-1.305279 0.52917,0.776112 c 0.3175,0.458611 0.74083,0.811388 0.98777,0.811387 z"
             inkscape:connector-curvature="0"
             style="stroke-width:0.03527778" />
          <path
             id="path26586"
             d="m 391.55058,29.129298 c -2.5047,3.139723 -3.73943,5.503334 -6.35,12.065 -1.51693,3.81 -1.62277,5.25639 -0.38804,5.43278 0.84667,0.14111 1.27,-0.458613 2.18721,-3.245557 l 0.635,-1.799166 2.57529,-0.17639 c 1.55221,-0.105833 2.61054,-0.03528 2.68111,0.17639 0.0353,0.176389 0.17639,1.5875 0.28223,3.104443 0.21166,3.139723 0.7761,4.62139 1.83443,4.7625 1.23473,0.17639 1.69334,-0.740833 1.09361,-2.116666 -0.45861,-1.058334 -0.88194,-5.256388 -1.51694,-14.9225 -0.10583,-1.763889 -0.24694,-3.527778 -0.35277,-3.986389 -0.24696,-1.234723 -1.37583,-0.9525 -2.68113,0.705555 z m 1.05834,6.632223 c 0.0706,1.622777 -0.0353,3.03389 -0.24694,3.139723 -0.59973,0.388054 -3.56306,0 -3.56306,-0.458612 0,-0.49389 2.01083,-4.7625 2.57529,-5.432778 0.7761,-0.9525 1.12887,-0.141111 1.23471,2.751667 z"
             inkscape:connector-curvature="0"
             style="stroke-width:0.03527778" />
          <path
             id="path26590"
             d="m 356.16698,29.552632 c -2.75167,1.199444 -5.82083,6.314723 -6.10306,10.124723 -0.28221,4.021666 1.12889,6.632223 4.1275,7.514166 1.905,0.564444 4.72723,0.246944 6.13833,-0.670277 1.05833,-0.670279 2.46946,-2.681112 3.28083,-4.586112 0.74084,-1.763888 0.4939,-6.279444 -0.42333,-8.5725 -0.52917,-1.340556 -0.9525,-1.693334 -3.10444,-2.822222 -1.37583,-0.705556 -2.57527,-1.340556 -2.6811,-1.375834 -0.10583,-0.03528 -0.635,0.141111 -1.23473,0.388056 z m 4.1275,3.104444 c 1.69333,0.846666 2.50473,5.115279 1.51694,8.113889 -0.98777,3.069167 -2.78694,4.515556 -5.67971,4.515556 -1.37583,0 -1.79917,-0.176389 -2.82223,-1.199443 -1.1289,-1.12889 -1.19944,-1.375834 -1.19944,-3.457223 0,-2.469444 1.16417,-5.468057 2.96334,-7.584723 0.9172,-1.058333 1.05833,-1.128889 2.78693,-0.917222 1.02307,0.105833 2.11667,0.352777 2.43417,0.529166 z"
             inkscape:connector-curvature="0"
             style="stroke-width:0.03527778" />
          <path
             id="path26592"
             d="m 300.46338,30.822632 c -2.2578,1.128889 -3.88057,3.033889 -3.4925,4.1275 0.24693,0.705556 1.0936,0.529166 1.51693,-0.246944 0.45861,-0.881946 2.78694,-2.469445 3.59834,-2.469445 0.38806,0 0.9525,0.670278 1.51693,1.763889 1.23473,2.434166 3.3514,3.668889 5.92667,3.457223 1.83446,-0.17639 5.22113,-1.552223 5.43279,-2.2225 0.0353,-0.211667 -0.0706,-0.599723 -0.24696,-0.881947 -0.2822,-0.423333 -0.52916,-0.45861 -1.83443,-0.03528 -2.15194,0.670276 -5.04473,0.881943 -5.8914,0.423333 -0.42333,-0.246944 -1.05833,-1.023057 -1.44637,-1.763889 -0.74084,-1.516944 -2.2578,-2.8575 -3.13973,-2.8575 -0.3175,0.03528 -1.19944,0.352778 -1.94027,0.705556 z"
             inkscape:connector-curvature="0"
             style="stroke-width:0.03527778" />
          <path
             id="path26600"
             d="m 162.52725,32.304299 c -5.00944,4.127499 -3.42194,12.629445 2.3636,12.629445 1.41113,0 3.42196,-0.846666 3.42196,-1.411112 0,-0.529167 -1.27,-1.058334 -2.64583,-1.058334 -1.51696,0 -3.175,-0.77611 -3.70417,-1.72861 -1.37583,-2.645833 1.62277,-7.443612 4.65667,-7.443612 0.56444,0 1.0936,-0.211666 1.19944,-0.529166 0.38806,-0.9525 -0.56444,-1.5875 -2.29307,-1.5875 -1.30527,0 -1.905,0.211666 -2.9986,1.128889 z"
             inkscape:connector-curvature="0"
             style="stroke-width:0.03527778" />
          <path
             id="path26602"
             d="m 135.32808,32.198465 c -2.15193,1.305277 -3.3514,3.527777 -3.3514,6.138333 0,1.869723 1.16417,3.774723 2.5753,4.268613 1.905,0.670277 5.89137,-1.058333 5.89137,-2.54 0,-0.352779 -0.24693,-0.423333 -0.7761,-0.282223 -0.4586,0.105833 -1.7286,0.3175 -2.82223,0.423333 -1.905,0.211667 -2.0461,0.17639 -2.3636,-0.599723 -0.42334,-1.164166 0.1411,-1.72861 1.69333,-1.72861 0.70556,0 1.905,-0.35278 2.6811,-0.81139 1.34057,-0.740833 1.41113,-0.917223 1.51696,-2.610556 0.10584,-1.552221 0,-1.869721 -0.70556,-2.36361 -1.05833,-0.740834 -3.0339,-0.705556 -4.33917,0.105833 z m 3.3514,1.76389 c 0,0.59972 -1.55223,1.446387 -2.64583,1.446387 l -1.05834,-0.03528 0.98777,-0.846667 c 0.98777,-0.846666 2.7164,-1.199444 2.7164,-0.564443 z"
             inkscape:connector-curvature="0"
             style="stroke-width:0.03527778" />
          <path
             id="path26608"
             d="m 182.49448,34.315132 c -0.9525,1.164166 -1.05833,1.622776 -1.16417,4.233333 -0.10583,2.54 -0.0353,2.998613 0.49387,3.35139 0.8114,0.493889 1.16417,-0.03528 1.69334,-2.610557 0.635,-3.104443 0.70556,-3.210277 2.96333,-3.915833 1.16417,-0.352777 2.15196,-0.599723 2.2225,-0.529167 0.0706,0.07056 -0.1411,1.693334 -0.4586,3.563057 -0.67027,3.81 -0.52917,5.115277 0.52917,5.115277 0.9525,0 1.44639,-1.093611 2.11666,-4.550834 0.59973,-3.175 0.74084,-3.31611 3.10444,-3.915833 1.48166,-0.388057 1.83446,-0.917223 1.05833,-1.693333 -0.5997,-0.599722 -2.9986,-0.529167 -4.79777,0.176389 -1.37583,0.529167 -1.62277,0.529167 -2.46943,0.03528 -0.52917,-0.282222 -1.69334,-0.564444 -2.61057,-0.564444 -1.4464,0 -1.7286,0.141111 -2.6811,1.305278 z"
             inkscape:connector-curvature="0"
             style="stroke-width:0.03527778" />
          <path
             id="path26610"
             d="m 166.30198,34.209298 c -0.28223,0.740834 0.4586,1.481667 0.98777,0.9525 0.4586,-0.45861 0.1764,-1.516943 -0.38807,-1.516943 -0.21166,0 -0.4586,0.246943 -0.5997,0.564443 z"
             inkscape:connector-curvature="0"
             style="stroke-width:0.03527778" />
          <path
             id="path26612"
             d="m 172.75781,34.738465 c -0.38806,0.670277 -0.74083,2.08139 -0.81139,3.457223 -0.14111,2.010833 -0.0706,2.504723 0.67026,3.563056 1.19947,1.763888 2.2578,1.763888 3.95113,0.105834 0.74084,-0.740834 1.65804,-2.010834 2.01084,-2.8575 0.74083,-1.693336 0.88193,-4.833057 0.24693,-5.221113 -0.52916,-0.3175 -1.34056,0.81139 -1.34056,1.869723 0,1.658054 -1.97554,4.691944 -3.03387,4.691944 -0.70557,0 -0.6703,-2.822224 0.0705,-4.374444 1.09363,-2.25778 -0.52916,-3.351389 -1.76387,-1.234723 z"
             inkscape:connector-curvature="0"
             style="stroke-width:0.03527778" />
          <path
             id="path26616"
             d="m 198.19308,35.408742 c -0.70556,0.388056 -1.62277,0.705556 -2.01083,0.705556 -0.35277,0 -0.84667,0.3175 -1.05833,0.705557 -0.24694,0.493887 -0.24694,0.705553 0,0.705553 0.17639,0 0.35276,0.635003 0.35276,1.411113 0,1.658057 0.77613,3.35139 1.72863,3.880557 1.62277,0.846666 5.46804,0.105833 5.25637,-1.023057 -0.10583,-0.423333 -0.49387,-0.529166 -1.83443,-0.45861 -1.83444,0.14111 -3.0339,-0.564446 -3.0339,-1.76389 0,-0.635 0.28223,-0.77611 1.6228,-0.670277 1.2347,0.105834 3.21027,-0.881946 3.4925,-1.728612 0.1411,-0.458611 0,-1.058334 -0.3175,-1.5875 -0.74084,-1.093611 -2.32834,-1.164167 -4.19807,-0.17639 z"
             inkscape:connector-curvature="0"
             style="stroke-width:0.03527778" />
          <path
             id="path26618"
             d="m 270.97115,35.232355 c -0.635,0.77611 -0.84667,5.468056 -0.28223,6.526389 0.52916,0.9525 1.905,1.340554 2.50473,0.740834 0.5997,-0.599723 1.0936,-0.458613 2.2225,0.493887 1.905,1.658056 2.92803,1.164167 5.82083,-2.68111 1.4111,-1.940277 2.08137,-3.175 2.08137,-3.880557 0,-1.658056 -0.81137,-1.234723 -3.42193,1.799167 -1.30527,1.552223 -2.64584,2.822223 -2.96334,2.822223 -0.28223,0 -0.8114,-0.564444 -1.1289,-1.27 -0.635,-1.340556 -0.56443,-1.305277 -2.8222,-0.599723 -0.59973,0.17639 -0.635,0.03528 -0.42333,-1.76389 0.21166,-1.72861 0.17637,-1.975554 -0.45863,-2.328333 -0.52917,-0.282221 -0.81137,-0.246944 -1.12887,0.141113 z"
             inkscape:connector-curvature="0"
             style="stroke-width:0.03527778" />
          <path
             id="path26622"
             d="m 208.21198,35.937908 c -1.05833,0.917224 -1.05833,0.917224 -1.4464,0.17639 -0.74083,-1.340556 -1.34056,-0.81139 -1.905,1.72861 -0.67027,2.998613 -0.70556,3.35139 -0.0706,3.880557 0.74083,0.635 1.4464,0.141113 3.0339,-2.116667 0.81139,-1.128887 1.5875,-2.08139 1.7286,-2.08139 0.1764,0 0.38806,0.917224 0.4939,2.010836 0.28223,2.751667 1.55223,3.915834 4.02166,3.668888 0.67027,-0.07055 2.57527,-1.834444 2.57527,-2.398888 0,-0.423333 -0.21167,-0.493889 -0.9525,-0.282223 -2.01083,0.49389 -3.21027,0.599723 -3.38667,0.282223 -0.10583,-0.176389 -0.3175,-1.27 -0.42333,-2.434166 -0.35277,-3.280836 -1.62277,-4.127503 -3.66887,-2.43417 z"
             inkscape:connector-curvature="0"
             style="stroke-width:0.03527778" />
          <path
             id="path26630"
             d="m 300.07531,39.606798 c -1.79916,0.81139 -2.71639,1.869723 -2.57527,2.928057 0.14111,1.09361 1.55221,1.305277 1.86971,0.282223 0.24696,-0.776113 1.62279,-1.516946 3.59833,-1.869723 1.23473,-0.246944 1.65807,0.105833 2.01084,1.5875 0.3175,1.340556 1.83446,2.04611 4.445,2.04611 3.24556,0 5.64446,-1.199444 4.55083,-2.328333 -0.42333,-0.388054 -0.9525,-0.388054 -2.89277,-0.105834 -3.175,0.49389 -3.9864,0.282223 -4.48027,-1.27 -0.21167,-0.670277 -0.70556,-1.41111 -1.05833,-1.5875 -1.05834,-0.564443 -3.91584,-0.388054 -5.46807,0.3175 z"
             inkscape:connector-curvature="0"
             style="stroke-width:0.03527778" />
          <path
             id="path26632"
             d="m 368.97281,40.030132 c -1.86973,0.987779 -2.08139,1.199446 -2.61056,2.928056 -0.67027,2.116667 -0.52917,2.8575 0.52917,3.139723 0.635,0.14111 1.02306,-0.17639 2.08139,-1.799167 1.72861,-2.610556 2.18723,-2.716389 2.18723,-0.529166 0,3.104443 1.37584,3.421943 3.77471,0.811387 0.88196,-0.987777 1.7639,-1.763887 1.905,-1.763887 0.1764,0 0.3175,0.705554 0.3175,1.516943 0,1.799167 0.77613,2.71639 2.2225,2.71639 1.09363,0 1.34056,-1.023056 0.42333,-1.76389 -0.35277,-0.3175 -0.52916,-1.128889 -0.52916,-2.68111 0,-1.834446 -0.10584,-2.293056 -0.67027,-2.610556 -1.09361,-0.564444 -2.01084,-0.423334 -3.13973,0.529166 -1.30527,1.093611 -1.83444,1.12889 -1.83444,0.07056 0,-1.94028 -1.65806,-2.116667 -4.65667,-0.564446 z"
             inkscape:connector-curvature="0"
             style="stroke-width:0.03527778" />
        </g>
      </g>
    </g>
    <g
       id="g27677"
       transform="translate(-450.54762,18.142857)">
      <path
         id="path26634"
         d="m 348.30004,87.337634 c -0.49389,0.635 -1.72862,4.93889 -2.15196,7.514162 -1.905,11.676954 -1.12887,18.520844 2.15196,18.520844 1.19944,0 1.34054,-0.84666 0.24694,-1.41111 -2.6811,-1.44639 -2.78694,-9.34861 -0.28223,-19.896673 0.56446,-2.293056 1.02306,-4.409723 1.02306,-4.656666 0,-0.599723 -0.49389,-0.635 -0.98777,-0.07056 z"
         inkscape:connector-curvature="0"
         style="stroke-width:0.03527778" />
      <path
         id="path26636"
         d="m 432.57865,90.653744 c -1.19944,1.093613 -2.43417,2.469442 -2.7164,2.998612 -0.67027,1.30528 -0.635,3.52778 0.0706,5.04472 0.74084,1.552224 0.52917,2.116674 -1.23473,3.033894 -1.44637,0.70556 -2.15193,1.97556 -1.62277,2.8575 0.14111,0.21167 0.98777,0.70556 1.83444,1.09361 1.51696,0.67028 1.5875,0.77611 1.37583,1.79917 -0.1411,0.635 -0.3175,2.54 -0.42333,4.30389 -0.1411,2.71639 -0.0705,3.31611 0.4939,4.26861 1.19943,1.86973 4.09223,2.82223 5.5386,1.79917 0.77613,-0.59972 0.42333,-1.30528 -0.70554,-1.30528 -1.51696,0 -2.64583,-0.67028 -3.24556,-1.94028 -0.4939,-1.05833 -0.52917,-1.51694 -0.14111,-3.42194 1.30527,-6.80862 1.30527,-6.94973 -0.56446,-6.985 -1.19943,0 -1.05833,-1.23473 0.21167,-1.76389 0.56446,-0.21167 1.1289,-0.635 1.19946,-0.84667 0.10583,-0.24694 -0.21167,-1.622784 -0.67029,-3.033894 -0.77611,-2.2225 -0.81138,-2.71639 -0.45861,-3.63361 0.9525,-2.29306 3.52777,-4.374445 4.97417,-4.021665 0.84667,0.246943 1.27,-0.67028 0.59973,-1.340557 -0.28223,-0.282223 -0.91723,-0.599723 -1.41113,-0.705556 -0.7761,-0.176387 -1.27,0.07056 -3.10443,1.799166 z"
         inkscape:connector-curvature="0"
         style="stroke-width:0.03527778" />
      <path
         id="path26638"
         d="m 397.30088,92.100134 c -2.61057,2.786942 -5.15057,8.748896 -5.53863,13.123336 -0.38804,3.91584 1.27,6.20889 4.26863,5.96195 1.5522,-0.10583 2.1872,-0.98778 0.70554,-0.98778 -0.59971,0 -1.37584,-0.42333 -2.15194,-1.19944 -1.02306,-1.02306 -1.19944,-1.44639 -1.19944,-2.85751 0,-2.43416 0.59971,-4.58611 2.29304,-8.113894 1.65807,-3.38666 3.42196,-5.820828 4.26863,-5.820828 0.88194,0 0.38804,-1.234721 -0.4939,-1.340557 -0.59973,-0.105833 -1.19943,0.282223 -2.15193,1.234723 z"
         inkscape:connector-curvature="0"
         style="stroke-width:0.03527778" />
      <path
         id="path26640"
         d="m 405.27365,92.100134 c -0.56444,0.529162 -0.1764,1.693332 1.02306,3.033892 4.02167,4.445 3.6336,9.913054 -1.02306,14.710834 -1.86973,1.94028 -2.18723,2.82223 -0.9525,2.82223 0.91723,0 4.09223,-3.66889 5.36223,-6.24417 0.9172,-1.905 1.05833,-2.54 1.05833,-5.00945 -0.0353,-3.245554 -0.70556,-5.080004 -2.78696,-7.866944 -1.19944,-1.552225 -2.11667,-2.046112 -2.6811,-1.446392 z"
         inkscape:connector-curvature="0"
         style="stroke-width:0.03527778" />
      <path
         id="path26642"
         d="m 378.39198,102.57764 c -1.5875,0.70555 -3.3161,2.25778 -4.02167,3.70416 -0.49389,0.98779 -0.70556,2.50473 -0.91723,6.8439 -0.24693,5.32694 -0.21166,5.60916 0.38807,5.46805 0.49389,-0.0705 0.74083,-0.67027 1.0936,-2.57527 0.21167,-1.37584 0.42333,-3.03389 0.42333,-3.73945 0.0353,-1.72861 0.77613,-2.32833 1.6228,-1.37583 1.34054,1.48166 4.48027,0.45861 5.715,-1.83445 0.38804,-0.74083 0.5997,-1.905 0.5997,-3.24556 -0.0353,-1.83444 -0.1411,-2.18722 -0.98777,-2.92805 -1.05833,-0.91722 -2.32833,-1.02306 -3.91583,-0.3175 z m 2.6811,1.83444 c 0.77613,0.91722 0.42334,3.38667 -0.5997,4.26862 -0.70557,0.67028 -1.23473,0.77611 -2.78696,0.70555 -1.79917,-0.0705 -1.94027,-0.14111 -1.94027,-0.9525 0,-1.34055 1.23473,-3.06917 2.71639,-3.84528 1.65804,-0.88194 2.01084,-0.88194 2.61054,-0.17639 z"
         inkscape:connector-curvature="0"
         style="stroke-width:0.03527778" />
      <path
         id="path26644"
         d="m 355.74365,103.84764 c -2.36361,1.44639 -3.6689,5.99722 -2.3989,8.43139 0.84667,1.65806 2.11667,1.83445 4.72723,0.74083 2.2225,-0.98777 2.9986,-2.32833 3.0339,-5.25639 0,-1.94028 -0.10584,-2.32833 -0.77613,-2.75167 -0.4586,-0.3175 -0.81137,-0.84666 -0.81137,-1.19944 0,-0.91722 -2.2578,-0.91722 -3.77473,0.0353 z m 2.08139,3.42195 c 0.21167,0.24694 0.67027,0.45861 1.02304,0.45861 0.8114,0 0.84667,0.42333 0.10584,1.79916 -0.635,1.27 -2.46944,2.18723 -3.38667,1.69334 -0.91721,-0.49389 -0.84667,-2.78695 0.14113,-4.05695 1.0936,-1.41111 1.48166,-1.62278 1.65804,-0.91722 0.0706,0.3175 0.28223,0.81139 0.45862,1.02306 z"
         inkscape:connector-curvature="0"
         style="stroke-width:0.03527778" />
      <path
         id="path26650"
         d="m 366.43281,104.90597 c -1.905,0.35278 -3.38666,2.04612 -3.38666,3.81001 0,3.175 2.9986,5.08 6.24416,3.95111 1.97557,-0.70556 2.50473,-3.95111 1.05834,-6.5264 -0.88194,-1.55222 -1.48167,-1.72861 -3.91584,-1.23472 z m 2.54,2.71639 c 0.59973,0.81139 0.52917,2.39889 -0.1411,2.96334 -0.45863,0.38805 -0.8114,0.35278 -2.01083,-0.0706 -1.16417,-0.38805 -1.51696,-0.67028 -1.5875,-1.44639 -0.24696,-1.97555 2.5047,-3.03389 3.73943,-1.44639 z"
         inkscape:connector-curvature="0"
         style="stroke-width:0.03527778" />
      <path
         id="path26662"
         d="m 389.22225,130.20014 c -0.84667,1.83445 -1.48167,4.72723 -1.48167,6.80861 0,2.8575 -4.1275,8.81945 -6.10304,8.81945 -1.05833,0 -2.01083,-1.16417 -2.01083,-2.46945 0,-1.55222 2.54,-3.52777 4.51554,-3.52777 0.70556,0 1.1289,-0.24695 1.4464,-0.84667 0.74083,-1.34056 0.21166,-1.72861 -2.0814,-1.51694 -2.75167,0.24694 -3.91583,0.9525 -5.04471,2.99861 -1.65806,3.06916 -1.02306,5.64444 1.72861,6.94972 2.39889,1.12889 4.97416,-0.42333 6.84389,-4.09222 0.42334,-0.77611 0.84667,-1.34056 1.02304,-1.23473 0.14113,0.10584 0.4939,0.84667 0.74084,1.65806 0.91723,2.75167 2.8575,3.95111 4.97416,2.99861 0.3528,-0.14111 1.05834,0.0706 1.905,0.635 1.72863,1.19945 4.02167,1.23472 6.17363,0.10584 1.55221,-0.77612 1.83444,-1.51695 0.52917,-1.41112 -0.38807,0 -1.5875,0.14112 -2.68113,0.28223 -1.86971,0.24694 -2.01083,0.21166 -2.75167,-0.74084 -1.19943,-1.51694 -0.88193,-2.04611 1.4464,-2.25778 2.15194,-0.21166 3.24556,-0.91722 3.6336,-2.36361 0.3528,-1.44639 -0.38804,-1.94027 -2.43416,-1.72861 -4.23334,0.42334 -4.23334,0.42334 -4.93888,2.71639 -0.38806,1.12889 -0.56446,2.18722 -0.45862,2.29306 0.42333,0.42333 -0.49388,1.55222 -1.27,1.55222 -1.19944,0 -1.62277,-0.42333 -2.32834,-2.32833 -1.16416,-2.99862 -1.2347,-5.22112 -0.35277,-8.96056 1.16417,-5.11528 1.23473,-5.99722 0.42334,-5.99722 -0.4939,0 -0.91723,0.52916 -1.4464,1.65805 z"
         inkscape:connector-curvature="0"
         style="stroke-width:0.03527778" />
      <path
         id="path26664"
         d="m 408.27225,132.1757 c -0.21167,0.24694 -0.70554,2.01083 -1.12887,3.95111 -1.905,8.67833 -1.97557,10.08945 -0.74084,11.81806 0.77611,1.09361 1.55221,1.27 3.21027,0.70555 1.16417,-0.38805 1.41111,-0.35278 2.64584,0.49389 2.0461,1.41111 4.23333,1.09361 5.96193,-0.81139 0.52917,-0.56444 0.9525,-0.70555 1.65807,-0.56444 1.19943,0.28222 1.5875,-0.28222 0.88193,-1.30528 -0.42333,-0.56444 -0.49387,-1.27 -0.3175,-2.82222 0.1764,-1.69334 0.10584,-2.04611 -0.3175,-2.04611 -0.70554,0 -1.2347,0.635 -1.5522,1.94027 -0.635,2.71639 -2.0814,4.40973 -3.77473,4.40973 -1.41111,0 -2.01084,-0.52917 -2.01084,-1.79917 0,-1.09361 1.62277,-2.64583 3.10444,-2.99861 1.27,-0.3175 1.83446,-0.81139 1.83446,-1.5875 0,-0.52917 -0.24696,-0.67028 -1.23473,-0.67028 -0.70556,0 -1.7639,0.21167 -2.3989,0.49389 -1.34054,0.56444 -3.42193,2.78694 -3.42193,3.70417 0,0.84666 -1.09361,1.79916 -2.04611,1.79916 -1.69333,0 -1.65806,-1.905 0.10584,-9.10166 0.98777,-4.05695 1.12887,-6.06778 0.38804,-6.06778 -0.24694,0 -0.635,0.21166 -0.84667,0.45861 z"
         inkscape:connector-curvature="0"
         style="stroke-width:0.03527778" />
      <path
         id="path26666"
         d="m 441.60975,134.50403 c -0.9525,1.16417 -2.54,5.99722 -2.89277,8.78417 -0.38806,3.42194 1.905,6.59694 4.5861,6.35 1.5875,-0.14111 1.6228,-1.23472 0.0706,-1.86972 -0.67027,-0.28222 -1.5875,-0.9525 -2.01084,-1.48167 -0.70556,-0.88194 -0.7761,-1.27 -0.59973,-3.66889 0.1764,-2.71639 0.70557,-4.16278 2.2225,-6.20889 1.7639,-2.32833 0.4939,-4.09222 -1.37583,-1.905 z"
         inkscape:connector-curvature="0"
         style="stroke-width:0.03527778" />
      <path
         id="path26668"
         d="m 484.15478,134.0807 c -0.77613,0.28222 -0.52917,1.48167 0.38803,1.72861 0.56447,0.14111 0.9525,0.635 1.27,1.5875 0.88197,2.68111 -1.02303,9.10167 -3.3161,11.21833 -1.1289,1.05834 -1.16417,1.79917 -0.10583,1.79917 1.02306,0 2.8575,-1.86972 3.59833,-3.66889 0.7761,-1.86972 1.5875,-6.20889 1.5875,-8.53722 0,-3.28083 -1.4111,-4.97417 -3.42193,-4.1275 z"
         inkscape:connector-curvature="0"
         style="stroke-width:0.03527778" />
      <path
         id="path26670"
         d="m 494.52644,137.22042 c -0.14113,0.14111 -0.24696,0.56445 -0.24696,0.91722 0,0.49389 0.21167,0.67028 0.8114,0.56445 0.4939,-0.0706 0.7761,-0.35278 0.7761,-0.81139 0,-0.70556 -0.88194,-1.12889 -1.34054,-0.67028 z"
         inkscape:connector-curvature="0"
         style="stroke-width:0.03527778" />
      <path
         id="path26672"
         d="m 450.07642,138.66681 c -0.35277,0.635 -1.27,3.91583 -1.44638,5.22111 -0.3175,1.97556 0.17638,3.4925 1.12888,3.63361 0.70556,0.10584 0.77612,-0.0353 0.74083,-1.94027 -0.0353,-1.12889 0.21167,-2.75167 0.4939,-3.63362 0.3175,-0.88194 0.49389,-1.905 0.42333,-2.29305 -0.0706,-0.38806 -0.1411,-0.81139 -0.1411,-0.98778 -0.0353,-0.14111 -0.24696,-0.24694 -0.52917,-0.24694 -0.28223,0 -0.59973,0.10583 -0.67029,0.24694 z"
         inkscape:connector-curvature="0"
         style="stroke-width:0.03527778" />
      <path
         id="path26674"
         d="m 457.52004,139.12542 c -1.30529,1.02306 -2.75166,4.09222 -2.75166,5.82084 0,3.88055 4.33916,3.95111 6.84387,0.17638 1.1289,-1.69333 1.48167,-1.76389 1.79917,-0.35277 0.28223,1.30527 1.41112,2.11666 3.31612,2.36361 1.05834,0.14111 1.76388,-0.0353 3.10444,-0.74084 2.0814,-1.12888 3.0339,-2.61055 3.06917,-4.72722 0.0353,-1.94028 -1.09361,-3.06917 -2.78694,-2.78694 -2.61056,0.45861 -4.09223,0.91722 -5.29167,1.5875 -0.70556,0.42333 -1.34056,0.77611 -1.41112,0.77611 -0.0705,0 -0.17638,-0.59972 -0.24694,-1.34056 -0.10583,-1.16416 -0.21167,-1.30528 -0.98777,-1.23472 -0.4939,0.0353 -1.27,0.10583 -1.7639,0.14111 -0.49389,0.0353 -1.12889,-0.0353 -1.44639,-0.17639 -0.3175,-0.14111 -0.91721,0.0353 -1.44638,0.49389 z m 14.11111,2.01083 c 0.14113,1.44639 -0.38804,2.43417 -1.79917,3.28084 -2.0461,1.27 -4.48027,0.88194 -4.48027,-0.70556 0,-1.09361 0.4586,-1.5875 1.83444,-1.94028 0.49389,-0.14111 1.30527,-0.635 1.7286,-1.09361 1.19946,-1.27 2.57529,-1.05833 2.7164,0.45861 z m -9.91307,0.24695 c 0.3528,0.3175 -1.5522,2.92806 -2.89277,3.91583 -2.0461,1.5875 -2.9986,0.45861 -1.7286,-2.04611 1.05833,-2.04611 1.5875,-2.43417 3.06917,-2.25778 0.74083,0.10584 1.44637,0.28223 1.5522,0.38806 z"
         inkscape:connector-curvature="0"
         style="stroke-width:0.03527778" />
      <path
         id="path26676"
         d="m 474.91198,140.07792 c -1.69333,1.37583 -1.5522,4.7625 0.21167,6.35 1.19946,1.12889 3.70416,1.12889 4.86833,-0.0353 1.37583,-1.37583 1.9403,-4.30389 1.16417,-6.0325 -0.35277,-0.81139 -0.56444,-0.88194 -2.92804,-0.88194 -1.905,0 -2.75167,0.14111 -3.31613,0.59972 z m 2.99863,1.51695 c 0.24693,0.24694 0.67027,0.28222 1.30527,0.0353 0.88193,-0.35277 0.9525,-0.28222 0.9525,0.52917 0,2.57528 -2.32834,4.19806 -3.9511,2.71639 -0.74084,-0.67028 -0.8114,-1.48167 -0.21167,-2.75167 0.42333,-0.91722 1.27,-1.16416 1.905,-0.52916 z"
         inkscape:connector-curvature="0"
         style="stroke-width:0.03527778" />
      <path
         id="path26678"
         d="m 424.21781,142.51209 c -0.91723,2.15194 -0.0706,5.08 1.69334,5.85611 0.52916,0.24694 0.98777,0.52917 0.98777,0.635 0,0.10583 -0.81138,0.70556 -1.76388,1.34056 -4.30389,2.78694 -6.49112,8.89 -3.175,8.89 2.39888,0 4.09221,-1.55223 6.13834,-5.75028 l 1.44637,-2.89278 2.82223,-1.41111 c 2.18723,-1.09361 2.8575,-1.5875 2.92806,-2.25778 0.10584,-0.59972 0,-0.77611 -0.35279,-0.67028 -1.19944,0.45861 -4.16277,1.09361 -4.30387,0.9525 -0.10584,-0.10583 0.0353,-0.9525 0.3175,-1.905 0.70554,-2.32833 0.67027,-3.35139 -0.10584,-3.35139 -0.42333,0 -0.9525,0.70556 -1.65806,2.18723 -0.8114,1.69333 -1.27,2.25777 -1.905,2.32833 -1.23473,0.17639 -1.5875,-0.38806 -1.65806,-2.82222 -0.0353,-2.57528 -0.635,-3.03389 -1.41111,-1.12889 z m 1.7639,11.35944 c -2.25779,3.81 -4.79779,4.86834 -2.75167,1.12889 0.9525,-1.76389 3.35138,-3.81 3.59834,-3.13972 0.0705,0.17639 -0.3175,1.09361 -0.84667,2.01083 z"
         inkscape:connector-curvature="0"
         style="stroke-width:0.03527778" />
      <path
         id="path26680"
         d="m 494.31478,145.08737 c -0.24697,0.17639 -0.635,0.67027 -0.88197,1.12889 -0.21166,0.45861 -1.0936,1.19944 -1.905,1.65805 -2.25777,1.27 -1.97553,2.46945 0.42334,1.76389 1.41113,-0.45861 3.38666,-2.39889 3.38666,-3.38667 0,-0.91722 -0.49387,-1.48166 -1.02303,-1.16416 z"
         inkscape:connector-curvature="0"
         style="stroke-width:0.03527778" />
      <path
         id="path26682"
         d="m 345.16031,148.89737 c -0.88193,0.3175 -0.42333,1.34055 0.88194,2.04611 1.19946,0.67028 1.30529,0.84666 1.27,2.18722 0,0.77611 -0.38804,2.29306 -0.84667,3.31611 -1.12887,2.64583 -1.02304,4.445 0.38807,5.64445 0.9525,0.84666 0.98777,0.9525 0.42333,1.19944 -0.35277,0.17639 -0.8114,0.24695 -1.05833,0.21167 -0.21167,-0.0353 -0.70557,0.35278 -1.09361,0.84666 -0.635,0.81139 -0.74083,1.44639 -0.74083,5.75028 -0.0353,4.26861 -0.14113,5.00945 -0.84667,6.42056 -0.635,1.27 -0.98779,1.62278 -1.83446,1.69333 -2.08137,0.24695 -2.61054,1.51695 -0.88193,2.11667 2.0461,0.74083 3.66889,-0.0706 4.69193,-2.32834 0.84667,-1.94027 1.19946,-6.6675 0.70557,-9.41916 -0.3175,-1.62278 -0.24694,-1.83445 0.38806,-2.32834 0.42333,-0.3175 1.16417,-0.67027 1.65804,-0.77611 1.23473,-0.3175 3.13973,-2.46944 2.92806,-3.31611 -0.10583,-0.38805 -0.81139,-0.88194 -1.65806,-1.19944 -1.30527,-0.42334 -1.48167,-0.635 -1.5875,-1.65806 -0.0705,-0.67028 0.28223,-2.2225 0.8114,-3.59833 0.59973,-1.5875 0.88193,-2.92806 0.81139,-3.88056 -0.10583,-1.34055 -0.24696,-1.5875 -1.62279,-2.32833 -1.48167,-0.84667 -1.97554,-0.9525 -2.78694,-0.59972 z"
         inkscape:connector-curvature="0"
         style="stroke-width:0.03527778" />
    </g>
    <g
       id="g27707"
       transform="translate(262.31548,-21.166667)">
      <path
         id="path26646"
         d="m -20.811372,105.15292 c -1.23473,1.97555 -2.99861,7.58472 -4.19806,13.51139 -0.17639,0.88194 -0.88194,3.06917 -1.55222,4.90361 -0.67028,1.83444 -1.16417,3.45722 -1.05833,3.63361 0.3175,0.52917 1.83444,0.28222 2.08138,-0.35278 1.16417,-2.8575 2.57528,-7.09083 2.43417,-7.23194 -0.35278,-0.35278 1.05833,-0.84667 2.8575,-1.05833 0.98778,-0.10584 2.25778,-0.3175 2.8575,-0.42334 l 1.09361,-0.24694 0.56445,3.73944 c 0.70555,4.55084 1.34055,6.20889 2.36361,6.20889 0.98778,0 1.23472,-0.77611 0.59972,-2.01083 -0.28222,-0.52917 -0.59972,-1.86972 -0.74083,-2.92806 -0.38806,-2.96333 -2.99861,-15.91028 -3.45723,-17.10972 -1.05833,-2.78695 -2.32833,-2.96334 -3.84527,-0.635 z m 2.18722,2.82222 c 0.52917,1.41111 1.83444,7.90222 1.62278,8.11389 -0.10584,0.10583 -1.27,0.21167 -2.61056,0.21167 l -2.39889,0.0706 0.10584,-1.23472 c 0.24694,-2.82222 2.01083,-8.11389 2.71638,-8.11389 0.10584,0 0.35278,0.42333 0.56445,0.9525 z"
         inkscape:connector-curvature="0"
         style="stroke-width:0.03527778" />
      <path
         id="path26648"
         d="m -133.4886,105.15292 c -1.44639,0.74083 -2.29306,1.51694 -2.29306,2.11667 0,0.635 0.70556,0.56444 2.50472,-0.24695 3.10445,-1.41111 8.18445,-0.42334 9.31334,1.79917 1.72861,3.28083 -0.10584,6.06778 -9.31334,14.39333 -3.13972,2.8575 -4.62139,4.62139 -4.62139,5.57389 0,0.24695 0.3175,0.77611 0.70556,1.16417 0.9525,0.9525 4.16278,0.9525 10.44222,0 5.43278,-0.84667 7.19667,-1.44639 7.19667,-2.46945 0,-0.88194 -0.52917,-0.88194 -6.10306,-0.0353 -7.02028,1.09361 -9.41916,1.27 -9.41916,0.635 0,-0.3175 1.19944,-1.62278 2.68111,-2.96334 8.92528,-7.97278 10.19528,-9.59555 10.58333,-13.44083 0.49389,-4.69195 -2.15194,-7.12612 -7.79639,-7.12612 -1.86972,0.0353 -3.175,0.21167 -3.88055,0.59973 z"
         inkscape:connector-curvature="0"
         style="stroke-width:0.03527778" />
      <path
         id="path26652"
         d="m -7.5116521,105.85847 c -0.3175,0.81139 -0.17639,10.26584 0.24694,15.45167 0.45861,6.0325 1.44639,6.87917 3.42195,2.99861 1.12889,-2.25777 2.57528,-3.59833 3.66889,-3.45722 0.635,0.10583 0.77611,0.42333 0.91722,2.39889 0.17639,2.18722 0.98778,4.23333 1.72861,4.23333 0.81139,0 1.05833,-0.98777 0.74083,-2.8575 -0.21166,-1.05833 -0.45861,-2.50472 -0.56444,-3.28083 -0.10583,-0.74083 -0.56445,-1.72861 -1.02306,-2.18722 -1.44639,-1.44639 -3.06916,-1.05834 -5.53861,1.19944 -0.52916,0.49389 -1.05833,0.84667 -1.12889,0.74084 -0.0705,-0.0706 -0.24694,-3.38667 -0.38805,-7.37306 -0.14111,-3.98639 -0.42334,-7.51417 -0.59972,-7.86695 -0.38806,-0.77611 -1.19945,-0.77611 -1.48167,0 z"
         inkscape:connector-curvature="0"
         style="stroke-width:0.03527778" />
      <path
         id="path26654"
         d="m -105.51333,108.01042 c -1.37583,0.88194 -3.06916,3.13972 -4.02166,5.25639 -1.05834,2.36361 -2.25778,6.91444 -2.25778,8.53722 0,5.67972 4.7625,8.74889 10.54806,6.84389 4.198054,-1.34055 4.797774,-5.25639 1.305274,-8.5725 -1.270004,-1.16417 -1.411114,-1.23472 -3.845274,-1.23472 -2.8575,0.0353 -4.97417,0.84666 -4.7625,1.86972 0.14111,0.635 0.635,0.67028 4.445,0.21167 1.76389,-0.21167 1.905,-0.14111 3.10444,1.05833 2.328334,2.32833 1.023057,4.7625 -2.75167,5.08 -6.20889,0.49389 -7.65527,-5.11528 -3.4925,-13.68778 1.05834,-2.18722 3.175,-4.58611 4.05695,-4.58611 0.38805,0 0.56444,-0.21167 0.49389,-0.635 -0.14111,-0.84667 -1.65806,-0.91722 -2.82223,-0.14111 z"
         inkscape:connector-curvature="0"
         style="stroke-width:0.03527778" />
      <path
         id="path26656"
         d="m -86.67499,110.30348 c -2.928056,0.70555 -6.067779,4.58611 -7.161389,8.81944 -0.3175,1.37583 -0.3175,2.2225 0,4.1275 0.740833,4.16278 3.210277,7.05556 6.067777,7.05556 2.504723,0 6.702779,-3.66889 8.819446,-7.79639 1.023056,-1.94028 1.164166,-2.61056 1.164166,-4.72723 0,-2.8575 -1.128889,-5.43277 -2.963333,-7.02027 -1.234723,-1.02306 -3.03389,-1.16417 -5.926667,-0.45861 z m 4.93889,2.04611 c 1.058334,0.56444 2.04611,3.03389 2.04611,5.22111 0,2.61055 -0.9525,4.445 -3.845276,7.40833 -2.857503,2.96334 -4.233336,3.52778 -5.856113,2.32834 -1.481667,-1.12889 -2.39889,-3.70417 -2.187223,-6.20889 0.3175,-3.77473 3.316112,-8.21973 5.820836,-8.64306 0.740833,-0.10583 1.481666,-0.24694 1.658053,-0.3175 0.740834,-0.24694 1.658057,-0.17639 2.363613,0.21167 z"
         inkscape:connector-curvature="0"
         style="stroke-width:0.03527778" />
      <path
         id="path26658"
         d="m -69.882766,111.04431 c -2.54,1.41111 -3.35139,2.18722 -4.833057,4.58611 -2.786943,4.58611 -1.481667,10.37167 2.822223,12.59417 5.185834,2.64583 12.735277,-3.24556 13.264444,-10.40695 0.246946,-3.28083 -0.881944,-5.43278 -3.95111,-7.3025 -1.728611,-1.09361 -4.833057,-0.84666 -7.3025,0.52917 z m 6.702776,1.62278 c 1.869724,1.12889 2.610557,2.68111 2.434167,4.97416 -0.211667,2.32834 -1.199443,4.40973 -2.928054,6.10306 -2.681113,2.61056 -6.138336,3.42194 -8.078613,1.905 -1.199443,-0.9525 -2.257776,-3.24556 -2.293056,-4.90361 0,-2.96334 3.739446,-7.72584 6.138336,-7.72584 0.635,0 1.375833,-0.24694 1.622777,-0.52916 0.599723,-0.74084 1.72861,-0.67028 3.104443,0.17639 z"
         inkscape:connector-curvature="0"
         style="stroke-width:0.03527778" />
      <path
         id="path26660"
         d="m -47.234432,119.19348 c -0.49389,0.28222 -1.234722,0.49388 -1.658055,0.52916 -0.458613,0 -1.058333,0.38806 -1.340556,0.84667 -0.740834,1.09361 -1.093613,5.15055 -0.564444,6.13833 0.564444,1.05834 1.375833,0.98778 1.834444,-0.21166 1.270001,-3.10445 1.975561,-4.445 2.716391,-4.93889 1.16417,-0.77611 1.5875,-0.14111 1.76389,2.57527 0.24694,3.70417 1.34055,3.95112 3.38666,0.74084 0.9525,-1.51695 1.48167,-1.97556 2.11667,-1.97556 0.74083,0 0.88195,0.21167 1.05833,1.65806 0.38806,2.75167 0.88195,3.98639 1.62278,3.98639 1.02306,0 1.09361,-0.45861 0.67028,-3.24556 -0.38806,-2.43417 -1.02306,-4.26861 -1.65806,-4.65667 -1.19944,-0.74083 -4.30388,-0.10583 -4.30388,0.84667 0,0.21167 -0.24695,0.35278 -0.52917,0.35278 -0.28222,0 -0.52917,-0.21167 -0.52917,-0.49389 0,-0.28222 -0.42333,-0.98778 -0.91722,-1.5875 -1.02306,-1.19944 -2.2225,-1.41111 -3.66889,-0.56444 z"
         inkscape:connector-curvature="0"
         style="stroke-width:0.03527778" />
      <g
         id="g27750"
         transform="translate(-14.363095,3.7797615)">
        <path
           style="stroke-width:0.03527778"
           inkscape:connector-curvature="0"
           d="m 39.513632,185.58626 c 0,0.17639 0,0.91722 0.0353,1.69333 0,0.77611 -0.28223,3.38667 -0.70556,5.82083 -0.98778,5.99723 -1.69333,20.77862 -1.05833,22.54251 0.24694,0.70555 0.635,1.37583 0.84666,1.51694 0.70556,0.45861 2.18723,0.28222 3.88056,-0.45861 1.12889,-0.49389 2.50472,-0.74083 4.37444,-0.77611 l 2.71639,-0.0706 0.10584,2.92806 c 0.0705,2.2225 0.21166,2.96333 0.635,3.13972 0.91722,0.35278 1.30527,-0.49389 1.23472,-2.78694 0,-1.23473 0.10583,-2.43417 0.28222,-2.71639 0.21167,-0.3175 1.05833,-0.49389 2.39889,-0.52917 2.32833,-0.0353 3.38667,-0.635 3.21028,-1.72861 -0.10583,-0.635 -0.35278,-0.70556 -2.92806,-0.635 l -2.82222,0.0705 0.17639,-2.71638 c 0.21167,-3.06917 -0.21167,-4.1275 -1.30528,-3.45723 -0.49389,0.3175 -0.67028,0.9525 -0.74083,2.99861 -0.0706,1.51695 -0.28222,2.71639 -0.52917,2.8575 -0.24694,0.14112 -1.30528,0.28223 -2.36361,0.28223 -1.09361,0 -2.82222,0.24694 -3.88056,0.56444 -1.05833,0.28222 -2.39888,0.635 -2.96333,0.74083 l -1.02305,0.21167 0.21166,-8.07861 c 0.14111,-5.92667 0.45861,-9.66611 1.09361,-14.04056 0.81139,-5.3975 0.84667,-6.06777 0.38806,-6.80861 -0.52917,-0.77611 -1.19945,-1.09361 -1.27,-0.56444 z"
           id="path26696" />
        <path
           style="stroke-width:0.03527778"
           inkscape:connector-curvature="0"
           d="m 64.948912,191.79515 c -0.49389,0.24694 -0.88195,0.74083 -0.88195,1.12889 0,0.635 0.24695,0.70555 2.82223,0.74083 3.21027,0 5.18583,0.49389 6.91444,1.65805 1.79917,1.19945 1.72861,2.15195 -0.24694,4.48028 -2.2225,2.57528 -3.66889,4.90361 -3.66889,5.85611 0,1.19945 1.30527,2.54 3.63361,3.70417 3.28083,1.5875 3.42194,1.79917 2.15194,3.35139 -2.18722,2.71639 -7.97278,5.3975 -10.08944,4.65667 -0.70556,-0.24695 -1.16417,-0.24695 -1.41111,0 -0.56445,0.56444 0.28222,1.72861 1.62277,2.18722 1.5875,0.49389 4.83306,-0.52917 7.79639,-2.54 2.8575,-1.94028 3.84528,-2.92806 4.58612,-4.48028 0.88194,-2.01083 0.14111,-3.21028 -2.92806,-4.7625 -1.34056,-0.67028 -2.61056,-1.44639 -2.8575,-1.76389 -0.56445,-0.67028 -0.24695,-1.27 1.94028,-3.77472 3.91583,-4.58611 3.88055,-6.91445 -0.10584,-9.06639 -2.96333,-1.5875 -7.54944,-2.25778 -9.27805,-1.37583 z"
           id="path26698" />
        <path
           style="stroke-width:0.03527778"
           inkscape:connector-curvature="0"
           d="m 91.760022,194.33515 c -0.70555,0.84666 0.17639,1.5875 1.905,1.5875 2.89278,0 6.17361,1.65805 5.67972,2.8575 -0.10583,0.28222 -1.16416,1.19944 -2.32833,2.08139 -4.1275,3.10444 -4.1275,4.30389 -0.0706,5.99722 3.280838,1.34055 4.339168,2.18722 3.774728,3.10444 -0.21167,0.3175 -1.799168,1.5875 -3.527778,2.82223 -4.05695,2.8575 -4.445,3.21027 -4.19806,3.59833 0.49389,0.77611 1.94028,0.24694 5.15056,-1.94028 3.351388,-2.25778 4.198048,-3.24555 4.198048,-5.00944 0,-1.19945 -1.79916,-2.89278 -4.409718,-4.1275 -1.94028,-0.91723 -2.01083,-0.98778 -1.41111,-1.62278 0.3175,-0.35278 1.19945,-1.09361 1.97556,-1.62278 1.904998,-1.30528 2.892768,-2.99861 2.610548,-4.37444 -0.28222,-1.37584 -2.681108,-2.78695 -5.609158,-3.42195 -2.78695,-0.56444 -3.21028,-0.56444 -3.73945,0.0706 z"
           id="path26700" />
        <path
           style="stroke-width:0.03527778"
           inkscape:connector-curvature="0"
           d="m 110.24558,195.71098 c -0.35278,0.91722 0.45861,1.55222 2.57528,1.97556 3.4925,0.74083 4.05695,2.2225 2.18722,5.64444 -1.02306,1.83445 -1.09361,2.08139 -0.635,3.03389 0.28222,0.56444 0.98778,1.27 1.55222,1.55222 2.54001,1.30528 2.50472,1.27 1.94028,2.29306 -0.28223,0.52916 -1.62278,1.905 -2.99861,3.06916 -2.78695,2.39889 -3.24556,2.99862 -2.71639,3.52778 0.67028,0.67028 2.08139,-0.0353 4.6214,-2.39889 2.75167,-2.54 3.56304,-3.77472 3.56304,-5.36222 0,-1.16417 -0.70554,-1.94028 -2.57527,-2.71639 -0.70557,-0.28222 -1.3053,-0.70555 -1.3053,-0.88194 0,-0.17639 0.3528,-1.02306 0.8114,-1.83445 1.1289,-2.15194 1.09363,-4.83305 -0.10583,-6.10305 -1.09361,-1.16417 -2.68111,-1.83445 -4.93889,-2.15195 -1.44639,-0.17639 -1.79916,-0.14111 -1.97555,0.35278 z"
           id="path26702" />
        <path
           style="stroke-width:0.03527778"
           inkscape:connector-curvature="0"
           d="m 10.303628,203.2957 c -0.3175001,0.21167 -0.3880601,0.635 -0.24695,1.19945 l 0.21167,0.88194 6.06778,-0.0353 c 5.36222,-0.0706 6.10305,-0.14111 6.20889,-0.67027 0.14111,-0.70556 -0.38806,-0.88195 -4.33917,-1.34056 -3.88056,-0.42333 -7.23195,-0.45861 -7.90222,-0.0353 z"
           id="path26706" />
        <path
           style="stroke-width:0.03527778"
           inkscape:connector-curvature="0"
           d="m 12.737788,211.19793 c 0,1.72861 0.84667,2.11666 4.23334,1.94027 1.65805,-0.10583 3.38666,-0.38805 3.84528,-0.59972 1.51694,-0.81139 0.635,-1.27 -2.99862,-1.48167 -1.905,-0.10583 -3.84527,-0.3175 -4.26861,-0.49388 -0.70555,-0.21167 -0.81139,-0.14112 -0.81139,0.635 z"
           id="path26714" />
        <g
           transform="rotate(-2.0748683,152.29699,209.12443)"
           id="g27725">
          <path
             id="path26704"
             d="m 131.09475,197.40431 c -0.0706,0.24695 -0.21167,3.24556 -0.3175,6.63223 -0.10583,3.38666 -0.3175,7.33777 -0.42333,8.74889 -0.1764,1.83444 -0.10584,2.71638 0.21166,3.10444 0.67027,0.77611 1.86973,0.45861 2.18723,-0.56444 1.5875,-5.46806 2.01084,-6.35 3.10444,-6.35 1.02306,0 2.0461,1.86972 2.32833,4.19805 0.35277,2.8575 0.67027,3.56306 1.69334,3.56306 1.16416,0 1.4111,-0.49389 0.81139,-1.48167 -0.28223,-0.45861 -0.59973,-1.62278 -0.70556,-2.61056 -0.3175,-2.92805 -1.19944,-4.65666 -2.75167,-5.46805 -1.23473,-0.635 -1.48166,-0.635 -2.3636,-0.17639 -0.56446,0.28222 -1.19946,0.77611 -1.4464,1.05833 -0.28223,0.3175 -0.56443,0.56445 -0.70556,0.56445 -0.10584,0 -0.1411,-2.61056 -0.0705,-5.82084 0.10583,-5.75027 0.10583,-5.82083 -0.635,-5.82083 -0.42333,0 -0.8114,0.21167 -0.91723,0.42333 z"
             inkscape:connector-curvature="0"
             style="stroke-width:0.03527778" />
          <path
             id="path26710"
             d="m 145.20585,209.11654 c -2.71637,1.19944 -3.9511,4.16277 -2.9986,7.05555 0.70556,2.11667 3.21027,2.92806 5.82083,1.83445 1.86973,-0.77611 3.175,-3.95111 2.75167,-6.6675 -0.1764,-1.19945 -0.28223,-1.30528 -1.34057,-1.30528 -0.67026,0 -1.37583,-0.28222 -1.76387,-0.70556 -0.74083,-0.81139 -1.02306,-0.84666 -2.46946,-0.21166 z m 2.29307,1.94027 c 0,0.17639 0.3175,0.45862 0.70556,0.56445 1.27,0.38805 0.52917,3.03389 -1.1289,4.19805 -2.64583,1.86973 -4.2686,-1.27 -2.01083,-3.84527 1.02306,-1.12889 2.43417,-1.69334 2.43417,-0.91723 z"
             inkscape:connector-curvature="0"
             style="stroke-width:0.03527778" />
          <path
             id="path26712"
             d="m 158.01168,210.2807 c -0.3175,0.35278 -0.74083,1.27 -0.98776,2.04611 -0.24694,0.77612 -0.67027,1.86973 -0.98777,2.43417 -0.45863,0.9525 -0.56447,0.98778 -0.9525,0.42333 -0.24697,-0.3175 -0.38807,-0.91722 -0.28223,-1.27 0.35276,-1.27 -0.21167,-3.10444 -1.02307,-3.38666 -1.05833,-0.3175 -1.4111,0.45861 -1.19943,2.89278 0.17639,2.15194 0.70556,3.81 1.51693,4.62138 0.6703,0.74084 2.18723,0.52917 3.06917,-0.42333 0.8114,-0.88194 0.98779,-1.27 2.04613,-4.23333 0.2822,-0.77611 0.74083,-1.44639 1.0936,-1.51695 0.4939,-0.10583 0.59973,0.17639 0.67027,1.41111 0,0.84667 0,1.905 -0.0353,2.32834 -0.10583,1.02305 0.52917,1.83444 1.4464,1.83444 0.9172,0 1.12887,-0.74083 1.30527,-4.16278 0.0353,-0.74083 0.17639,-0.77611 2.0461,-0.70555 2.46946,0.14111 2.82223,-0.56445 0.9525,-1.76389 -1.34054,-0.84667 -2.71637,-0.98778 -4.23334,-0.42333 -0.74083,0.28222 -1.30526,0.24694 -2.32833,-0.17639 -1.65804,-0.635 -1.48167,-0.67028 -2.11667,0.0705 z"
             inkscape:connector-curvature="0"
             style="stroke-width:0.03527778" />
          <path
             id="path26716"
             d="m 170.07668,211.51543 c -0.67026,0.45861 -1.27,1.12888 -1.34053,1.44638 -0.1764,0.9525 0.84666,2.32834 2.2225,2.96334 0.67027,0.3175 1.2347,0.77611 1.2347,1.02305 0,0.24695 -0.74083,1.19945 -1.62277,2.08139 -0.88193,0.91722 -1.51693,1.83445 -1.4464,2.04611 0.0706,0.24695 0.635,0.45861 1.27,0.52917 0.9525,0.10583 1.34057,-0.10583 2.54,-1.41111 0.74084,-0.84667 1.55224,-2.04611 1.7639,-2.71639 0.38807,-1.12889 0.35277,-1.27 -0.635,-2.11667 -0.56443,-0.49389 -1.34056,-1.09361 -1.7286,-1.30527 -0.635,-0.38806 -0.635,-0.42334 -0.0353,-1.12889 0.8114,-0.88195 0.6703,-1.97556 -0.3175,-2.11667 -0.38803,-0.0706 -1.2347,0.28222 -1.905,0.70556 z"
             inkscape:connector-curvature="0"
             style="stroke-width:0.03527778" />
        </g>
        <path
           style="stroke-width:0.03527778"
           inkscape:connector-curvature="0"
           d="m 84.845582,213.70265 c -0.3175,0.84666 0,1.79916 0.635,1.905 0.70555,0.14111 1.41111,-1.05834 1.12888,-1.83445 -0.28222,-0.70555 -1.51694,-0.74083 -1.76388,-0.0705 z"
           id="path26718" />
        <g
           transform="rotate(3.088507,-64.957726,211.48718)"
           id="g27719">
          <path
             id="path26684"
             d="m -11.427482,180.96487 c -1.16417,1.05833 -3.06917,2.64583 -4.19806,3.52778 l -2.11667,1.5875 -0.67027,-1.76389 c -0.35278,-0.98778 -0.88195,-1.79917 -1.12889,-1.79917 -0.81139,0 -1.97556,2.04611 -2.99861,5.22111 -0.81139,2.50472 -1.27,3.31611 -2.46945,4.40972 -1.09361,1.02306 -1.69333,1.34056 -2.32833,1.19945 -0.45861,-0.0706 -1.12889,0.0706 -1.44639,0.3175 -0.9525,0.70555 -1.72861,0.59972 -2.15195,-0.38806 -0.52916,-1.16416 -1.79916,-1.16416 -2.89277,0 -0.56445,0.59973 -0.9525,0.77611 -1.23473,0.52917 -0.67027,-0.56444 -0.88194,0 -0.88194,2.46944 0,1.69334 0.14111,2.50473 0.52917,2.82223 0.84666,0.70555 1.37583,0.21166 1.86972,-1.62278 0.81139,-3.06917 1.83444,-3.52778 1.83444,-0.84667 0,1.65806 -0.0705,1.83445 -1.48166,2.8575 -0.84667,0.59973 -1.51695,1.23473 -1.48167,1.41111 0.10583,0.91723 0.17639,1.02306 0.81139,1.02306 0.81139,0 2.39889,-1.19944 6.42055,-4.93889 l 3.24556,-2.99861 -0.21167,1.55222 c -0.24694,1.905 -0.77611,2.54 -1.41111,1.65806 -0.42333,-0.56445 -0.49389,-0.56445 -0.91722,-0.0706 -0.59972,0.74084 -0.24694,1.62278 0.67028,1.62278 0.38805,0 1.02305,0.21167 1.41111,0.42333 1.05833,0.67028 1.72861,-0.24694 2.15194,-2.92805 0.21167,-1.23473 0.49389,-2.39889 0.635,-2.54 0.17639,-0.17639 1.05834,-0.24695 2.01084,-0.17639 l 1.72861,0.10583 0.35278,2.29306 c 0.21166,1.27 0.49388,2.50472 0.67027,2.75166 0.28223,0.45862 1.12889,0.56445 1.37584,0.14112 0.24694,-0.3175 -0.67028,-6.94973 -1.12889,-8.50195 -0.21167,-0.67028 -0.24695,-1.37583 -0.10584,-1.5875 0.14112,-0.24694 2.29306,-2.29306 4.7625,-4.62139 2.4694499,-2.29305 4.4449999,-4.33917 4.3744499,-4.55083 -0.3175,-0.9525 -1.5875,-0.45861 -3.5983299,1.41111 z m -7.9375,6.13833 c 0,0.67028 -1.12889,1.5875 -1.51695,1.19945 -0.3175,-0.35278 0.52917,-1.905 1.05833,-1.905 0.24695,0 0.45862,0.3175 0.45862,0.70555 z m 0.70555,3.35139 c 0,0.28222 -0.14111,0.52917 -0.35278,0.52917 -0.17639,0 -0.35277,-0.24695 -0.35277,-0.52917 0,-0.28222 0.17638,-0.52917 0.35277,-0.52917 0.21167,0 0.35278,0.24695 0.35278,0.52917 z"
             inkscape:connector-curvature="0"
             style="stroke-width:0.03527778" />
          <path
             id="path26686"
             d="m -97.364156,182.3407 c -2.434167,1.30528 -6.032504,7.65528 -6.702784,11.7475 -0.81139,4.86834 0.49389,9.45445 3.175,11.25361 2.081394,1.41112 6.385284,0.81139 8.607784,-1.23472 1.799166,-1.62278 2.575277,-5.43278 1.55222,-7.47889 -0.246943,-0.45861 -1.058333,-1.23472 -1.834443,-1.65805 -2.469444,-1.41111 -7.620001,-0.81139 -7.866941,0.88194 -0.14112,0.9525 0.811384,1.41111 1.763884,0.81139 1.94028,-1.19944 5.362223,-0.67028 6.279446,0.98778 1.023054,1.94028 -0.493889,4.83305 -3.069166,5.89139 -7.655284,3.21028 -9.348614,-8.50195 -2.610557,-17.78 0.635,-0.81139 1.516944,-1.69334 2.010834,-1.905 0.599723,-0.28223 0.846666,-0.635 0.77611,-1.12889 -0.14111,-0.91722 -0.881944,-1.05834 -2.081387,-0.38806 z"
             inkscape:connector-curvature="0"
             style="stroke-width:0.03527778" />
          <path
             id="path26688"
             d="m -53.125823,182.69348 c -1.023054,0.45861 -1.86972,0.98778 -1.86972,1.16417 0,0.14111 -0.846667,0.635 -1.905,1.09361 -5.856113,2.39889 -7.97278,12.52361 -3.52778,16.68639 2.469446,2.29305 6.0325,2.68111 9.56028,1.02305 5.115281,-2.43416 7.408331,-6.91444 7.126111,-14.00528 -0.10583,-2.68111 -0.28222,-3.38666 -1.02305,-4.445 -1.69334,-2.50472 -5.009451,-3.10444 -8.360841,-1.51694 z m 5.538611,1.76389 c 1.30528,0.67028 1.86973,2.39889 1.83445,5.60917 0,5.11527 -1.62278,8.07861 -5.538615,10.16 -1.481666,0.77611 -2.963333,1.30527 -3.704166,1.34055 -1.869723,0 -4.30389,-1.34055 -5.009447,-2.82222 -0.811387,-1.5875 -0.811387,-4.62139 -0.03528,-6.87917 0.811389,-2.25778 3.880556,-5.50333 4.974166,-5.22111 0.49389,0.10583 0.881944,-0.0705 1.199444,-0.59972 0.564446,-0.9525 2.892779,-2.08139 4.268613,-2.11667 0.529166,0 1.446389,0.24695 2.010835,0.52917 z"
             inkscape:connector-curvature="0"
             style="stroke-width:0.03527778" />
          <path
             id="path26690"
             d="m -120.57694,183.96348 c -2.43416,0.45861 -4.7625,1.76389 -4.90361,2.71639 -0.17639,1.19944 0.77611,1.30528 2.92806,0.28222 2.57528,-1.19944 4.83305,-1.23472 6.59694,-0.0353 0.70556,0.49389 1.37584,1.19945 1.51695,1.55223 0.56444,1.86972 -1.55223,5.96194 -5.50334,10.61861 -4.1275,4.83305 -4.69194,6.31472 -2.99861,7.65528 2.15195,1.69333 12.20611,-1.05834 12.20611,-3.35139 0,-0.59973 -0.28222,-0.52917 -4.72722,0.77611 -3.4925,1.02305 -5.85611,1.19944 -5.85611,0.42333 0,-0.28222 0.635,-1.27 1.37583,-2.2225 0.77611,-0.91722 2.29306,-2.78694 3.38667,-4.1275 3.98639,-4.86833 5.08,-8.53722 3.38667,-11.25361 -1.55223,-2.54 -4.26861,-3.63361 -7.40834,-3.03389 z"
             inkscape:connector-curvature="0"
             style="stroke-width:0.03527778" />
          <path
             id="path26692"
             d="m -11.815542,184.63376 c -0.49389,0.49389 -0.28222,12.13555 0.24694,13.08805 0.56445,1.09362 1.7991699,0.70556 2.5047299,-0.81138 1.16416,-2.43417 1.83444,-2.15195 2.2225,0.98777 0.10583,1.05834 0.52916,2.25778 0.88194,2.68111 0.59972,0.74084 0.70556,0.74084 1.19945,0.28223 0.49388,-0.45861 0.45861,-0.81139 -0.10584,-3.10445 -0.88194,-3.56305 -1.62278,-4.48028 -3.63361,-4.445 l -1.5169399,0.0706 v -3.98639 c 0,-2.82222 -0.14111,-4.1275 -0.49389,-4.55084 -0.56445,-0.67027 -0.81139,-0.70555 -1.30528,-0.21166 z"
             inkscape:connector-curvature="0"
             style="stroke-width:0.03527778" />
          <path
             id="path26694"
             d="m -77.573323,185.58626 c -0.282223,0.10583 -1.199443,0.67028 -2.04611,1.23472 -3.774723,2.57528 -6.35,12.45306 -4.30389,16.51 1.164167,2.29306 2.54,2.99861 5.644444,2.96333 4.056946,-0.0705 7.337779,-1.83444 8.819446,-4.72722 1.234723,-2.43416 1.552223,-5.43278 0.917223,-8.81944 -0.317503,-1.65806 -0.846669,-3.38667 -1.199446,-3.84528 -1.340557,-1.79917 -6.35,-3.91583 -7.831667,-3.31611 z m 4.58611,3.28083 c 2.010834,1.16417 2.469447,2.11667 2.71639,5.75028 0.246944,3.42194 -0.17639,5.00944 -1.76389,6.80861 -2.116666,2.46945 -6.596943,3.73945 -8.5725,2.46945 -2.257777,-1.48167 -2.469443,-5.67973 -0.529166,-10.44223 1.340556,-3.28083 2.010833,-4.19805 3.774723,-5.11528 1.552223,-0.84666 2.151943,-0.77611 4.374443,0.52917 z"
             inkscape:connector-curvature="0"
             style="stroke-width:0.03527778" />
          <path
             id="path26708"
             d="m -24.833042,206.32959 c -0.17639,0.0353 -2.39889,0.28222 -4.93889,0.52917 -2.50472,0.21167 -5.15055,0.59972 -5.82083,0.88194 -0.77611,0.28223 -4.33917,0.635 -9.525,0.88195 -11.888615,0.56444 -22.965838,1.37583 -34.395838,2.50472 -8.643056,0.84667 -19.579169,1.34056 -30.26834,1.41111 -6.38527,0.0353 -11.95916,0.14111 -12.45305,0.24695 -0.91722,0.17638 -1.16417,1.16416 -0.38806,1.72861 0.28222,0.24694 5.18584,0.28222 14.18167,0.0705 13.581944,-0.28222 16.968611,-0.45861 26.281947,-1.51694 12.065,-1.34056 22.295556,-2.08139 36.865281,-2.68111 5.04472,-0.24695 9.48972,-0.52917 9.87778,-0.70556 0.70555,-0.28222 12.98222,-1.05833 17.00389,-1.05833 1.94027,0 2.18722,-0.0706 2.43416,-0.77611 0.42334,-1.34056 -0.635,-1.69334 -4.7625,-1.65806 -2.04611,0 -3.88055,0.0706 -4.09222,0.14111 z"
             inkscape:connector-curvature="0"
             style="stroke-width:0.03527778" />
          <path
             id="path26720"
             d="m -17.953872,220.29959 c -4.23334,3.06917 -4.51556,3.13972 -5.36223,1.97556 -0.38805,-0.52917 -0.91722,-0.9525 -1.16416,-0.9525 -0.42334,0 -1.65806,1.905 -3.73945,5.82083 -0.56444,1.09361 -5.75027,5.08 -6.59694,5.11528 -0.24695,0 -0.74083,-0.45861 -1.05833,-1.05833 -0.77612,-1.37584 -1.55223,-1.34056 -2.71639,0.17638 l -0.91723,1.27 -1.12888,-0.9525 c -0.91723,-0.77611 -1.30528,-0.88194 -2.50473,-0.67027 -0.81139,0.10583 -1.55222,0.3175 -1.69333,0.45861 -0.42333,0.42333 -0.42333,5.36222 0,5.78555 0.59972,0.59973 1.44639,0.0706 1.69333,-1.02305 0.67028,-3.175 1.86973,-3.88056 2.29306,-1.41111 0.10583,0.74083 0.38805,1.51694 0.635,1.76389 0.3175,0.3175 -0.28222,1.05833 -2.61056,3.28083 -1.65805,1.5875 -2.99861,3.13972 -2.99861,3.45722 0,1.02306 1.41111,0.59972 3.10445,-0.9525 0.91722,-0.84667 2.89277,-2.57528 4.40972,-3.91583 2.50472,-2.15195 2.82222,-2.29306 3.21028,-1.76389 0.59972,0.77611 1.12889,0.42333 1.37583,-0.88195 0.21167,-0.9525 3.52778,-4.62138 4.19806,-4.62138 0.10583,0 0.14111,1.23472 0.0353,2.75166 -0.17639,2.25778 -0.10583,2.82222 0.38806,3.21028 0.98778,0.81139 1.62278,-0.10583 1.62278,-2.29306 0,-1.72861 0.0706,-1.94027 0.91722,-2.25777 0.49389,-0.21167 1.79917,-0.35278 2.92805,-0.35278 h 2.04612 l 0.24694,1.48167 c 0.35278,2.2225 1.55222,4.51555 2.36361,4.51555 0.81139,0 0.88195,-1.02305 0.17639,-2.43417 -0.28222,-0.52916 -0.635,-1.83444 -0.74083,-2.89277 -0.10584,-1.05834 -0.56445,-3.13973 -0.9525,-4.65667 l -0.74084,-2.78694 1.02306,-0.84667 c 0.56444,-0.45861 2.2225,-1.69333 3.70417,-2.75167 2.39888,-1.72861 3.42194,-2.96333 2.8575,-3.52778 -0.49389,-0.52916 -1.51695,-0.0353 -4.30389,1.94028 z m -4.48028,7.72584 c 0.14111,0.635 0.17639,1.27 0,1.44638 -0.14111,0.14112 -1.05833,0.3175 -2.04611,0.35278 -2.11667,0.10584 -2.18722,-0.3175 -0.3175,-2.08139 1.44639,-1.37583 1.94028,-1.34055 2.36361,0.28223 z m -14.25222,6.20888 c -0.21167,0.28223 -0.52917,0.49389 -0.70556,0.49389 -0.49389,0 -0.38805,-0.98777 0.14111,-1.16416 0.70556,-0.24695 1.02306,0.14111 0.56445,0.67027 z"
             inkscape:connector-curvature="0"
             style="stroke-width:0.03527778" />
          <path
             id="path26722"
             d="m -87.62749,220.33487 c -3.386666,1.86972 -6.879166,8.74889 -6.879166,13.58194 0,2.43417 1.09361,5.04473 2.434166,5.85612 2.716388,1.5875 7.373057,-0.17639 9.983611,-3.77473 1.128889,-1.55222 1.199446,-2.75166 0.3175,-4.23333 -1.446387,-2.50472 -4.198054,-3.28083 -6.879167,-1.97556 -1.09361,0.52917 -1.622777,0.98778 -1.622777,1.44639 0,0.98778 0.9525,1.19945 2.328333,0.52917 2.434167,-1.12889 4.374444,-0.35278 4.374444,1.76389 0,2.92805 -6.103056,6.13833 -7.79639,4.09222 -1.164166,-1.37583 -1.446387,-2.43417 -1.199443,-4.33917 0.388056,-2.92805 2.751666,-8.00805 4.7625,-10.30111 2.257779,-2.50472 2.328333,-3.84527 0.176389,-2.64583 z"
             inkscape:connector-curvature="0"
             style="stroke-width:0.03527778" />
          <path
             id="path26724"
             d="m -70.764713,222.3457 c -1.058333,0.67028 -2.54,2.61056 -3.63361,4.7625 -0.352777,0.67028 -0.529167,2.11667 -0.529167,4.23334 0,2.92805 0.105834,3.38666 1.093611,5.15055 1.375833,2.39889 2.751666,3.28084 5.185836,3.28084 2.99861,0 7.161387,-2.71639 8.501943,-5.53862 1.199444,-2.54 0.423334,-7.51416 -1.41111,-9.06638 -1.30528,-1.09362 -6.20889,-3.4925 -7.126113,-3.4925 -0.529167,0 -1.44639,0.3175 -2.08139,0.67027 z m 6.138336,3.06917 c 1.763887,0.77611 2.822221,2.04611 3.245554,4.02167 0.67028,3.10444 -0.91722,5.64444 -4.72722,7.44361 -2.504723,1.19944 -2.822223,1.23472 -4.30389,0.3175 -3.139723,-1.905 -3.386667,-6.49111 -0.599723,-11.21834 l 0.881943,-1.51694 2.187223,0.24694 c 1.199447,0.14112 2.681113,0.45862 3.316113,0.70556 z"
             inkscape:connector-curvature="0"
             style="stroke-width:0.03527778" />
        </g>
      </g>
    </g>
  </g>
</svg>
