<?xml version="1.0" encoding="UTF-8" standalone="no"?>
<!-- Created with Inkscape (http://www.inkscape.org/) -->

<svg
   xmlns:dc="http://purl.org/dc/elements/1.1/"
   xmlns:cc="http://creativecommons.org/ns#"
   xmlns:rdf="http://www.w3.org/1999/02/22-rdf-syntax-ns#"
   xmlns:svg="http://www.w3.org/2000/svg"
   xmlns="http://www.w3.org/2000/svg"
   xmlns:sodipodi="http://sodipodi.sourceforge.net/DTD/sodipodi-0.dtd"
   xmlns:inkscape="http://www.inkscape.org/namespaces/inkscape"
   width="485.11707mm"
   height="224.235mm"
   viewBox="0 0 485.11707 224.235"
   version="1.1"
   id="svg13226"
   inkscape:version="0.92.5 (2060ec1f9f, 2020-04-08)"
   sodipodi:docname="voltage.svg">
  <defs
     id="defs13220" />
  <sodipodi:namedview
     id="base"
     pagecolor="#ffffff"
     bordercolor="#666666"
     borderopacity="1.0"
     inkscape:pageopacity="0.0"
     inkscape:pageshadow="2"
     inkscape:zoom="0.35"
     inkscape:cx="801.70213"
     inkscape:cy="280.89402"
     inkscape:document-units="mm"
     inkscape:current-layer="layer1"
     showgrid="false"
     fit-margin-top="0"
     fit-margin-left="0"
     fit-margin-right="0"
     fit-margin-bottom="0"
     inkscape:window-width="1920"
     inkscape:window-height="1080"
     inkscape:window-x="1920"
     inkscape:window-y="0"
     inkscape:window-maximized="0" />
  <metadata
     id="metadata13223">
    <rdf:RDF>
      <cc:Work
         rdf:about="">
        <dc:format>image/svg+xml</dc:format>
        <dc:type
           rdf:resource="http://purl.org/dc/dcmitype/StillImage" />
        <dc:title></dc:title>
      </cc:Work>
    </rdf:RDF>
  </metadata>
  <g
     inkscape:label="Layer 1"
     inkscape:groupmode="layer"
     id="layer1"
     transform="translate(100.43949,1.0817854)">
    <path
       style="stroke-width:0.03527778"
       inkscape:connector-curvature="0"
       d="M -62.180049,-0.65845205 C -63.167826,0.29404792 -65.63727,5.832659 -70.25866,17.297937 c -2.434166,5.997222 -5.256388,12.911665 -6.244166,15.345832 -2.363611,5.750279 -5.326944,14.569723 -6.702777,20.108333 -1.234723,5.009444 -2.363612,8.784167 -2.786945,9.489723 -0.599722,0.9525 -0.987778,0.03528 -1.834444,-4.268613 -0.458611,-2.398887 -0.881945,-3.986387 -0.9525,-3.527777 -0.07056,0.458611 0.03528,1.305277 0.246944,1.905 0.423333,1.234724 0.529167,3.35139 0.141111,2.963334 -0.176389,-0.14111 -0.458611,-1.41111 -0.670278,-2.786944 -1.763888,-11.465277 -3.069166,-18.27389 -4.762499,-25.25889 -0.599723,-2.434166 -1.164167,-4.72722 -1.234723,-5.115276 -0.07055,-0.352777 -0.282222,-0.846667 -0.493888,-1.093611 -0.211667,-0.246945 -0.282223,-0.670278 -0.141112,-0.987778 0.105834,-0.282222 -0.07055,-1.27 -0.352777,-2.151945 -0.3175,-0.881944 -0.705556,-2.434166 -0.917223,-3.457222 -1.128888,-6.067777 -1.375833,-7.619999 -1.340555,-8.5724994 0,-0.846667 0.07056,-0.740834 0.3175,0.4938884 0.352778,1.763889 0.670278,2.293056 0.670278,1.058334 -0.03528,-2.8575006 -0.705556,-7.5847227 -1.164167,-7.9022227 -0.246944,-0.1763887 -0.564444,-0.635 -0.705555,-1.0230554 -0.211667,-0.5291666 -0.352778,-0.5644446 -0.811389,-0.1763889 -0.458615,0.3527776 -0.529165,0.8466666 -0.352775,2.187222 0.14111,0.9525 0.388053,3.4925 0.599719,5.609167 0.352778,4.303889 0.987778,7.690555 2.257778,12.453055 1.940278,7.196666 4.515555,18.661945 5.326944,23.812499 1.905,11.782777 2.892778,16.263057 4.233333,18.944167 1.023056,2.116666 1.375834,2.575277 2.081389,2.575277 0.458611,0 0.917222,-0.141111 1.023056,-0.3175 0.352778,-0.564444 2.681111,-8.784167 3.951111,-13.934721 1.622778,-6.561666 3.880555,-13.335 7.090833,-21.343056 1.481667,-3.63361 3.81,-9.489721 5.221111,-13.088055 3.280833,-8.325555 5.891389,-14.3227774 7.231943,-16.580555 1.234723,-2.11666668 1.27,-2.50472218 0.388057,-3.31611105 -0.599723,-0.56444445 -0.705557,-0.56444445 -1.234723,0 z M -98.480881,5.3740477 c -0.105833,0.3527779 -0.176389,0.1411113 -0.176389,-0.4233334 0,-0.599722 0.07056,-0.8466664 0.176389,-0.635 0.07056,0.2469447 0.07056,0.7408334 0,1.0583334 z m 2.116667,17.8152773 c -0.105834,0.282223 -0.211667,0.176389 -0.211667,-0.211666 -0.03528,-0.388056 0.07056,-0.599722 0.176389,-0.458611 0.105833,0.105833 0.141111,0.423333 0.03528,0.670277 z"
       id="path12459" />
    <path
       style="stroke-width:0.03527778"
       inkscape:connector-curvature="0"
       d="m -32.264493,39.064325 c -0.35278,0.529167 -1.234723,7.373057 -1.023056,7.725834 0.105833,0.14111 -0.529167,0.529166 -1.375834,0.846666 -0.881943,0.352777 -1.658056,0.846667 -1.76389,1.12889 -0.28222,0.670277 0.388057,1.86972 1.058334,1.86972 0.776113,0 1.058333,1.093613 0.881946,3.421944 -0.17639,2.010833 -0.17639,2.010833 -0.423333,0.635 -0.17639,-1.27 -0.211667,-1.199444 -0.282223,0.81139 -0.03528,2.751666 0.635,4.409723 2.151943,5.362223 2.328333,1.41111 6.420557,0.59972 7.408333,-1.516946 0.98778,-2.081387 0.105834,-2.54 -2.36361,-1.305277 -3.774723,1.940277 -5.432777,0.07056 -4.62139,-5.185834 0.141113,-1.023053 0.458613,-2.010833 0.705557,-2.2225 0.246943,-0.176387 1.72861,-0.705553 3.245556,-1.164166 2.54,-0.705554 2.786944,-0.846667 2.786944,-1.658054 0,-0.846667 -0.105833,-0.881946 -2.293057,-0.98778 -1.27,-0.07055 -2.434166,-0.246943 -2.575276,-0.388053 -0.141111,-0.141113 -0.03528,-1.76389 0.246943,-3.563057 0.423333,-2.39889 0.458613,-3.421943 0.17639,-3.774723 -0.49389,-0.564443 -1.5875,-0.59972 -1.940277,-0.03528 z m -1.375833,18.626667 c 0.352777,0.388054 0.45861,0.705554 0.246943,0.705554 -0.211666,0 -0.564443,-0.3175 -0.77611,-0.705554 -0.211667,-0.388057 -0.3175,-0.705557 -0.246946,-0.705557 0.07056,0 0.423333,0.3175 0.776113,0.705557 z"
       id="path12461" />
    <path
       style="stroke-width:0.03527778"
       inkscape:connector-curvature="0"
       d="m -90.896159,41.463215 c 0,0.493887 0.07056,0.670277 0.176389,0.423333 0.07056,-0.211666 0.07056,-0.635 0,-0.881946 -0.105833,-0.211667 -0.176389,-0.03528 -0.176389,0.458613 z"
       id="path12463" />
    <path
       style="stroke-width:0.03527778"
       inkscape:connector-curvature="0"
       d="m -45.387826,42.697935 c -0.599723,1.30528 -1.058334,4.7625 -1.305277,9.70139 -0.246946,4.339167 -0.211667,4.445 0.77611,6.35 0.846667,1.622777 1.199444,1.975554 2.469444,2.398887 1.305279,0.423334 1.763889,0.388057 3.457223,-0.07055 2.04611,-0.599724 3.351387,-1.693334 3.351387,-2.751667 0,-1.023057 -0.917221,-1.12889 -2.645834,-0.3175 -2.081387,0.9525 -3.386664,0.9525 -4.339164,-0.07056 -0.670279,-0.705556 -0.776112,-1.234723 -0.776112,-3.457223 0,-3.45722 0.599723,-8.99583 1.128889,-10.44222 0.3175,-0.881944 0.3175,-1.234723 -0.03528,-1.658057 -0.705556,-0.846666 -1.622779,-0.670276 -2.081389,0.3175 z m 0.176389,9.242777 c -0.07056,0.564447 -0.141112,0.105834 -0.141112,-0.952497 0,-1.058333 0.07056,-1.516946 0.141112,-0.98778 0.07055,0.564447 0.07055,1.411113 0,1.940277 z"
       id="path12465" />
    <path
       style="stroke-width:0.03527778"
       inkscape:connector-curvature="0"
       d="m -62.95616,45.520159 c -0.670277,0.670276 -1.340556,1.234723 -1.481666,1.234723 -0.141111,0 0.07056,-0.246947 0.423333,-0.529167 0.388056,-0.282223 0.599723,-0.599723 0.529167,-0.67028 -0.388057,-0.388053 -2.504723,2.08139 -3.457223,3.98639 -2.54,5.009444 -1.799167,9.807221 1.869723,12.276667 1.446389,0.987777 2.010833,1.164167 3.81,1.164167 5.009443,0 8.360833,-3.951113 8.678333,-10.230557 0.211667,-5.08 -0.881944,-6.879167 -4.515556,-7.3025 -1.058334,-0.105833 -2.151944,-0.423333 -2.398888,-0.705554 -0.846666,-0.811389 -2.151946,-0.529166 -3.457223,0.776111 z m 3.210277,1.5875 c 0.458613,0.529166 1.093613,0.705556 2.328334,0.705556 2.116666,0 2.54,0.635 2.54,3.880554 0,1.975556 -0.176388,2.71639 -1.164167,4.515556 -1.446387,2.751667 -3.104444,3.95111 -5.432777,3.95111 -1.516944,0 -1.869723,-0.14111 -3.069167,-1.375833 -1.27,-1.234723 -1.375833,-1.516943 -1.375833,-3.280833 0,-2.328334 1.375833,-5.326944 3.4925,-7.62 1.552223,-1.693334 1.799167,-1.763887 2.68111,-0.77611 z m -5.468054,1.305276 c -0.423333,0.740834 -1.093612,2.610557 -1.446389,4.162777 l -0.670277,2.822223 0.14111,-2.293056 c 0.17639,-2.328331 1.622777,-5.99722 2.36361,-5.99722 0.211667,0 0.03528,0.599723 -0.388054,1.305276 z"
       id="path12467" />
    <path
       style="stroke-width:0.03527778"
       inkscape:connector-curvature="0"
       d="m -89.837826,47.813215 c 0,0.493887 0.211667,1.975554 0.458611,3.351387 0.246945,1.340557 0.458612,1.975557 0.493889,1.41111 0,-0.59972 -0.211666,-2.081387 -0.458611,-3.351387 -0.282222,-1.27 -0.493889,-1.905 -0.493889,-1.41111 z"
       id="path12469" />
    <path
       style="stroke-width:0.03527778"
       inkscape:connector-curvature="0"
       d="m -16.953939,49.824048 c -5.997221,5.432777 -2.398887,14.710831 4.198056,10.830277 1.375834,-0.81139 1.658057,-0.846666 2.751667,-0.458613 2.1519431,0.81139 4.1627771,-0.564443 2.9986101,-1.975553 -0.246943,-0.282224 -0.811387,-0.529167 -1.27,-0.529167 -1.164167,0 -1.340554,-0.529167 -0.846667,-2.786946 0.35278,-1.763887 0.35278,-2.187221 -0.14111,-3.139721 -0.670277,-1.305277 -1.0230561,-1.552223 -1.7638901,-1.27 -0.9525,0.352777 -1.622776,2.081387 -1.622776,4.162777 0,1.834444 -0.07056,1.975557 -1.481667,3.175 -0.81139,0.705557 -1.658057,1.27 -1.905,1.27 -1.234723,0 -1.940277,-2.8575 -1.058333,-4.480277 0.881943,-1.728613 2.54,-3.175 3.915833,-3.421943 0.987777,-0.211667 1.234723,-0.423334 1.234723,-1.023057 0,-1.164166 -0.67028,-1.658056 -2.187223,-1.658056 -1.058333,0 -1.658057,0.282223 -2.822223,1.305279 z"
       id="path12471" />
    <path
       style="stroke-width:0.03527778"
       inkscape:connector-curvature="0"
       d="m 2.6957801,49.965159 c -2.96333004,0.423333 -3.63360904,0.811389 -4.409719,2.54 -0.846667,1.834443 -0.881944,3.4925 -0.14111,5.67972 0.91721996,2.681113 2.53999896,3.386667 5.679719,2.469446 0.77611,-0.211666 0.77611,-0.17639 0.59972,2.716387 -0.3175,5.43278 -1.30527,9.2075 -2.78694,10.689167 -0.52917,0.529167 -0.56445,0.67028 -0.14111,0.917223 0.635,0.423333 1.27,-0.17639 2.25778,-2.08139 1.62277,-3.245553 2.29305,-7.196666 2.82222,-16.615833 0.10583,-2.04611 0.28222,-4.056944 0.38805,-4.480277 0.21167,-0.811387 -0.91722,-2.257777 -1.69333,-2.18722 -0.24694,0.03528 -1.41111,0.176387 -2.57528,0.352777 z m -1.05833,2.081387 c 0.10583,0.176389 0.9525,0.352779 1.83444,0.352779 1.48167,0 1.5875,0.07055 1.37584,0.77611 -0.10584,0.458611 -0.21167,1.164167 -0.21167,1.5875 0,0.881944 -2.29306,3.633611 -2.99861,3.633611 -0.74083004,0 -1.94028004,-1.763887 -1.94028004,-2.8575 0,-1.164167 0.98778,-3.845277 1.41111004,-3.845277 0.17639,0 0.42334,0.141113 0.52917,0.352777 z"
       id="path12473" />
    <path
       style="stroke-width:0.03527778"
       inkscape:connector-curvature="0"
       d="m 14.79606,50.988215 c -1.44639,1.128887 -2.50472,3.704164 -2.18722,5.432777 0.49389,3.104443 2.08139,4.445 5.22111,4.445 1.76389,0 3.73944,-1.12889 3.73944,-2.116667 0,-0.670279 -0.14111,-0.705556 -2.39889,-0.49389 -2.2225,0.211667 -2.46944,0.17639 -3.42194,-0.635 -0.81139,-0.705556 -1.02306,-1.164166 -0.98778,-2.187223 0.0353,-1.622777 1.05834,-3.351387 2.57528,-4.339164 l 1.16417,-0.811389 h -1.41111 c -0.88195,0 -1.76389,0.282223 -2.29306,0.705556 z"
       id="path12475" />
    <path
       style="stroke-width:0.03527778"
       inkscape:connector-curvature="0"
       d="m 17.30078,52.857935 c -0.81139,0.635 -1.76389,2.2225 -1.48166,2.469444 0.45861,0.49389 3.10444,0.211667 3.84527,-0.388054 0.98778,-0.776113 1.34056,-1.869723 0.77611,-2.257779 -0.67027,-0.423334 -2.50472,-0.3175 -3.13972,0.176389 z"
       id="path12477" />
    <path
       style="stroke-width:0.03527778"
       inkscape:connector-curvature="0"
       d="m -3.3014389,71.696269 c 0.3175,1.76389 2.116666,5.25639 2.82222296,5.53861 0.740836,0.282223 2.11666604,0.282223 2.39888604,0 0.10583,-0.105833 -0.42333,-0.846667 -1.16417004,-1.622777 -0.77611,-0.77611 -1.481662,-1.72861 -1.622773,-2.151943 -0.31749996,-1.023057 -1.90499996,-3.069167 -2.32833296,-3.069167 -0.211667,0 -0.282223,0.493887 -0.105833,1.305277 z"
       id="path12483" />
    <path
       style="stroke-width:0.03527778"
       inkscape:connector-curvature="0"
       d="m -54.29651,81.525612 c -0.617156,0.992148 -0.989138,10.12213 -0.60583,14.946544 0.351767,4.752104 0.540487,9.919594 0.710233,20.173044 0.256466,15.34495 0.456816,22.31468 0.698266,23.77569 0.161581,0.96226 0.09703,2.19529 -0.21966,3.5211 -0.270395,1.11628 -0.442289,3.05022 -0.402995,4.32401 0.117506,2.47899 0.263618,7.78554 0.451245,15.67309 0.03782,2.65143 0.233545,6.33559 0.421323,8.14704 0.189621,1.77624 0.372054,4.36459 0.441046,5.74592 0.194438,5.733 1.148456,15.85088 1.543547,16.40146 0.163238,0.25583 0.891993,0.50594 1.596584,0.54282 0.704589,0.0369 1.822714,0.27205 2.482853,0.48324 4.405914,1.53771 15.686928,2.65818 23.54846,2.29256 1.841159,-0.0803 7.036499,-0.1262 11.486486,-0.1052 4.483372,0.0581 9.4710207,-0.0694 11.1378793,-0.1941 1.66869243,-0.15992 3.8973747,-0.21988 4.9561118,-0.19978 l 1.902395,0.0996 0.3792394,3.55246 c 0.433295,4.54442 0.6057549,4.6241 5.4591085,1.6635 5.144419,-3.12198 5.952665,-3.71554 6.210153,-4.58522 0.38346,-1.25166 -1.818309,-4.40497 -4.828334,-6.96472 -1.454004,-1.24187 -2.631707,-2.36332 -2.657718,-2.5413 0.02766,-0.52845 -1.2590413,-0.24254 -2.323121,0.51425 -0.9917716,0.72526 -1.1511311,1.07017 -1.4027055,3.17656 l -0.3015603,2.38639 -3.0055753,0.0546 c -1.6631598,0.0542 -4.4258211,0.19221 -6.1983649,0.31138 -1.7373115,0.121 -4.6001254,0.14776 -6.3616033,0.0555 -1.7262457,-0.0904 -6.9215877,-0.0444 -11.4864847,0.1052 -12.702732,0.39478 -16.75044,0.11223 -25.40437,-1.93048 l -3.348839,-0.81119 -0.258425,-2.48635 c -0.106066,-1.34794 -0.349924,-4.78734 -0.519448,-7.6223 -0.169523,-2.83496 -0.446953,-6.98263 -0.647828,-9.21869 -0.165647,-2.23422 -0.357679,-5.98884 -0.412102,-8.32321 -0.05443,-2.33436 -0.155711,-6.47282 -0.225077,-9.19656 -0.24205,-10.22191 -0.152244,-13.96177 0.340968,-13.93595 0.211377,0.0111 0.415378,0.16305 0.404312,0.37442 -0.0332,0.63413 2.903765,0.5406 6.194678,-0.24092 6.07939,-1.41272 5.830939,-1.3904 11.772008,-0.1609 7.865784,1.57753 17.804202,2.02717 27.9462449,1.28637 4.04382888,-0.3182 8.0821266,-0.5307 8.9628706,-0.48459 l 1.6205509,0.0848 -0.079094,2.18608 c -0.1254116,2.39561 0.1387309,5.44748 0.4725855,5.81822 0.4006298,0.44488 2.6903539,-0.10645 3.937959,-0.99494 0.732249,-0.49155 2.23199,-1.47283 3.364679,-2.1907 2.521211,-1.59899 3.288512,-2.75991 3.108104,-4.71229 -0.100343,-0.78242 -0.298993,-1.71131 -0.490087,-2.10989 -0.445263,-0.94179 -6.3686391,-5.2084 -7.2846048,-5.25635 -1.1273463,-0.059 -2.2932322,1.29299 -2.5171421,2.87094 l -0.1794667,1.40365 -3.0166407,0.26598 c -15.9008657,1.42845 -24.0517977,1.24903 -34.0499847,-0.75807 -6.851503,-1.38314 -6.957192,-1.38868 -13.413042,-0.20762 -2.354657,0.44195 -4.777931,0.84498 -5.382367,0.91932 l -1.101336,0.11897 -0.07859,-2.54759 c -0.03192,-1.41471 -0.216381,-4.63905 -0.402503,-7.15694 -0.184277,-2.55313 -0.356021,-6.69527 -0.401225,-9.20578 -0.06624,-4.80782 -0.180625,-9.37087 -0.595322,-20.34368 -0.172122,-5.484541 -0.228766,-9.126094 -0.153564,-18.660198 0.01825,-1.023501 -1.212934,-1.12328 -1.794861,-0.12929 z"
       id="path12485" />
    <g
       id="g13927"
       transform="rotate(-3.8316531,61.78012,360.52218)">
      <path
         id="path12487"
         d="m 46.33439,127.04709 c -2.04611,1.09362 -2.54,1.69334 -2.29305,2.89278 0.0705,0.52917 0.21166,5.715 0.21166,11.53584 l 0.0706,10.58333 0.77611,0.10583 c 0.59972,0.10584 0.91722,-0.14111 1.16417,-0.81139 0.28222,-0.70555 0.52916,-0.88194 0.98777,-0.70555 1.69334,0.635 3.91584,0.88194 5.29167,0.56444 1.94028,-0.42333 2.89278,-1.05833 4.48028,-2.99861 2.2225,-2.75167 2.08139,-6.985 -0.38806,-9.70139 -1.41111,-1.5875 -1.44639,-1.76389 -0.49389,-3.28083 0.88195,-1.44639 0.9525,-4.69195 0.17639,-5.82083 -0.635,-0.91723 -2.57527,-2.15195 -4.1275,-2.61056 -2.36361,-0.74083 -4.09222,-0.67028 -5.85611,0.24694 z m 4.83306,1.94028 c 2.01083,0.42334 3.56305,1.48167 3.56305,2.39889 0,0.35278 -0.38805,1.41111 -0.88194,2.36361 -1.41111,2.78695 -1.19945,3.84528 1.34055,6.80861 0.88195,1.02306 1.02306,1.41111 0.84667,2.75167 -0.24694,2.39889 -2.46944,4.79778 -4.65667,5.04472 -0.38805,0.0353 -1.5875,0.0706 -2.68111,0.0353 l -2.01083,-0.0353 -0.0353,-8.85472 c 0,-4.83306 -0.10583,-8.96056 -0.21166,-9.13694 -0.21167,-0.35278 1.79916,-1.76389 2.54,-1.76389 0.24694,0 1.23472,0.17639 2.18722,0.38805 z"
         inkscape:connector-curvature="0"
         style="stroke-width:0.03527778" />
      <path
         id="path12489"
         d="m 66.05467,136.67793 c -0.67028,0.42333 -0.17639,1.76389 0.77611,2.11666 1.55222,0.59973 2.2225,-0.91722 0.88194,-1.86972 -0.91722,-0.635 -0.98777,-0.67028 -1.65805,-0.24694 z"
         inkscape:connector-curvature="0"
         style="stroke-width:0.03527778" />
      <path
         id="path12491"
         d="m 98.58078,138.30071 c -3.81,1.65805 -3.88056,4.93888 -0.14111,7.9375 1.72861,1.41111 2.08139,2.29305 1.23472,3.21027 -0.91722,1.02306 -2.15194,0.84667 -2.78694,-0.42333 -0.77611,-1.44639 -2.08139,-1.34056 -2.2225,0.24694 -0.14111,1.44639 1.86972,3.31612 3.56305,3.31612 2.08139,0 4.1275,-1.72862 4.69195,-3.98639 0.21166,-0.88195 -0.0353,-1.23473 -2.32834,-3.42195 -2.11666,-2.04611 -2.50472,-2.57528 -2.39889,-3.42194 0.0706,-0.81139 0.45862,-1.16417 2.15195,-2.01084 1.83444,-0.91722 1.97555,-1.05833 1.41111,-1.48166 -0.81139,-0.59972 -1.76389,-0.59972 -3.175,0.0353 z"
         inkscape:connector-curvature="0"
         style="stroke-width:0.03527778" />
      <path
         id="path12493"
         d="m 130.9305,141.58154 c 0,0.38805 0.24695,0.88194 0.52917,1.12889 0.74083,0.635 1.65805,0.17639 1.51694,-0.77611 -0.14111,-1.09361 -2.04611,-1.41111 -2.04611,-0.35278 z"
         inkscape:connector-curvature="0"
         style="stroke-width:0.03527778" />
      <path
         id="path12495"
         d="m 64.60828,142.21654 c -0.21167,0.52917 -0.3175,2.46944 -0.28222,4.33917 0.10583,3.175 0.14111,3.38666 0.88194,3.4925 0.98778,0.14111 1.16417,-0.49389 1.27,-5.04473 0.0706,-3.42194 0.0353,-3.52777 -0.70555,-3.63361 -0.59972,-0.10583 -0.91722,0.14111 -1.16417,0.84667 z"
         inkscape:connector-curvature="0"
         style="stroke-width:0.03527778" />
      <path
         id="path12497"
         d="m 74.66245,142.39293 c -2.2225,1.97555 -2.8575,4.19805 -1.76389,6.27944 0.49389,1.02306 2.2225,2.64584 3.06916,2.92806 0.35278,0.14111 0.3175,0.70555 -0.21166,2.78694 -1.12889,4.51556 -2.50472,6.45583 -4.33917,6.24417 -0.74083,-0.0706 -1.16417,-0.45861 -1.69333,-1.41111 -0.74084,-1.37584 -1.79917,-1.76389 -2.15195,-0.81139 -0.3175,0.81139 1.16417,3.45722 2.43417,4.30389 1.5875,1.09361 2.75167,1.12889 4.23333,0.10583 1.62278,-1.09361 2.96334,-3.21028 3.63361,-5.64444 0.28223,-1.05834 0.98778,-3.38667 1.51695,-5.11528 0.56444,-1.76389 1.09361,-4.40972 1.23472,-5.89139 0.17639,-2.50472 0.14111,-2.75167 -0.56444,-3.24556 -0.84667,-0.59972 -1.69334,-0.21166 -1.69334,0.74084 0,0.28222 -0.24694,1.62278 -0.59972,2.96333 -0.635,2.71639 -1.16417,3.03389 -2.57528,1.55222 -0.74083,-0.77611 -0.77611,-0.9525 -0.35277,-1.94027 0.24694,-0.59973 0.98777,-1.51695 1.62277,-2.01084 1.37584,-1.02305 1.48167,-1.51694 0.56445,-2.32833 -0.84667,-0.77611 -0.91722,-0.77611 -2.36361,0.49389 z"
         inkscape:connector-curvature="0"
         style="stroke-width:0.03527778" />
      <path
         id="path12499"
         d="m 109.76384,142.60459 c -2.25778,0.35278 -2.43417,0.45862 -3.35139,2.50473 -0.74084,1.55222 -0.91723,2.36361 -0.77611,3.59833 0.38805,3.66889 4.51555,4.7625 7.54944,2.04611 0.77611,-0.70555 0.77611,-0.70555 1.55222,0.0353 0.84667,0.77611 2.57528,0.98778 2.96334,0.35278 0.14111,-0.21167 -0.0706,-0.70556 -0.45862,-1.12889 -1.16416,-1.30528 -1.48166,-2.2225 -1.48166,-4.30389 0,-1.55222 -0.14111,-2.01083 -0.59972,-2.15195 -0.35278,-0.10583 -1.05834,-0.42333 -1.5875,-0.70555 -0.88195,-0.49389 -1.94028,-0.56445 -3.81,-0.24695 z m 3.52777,2.92806 c 0,1.19944 -1.69333,3.52778 -3.03389,4.16278 -1.19944,0.56444 -1.27,0.56444 -1.76388,-0.10584 -0.59973,-0.81138 -0.635,-1.72861 -0.10584,-2.68111 0.9525,-1.79916 4.90361,-2.89277 4.90361,-1.37583 z"
         inkscape:connector-curvature="0"
         style="stroke-width:0.03527778" />
      <path
         id="path12501"
         d="m 119.74745,143.83932 c -0.56445,0.77611 0.35277,6.70277 1.27,7.97277 1.86972,2.64584 3.175,1.79917 5.67972,-3.63361 1.55222,-3.38666 1.79917,-4.16277 1.37583,-4.445 -1.37583,-0.88194 -2.2225,0.0353 -4.05694,4.51556 -0.59972,1.51694 -1.05834,1.94028 -1.12889,1.05833 -0.14111,-1.5875 -1.27,-5.04472 -1.76389,-5.43278 -0.77611,-0.56444 -0.9525,-0.56444 -1.37583,-0.0353 z"
         inkscape:connector-curvature="0"
         style="stroke-width:0.03527778" />
      <path
         id="path12503"
         d="m 136.99828,145.99126 c -0.59972,0.70556 -1.5875,6.42056 -1.34056,7.47889 0.38806,1.51694 1.55223,1.12889 2.36362,-0.81139 1.12888,-2.71639 1.55222,-3.42194 2.11666,-3.52778 0.42334,-0.0705 0.67028,0.38806 0.98778,2.01084 0.49389,2.46944 1.37583,3.81 2.32833,3.45722 0.635,-0.28222 0.59973,-1.19945 -0.21166,-5.43278 -0.45861,-2.25778 -1.5875,-3.31611 -3.45723,-3.21028 -0.70555,0 -1.51694,-0.0705 -1.83444,-0.21166 -0.3175,-0.14111 -0.74083,-0.0353 -0.9525,0.24694 z"
         inkscape:connector-curvature="0"
         style="stroke-width:0.03527778" />
      <path
         id="path12505"
         d="m 130.613,146.52043 c -0.17639,0.3175 -0.42333,1.905 -0.56444,3.52778 -0.24695,2.50472 -0.17639,2.89277 0.3175,3.10444 1.09361,0.42333 1.55222,-0.49389 1.79916,-3.63361 0.21167,-2.36361 0.17639,-3.06917 -0.21166,-3.31611 -0.70556,-0.45861 -0.9525,-0.38806 -1.34056,0.3175 z"
         inkscape:connector-curvature="0"
         style="stroke-width:0.03527778" />
      <path
         id="path12507"
         d="m 157.70634,147.04959 c -1.37584,0.74084 -1.55223,0.98778 -1.65806,2.2225 -0.10583,1.30528 0,1.44639 1.34056,2.2225 0.77611,0.42334 1.41111,0.98778 1.41111,1.23473 0,0.70555 -1.19945,1.62277 -2.61056,2.01083 -1.905,0.52917 -1.48167,2.08139 0.56445,2.08139 1.79916,0 3.81,-1.44639 4.83305,-3.42195 0.49389,-0.98777 -0.24694,-2.36361 -1.76389,-3.13972 -1.34055,-0.67028 -1.27,-1.09361 0.21167,-1.69333 1.27,-0.52917 1.55222,-1.16417 0.81139,-1.905 -0.635,-0.635 -1.41111,-0.52917 -3.13972,0.38805 z"
         inkscape:connector-curvature="0"
         style="stroke-width:0.03527778" />
      <path
         id="path12509"
         d="m 147.79328,148.24904 c -1.27,1.44639 -2.04611,3.45722 -2.04611,5.32694 0,1.65806 0.14111,2.04611 1.05833,2.89278 1.05834,0.98778 1.05834,1.05833 0.59972,2.18722 -1.905,4.445 -3.13972,6.63222 -3.81,6.63222 -0.17638,0 -0.635,-0.67027 -1.05833,-1.51694 -0.9525,-1.86972 -0.98778,-1.905 -1.37583,-1.30528 -0.84667,1.30528 -0.0706,4.23334 1.23472,4.93889 2.54,1.34056 6.59694,-3.56305 9.2075,-11.1125 0.52917,-1.55222 1.27,-3.13972 1.62278,-3.56305 0.635,-0.70556 0.635,-0.77611 -0.28222,-2.39889 -1.37584,-2.43417 -3.91584,-3.45722 -5.15056,-2.08139 z m 2.61056,2.43417 c -0.28223,1.44638 -1.12889,2.96333 -1.62278,2.96333 -0.77611,0 -0.70556,-1.34056 0.14111,-2.75167 0.77611,-1.23472 1.65805,-1.37583 1.48167,-0.21166 z"
         inkscape:connector-curvature="0"
         style="stroke-width:0.03527778" />
    </g>
    <g
       id="g13913"
       transform="rotate(-3.6223035,75.051656,459.59334)">
      <path
         id="path12511"
         d="m 48.66273,178.69376 c -0.49389,0.14111 -1.55223,0.635 -2.29306,1.02306 l -1.34056,0.77611 0.10584,11.88861 c 0.10583,9.70139 0.21166,11.99444 0.635,12.41777 0.42333,0.42334 0.56444,0.42334 1.09361,-0.10583 0.52917,-0.52917 0.59972,-1.76389 0.59972,-11.88861 l 0.0353,-11.32417 1.30528,-0.38805 c 1.34055,-0.38806 4.69194,0.0353 6.42055,0.81139 1.65806,0.77611 4.79778,6.70278 4.79778,9.06639 0,4.62138 -4.1275,12.3825 -7.3025,13.68777 -0.635,0.28223 -2.11667,0.49389 -3.31611,0.49389 -2.43417,0 -2.64583,0.49389 -0.635,1.48167 4.86833,2.36361 11.43,-3.88056 13.22917,-12.59417 0.70555,-3.35139 0.49388,-4.97416 -0.91723,-8.39611 -1.83444,-4.40972 -3.52777,-5.85611 -7.9375,-6.80861 -2.39889,-0.52917 -3.13972,-0.56444 -4.48027,-0.14111 z"
         inkscape:connector-curvature="0"
         style="stroke-width:0.03527778" />
      <path
         id="path12513"
         d="m 157.6005,186.8782 c -0.88194,1.34056 -2.54,5.29167 -2.96333,7.02028 -0.24695,0.88195 -0.74083,3.98639 -1.12889,6.87917 -1.09361,7.83166 -1.12889,7.86694 -2.61056,5.32694 -1.23472,-2.11666 -1.905,-5.29166 -2.50472,-12.10028 -0.49389,-5.57388 -0.70555,-6.45583 -1.69333,-6.49111 -0.14111,0 -0.42333,0.38806 -0.635,0.84667 -0.28222,0.635 -0.24695,2.2225 0.17639,6.24417 1.05833,9.525 2.08139,13.05277 4.62139,15.5575 1.34055,1.30527 2.08139,1.5875 2.8575,1.05833 0.77611,-0.49389 1.51694,-3.4925 1.905,-7.86694 0.81139,-8.78417 1.23472,-10.75973 2.82222,-13.40556 0.81139,-1.30528 1.41111,-2.68111 1.34055,-3.03389 -0.17638,-0.98778 -1.55222,-0.98778 -2.18722,-0.0353 z"
         inkscape:connector-curvature="0"
         style="stroke-width:0.03527778" />
      <path
         id="path12515"
         d="m 174.74551,187.93654 c -0.4939,1.05833 -2.89279,13.86416 -2.89279,15.52222 0,1.48167 0.635,3.42194 1.37583,4.16278 0.635,0.67027 3.56306,0.67027 4.7978,0 1.30526,-0.70556 0.98776,-1.62278 -0.52917,-1.51695 -1.905,0.14111 -2.68113,-0.14111 -3.10446,-1.12889 -0.49387,-1.05833 -0.35277,-2.25777 0.81139,-8.29027 1.23474,-6.42056 1.4464,-8.81945 0.84667,-9.2075 -0.70556,-0.45861 -0.84667,-0.38806 -1.30527,0.45861 z"
         inkscape:connector-curvature="0"
         style="stroke-width:0.03527778" />
      <path
         id="path12517"
         d="m 184.27051,190.12376 c -0.21166,0.42333 -0.8114,2.64583 -1.37583,4.97417 l -1.02307,4.23333 -1.12889,0.10583 c -0.91721,0.10584 -1.12887,0.28222 -1.12887,0.9525 0,0.635 0.24693,0.91722 0.9172,1.09361 0.84667,0.21167 0.88196,0.3175 0.6703,2.04611 -0.28224,2.2225 0.2822,4.65667 1.2347,5.15056 1.05833,0.56444 2.99863,0.42333 3.63363,-0.28222 0.9525,-1.02306 0.70554,-1.44639 -0.88196,-1.55222 l -1.51694,-0.10584 -0.10583,-1.72861 c -0.1764,-2.8575 0.0353,-3.28083 2.2225,-3.88055 2.15193,-0.635 3.42193,-1.905 2.43416,-2.43417 -0.28223,-0.17639 -1.16416,-0.21167 -1.94026,-0.0706 -1.65807,0.28223 -1.6228,0.38806 -0.6703,-3.91583 0.9525,-4.26861 0.91723,-4.97417 -0.1411,-5.15055 -0.635,-0.14112 -0.9525,0.0353 -1.19944,0.56444 z"
         inkscape:connector-curvature="0"
         style="stroke-width:0.03527778" />
      <path
         id="path12519"
         d="m 69.26495,194.56876 c -1.72861,0.38805 -3.56306,1.79917 -4.33917,3.24555 -1.44639,2.78695 -0.52917,6.73806 1.79917,7.9375 1.23472,0.635 4.05694,0.59973 4.58611,-0.0705 0.635,-0.77611 0.17639,-1.16417 -1.86972,-1.5875 -1.48167,-0.28222 -2.01084,-0.59972 -2.46945,-1.37583 -1.19944,-2.04612 -0.45861,-2.8575 2.64583,-2.8575 1.23473,0 2.25778,-0.24695 3.03389,-0.70556 1.02306,-0.635 1.16417,-0.88194 1.05834,-2.01083 -0.10584,-1.12889 -0.3175,-1.44639 -1.51695,-2.11667 -0.77611,-0.45861 -1.48166,-0.77611 -1.5875,-0.77611 -0.10583,0.0353 -0.70555,0.17639 -1.34055,0.3175 z m 1.16416,2.11667 c 0.35278,0.56444 -0.52916,1.41111 -1.44639,1.41111 -1.05833,0 -1.09361,-0.45861 -0.0353,-1.16417 0.9525,-0.67028 1.19944,-0.70556 1.48166,-0.24694 z"
         inkscape:connector-curvature="0"
         style="stroke-width:0.03527778" />
      <path
         id="path12521"
         d="m 247.13551,196.12098 c -0.42333,1.09361 0,1.79917 1.0936,1.79917 0.74084,0 1.09361,-0.17639 1.16417,-0.67028 0.24694,-1.19944 -1.83443,-2.2225 -2.25777,-1.12889 z"
         inkscape:connector-curvature="0"
         style="stroke-width:0.03527778" />
      <path
         id="path12523"
         d="m 77.87272,196.68543 c -4.51555,2.96333 -2.75166,10.54805 2.15195,9.31333 1.94028,-0.45861 1.86972,-1.27 -0.14111,-1.905 -1.83445,-0.56445 -2.50472,-1.62278 -2.11667,-3.24556 0.35278,-1.37583 1.72861,-2.75166 2.82222,-2.75166 0.70556,0 0.9525,-0.17639 0.9525,-0.70556 0,-1.41111 -2.04611,-1.79917 -3.66889,-0.70555 z"
         inkscape:connector-curvature="0"
         style="stroke-width:0.03527778" />
      <path
         id="path12525"
         d="m 85.70439,197.46154 c -0.67028,0.52916 -1.79917,5.92666 -1.62278,7.69055 0.0706,1.05834 0.24695,1.23472 1.09361,1.34056 0.84667,0.10583 1.05834,-0.0706 1.65806,-1.41111 0.35278,-0.84667 0.88194,-2.32834 1.12889,-3.28084 0.24694,-0.98777 0.59972,-1.86972 0.77611,-1.97555 0.17639,-0.14111 1.05833,-0.35278 1.97556,-0.45861 1.97555,-0.24695 2.78694,-0.98778 2.11666,-1.79917 -0.56444,-0.67028 -6.27944,-0.74083 -7.12611,-0.10583 z"
         inkscape:connector-curvature="0"
         style="stroke-width:0.03527778" />
      <path
         id="path12527"
         d="m 96.67578,198.59043 c -2.64583,0.91722 -4.90361,3.45722 -4.90361,5.43277 0,2.61056 1.69333,3.73945 5.18583,3.52778 2.32834,-0.14111 3.175,-0.56444 2.82222,-1.48167 -0.17638,-0.42333 -0.74083,-0.56444 -2.29305,-0.56444 -2.39889,0 -3.35139,-0.52917 -3.175,-1.79917 0.10583,-0.74083 0.3175,-0.88194 2.04611,-1.05833 1.05833,-0.14111 2.25778,-0.35278 2.64583,-0.49389 1.97556,-0.77611 2.57528,-2.54 1.16417,-3.4925 -0.9525,-0.67028 -1.79917,-0.67028 -3.4925,-0.0705 z"
         inkscape:connector-curvature="0"
         style="stroke-width:0.03527778" />
      <path
         id="path12529"
         d="m 105.67161,198.69626 -1.09361,0.52917 -0.0705,3.24555 c -0.0353,2.61056 0.10583,3.42195 0.67027,4.33917 0.88195,1.48166 2.64584,1.86972 4.62139,0.98778 1.12889,-0.52917 1.55223,-0.56445 2.29306,-0.24695 1.12889,0.52917 2.36361,0.52917 2.89278,0 0.67027,-0.67028 0.49389,-1.30528 -0.45861,-1.55222 -1.02306,-0.24695 -1.30528,-0.98778 -1.23473,-3.24556 0.10584,-2.75166 0.0706,-2.8575 -1.19944,-3.38666 -0.635,-0.28223 -1.30528,-0.67028 -1.41111,-0.88195 -0.35278,-0.56444 -3.73945,-0.42333 -5.00945,0.21167 z m 5.11528,2.43417 c 0.28222,0.28222 -0.67028,2.89277 -1.41111,3.81 -0.81139,1.05833 -1.44639,1.16416 -2.2225,0.35277 -0.81139,-0.81139 -0.70556,-1.62277 0.52917,-3.28083 0.91722,-1.30528 1.19944,-1.48167 2.01083,-1.27 0.52917,0.14111 1.02306,0.28222 1.09361,0.38806 z"
         inkscape:connector-curvature="0"
         style="stroke-width:0.03527778" />
      <path
         id="path12531"
         d="m 162.32772,198.90793 c -1.83444,0.635 -2.89277,2.68111 -2.71638,5.22111 0.17638,1.94027 0.88194,3.77472 1.94027,4.97416 0.84667,0.98778 3.52777,0.84667 4.97417,-0.24694 2.82223,-2.04611 3.88057,-5.25639 2.6811,-7.9375 -1.02303,-2.29306 -3.7747,-3.06917 -6.87916,-2.01083 z m 3.59833,2.08138 c 1.5875,1.27 1.41113,3.175 -0.49387,5.11528 -1.72862,1.76389 -2.75168,1.48167 -3.28084,-0.88194 -0.38806,-1.86972 0.0706,-3.52778 1.16416,-4.1275 1.19945,-0.635 1.90501,-0.67028 2.61055,-0.10584 z"
         inkscape:connector-curvature="0"
         style="stroke-width:0.03527778" />
      <path
         id="path12533"
         d="m 118.83022,199.93098 c -2.18722,1.27 -2.18722,3.175 -0.0705,5.53861 0.67028,0.74084 1.23472,1.51695 1.23472,1.72861 0,0.49389 -0.88194,0.77611 -2.29305,0.77611 -0.67028,0 -1.30528,0.17639 -1.41112,0.35278 -0.38805,0.635 0.81139,2.11667 1.69334,2.11667 1.19944,-0.0353 3.59833,-1.23472 4.26861,-2.15195 1.02305,-1.48166 0.74083,-2.64583 -1.02306,-3.91583 -0.84666,-0.635 -1.55222,-1.41111 -1.5875,-1.76389 0,-0.3175 0.56445,-0.91722 1.27,-1.30528 1.23473,-0.74083 1.27,-0.77611 0.67028,-1.44638 -0.81139,-0.88195 -1.09361,-0.88195 -2.75167,0.0705 z"
         inkscape:connector-curvature="0"
         style="stroke-width:0.03527778" />
      <path
         id="path12535"
         d="m 194.07772,200.17793 c -1.09361,0.42333 -1.83444,1.02305 -2.71637,2.29305 -1.02307,1.48167 -1.16417,1.97556 -1.16417,3.88056 0,2.50472 0.88193,4.30389 2.29304,4.65666 1.37583,0.35278 3.175,-0.14111 3.98639,-1.09361 0.8114,-0.9525 1.30527,-1.09361 1.65807,-0.52916 0.10583,0.17638 0.67027,0.35277 1.2347,0.35277 0.56447,0 1.1289,0.14111 1.23473,0.35278 0.35277,0.59972 0.88194,0.38806 0.88194,-0.35278 0,-0.35277 -0.56444,-1.23472 -1.2347,-1.905 -1.19947,-1.19944 -1.23474,-1.30527 -1.02307,-3.35139 0.24694,-2.04611 0.21167,-2.11666 -0.67027,-2.32833 -0.635,-0.17639 -0.9525,-0.52917 -1.02306,-1.16417 -0.1411,-1.23472 -1.4464,-1.55222 -3.45723,-0.81138 z m 2.61056,3.81 c -0.24693,1.79916 -1.55223,4.23333 -2.50473,4.58611 -0.9172,0.35277 -1.8697,-1.12889 -1.62277,-2.46945 0.24694,-1.30528 0.91723,-2.2225 2.3989,-3.10444 1.69333,-1.05834 1.94027,-0.88195 1.7286,0.98778 z"
         inkscape:connector-curvature="0"
         style="stroke-width:0.03527778" />
      <path
         id="path12537"
         d="m 127.93189,200.24848 c -0.56444,0.17639 -1.51694,0.70556 -2.08139,1.16417 -0.88194,0.74083 -1.05833,1.16416 -1.19944,2.92805 -0.10584,1.72861 0,2.25778 0.70555,3.28084 1.41111,2.08139 4.79778,2.64583 6.70278,1.05833 1.09361,-0.88194 0.49389,-1.41111 -1.62278,-1.41111 -1.30527,0 -2.15194,-0.21167 -2.68111,-0.635 -1.09361,-0.88195 -0.70555,-1.34056 1.27,-1.62278 3.56306,-0.45861 5.00945,-2.43417 3.13972,-4.26861 -0.91722,-0.9525 -2.29305,-1.09361 -4.23333,-0.49389 z m 1.94028,2.08139 c 0,0.42333 -0.98778,0.88194 -1.27,0.59972 -0.3175,-0.3175 0.21167,-0.9525 0.77611,-0.9525 0.28222,0 0.49389,0.17639 0.49389,0.35278 z"
         inkscape:connector-curvature="0"
         style="stroke-width:0.03527778" />
      <path
         id="path12539"
         d="m 204.66105,202.47098 c -1.7286,0.9525 -2.61054,2.64583 -2.75167,5.15056 -0.10583,2.04611 0,2.39889 0.77613,3.31611 0.49387,0.56444 0.91721,1.12889 0.91721,1.30528 0,0.14111 0.3175,0.17638 0.70556,0.0705 0.4586,-0.10583 0.70557,0 0.70557,0.28222 0,0.88195 -0.74084,3.28084 -1.65807,5.32695 -0.70556,1.62278 -1.05833,2.04611 -1.69333,2.04611 -0.7761,0 -1.23473,-0.59972 -1.23473,-1.62278 0,-0.28222 -0.24694,-1.09361 -0.52917,-1.79917 -0.4586,-1.05833 -0.5997,-1.16416 -1.05833,-0.81138 -0.59971,0.49388 -0.70554,2.71638 -0.17637,4.62138 0.81137,2.92806 3.21026,3.70417 5.18583,1.62278 1.79917,-1.86972 2.3636,-3.28083 5.11527,-12.41778 1.905,-6.42055 1.905,-6.59694 -0.3175,-7.02027 -0.635,-0.10584 -1.5875,-0.28223 -2.11667,-0.38806 -0.56443,-0.10583 -1.37583,0.0353 -1.86973,0.3175 z m 2.61056,2.25778 c 0.28224,0.45861 -0.81139,3.84528 -1.4111,4.30389 -0.70556,0.635 -1.55223,-0.17639 -1.55223,-1.48167 0,-0.74083 0.35277,-1.37583 1.0936,-2.08139 1.1289,-1.05833 1.55223,-1.23472 1.86973,-0.74083 z"
         inkscape:connector-curvature="0"
         style="stroke-width:0.03527778" />
      <path
         id="path12541"
         d="m 248.19385,202.40043 c -0.3175,0.49388 -1.05834,7.9375 -0.91724,8.99583 0.0706,0.56444 0.35277,0.81139 0.9525,0.81139 0.70557,0 0.84667,-0.24695 1.19944,-2.2225 0.21167,-1.19945 0.4939,-3.4925 0.635,-5.11528 l 0.21167,-2.89278 h -0.91721 c -0.4939,0 -1.02306,0.17639 -1.16416,0.42334 z"
         inkscape:connector-curvature="0"
         style="stroke-width:0.03527778" />
      <path
         id="path12543"
         d="m 268.23161,203.03543 c -2.89279,2.08138 -4.09223,5.00944 -3.28083,8.04333 0.52917,1.905 1.65804,2.68111 3.59833,2.43417 1.65804,-0.21167 3.06917,-1.27 2.36361,-1.72862 -0.24694,-0.14111 -0.9525,-0.28222 -1.5875,-0.28222 -0.59973,0 -1.37584,-0.24694 -1.65807,-0.56444 -0.67027,-0.635 -0.74083,-2.32834 -0.17637,-3.42195 0.70554,-1.37583 2.50471,-3.03389 3.56304,-3.24555 0.52917,-0.14111 0.98779,-0.45861 0.98779,-0.70556 0,-1.86972 -1.65806,-2.11666 -3.81,-0.52916 z"
         inkscape:connector-curvature="0"
         style="stroke-width:0.03527778" />
      <path
         id="path12545"
         d="m 256.30772,203.21181 c -0.35277,0.28223 -1.23471,0.52917 -1.94027,0.52917 -0.70557,0 -1.4464,0.21167 -1.62277,0.42333 -0.56446,0.74084 -1.34057,6.94973 -0.91723,7.37306 0.91723,0.91722 1.97556,0.14111 3.3161,-2.32833 0.74083,-1.37584 1.55223,-2.46945 1.79917,-2.46945 0.635,0 1.34056,1.55222 1.34056,2.92806 0,1.51694 0.56444,2.54 1.4111,2.54 0.91723,0 1.19944,-0.59972 1.1289,-2.43417 -0.1764,-3.31611 -1.94027,-7.09083 -3.3514,-7.09083 -0.24693,0 -0.7761,0.24694 -1.16416,0.52916 z"
         inkscape:connector-curvature="0"
         style="stroke-width:0.03527778" />
      <path
         id="path12547"
         d="m 274.26411,204.0232 c -0.42333,0.59973 -0.77612,1.79917 -0.91723,3.24556 -0.1411,1.27 -0.35277,3.13972 -0.4586,4.1275 -0.21167,1.83444 -0.21167,1.86972 0.67027,1.86972 1.19944,0 1.94027,-1.09361 2.3989,-3.73944 0.21166,-1.12889 0.4586,-2.43417 0.52916,-2.8575 0.10584,-0.49389 0.49388,-0.88195 1.02304,-0.98778 0.4939,-0.10583 1.27,-0.24695 1.7639,-0.35278 0.4939,-0.10583 0.88194,-0.42333 0.88194,-0.70555 0,-0.67028 -1.02304,-1.05834 -3.38667,-1.34056 -1.65804,-0.17639 -1.86971,-0.14111 -2.50471,0.74083 z"
         inkscape:connector-curvature="0"
         style="stroke-width:0.03527778" />
      <path
         id="path12549"
         d="m 215.24438,204.48181 c -1.37583,0.56445 -3.1397,2.04612 -3.70416,3.13973 -0.70554,1.37583 -0.67027,3.56305 0.10583,4.90361 0.9878,1.72861 2.3989,2.29305 5.22113,2.08139 2.64583,-0.17639 4.02167,-0.81139 4.02167,-1.76389 0,-0.56445 -0.38807,-0.635 -3.13974,-0.635 -3.3161,0 -3.66889,-0.17639 -4.09223,-1.79917 -0.21166,-0.91722 -0.17637,-0.91722 2.01084,-1.09361 3.24556,-0.28222 5.92666,-1.79917 5.92666,-3.42194 0,-0.21167 -0.3175,-0.70556 -0.70553,-1.09362 -0.56447,-0.56444 -1.16417,-0.70555 -2.7164,-0.67027 -1.1289,0 -2.43417,0.17639 -2.92807,0.35277 z"
         inkscape:connector-curvature="0"
         style="stroke-width:0.03527778" />
      <path
         id="path12551"
         d="m 333.24855,205.2932 c -2.46944,1.12889 -4.86833,4.65667 -4.6214,6.77334 0.0706,0.56444 0.14113,1.44639 0.1764,1.97555 0.0353,0.59972 0.56444,1.51695 1.37583,2.39889 1.19944,1.23472 1.55223,1.41111 2.92807,1.41111 2.25777,-0.0353 5.3975,-1.41111 5.5386,-2.43416 0.10583,-0.77612 0.0353,-0.81139 -1.23473,-0.59973 -4.33917,0.67028 -4.1275,0.70556 -5.32694,-0.3175 -0.98777,-0.81139 -1.16416,-1.16416 -1.05833,-2.25777 l 0.10583,-1.27 1.79917,0.10583 c 1.4111,0.10583 2.2225,-0.0706 3.59833,-0.77611 1.94027,-0.98778 2.54,-1.72861 2.54,-3.175 0,-1.86972 -3.38666,-2.92806 -5.82083,-1.83445 z m 2.92806,2.75167 c 0.0705,0.42333 -0.21166,0.67028 -1.12889,0.81139 -1.905,0.38805 -2.78694,-0.56445 -1.16417,-1.23472 1.1289,-0.45861 2.15194,-0.28223 2.29306,0.42333 z m -4.23333,1.55222 c -0.24696,0.52917 -0.4939,0.74084 -0.56446,0.52917 -0.0705,-0.24695 0.0706,-0.635 0.28223,-0.91722 0.635,-0.77611 0.74083,-0.635 0.28223,0.38805 z"
         inkscape:connector-curvature="0"
         style="stroke-width:0.03527778" />
      <path
         id="path12553"
         d="m 280.64938,206.63376 c -1.905,1.30528 -2.61056,2.36361 -2.61056,4.05694 0,1.97556 0.59973,2.92806 2.36363,3.70417 1.8697,0.81139 4.7625,0.70556 5.715,-0.24694 0.81137,-0.81139 0.10583,-1.23473 -2.46946,-1.44639 -1.65804,-0.14111 -2.39888,-0.35278 -2.8575,-0.88195 -1.02304,-1.19944 -0.45861,-1.62278 2.25779,-1.79916 2.08137,-0.10584 2.57527,-0.28223 3.13971,-0.9525 1.44639,-1.76389 0.28223,-3.56306 -2.29304,-3.56306 -1.16417,0 -1.97557,0.28222 -3.24557,1.12889 z"
         inkscape:connector-curvature="0"
         style="stroke-width:0.03527778" />
      <path
         id="path12555"
         d="m 292.85549,205.75181 c -2.08138,0.3175 -3.35138,1.16417 -3.98638,2.68112 -0.74083,1.83444 -0.77612,2.78694 -0.0706,4.1275 0.8114,1.55222 1.7639,1.905 5.64444,1.97555 2.64583,0.0706 3.73946,-0.0705 4.37446,-0.45861 0.81137,-0.52917 0.84666,-0.56444 0.21166,-1.02306 -0.35279,-0.28222 -0.9525,-0.49388 -1.30529,-0.49388 -0.98777,0 -1.12887,-0.84667 -0.49387,-2.71639 0.84666,-2.46945 0.74083,-3.59834 -0.3528,-3.98639 -0.88193,-0.35278 -2.32833,-0.38806 -4.02166,-0.10584 z m 1.76389,2.82223 c 0,0.67027 -0.7761,2.92805 -0.98777,2.96333 -1.34056,0.21167 -2.57529,0.17639 -2.75166,-0.0706 -0.3528,-0.635 0.2822,-1.79916 1.37583,-2.46944 1.12887,-0.67028 2.3636,-0.88194 2.3636,-0.42333 z"
         inkscape:connector-curvature="0"
         style="stroke-width:0.03527778" />
      <path
         id="path12557"
         d="m 341.39772,207.79793 c -1.1289,2.68111 -1.05834,8.64305 0.10583,8.64305 1.55223,-0.0353 2.92806,-2.15194 3.21027,-4.93889 l 0.1764,-1.905 1.5875,-0.28222 c 3.45723,-0.635 4.5861,-1.05833 4.5861,-1.72861 0,-0.81139 0.42333,-0.74083 -4.86833,-0.81139 l -4.37444,-0.0706 z"
         inkscape:connector-curvature="0"
         style="stroke-width:0.03527778" />
      <path
         id="path12559"
         d="m 303.01549,207.40987 c -2.18721,0.59972 -2.75167,1.12889 -2.75167,2.50472 0,0.88195 0.3175,1.44639 1.41113,2.43417 0.7761,0.70555 1.4111,1.34055 1.4111,1.44639 0,0.3175 -1.62277,1.02305 -2.82223,1.23472 -1.34054,0.21167 -1.79917,1.05833 -1.02304,1.97556 0.88194,1.05833 4.55083,-0.0706 5.92667,-1.83445 1.30527,-1.65805 0.635,-3.91583 -1.37584,-4.55083 -1.09362,-0.35278 -0.84666,-0.81139 0.74084,-1.27 1.5875,-0.49389 2.0461,-1.09361 1.37583,-1.905 -0.52917,-0.635 -0.70556,-0.635 -2.89279,-0.0353 z"
         inkscape:connector-curvature="0"
         style="stroke-width:0.03527778" />
      <path
         id="path12561"
         d="m 352.33382,207.69209 c -0.24694,0.45861 -0.7761,2.36361 -1.0936,4.26861 -0.70557,3.81 -0.56444,4.37445 0.98777,3.81 0.70556,-0.28222 1.05833,-0.81139 1.51696,-2.39889 0.35277,-1.12888 0.7761,-2.2225 0.9172,-2.43416 0.14113,-0.21167 1.05834,-0.49389 2.04613,-0.59972 3.70417,-0.45862 4.02167,-1.72862 0.56444,-2.15195 -1.05834,-0.14111 -2.18723,-0.49389 -2.54,-0.74083 -0.98777,-0.74084 -1.83444,-0.635 -2.3989,0.24694 z"
         inkscape:connector-curvature="0"
         style="stroke-width:0.03527778" />
      <path
         id="path12563"
         d="m 312.08188,208.04487 c -0.56443,0.21167 -1.44639,0.74083 -1.94027,1.19944 -0.49389,0.42334 -1.30529,0.9525 -1.83446,1.16417 -0.98777,0.38806 -1.34054,1.51695 -0.635,1.97556 0.21167,0.10583 0.3528,0.77611 0.3528,1.44639 0,1.62277 0.88193,3.28083 1.97554,3.66888 2.54,0.98778 6.24416,-0.0705 5.64446,-1.5875 -0.1764,-0.52916 -0.4939,-0.59972 -2.11667,-0.38805 -1.55223,0.17639 -1.97556,0.10583 -2.46946,-0.45861 -0.35277,-0.38806 -0.56444,-1.05834 -0.49387,-1.48167 0.0705,-0.67028 0.38804,-0.88194 1.69333,-1.09361 2.9986,-0.52917 4.40971,-2.57528 2.8575,-4.1275 -0.8114,-0.81139 -1.4464,-0.88194 -3.0339,-0.3175 z"
         inkscape:connector-curvature="0"
         style="stroke-width:0.03527778" />
      <path
         id="path12565"
         d="m 362.49382,208.11543 c -0.59971,0.28222 -1.5875,1.09361 -2.18721,1.83444 -0.9525,1.12889 -1.12889,1.65806 -1.12889,3.21028 0,1.5875 0.1411,1.97555 1.19943,3.06916 0.635,0.70556 1.48167,1.27 1.83446,1.30528 2.46944,0.14111 4.72721,-0.9525 5.57388,-2.71639 0.81139,-1.72861 0.77612,-5.50333 -0.0353,-6.20889 -0.91723,-0.77611 -3.91584,-1.05833 -5.2564,-0.49388 z m 3.31613,2.39888 c 0.7761,0.77612 0.49387,2.54 -0.59973,3.73945 -1.23473,1.30528 -1.86973,1.41111 -2.8575,0.42333 -1.05834,-1.05833 -0.9525,-2.92805 0.21166,-3.84528 1.05834,-0.81138 2.61057,-0.9525 3.24557,-0.3175 z"
         inkscape:connector-curvature="0"
         style="stroke-width:0.03527778" />
      <path
         id="path12567"
         d="m 371.45438,208.7857 c -0.635,0.49389 -2.18723,7.12611 -1.83443,7.72584 0.2822,0.42333 1.83443,0.35277 2.11666,-0.10584 0.14111,-0.24694 0.49388,-1.48166 0.81138,-2.75166 l 0.56446,-2.32834 2.29304,-0.52916 c 2.32833,-0.56445 3.24556,-1.48167 1.86973,-1.905 -1.7639,-0.49389 -5.2564,-0.56445 -5.82084,-0.10584 z"
         inkscape:connector-curvature="0"
         style="stroke-width:0.03527778" />
      <path
         id="path12569"
         d="m 380.16799,209.20904 c -1.65804,0.59972 -2.99861,2.01083 -2.99861,3.13972 0,1.05833 1.51694,2.57528 2.8575,2.8575 0.70557,0.17639 1.02307,0.45861 1.02307,0.91722 0,0.84667 -1.1289,1.5875 -3.45723,2.25778 -1.83444,0.56444 -2.2225,1.05833 -1.41111,1.86972 0.67027,0.67028 2.18721,0.49389 4.23334,-0.42333 2.1872,-0.9525 3.70416,-2.43417 4.1275,-4.02167 0.42333,-1.41111 -0.10584,-2.01083 -2.18723,-2.54 -2.15194,-0.56444 -2.36361,-0.635 -2.36361,-1.02305 0,-0.49389 1.37584,-1.19945 2.82221,-1.44639 1.02306,-0.14111 1.23473,-0.35278 1.23473,-1.05834 0,-0.74083 -0.1764,-0.88194 -1.23473,-0.9525 -0.67027,-0.0705 -1.86971,0.14111 -2.64583,0.42334 z"
         inkscape:connector-curvature="0"
         style="stroke-width:0.03527778" />
    </g>
  </g>
</svg>
